%TF.GenerationSoftware,KiCad,Pcbnew,(7.0.0)*%
%TF.CreationDate,2024-03-25T14:13:36+01:00*%
%TF.ProjectId,kicad_tsuru,6b696361-645f-4747-9375-72752e6b6963,rev?*%
%TF.SameCoordinates,Original*%
%TF.FileFunction,Profile,NP*%
%FSLAX46Y46*%
G04 Gerber Fmt 4.6, Leading zero omitted, Abs format (unit mm)*
G04 Created by KiCad (PCBNEW (7.0.0)) date 2024-03-25 14:13:36*
%MOMM*%
%LPD*%
G01*
G04 APERTURE LIST*
%TA.AperFunction,Profile*%
%ADD10C,0.100000*%
%TD*%
G04 APERTURE END LIST*
D10*
X152827292Y-44862486D02*
X152827288Y-43981222D01*
X141956946Y-45612446D02*
G75*
G03*
X142706946Y-44862482I54J749946D01*
G01*
X48647322Y-45612592D02*
G75*
G03*
X43884822Y-50375090I8J-4762508D01*
G01*
X143806871Y-62281250D02*
G75*
G03*
X143453318Y-62427704I29J-500050D01*
G01*
X143841547Y-81572995D02*
G75*
G03*
X144548629Y-81573018I353553J353595D01*
G01*
X152675896Y-63920740D02*
G75*
G03*
X152529459Y-64274304I353604J-353560D01*
G01*
X143004462Y-64274304D02*
G75*
G03*
X142858004Y-63920750I-499962J4D01*
G01*
X152771218Y-63118330D02*
X152080592Y-62427704D01*
X152771234Y-63825452D02*
G75*
G03*
X152771217Y-63118331I-353534J353552D01*
G01*
X150985247Y-81573067D02*
G75*
G03*
X151692387Y-81573033I353553J353467D01*
G01*
X144997503Y-81331237D02*
G75*
G03*
X144643941Y-81477704I-3J-499963D01*
G01*
X142706946Y-43981226D02*
X142706946Y-44862482D01*
X152383027Y-80882421D02*
G75*
G03*
X152529459Y-80528854I-353527J353521D01*
G01*
X150889966Y-81477720D02*
X150985280Y-81573034D01*
X152077288Y-43231226D02*
X143456946Y-43231226D01*
X143004445Y-80528854D02*
G75*
G03*
X143150898Y-80882406I500355J154D01*
G01*
X142858004Y-63920750D02*
X142762691Y-63825437D01*
X143004451Y-80528854D02*
X143004451Y-64274304D01*
X43884822Y-95618858D02*
G75*
G03*
X48647322Y-100381358I4762538J38D01*
G01*
X143841516Y-81573026D02*
X143150897Y-80882407D01*
X152529459Y-64274304D02*
X152529459Y-80528854D01*
X142762692Y-63118330D02*
X143453318Y-62427704D01*
X43884822Y-95618858D02*
X43884822Y-50375090D01*
X251649900Y-50374982D02*
X251649408Y-95618750D01*
X48647322Y-45612590D02*
X141956946Y-45612482D01*
X152827318Y-44862486D02*
G75*
G03*
X153577292Y-45612482I749982J-14D01*
G01*
X246886908Y-100381250D02*
X48647322Y-100381358D01*
X144643941Y-81477704D02*
X144548630Y-81573019D01*
X142762708Y-63118346D02*
G75*
G03*
X142762691Y-63825437I353492J-353554D01*
G01*
X150889965Y-81477721D02*
G75*
G03*
X150536414Y-81331273I-353565J-353579D01*
G01*
X150536414Y-81331273D02*
X144997503Y-81331251D01*
X153577292Y-45612482D02*
X246887400Y-45612482D01*
X143456946Y-43231246D02*
G75*
G03*
X142706946Y-43981226I-46J-749954D01*
G01*
X152675906Y-63920750D02*
X152771219Y-63825437D01*
X152080602Y-62427694D02*
G75*
G03*
X151727039Y-62281258I-353602J-353706D01*
G01*
X151692387Y-81573033D02*
X152383013Y-80882407D01*
X251649918Y-50374982D02*
G75*
G03*
X246887400Y-45612482I-4762418J82D01*
G01*
X143806871Y-62281258D02*
X151727039Y-62281258D01*
X246886908Y-100381208D02*
G75*
G03*
X251649408Y-95618750I-108J4762608D01*
G01*
X152827274Y-43981222D02*
G75*
G03*
X152077288Y-43231226I-749974J22D01*
G01*
M02*
