%TF.GenerationSoftware,KiCad,Pcbnew,(7.0.0)*%
%TF.CreationDate,2024-03-03T14:48:37+01:00*%
%TF.ProjectId,kicad_tsuru,6b696361-645f-4747-9375-72752e6b6963,rev?*%
%TF.SameCoordinates,Original*%
%TF.FileFunction,Legend,Top*%
%TF.FilePolarity,Positive*%
%FSLAX46Y46*%
G04 Gerber Fmt 4.6, Leading zero omitted, Abs format (unit mm)*
G04 Created by KiCad (PCBNEW (7.0.0)) date 2024-03-03 14:48:37*
%MOMM*%
%LPD*%
G01*
G04 APERTURE LIST*
%ADD10C,0.200000*%
G04 APERTURE END LIST*
D10*
X241925572Y-86093778D02*
G75*
G03*
X242206204Y-85977507I-72J396978D01*
G01*
X234185446Y-87609763D02*
X234186301Y-86490626D01*
X242206205Y-85977508D02*
X243677463Y-84506250D01*
X243893674Y-84416657D02*
G75*
G03*
X243677464Y-84506251I26J-305743D01*
G01*
X245300508Y-84506255D02*
G75*
G03*
X245084302Y-84416692I-216108J-215945D01*
G01*
X234583177Y-86093801D02*
G75*
G03*
X234186301Y-86490626I-77J-396799D01*
G01*
X234583177Y-86093750D02*
X241925572Y-86093750D01*
X245300513Y-84506250D02*
X245516724Y-84722461D01*
X245084302Y-84416692D02*
X243893674Y-84416692D01*
X235095148Y-87368392D02*
X235047529Y-87416011D01*
X235047529Y-87416011D02*
X234904672Y-87463630D01*
X234904672Y-87463630D02*
X234809434Y-87463630D01*
X234809434Y-87463630D02*
X234666577Y-87416011D01*
X234666577Y-87416011D02*
X234571339Y-87320773D01*
X234571339Y-87320773D02*
X234523720Y-87225535D01*
X234523720Y-87225535D02*
X234476101Y-87035059D01*
X234476101Y-87035059D02*
X234476101Y-86892202D01*
X234476101Y-86892202D02*
X234523720Y-86701726D01*
X234523720Y-86701726D02*
X234571339Y-86606488D01*
X234571339Y-86606488D02*
X234666577Y-86511250D01*
X234666577Y-86511250D02*
X234809434Y-86463630D01*
X234809434Y-86463630D02*
X234904672Y-86463630D01*
X234904672Y-86463630D02*
X235047529Y-86511250D01*
X235047529Y-86511250D02*
X235095148Y-86558869D01*
X235952291Y-87463630D02*
X235952291Y-86939821D01*
X235952291Y-86939821D02*
X235904672Y-86844583D01*
X235904672Y-86844583D02*
X235809434Y-86796964D01*
X235809434Y-86796964D02*
X235618958Y-86796964D01*
X235618958Y-86796964D02*
X235523720Y-86844583D01*
X235952291Y-87416011D02*
X235857053Y-87463630D01*
X235857053Y-87463630D02*
X235618958Y-87463630D01*
X235618958Y-87463630D02*
X235523720Y-87416011D01*
X235523720Y-87416011D02*
X235476101Y-87320773D01*
X235476101Y-87320773D02*
X235476101Y-87225535D01*
X235476101Y-87225535D02*
X235523720Y-87130297D01*
X235523720Y-87130297D02*
X235618958Y-87082678D01*
X235618958Y-87082678D02*
X235857053Y-87082678D01*
X235857053Y-87082678D02*
X235952291Y-87035059D01*
X236571339Y-87463630D02*
X236476101Y-87416011D01*
X236476101Y-87416011D02*
X236428482Y-87320773D01*
X236428482Y-87320773D02*
X236428482Y-86463630D01*
X236857054Y-86796964D02*
X237095149Y-87463630D01*
X237095149Y-87463630D02*
X237333244Y-86796964D01*
X237714197Y-87463630D02*
X237714197Y-86796964D01*
X237714197Y-86463630D02*
X237666578Y-86511250D01*
X237666578Y-86511250D02*
X237714197Y-86558869D01*
X237714197Y-86558869D02*
X237761816Y-86511250D01*
X237761816Y-86511250D02*
X237714197Y-86463630D01*
X237714197Y-86463630D02*
X237714197Y-86558869D01*
X238190387Y-86796964D02*
X238190387Y-87463630D01*
X238190387Y-86892202D02*
X238238006Y-86844583D01*
X238238006Y-86844583D02*
X238333244Y-86796964D01*
X238333244Y-86796964D02*
X238476101Y-86796964D01*
X238476101Y-86796964D02*
X238571339Y-86844583D01*
X238571339Y-86844583D02*
X238618958Y-86939821D01*
X238618958Y-86939821D02*
X238618958Y-87463630D01*
X239285625Y-86463630D02*
X239380863Y-86463630D01*
X239380863Y-86463630D02*
X239476101Y-86511250D01*
X239476101Y-86511250D02*
X239523720Y-86558869D01*
X239523720Y-86558869D02*
X239571339Y-86654107D01*
X239571339Y-86654107D02*
X239618958Y-86844583D01*
X239618958Y-86844583D02*
X239618958Y-87082678D01*
X239618958Y-87082678D02*
X239571339Y-87273154D01*
X239571339Y-87273154D02*
X239523720Y-87368392D01*
X239523720Y-87368392D02*
X239476101Y-87416011D01*
X239476101Y-87416011D02*
X239380863Y-87463630D01*
X239380863Y-87463630D02*
X239285625Y-87463630D01*
X239285625Y-87463630D02*
X239190387Y-87416011D01*
X239190387Y-87416011D02*
X239142768Y-87368392D01*
X239142768Y-87368392D02*
X239095149Y-87273154D01*
X239095149Y-87273154D02*
X239047530Y-87082678D01*
X239047530Y-87082678D02*
X239047530Y-86844583D01*
X239047530Y-86844583D02*
X239095149Y-86654107D01*
X239095149Y-86654107D02*
X239142768Y-86558869D01*
X239142768Y-86558869D02*
X239190387Y-86511250D01*
X239190387Y-86511250D02*
X239285625Y-86463630D01*
X240523720Y-86463630D02*
X240047530Y-86463630D01*
X240047530Y-86463630D02*
X239999911Y-86939821D01*
X239999911Y-86939821D02*
X240047530Y-86892202D01*
X240047530Y-86892202D02*
X240142768Y-86844583D01*
X240142768Y-86844583D02*
X240380863Y-86844583D01*
X240380863Y-86844583D02*
X240476101Y-86892202D01*
X240476101Y-86892202D02*
X240523720Y-86939821D01*
X240523720Y-86939821D02*
X240571339Y-87035059D01*
X240571339Y-87035059D02*
X240571339Y-87273154D01*
X240571339Y-87273154D02*
X240523720Y-87368392D01*
X240523720Y-87368392D02*
X240476101Y-87416011D01*
X240476101Y-87416011D02*
X240380863Y-87463630D01*
X240380863Y-87463630D02*
X240142768Y-87463630D01*
X240142768Y-87463630D02*
X240047530Y-87416011D01*
X240047530Y-87416011D02*
X239999911Y-87368392D01*
X241428482Y-86463630D02*
X241238006Y-86463630D01*
X241238006Y-86463630D02*
X241142768Y-86511250D01*
X241142768Y-86511250D02*
X241095149Y-86558869D01*
X241095149Y-86558869D02*
X240999911Y-86701726D01*
X240999911Y-86701726D02*
X240952292Y-86892202D01*
X240952292Y-86892202D02*
X240952292Y-87273154D01*
X240952292Y-87273154D02*
X240999911Y-87368392D01*
X240999911Y-87368392D02*
X241047530Y-87416011D01*
X241047530Y-87416011D02*
X241142768Y-87463630D01*
X241142768Y-87463630D02*
X241333244Y-87463630D01*
X241333244Y-87463630D02*
X241428482Y-87416011D01*
X241428482Y-87416011D02*
X241476101Y-87368392D01*
X241476101Y-87368392D02*
X241523720Y-87273154D01*
X241523720Y-87273154D02*
X241523720Y-87035059D01*
X241523720Y-87035059D02*
X241476101Y-86939821D01*
X241476101Y-86939821D02*
X241428482Y-86892202D01*
X241428482Y-86892202D02*
X241333244Y-86844583D01*
X241333244Y-86844583D02*
X241142768Y-86844583D01*
X241142768Y-86844583D02*
X241047530Y-86892202D01*
X241047530Y-86892202D02*
X240999911Y-86939821D01*
X240999911Y-86939821D02*
X240952292Y-87035059D01*
X241857054Y-86463630D02*
X242476101Y-86463630D01*
X242476101Y-86463630D02*
X242142768Y-86844583D01*
X242142768Y-86844583D02*
X242285625Y-86844583D01*
X242285625Y-86844583D02*
X242380863Y-86892202D01*
X242380863Y-86892202D02*
X242428482Y-86939821D01*
X242428482Y-86939821D02*
X242476101Y-87035059D01*
X242476101Y-87035059D02*
X242476101Y-87273154D01*
X242476101Y-87273154D02*
X242428482Y-87368392D01*
X242428482Y-87368392D02*
X242380863Y-87416011D01*
X242380863Y-87416011D02*
X242285625Y-87463630D01*
X242285625Y-87463630D02*
X241999911Y-87463630D01*
X241999911Y-87463630D02*
X241904673Y-87416011D01*
X241904673Y-87416011D02*
X241857054Y-87368392D01*
%TO.C,G\u002A\u002A\u002A*%
G36*
X239092813Y-80122052D02*
G01*
X239130357Y-80140602D01*
X239135442Y-80158282D01*
X239113197Y-80195125D01*
X239093757Y-80199967D01*
X239056914Y-80222212D01*
X239052072Y-80241652D01*
X239027216Y-80274745D01*
X238968703Y-80283336D01*
X238909652Y-80276450D01*
X238887887Y-80243969D01*
X238885333Y-80199967D01*
X238888958Y-80148701D01*
X238909889Y-80124420D01*
X238963209Y-80117068D01*
X239010388Y-80116597D01*
X239092813Y-80122052D01*
G37*
G36*
X237269202Y-80453701D02*
G01*
X237293483Y-80474632D01*
X237300835Y-80527953D01*
X237301307Y-80575131D01*
X237295851Y-80657556D01*
X237277302Y-80695101D01*
X237259622Y-80700185D01*
X237226528Y-80725042D01*
X237217937Y-80783555D01*
X237205509Y-80849743D01*
X237176252Y-80866925D01*
X237139409Y-80844680D01*
X237134567Y-80825240D01*
X237112322Y-80788397D01*
X237092882Y-80783555D01*
X237056039Y-80761310D01*
X237051197Y-80741870D01*
X237028952Y-80705027D01*
X237009512Y-80700185D01*
X236972669Y-80677941D01*
X236967827Y-80658501D01*
X236990072Y-80621658D01*
X237009512Y-80616816D01*
X237046355Y-80594571D01*
X237051197Y-80575131D01*
X237073442Y-80538288D01*
X237092882Y-80533446D01*
X237129725Y-80511201D01*
X237134567Y-80491761D01*
X237159423Y-80458667D01*
X237217937Y-80450076D01*
X237269202Y-80453701D01*
G37*
G36*
X244712628Y-81475370D02*
G01*
X244721219Y-81533884D01*
X244733647Y-81600071D01*
X244762904Y-81617253D01*
X244799747Y-81639498D01*
X244804589Y-81658938D01*
X244826834Y-81695781D01*
X244846274Y-81700623D01*
X244883117Y-81722868D01*
X244887959Y-81742308D01*
X244910204Y-81779151D01*
X244929644Y-81783993D01*
X244966487Y-81806238D01*
X244971328Y-81825678D01*
X244954962Y-81853153D01*
X244899314Y-81865668D01*
X244846274Y-81867363D01*
X244763849Y-81872818D01*
X244726304Y-81891367D01*
X244721219Y-81909048D01*
X244698974Y-81945891D01*
X244679534Y-81950733D01*
X244652059Y-81934367D01*
X244639544Y-81878718D01*
X244637849Y-81825678D01*
X244632394Y-81743253D01*
X244613845Y-81705708D01*
X244596164Y-81700623D01*
X244563070Y-81675767D01*
X244554479Y-81617253D01*
X244566907Y-81551066D01*
X244596164Y-81533884D01*
X244633007Y-81511639D01*
X244637849Y-81492199D01*
X244660094Y-81455356D01*
X244679534Y-81450514D01*
X244712628Y-81475370D01*
G37*
G36*
X238923982Y-77950606D02*
G01*
X238999985Y-77956535D01*
X239039472Y-77968351D01*
X239051941Y-77987638D01*
X239052072Y-77990667D01*
X239074317Y-78027510D01*
X239093757Y-78032352D01*
X239130600Y-78054597D01*
X239135442Y-78074037D01*
X239110586Y-78107131D01*
X239052072Y-78115722D01*
X238985885Y-78128150D01*
X238968703Y-78157406D01*
X238946458Y-78194250D01*
X238927018Y-78199091D01*
X238890175Y-78221336D01*
X238885333Y-78240776D01*
X238863088Y-78277619D01*
X238843648Y-78282461D01*
X238806805Y-78304706D01*
X238801963Y-78324146D01*
X238779718Y-78360989D01*
X238760278Y-78365831D01*
X238723435Y-78388076D01*
X238718593Y-78407516D01*
X238696348Y-78444359D01*
X238676908Y-78449201D01*
X238640065Y-78471446D01*
X238635223Y-78490886D01*
X238612978Y-78527729D01*
X238593539Y-78532571D01*
X238556695Y-78554816D01*
X238551854Y-78574255D01*
X238574099Y-78611099D01*
X238593539Y-78615940D01*
X238630382Y-78638185D01*
X238635223Y-78657625D01*
X238612978Y-78694468D01*
X238593539Y-78699310D01*
X238556695Y-78677065D01*
X238551854Y-78657625D01*
X238529609Y-78620782D01*
X238510169Y-78615940D01*
X238473326Y-78638185D01*
X238468484Y-78657625D01*
X238446239Y-78694468D01*
X238426799Y-78699310D01*
X238393705Y-78724166D01*
X238385114Y-78782680D01*
X238372686Y-78848868D01*
X238343429Y-78866050D01*
X238310335Y-78890906D01*
X238301744Y-78949420D01*
X238289316Y-79015607D01*
X238260059Y-79032789D01*
X238223216Y-79010544D01*
X238218374Y-78991105D01*
X238196129Y-78954261D01*
X238176689Y-78949420D01*
X238139846Y-78927175D01*
X238135005Y-78907735D01*
X238112760Y-78870892D01*
X238093320Y-78866050D01*
X238071332Y-78855132D01*
X238058426Y-78815677D01*
X238052590Y-78737635D01*
X238051635Y-78657625D01*
X238053818Y-78547687D01*
X238061709Y-78483154D01*
X238077318Y-78453976D01*
X238093320Y-78449201D01*
X238126414Y-78424345D01*
X238135005Y-78365831D01*
X238147433Y-78299643D01*
X238176689Y-78282461D01*
X238213533Y-78260216D01*
X238218374Y-78240776D01*
X238240619Y-78203933D01*
X238260059Y-78199091D01*
X238296902Y-78176846D01*
X238301744Y-78157406D01*
X238323989Y-78120563D01*
X238343429Y-78115722D01*
X238380272Y-78093477D01*
X238385114Y-78074037D01*
X238409970Y-78040943D01*
X238468484Y-78032352D01*
X238534672Y-78019924D01*
X238551854Y-77990667D01*
X238561600Y-77970330D01*
X238597173Y-77957663D01*
X238668069Y-77951082D01*
X238783788Y-77949004D01*
X238801963Y-77948982D01*
X238923982Y-77950606D01*
G37*
G36*
X238997362Y-77616382D02*
G01*
X239103605Y-77619620D01*
X239170466Y-77626114D01*
X239206034Y-77636763D01*
X239218398Y-77652468D01*
X239218812Y-77657188D01*
X239243668Y-77690282D01*
X239302182Y-77698873D01*
X239368370Y-77711301D01*
X239385552Y-77740557D01*
X239407797Y-77777400D01*
X239427237Y-77782242D01*
X239460330Y-77807098D01*
X239468921Y-77865612D01*
X239462035Y-77924663D01*
X239429554Y-77946428D01*
X239385552Y-77948982D01*
X239319364Y-77961410D01*
X239302182Y-77990667D01*
X239277326Y-78023761D01*
X239218812Y-78032352D01*
X239152624Y-78019924D01*
X239135442Y-77990667D01*
X239113197Y-77953824D01*
X239093757Y-77948982D01*
X239056914Y-77926737D01*
X239052072Y-77907297D01*
X239042326Y-77886961D01*
X239006753Y-77874293D01*
X238935857Y-77867712D01*
X238820138Y-77865634D01*
X238801963Y-77865612D01*
X238679944Y-77867237D01*
X238603941Y-77873165D01*
X238564454Y-77884981D01*
X238551985Y-77904268D01*
X238551854Y-77907297D01*
X238526998Y-77940391D01*
X238468484Y-77948982D01*
X238402296Y-77961410D01*
X238385114Y-77990667D01*
X238362869Y-78027510D01*
X238343429Y-78032352D01*
X238306586Y-78054597D01*
X238301744Y-78074037D01*
X238279499Y-78110880D01*
X238260059Y-78115722D01*
X238223216Y-78137967D01*
X238218374Y-78157406D01*
X238196129Y-78194250D01*
X238176689Y-78199091D01*
X238139846Y-78221336D01*
X238135005Y-78240776D01*
X238112760Y-78277619D01*
X238093320Y-78282461D01*
X238060226Y-78307317D01*
X238051635Y-78365831D01*
X238039207Y-78432019D01*
X238009950Y-78449201D01*
X237987962Y-78460119D01*
X237975056Y-78499573D01*
X237969220Y-78577616D01*
X237968265Y-78657625D01*
X237970449Y-78767564D01*
X237978340Y-78832096D01*
X237993948Y-78861274D01*
X238009950Y-78866050D01*
X238046793Y-78888295D01*
X238051635Y-78907735D01*
X238073880Y-78944578D01*
X238093320Y-78949420D01*
X238130163Y-78971665D01*
X238135005Y-78991105D01*
X238157250Y-79027948D01*
X238176689Y-79032789D01*
X238204165Y-79049155D01*
X238216679Y-79104803D01*
X238218374Y-79157844D01*
X238212919Y-79240269D01*
X238194370Y-79277814D01*
X238176689Y-79282899D01*
X238139846Y-79260654D01*
X238135005Y-79241214D01*
X238110149Y-79208120D01*
X238051635Y-79199529D01*
X237985447Y-79187101D01*
X237968265Y-79157844D01*
X237946020Y-79121001D01*
X237926580Y-79116159D01*
X237893486Y-79091303D01*
X237884895Y-79032789D01*
X237872467Y-78966602D01*
X237843210Y-78949420D01*
X237824175Y-78940474D01*
X237811791Y-78907655D01*
X237804779Y-78841991D01*
X237801855Y-78734510D01*
X237801525Y-78657625D01*
X237802803Y-78524376D01*
X237807492Y-78437694D01*
X237816872Y-78388606D01*
X237832227Y-78368141D01*
X237843210Y-78365831D01*
X237876304Y-78340975D01*
X237884895Y-78282461D01*
X237897323Y-78216273D01*
X237926580Y-78199091D01*
X237959674Y-78174235D01*
X237968265Y-78115722D01*
X237980693Y-78049534D01*
X238009950Y-78032352D01*
X238043044Y-78007496D01*
X238051635Y-77948982D01*
X238064063Y-77882794D01*
X238093320Y-77865612D01*
X238130163Y-77843367D01*
X238135005Y-77823927D01*
X238159861Y-77790833D01*
X238218374Y-77782242D01*
X238284562Y-77769814D01*
X238301744Y-77740557D01*
X238326600Y-77707464D01*
X238385114Y-77698873D01*
X238451302Y-77686445D01*
X238468484Y-77657188D01*
X238476398Y-77640108D01*
X238505535Y-77628304D01*
X238563982Y-77620875D01*
X238659830Y-77616923D01*
X238801168Y-77615549D01*
X238843648Y-77615503D01*
X238997362Y-77616382D01*
G37*
G36*
X242312011Y-79074474D02*
G01*
X242386865Y-79074474D01*
X242409109Y-79111317D01*
X242428549Y-79116159D01*
X242465392Y-79138404D01*
X242470234Y-79157844D01*
X242492479Y-79194687D01*
X242511919Y-79199529D01*
X242548762Y-79221774D01*
X242553604Y-79241214D01*
X242575849Y-79278057D01*
X242595289Y-79282899D01*
X242632132Y-79260654D01*
X242636974Y-79241214D01*
X242614729Y-79204371D01*
X242595289Y-79199529D01*
X242558446Y-79177284D01*
X242553604Y-79157844D01*
X242531359Y-79121001D01*
X242511919Y-79116159D01*
X242475076Y-79093914D01*
X242470234Y-79074474D01*
X242447989Y-79037631D01*
X242428549Y-79032789D01*
X242391706Y-79055034D01*
X242386865Y-79074474D01*
X242312011Y-79074474D01*
X242305190Y-79044145D01*
X242303495Y-78991105D01*
X242308950Y-78908679D01*
X242327499Y-78871135D01*
X242345180Y-78866050D01*
X242382023Y-78843805D01*
X242386865Y-78824365D01*
X242364620Y-78787522D01*
X242345180Y-78782680D01*
X242320975Y-78769875D01*
X242307980Y-78724481D01*
X242303577Y-78636031D01*
X242303495Y-78615940D01*
X242306696Y-78519122D01*
X242318045Y-78467141D01*
X242340157Y-78449530D01*
X242345180Y-78449201D01*
X242382023Y-78426956D01*
X242386865Y-78407516D01*
X242409109Y-78370673D01*
X242428549Y-78365831D01*
X242465392Y-78343586D01*
X242470234Y-78324146D01*
X242492479Y-78287303D01*
X242511919Y-78282461D01*
X242548762Y-78260216D01*
X242553604Y-78240776D01*
X242578460Y-78207682D01*
X242636974Y-78199091D01*
X242703162Y-78186663D01*
X242720344Y-78157406D01*
X242729289Y-78138371D01*
X242762108Y-78125988D01*
X242827772Y-78118975D01*
X242935253Y-78116052D01*
X243012138Y-78115722D01*
X243145387Y-78117000D01*
X243232070Y-78121688D01*
X243281158Y-78131068D01*
X243301623Y-78146423D01*
X243303932Y-78157406D01*
X243328788Y-78190500D01*
X243387302Y-78199091D01*
X243453490Y-78211519D01*
X243470672Y-78240776D01*
X243492917Y-78277619D01*
X243512357Y-78282461D01*
X243549200Y-78304706D01*
X243554042Y-78324146D01*
X243576287Y-78360989D01*
X243595727Y-78365831D01*
X243632570Y-78388076D01*
X243637412Y-78407516D01*
X243659657Y-78444359D01*
X243679096Y-78449201D01*
X243712190Y-78474057D01*
X243720781Y-78532571D01*
X243733209Y-78598758D01*
X243762466Y-78615940D01*
X243781502Y-78624886D01*
X243793885Y-78657705D01*
X243800898Y-78723369D01*
X243803821Y-78830850D01*
X243804151Y-78907735D01*
X243802873Y-79040984D01*
X243798185Y-79127666D01*
X243788804Y-79176754D01*
X243773450Y-79197219D01*
X243762466Y-79199529D01*
X243729372Y-79224385D01*
X243720781Y-79282899D01*
X243708353Y-79349087D01*
X243679096Y-79366269D01*
X243642253Y-79388514D01*
X243637412Y-79407954D01*
X243615167Y-79444797D01*
X243595727Y-79449638D01*
X243558884Y-79471883D01*
X243554042Y-79491323D01*
X243541236Y-79515528D01*
X243495842Y-79528523D01*
X243407392Y-79532926D01*
X243387302Y-79533008D01*
X243290484Y-79529807D01*
X243238503Y-79518458D01*
X243220891Y-79496346D01*
X243220563Y-79491323D01*
X243198318Y-79454480D01*
X243178878Y-79449638D01*
X243142035Y-79427394D01*
X243137193Y-79407954D01*
X243114948Y-79371110D01*
X243095508Y-79366269D01*
X243058665Y-79344024D01*
X243053823Y-79324584D01*
X243028967Y-79291490D01*
X242970453Y-79282899D01*
X242904265Y-79295327D01*
X242887083Y-79324584D01*
X242862227Y-79357678D01*
X242803714Y-79366269D01*
X242737526Y-79378697D01*
X242720344Y-79407954D01*
X242698099Y-79444797D01*
X242678659Y-79449638D01*
X242641816Y-79471883D01*
X242636974Y-79491323D01*
X242614729Y-79528166D01*
X242595289Y-79533008D01*
X242558446Y-79555253D01*
X242553604Y-79574693D01*
X242531359Y-79611536D01*
X242511919Y-79616378D01*
X242484444Y-79600012D01*
X242471929Y-79544364D01*
X242470234Y-79491323D01*
X242464779Y-79408898D01*
X242446230Y-79371353D01*
X242428549Y-79366269D01*
X242401074Y-79349903D01*
X242388559Y-79294255D01*
X242386865Y-79241214D01*
X242381409Y-79158789D01*
X242362860Y-79121244D01*
X242345180Y-79116159D01*
X242317705Y-79099793D01*
X242312011Y-79074474D01*
G37*
G36*
X237119451Y-82369765D02*
G01*
X237183983Y-82377656D01*
X237213161Y-82393265D01*
X237217937Y-82409266D01*
X237242793Y-82442360D01*
X237301307Y-82450951D01*
X237367494Y-82463379D01*
X237384676Y-82492636D01*
X237406921Y-82529479D01*
X237426361Y-82534321D01*
X237463204Y-82556566D01*
X237468046Y-82576006D01*
X237490291Y-82612849D01*
X237509731Y-82617691D01*
X237537206Y-82634057D01*
X237549721Y-82689705D01*
X237551416Y-82742746D01*
X237556871Y-82825171D01*
X237575421Y-82862715D01*
X237593101Y-82867800D01*
X237620576Y-82884166D01*
X237633091Y-82939814D01*
X237634786Y-82992855D01*
X237640241Y-83075280D01*
X237658790Y-83112825D01*
X237676471Y-83117910D01*
X237703946Y-83134276D01*
X237716461Y-83189924D01*
X237718156Y-83242964D01*
X237723611Y-83325390D01*
X237742160Y-83362934D01*
X237759840Y-83368019D01*
X237792934Y-83392875D01*
X237801525Y-83451389D01*
X237813953Y-83517577D01*
X237843210Y-83534759D01*
X237880053Y-83557004D01*
X237884895Y-83576444D01*
X237907140Y-83613287D01*
X237926580Y-83618129D01*
X237963423Y-83640374D01*
X237968265Y-83659813D01*
X237981070Y-83684018D01*
X238026464Y-83697013D01*
X238114914Y-83701416D01*
X238135005Y-83701498D01*
X238231823Y-83704700D01*
X238283804Y-83716048D01*
X238301415Y-83738161D01*
X238301744Y-83743183D01*
X238323989Y-83780026D01*
X238343429Y-83784868D01*
X238380272Y-83807113D01*
X238385114Y-83826553D01*
X238407359Y-83863396D01*
X238426799Y-83868238D01*
X238463642Y-83890483D01*
X238468484Y-83909923D01*
X238446239Y-83946766D01*
X238426799Y-83951608D01*
X238389956Y-83973853D01*
X238385114Y-83993293D01*
X238372309Y-84017497D01*
X238326915Y-84030493D01*
X238238465Y-84034895D01*
X238218374Y-84034978D01*
X238121556Y-84031776D01*
X238069575Y-84020428D01*
X238051964Y-83998315D01*
X238051635Y-83993293D01*
X238026779Y-83960199D01*
X237968265Y-83951608D01*
X237902077Y-83939180D01*
X237884895Y-83909923D01*
X237860039Y-83876829D01*
X237801525Y-83868238D01*
X237735338Y-83855810D01*
X237718156Y-83826553D01*
X237695911Y-83789710D01*
X237676471Y-83784868D01*
X237639628Y-83762623D01*
X237634786Y-83743183D01*
X237612541Y-83706340D01*
X237593101Y-83701498D01*
X237556258Y-83679253D01*
X237551416Y-83659813D01*
X237529171Y-83622970D01*
X237509731Y-83618129D01*
X237476637Y-83593273D01*
X237468046Y-83534759D01*
X237455618Y-83468571D01*
X237426361Y-83451389D01*
X237402157Y-83438584D01*
X237389161Y-83393190D01*
X237384759Y-83304740D01*
X237384676Y-83284649D01*
X237381475Y-83187831D01*
X237370127Y-83135850D01*
X237348014Y-83118239D01*
X237342991Y-83117910D01*
X237318787Y-83105104D01*
X237305792Y-83059710D01*
X237301389Y-82971260D01*
X237301307Y-82951170D01*
X237298105Y-82854352D01*
X237286757Y-82802371D01*
X237264644Y-82784759D01*
X237259622Y-82784431D01*
X237222779Y-82762186D01*
X237217937Y-82742746D01*
X237195692Y-82705903D01*
X237176252Y-82701061D01*
X237139409Y-82678816D01*
X237134567Y-82659376D01*
X237121762Y-82635171D01*
X237076368Y-82622176D01*
X236987918Y-82617773D01*
X236967827Y-82617691D01*
X236871009Y-82620892D01*
X236819028Y-82632241D01*
X236801417Y-82654353D01*
X236801088Y-82659376D01*
X236778843Y-82696219D01*
X236759403Y-82701061D01*
X236726309Y-82725917D01*
X236717718Y-82784431D01*
X236705290Y-82850618D01*
X236676033Y-82867800D01*
X236651829Y-82880606D01*
X236638833Y-82926000D01*
X236634430Y-83014450D01*
X236634348Y-83034540D01*
X236631147Y-83131358D01*
X236619798Y-83183339D01*
X236597686Y-83200951D01*
X236592663Y-83201280D01*
X236555820Y-83223524D01*
X236550978Y-83242964D01*
X236526122Y-83276058D01*
X236467609Y-83284649D01*
X236416343Y-83281024D01*
X236392062Y-83260093D01*
X236384710Y-83206773D01*
X236384239Y-83159595D01*
X236389694Y-83077169D01*
X236408243Y-83039625D01*
X236425924Y-83034540D01*
X236450128Y-83021735D01*
X236463123Y-82976341D01*
X236467526Y-82887891D01*
X236467609Y-82867800D01*
X236470810Y-82770982D01*
X236482158Y-82719001D01*
X236504271Y-82701390D01*
X236509293Y-82701061D01*
X236546136Y-82678816D01*
X236550978Y-82659376D01*
X236573223Y-82622533D01*
X236592663Y-82617691D01*
X236625757Y-82592835D01*
X236634348Y-82534321D01*
X236641234Y-82475270D01*
X236673716Y-82453505D01*
X236717718Y-82450951D01*
X236783906Y-82438523D01*
X236801088Y-82409266D01*
X236812006Y-82387279D01*
X236851460Y-82374372D01*
X236929503Y-82368537D01*
X237009512Y-82367582D01*
X237119451Y-82369765D01*
G37*
G36*
X241483245Y-80119798D02*
G01*
X241535226Y-80131147D01*
X241552838Y-80153259D01*
X241553167Y-80158282D01*
X241569532Y-80185757D01*
X241625181Y-80198272D01*
X241678221Y-80199967D01*
X241760646Y-80205422D01*
X241798191Y-80223971D01*
X241803276Y-80241652D01*
X241819642Y-80269127D01*
X241875290Y-80281642D01*
X241928331Y-80283336D01*
X242010756Y-80288792D01*
X242048300Y-80307341D01*
X242053385Y-80325021D01*
X242069751Y-80352496D01*
X242125399Y-80365011D01*
X242178440Y-80366706D01*
X242260865Y-80372162D01*
X242298410Y-80390711D01*
X242303495Y-80408391D01*
X242328351Y-80441485D01*
X242386865Y-80450076D01*
X242453052Y-80462504D01*
X242470234Y-80491761D01*
X242479180Y-80510797D01*
X242511999Y-80523180D01*
X242577663Y-80530192D01*
X242685144Y-80533116D01*
X242762029Y-80533446D01*
X243053823Y-80533446D01*
X243053823Y-80450076D01*
X243060709Y-80391025D01*
X243093191Y-80369260D01*
X243137193Y-80366706D01*
X243203381Y-80354278D01*
X243220563Y-80325021D01*
X243207757Y-80300817D01*
X243162363Y-80287822D01*
X243073913Y-80283419D01*
X243053823Y-80283336D01*
X242957005Y-80280135D01*
X242905024Y-80268787D01*
X242887412Y-80246674D01*
X242887083Y-80241652D01*
X242895445Y-80223679D01*
X242926197Y-80211589D01*
X242987842Y-80204316D01*
X243088884Y-80200799D01*
X243220563Y-80199967D01*
X243364340Y-80201012D01*
X243461067Y-80204856D01*
X243519246Y-80212562D01*
X243547381Y-80225192D01*
X243554042Y-80241652D01*
X243576287Y-80278495D01*
X243595727Y-80283336D01*
X243632570Y-80305581D01*
X243637412Y-80325021D01*
X243659657Y-80361864D01*
X243679096Y-80366706D01*
X243715940Y-80388951D01*
X243720781Y-80408391D01*
X243743026Y-80445234D01*
X243762466Y-80450076D01*
X243799309Y-80472321D01*
X243804151Y-80491761D01*
X243826396Y-80528604D01*
X243845836Y-80533446D01*
X243878930Y-80558302D01*
X243887521Y-80616816D01*
X243899949Y-80683003D01*
X243929206Y-80700185D01*
X243966049Y-80722430D01*
X243970891Y-80741870D01*
X243948646Y-80778713D01*
X243929206Y-80783555D01*
X243892363Y-80805800D01*
X243887521Y-80825240D01*
X243865276Y-80862083D01*
X243845836Y-80866925D01*
X243826800Y-80875871D01*
X243814417Y-80908689D01*
X243807405Y-80974353D01*
X243804481Y-81081835D01*
X243804151Y-81158719D01*
X243802873Y-81291969D01*
X243798185Y-81378651D01*
X243788804Y-81427739D01*
X243773450Y-81448204D01*
X243762466Y-81450514D01*
X243734991Y-81466880D01*
X243722476Y-81522528D01*
X243720781Y-81575568D01*
X243715326Y-81657994D01*
X243696777Y-81695538D01*
X243679096Y-81700623D01*
X243646003Y-81725479D01*
X243637412Y-81783993D01*
X243624984Y-81850181D01*
X243595727Y-81867363D01*
X243562633Y-81892219D01*
X243554042Y-81950733D01*
X243541614Y-82016920D01*
X243512357Y-82034102D01*
X243479263Y-82058958D01*
X243470672Y-82117472D01*
X243458244Y-82183660D01*
X243428987Y-82200842D01*
X243395893Y-82225698D01*
X243387302Y-82284212D01*
X243374874Y-82350400D01*
X243345617Y-82367582D01*
X243312523Y-82392438D01*
X243303932Y-82450951D01*
X243291504Y-82517139D01*
X243262247Y-82534321D01*
X243229154Y-82559177D01*
X243220563Y-82617691D01*
X243208135Y-82683879D01*
X243178878Y-82701061D01*
X243145784Y-82725917D01*
X243137193Y-82784431D01*
X243124765Y-82850618D01*
X243095508Y-82867800D01*
X243058665Y-82890045D01*
X243053823Y-82909485D01*
X243031578Y-82946328D01*
X243012138Y-82951170D01*
X242975295Y-82973415D01*
X242970453Y-82992855D01*
X242948208Y-83029698D01*
X242928768Y-83034540D01*
X242891925Y-83056785D01*
X242887083Y-83076225D01*
X242864838Y-83113068D01*
X242845398Y-83117910D01*
X242808555Y-83140155D01*
X242803714Y-83159595D01*
X242781469Y-83196438D01*
X242762029Y-83201280D01*
X242725186Y-83223524D01*
X242720344Y-83242964D01*
X242698099Y-83279808D01*
X242678659Y-83284649D01*
X242641816Y-83306894D01*
X242636974Y-83326334D01*
X242614729Y-83363177D01*
X242595289Y-83368019D01*
X242558446Y-83390264D01*
X242553604Y-83409704D01*
X242528748Y-83442798D01*
X242470234Y-83451389D01*
X242404047Y-83463817D01*
X242386865Y-83493074D01*
X242370499Y-83520549D01*
X242314851Y-83533064D01*
X242261810Y-83534759D01*
X242179385Y-83540214D01*
X242141840Y-83558763D01*
X242136755Y-83576444D01*
X242120389Y-83603919D01*
X242064741Y-83616434D01*
X242011700Y-83618129D01*
X241929275Y-83623584D01*
X241891731Y-83642133D01*
X241886646Y-83659813D01*
X241875728Y-83681801D01*
X241836273Y-83694708D01*
X241758230Y-83700543D01*
X241678221Y-83701498D01*
X241568283Y-83699315D01*
X241503750Y-83691424D01*
X241474572Y-83675815D01*
X241469797Y-83659813D01*
X241492042Y-83622970D01*
X241511482Y-83618129D01*
X241548325Y-83595884D01*
X241553167Y-83576444D01*
X241575411Y-83539601D01*
X241594851Y-83534759D01*
X241619056Y-83521953D01*
X241632051Y-83476559D01*
X241636454Y-83388109D01*
X241636536Y-83368019D01*
X241633335Y-83271201D01*
X241621986Y-83219220D01*
X241599874Y-83201608D01*
X241594851Y-83201280D01*
X241558008Y-83179035D01*
X241553167Y-83159595D01*
X241530922Y-83122752D01*
X241511482Y-83117910D01*
X241474639Y-83095665D01*
X241469797Y-83076225D01*
X241456991Y-83052020D01*
X241411597Y-83039025D01*
X241323147Y-83034622D01*
X241303057Y-83034540D01*
X241136318Y-83034540D01*
X241136318Y-82951170D01*
X241123889Y-82884982D01*
X241094633Y-82867800D01*
X241061539Y-82842944D01*
X241052948Y-82784431D01*
X241040520Y-82718243D01*
X241011263Y-82701061D01*
X240974420Y-82678816D01*
X240969578Y-82659376D01*
X240947333Y-82622533D01*
X240927893Y-82617691D01*
X240894799Y-82592835D01*
X240886208Y-82534321D01*
X240873780Y-82468133D01*
X240844523Y-82450951D01*
X240811429Y-82426095D01*
X240802838Y-82367582D01*
X240802838Y-82284212D01*
X241094633Y-82284212D01*
X241227882Y-82282934D01*
X241314564Y-82278245D01*
X241363652Y-82268865D01*
X241384117Y-82253510D01*
X241386427Y-82242527D01*
X241411283Y-82209433D01*
X241469797Y-82200842D01*
X241535984Y-82188414D01*
X241553167Y-82159157D01*
X241575411Y-82122314D01*
X241594851Y-82117472D01*
X241616839Y-82106554D01*
X241629746Y-82067099D01*
X241635581Y-81989057D01*
X241636536Y-81909048D01*
X241634353Y-81799109D01*
X241626462Y-81734577D01*
X241610853Y-81705399D01*
X241594851Y-81700623D01*
X241561758Y-81675767D01*
X241553167Y-81617253D01*
X241540738Y-81551066D01*
X241511482Y-81533884D01*
X241474639Y-81511639D01*
X241469797Y-81492199D01*
X241456991Y-81467994D01*
X241411597Y-81454999D01*
X241323147Y-81450596D01*
X241303057Y-81450514D01*
X241206239Y-81447312D01*
X241154258Y-81435964D01*
X241136646Y-81413851D01*
X241136318Y-81408829D01*
X241114073Y-81371986D01*
X241094633Y-81367144D01*
X241057790Y-81344899D01*
X241052948Y-81325459D01*
X241030703Y-81288616D01*
X241011263Y-81283774D01*
X240974420Y-81261529D01*
X240969578Y-81242089D01*
X240944722Y-81208995D01*
X240886208Y-81200404D01*
X240820020Y-81187976D01*
X240802838Y-81158719D01*
X240786472Y-81131244D01*
X240730824Y-81118729D01*
X240677784Y-81117034D01*
X240595358Y-81111579D01*
X240557814Y-81093030D01*
X240552729Y-81075350D01*
X240527873Y-81042256D01*
X240469359Y-81033665D01*
X240403171Y-81021237D01*
X240385989Y-80991980D01*
X240408234Y-80955137D01*
X240427674Y-80950295D01*
X240460768Y-80925439D01*
X240469359Y-80866925D01*
X240481787Y-80800737D01*
X240511044Y-80783555D01*
X240544138Y-80758699D01*
X240552729Y-80700185D01*
X240565157Y-80633998D01*
X240594414Y-80616816D01*
X240631257Y-80594571D01*
X240636099Y-80575131D01*
X240658344Y-80538288D01*
X240677784Y-80533446D01*
X240714627Y-80511201D01*
X240719468Y-80491761D01*
X240741713Y-80454918D01*
X240761153Y-80450076D01*
X240797996Y-80427831D01*
X240802838Y-80408391D01*
X240825083Y-80371548D01*
X240844523Y-80366706D01*
X240881366Y-80344461D01*
X240886208Y-80325021D01*
X240911064Y-80291927D01*
X240969578Y-80283336D01*
X241035766Y-80270908D01*
X241052948Y-80241652D01*
X241077804Y-80208558D01*
X241136318Y-80199967D01*
X241202505Y-80187539D01*
X241219687Y-80158282D01*
X241232493Y-80134077D01*
X241277887Y-80121082D01*
X241366337Y-80116679D01*
X241386427Y-80116597D01*
X241483245Y-80119798D01*
G37*
G36*
X238718593Y-78490886D02*
G01*
X240385989Y-78490886D01*
X240408234Y-78527729D01*
X240427674Y-78532571D01*
X240464517Y-78554816D01*
X240469359Y-78574255D01*
X240491604Y-78611099D01*
X240511044Y-78615940D01*
X240547887Y-78638185D01*
X240552729Y-78657625D01*
X240563647Y-78679613D01*
X240603102Y-78692519D01*
X240681144Y-78698355D01*
X240761153Y-78699310D01*
X240871092Y-78697127D01*
X240935624Y-78689236D01*
X240964802Y-78673627D01*
X240969578Y-78657625D01*
X240991823Y-78620782D01*
X241011263Y-78615940D01*
X241044357Y-78591084D01*
X241052948Y-78532571D01*
X241040520Y-78466383D01*
X241011263Y-78449201D01*
X240974420Y-78426956D01*
X240969578Y-78407516D01*
X240944722Y-78374422D01*
X240886208Y-78365831D01*
X240820020Y-78378259D01*
X240802838Y-78407516D01*
X240827694Y-78440610D01*
X240886208Y-78449201D01*
X240945259Y-78456087D01*
X240967024Y-78488568D01*
X240969578Y-78532571D01*
X240969578Y-78615940D01*
X240761153Y-78615940D01*
X240651215Y-78613757D01*
X240586682Y-78605866D01*
X240557504Y-78590257D01*
X240552729Y-78574255D01*
X240530484Y-78537412D01*
X240511044Y-78532571D01*
X240474201Y-78510326D01*
X240469359Y-78490886D01*
X240447114Y-78454043D01*
X240427674Y-78449201D01*
X240390831Y-78471446D01*
X240385989Y-78490886D01*
X238718593Y-78490886D01*
X238740838Y-78454043D01*
X238760278Y-78449201D01*
X238797121Y-78426956D01*
X238801963Y-78407516D01*
X238824208Y-78370673D01*
X238843648Y-78365831D01*
X238880491Y-78343586D01*
X238885333Y-78324146D01*
X238907578Y-78287303D01*
X238927018Y-78282461D01*
X238963861Y-78260216D01*
X238968703Y-78240776D01*
X238993559Y-78207682D01*
X239052072Y-78199091D01*
X239118260Y-78186663D01*
X239135442Y-78157406D01*
X239160298Y-78124313D01*
X239218812Y-78115722D01*
X239285000Y-78103294D01*
X239302182Y-78074037D01*
X239327038Y-78040943D01*
X239385552Y-78032352D01*
X239451739Y-78019924D01*
X239468921Y-77990667D01*
X239481727Y-77966462D01*
X239527121Y-77953467D01*
X239615571Y-77949064D01*
X239635661Y-77948982D01*
X239732479Y-77945781D01*
X239784460Y-77934432D01*
X239802072Y-77912320D01*
X239802401Y-77907297D01*
X239809436Y-77892234D01*
X239835288Y-77881209D01*
X239887071Y-77873628D01*
X239971903Y-77868900D01*
X240096900Y-77866430D01*
X240269179Y-77865626D01*
X240302619Y-77865612D01*
X240483378Y-77866198D01*
X240615681Y-77868353D01*
X240706646Y-77872668D01*
X240763388Y-77879737D01*
X240793026Y-77890154D01*
X240802674Y-77904510D01*
X240802838Y-77907297D01*
X240815644Y-77931502D01*
X240861038Y-77944497D01*
X240949488Y-77948900D01*
X240969578Y-77948982D01*
X241066396Y-77952183D01*
X241118377Y-77963532D01*
X241135989Y-77985644D01*
X241136318Y-77990667D01*
X241152683Y-78018142D01*
X241208332Y-78030657D01*
X241261372Y-78032352D01*
X241343797Y-78037807D01*
X241381342Y-78056356D01*
X241386427Y-78074037D01*
X241402793Y-78101512D01*
X241458441Y-78114027D01*
X241511482Y-78115722D01*
X241593907Y-78121177D01*
X241631451Y-78139726D01*
X241636536Y-78157406D01*
X241661392Y-78190500D01*
X241719906Y-78199091D01*
X241786094Y-78211519D01*
X241803276Y-78240776D01*
X241825521Y-78277619D01*
X241844961Y-78282461D01*
X241881804Y-78304706D01*
X241886646Y-78324146D01*
X241908891Y-78360989D01*
X241928331Y-78365831D01*
X241965174Y-78388076D01*
X241970016Y-78407516D01*
X241992260Y-78444359D01*
X242011700Y-78449201D01*
X242044794Y-78474057D01*
X242053385Y-78532571D01*
X242065813Y-78598758D01*
X242095070Y-78615940D01*
X242128164Y-78591084D01*
X242136755Y-78532571D01*
X242124327Y-78466383D01*
X242095070Y-78449201D01*
X242058227Y-78426956D01*
X242053385Y-78407516D01*
X242031140Y-78370673D01*
X242011700Y-78365831D01*
X241974857Y-78343586D01*
X241970016Y-78324146D01*
X241947771Y-78287303D01*
X241928331Y-78282461D01*
X241891488Y-78260216D01*
X241886646Y-78240776D01*
X241908891Y-78203933D01*
X241928331Y-78199091D01*
X241965174Y-78176846D01*
X241970016Y-78157406D01*
X241992260Y-78120563D01*
X242011700Y-78115722D01*
X242048543Y-78093477D01*
X242053385Y-78074037D01*
X242075630Y-78037194D01*
X242095070Y-78032352D01*
X242131913Y-78010107D01*
X242136755Y-77990667D01*
X242161611Y-77957573D01*
X242220125Y-77948982D01*
X242286313Y-77936554D01*
X242303495Y-77907297D01*
X242328351Y-77874203D01*
X242386865Y-77865612D01*
X242453052Y-77853184D01*
X242470234Y-77823927D01*
X242486600Y-77796452D01*
X242542248Y-77783937D01*
X242595289Y-77782242D01*
X242677714Y-77776787D01*
X242715259Y-77758238D01*
X242720344Y-77740557D01*
X242729289Y-77721522D01*
X242762108Y-77709139D01*
X242827772Y-77702126D01*
X242935253Y-77699202D01*
X243012138Y-77698873D01*
X243145387Y-77700151D01*
X243232070Y-77704839D01*
X243281158Y-77714219D01*
X243301623Y-77729574D01*
X243303932Y-77740557D01*
X243328788Y-77773651D01*
X243387302Y-77782242D01*
X243453490Y-77794670D01*
X243470672Y-77823927D01*
X243495528Y-77857021D01*
X243554042Y-77865612D01*
X243620230Y-77878040D01*
X243637412Y-77907297D01*
X243659657Y-77944140D01*
X243679096Y-77948982D01*
X243715940Y-77971227D01*
X243720781Y-77990667D01*
X243743026Y-78027510D01*
X243762466Y-78032352D01*
X243799309Y-78054597D01*
X243804151Y-78074037D01*
X243826396Y-78110880D01*
X243845836Y-78115722D01*
X243882679Y-78137967D01*
X243887521Y-78157406D01*
X243909766Y-78194250D01*
X243929206Y-78199091D01*
X243966049Y-78221336D01*
X243970891Y-78240776D01*
X243993136Y-78277619D01*
X244012576Y-78282461D01*
X244045670Y-78307317D01*
X244054261Y-78365831D01*
X244066689Y-78432019D01*
X244095946Y-78449201D01*
X244129039Y-78474057D01*
X244137630Y-78532571D01*
X244150058Y-78598758D01*
X244179315Y-78615940D01*
X244198351Y-78624886D01*
X244210734Y-78657705D01*
X244217747Y-78723369D01*
X244220670Y-78830850D01*
X244221000Y-78907735D01*
X244219722Y-79040984D01*
X244215034Y-79127666D01*
X244205653Y-79176754D01*
X244190299Y-79197219D01*
X244179315Y-79199529D01*
X244146221Y-79224385D01*
X244137630Y-79282899D01*
X244125202Y-79349087D01*
X244095946Y-79366269D01*
X244059102Y-79388514D01*
X244054261Y-79407954D01*
X244032016Y-79444797D01*
X244012576Y-79449638D01*
X243975733Y-79471883D01*
X243970891Y-79491323D01*
X243948646Y-79528166D01*
X243929206Y-79533008D01*
X243892363Y-79555253D01*
X243887521Y-79574693D01*
X243865276Y-79611536D01*
X243845836Y-79616378D01*
X243808993Y-79638623D01*
X243804151Y-79658063D01*
X243781906Y-79694906D01*
X243762466Y-79699748D01*
X243725623Y-79721993D01*
X243720781Y-79741433D01*
X243711836Y-79760468D01*
X243679017Y-79772852D01*
X243613353Y-79779864D01*
X243505872Y-79782788D01*
X243428987Y-79783118D01*
X243295738Y-79784396D01*
X243209055Y-79789084D01*
X243159968Y-79798465D01*
X243139502Y-79813819D01*
X243137193Y-79824803D01*
X243114948Y-79861646D01*
X243095508Y-79866487D01*
X243058665Y-79888732D01*
X243053823Y-79908172D01*
X243041018Y-79932377D01*
X242995624Y-79945372D01*
X242907174Y-79949775D01*
X242887083Y-79949857D01*
X242790265Y-79946656D01*
X242738284Y-79935307D01*
X242720673Y-79913195D01*
X242720344Y-79908172D01*
X242745200Y-79875078D01*
X242803714Y-79866487D01*
X242869901Y-79854059D01*
X242887083Y-79824803D01*
X242911939Y-79791709D01*
X242970453Y-79783118D01*
X243036641Y-79770690D01*
X243053823Y-79741433D01*
X243076068Y-79704590D01*
X243095508Y-79699748D01*
X243132351Y-79677503D01*
X243137193Y-79658063D01*
X243146940Y-79637727D01*
X243182512Y-79625059D01*
X243253408Y-79618478D01*
X243369127Y-79616400D01*
X243387302Y-79616378D01*
X243509321Y-79618002D01*
X243585324Y-79623931D01*
X243624811Y-79635747D01*
X243637280Y-79655034D01*
X243637412Y-79658063D01*
X243659657Y-79694906D01*
X243679096Y-79699748D01*
X243715940Y-79677503D01*
X243720781Y-79658063D01*
X243698536Y-79621220D01*
X243679096Y-79616378D01*
X243642253Y-79594133D01*
X243637412Y-79574693D01*
X243659657Y-79537850D01*
X243679096Y-79533008D01*
X243712190Y-79508152D01*
X243720781Y-79449638D01*
X243733209Y-79383451D01*
X243762466Y-79366269D01*
X243795560Y-79341413D01*
X243804151Y-79282899D01*
X243816579Y-79216711D01*
X243845836Y-79199529D01*
X243864872Y-79190583D01*
X243877255Y-79157765D01*
X243884267Y-79092101D01*
X243887191Y-78984619D01*
X243887521Y-78907735D01*
X243886243Y-78774485D01*
X243881555Y-78687803D01*
X243872174Y-78638715D01*
X243856820Y-78618250D01*
X243845836Y-78615940D01*
X243812742Y-78591084D01*
X243804151Y-78532571D01*
X243791723Y-78466383D01*
X243762466Y-78449201D01*
X243725623Y-78426956D01*
X243720781Y-78407516D01*
X243698536Y-78370673D01*
X243679096Y-78365831D01*
X243642253Y-78343586D01*
X243637412Y-78324146D01*
X243615167Y-78287303D01*
X243595727Y-78282461D01*
X243558884Y-78260216D01*
X243554042Y-78240776D01*
X243531797Y-78203933D01*
X243512357Y-78199091D01*
X243475514Y-78176846D01*
X243470672Y-78157406D01*
X243445816Y-78124313D01*
X243387302Y-78115722D01*
X243321114Y-78103294D01*
X243303932Y-78074037D01*
X243294987Y-78055001D01*
X243262168Y-78042618D01*
X243196504Y-78035605D01*
X243089023Y-78032682D01*
X243012138Y-78032352D01*
X242878889Y-78033630D01*
X242792206Y-78038318D01*
X242743119Y-78047699D01*
X242722653Y-78063053D01*
X242720344Y-78074037D01*
X242695488Y-78107131D01*
X242636974Y-78115722D01*
X242570786Y-78128150D01*
X242553604Y-78157406D01*
X242531359Y-78194250D01*
X242511919Y-78199091D01*
X242475076Y-78221336D01*
X242470234Y-78240776D01*
X242447989Y-78277619D01*
X242428549Y-78282461D01*
X242391706Y-78304706D01*
X242386865Y-78324146D01*
X242364620Y-78360989D01*
X242345180Y-78365831D01*
X242308337Y-78388076D01*
X242303495Y-78407516D01*
X242281250Y-78444359D01*
X242261810Y-78449201D01*
X242228716Y-78474057D01*
X242220125Y-78532571D01*
X242207697Y-78598758D01*
X242178440Y-78615940D01*
X242145346Y-78640796D01*
X242136755Y-78699310D01*
X242143641Y-78758361D01*
X242176123Y-78780126D01*
X242220125Y-78782680D01*
X242286313Y-78795108D01*
X242303495Y-78824365D01*
X242281250Y-78861208D01*
X242261810Y-78866050D01*
X242234335Y-78882416D01*
X242221820Y-78938064D01*
X242220125Y-78991105D01*
X242225580Y-79073530D01*
X242244130Y-79111074D01*
X242261810Y-79116159D01*
X242289285Y-79132525D01*
X242301800Y-79188173D01*
X242303495Y-79241214D01*
X242308950Y-79323639D01*
X242327499Y-79361184D01*
X242345180Y-79366269D01*
X242365516Y-79376015D01*
X242378183Y-79411588D01*
X242384764Y-79482484D01*
X242386843Y-79598203D01*
X242386865Y-79616378D01*
X242385240Y-79738397D01*
X242379311Y-79814400D01*
X242367495Y-79853887D01*
X242348209Y-79866356D01*
X242345180Y-79866487D01*
X242308337Y-79888732D01*
X242303495Y-79908172D01*
X242281250Y-79945015D01*
X242261810Y-79949857D01*
X242224967Y-79972102D01*
X242220125Y-79991542D01*
X242197880Y-80028385D01*
X242178440Y-80033227D01*
X242141597Y-80055472D01*
X242136755Y-80074912D01*
X242120389Y-80102387D01*
X242064741Y-80114902D01*
X242011700Y-80116597D01*
X241929275Y-80111142D01*
X241891731Y-80092592D01*
X241886646Y-80074912D01*
X241873840Y-80050707D01*
X241828446Y-80037712D01*
X241739996Y-80033309D01*
X241719906Y-80033227D01*
X241623088Y-80030026D01*
X241571107Y-80018677D01*
X241553495Y-79996565D01*
X241553167Y-79991542D01*
X241542249Y-79969554D01*
X241502794Y-79956648D01*
X241424751Y-79950812D01*
X241344742Y-79949857D01*
X241234804Y-79952041D01*
X241170271Y-79959932D01*
X241141093Y-79975540D01*
X241136318Y-79991542D01*
X241111461Y-80024636D01*
X241052948Y-80033227D01*
X240986760Y-80045655D01*
X240969578Y-80074912D01*
X240944722Y-80108006D01*
X240886208Y-80116597D01*
X240820020Y-80129025D01*
X240802838Y-80158282D01*
X240780593Y-80195125D01*
X240761153Y-80199967D01*
X240724310Y-80222212D01*
X240719468Y-80241652D01*
X240697224Y-80278495D01*
X240677784Y-80283336D01*
X240640941Y-80305581D01*
X240636099Y-80325021D01*
X240613854Y-80361864D01*
X240594414Y-80366706D01*
X240557571Y-80388951D01*
X240552729Y-80408391D01*
X240530484Y-80445234D01*
X240511044Y-80450076D01*
X240474201Y-80472321D01*
X240469359Y-80491761D01*
X240447114Y-80528604D01*
X240427674Y-80533446D01*
X240390831Y-80555691D01*
X240385989Y-80575131D01*
X240363744Y-80611974D01*
X240344304Y-80616816D01*
X240307461Y-80639061D01*
X240302619Y-80658501D01*
X240280375Y-80695344D01*
X240260935Y-80700185D01*
X240227841Y-80725042D01*
X240219250Y-80783555D01*
X240206822Y-80849743D01*
X240177565Y-80866925D01*
X240144471Y-80891781D01*
X240135880Y-80950295D01*
X240123452Y-81016483D01*
X240094195Y-81033665D01*
X240057352Y-81011420D01*
X240052510Y-80991980D01*
X240036144Y-80964505D01*
X239980496Y-80951990D01*
X239927455Y-80950295D01*
X239845030Y-80944840D01*
X239807486Y-80926290D01*
X239802401Y-80908610D01*
X239789595Y-80884405D01*
X239744201Y-80871410D01*
X239655751Y-80867007D01*
X239635661Y-80866925D01*
X239538843Y-80863724D01*
X239486862Y-80852375D01*
X239469250Y-80830263D01*
X239468921Y-80825240D01*
X239452555Y-80797765D01*
X239396907Y-80785250D01*
X239343867Y-80783555D01*
X239261442Y-80789011D01*
X239223897Y-80807560D01*
X239218812Y-80825240D01*
X239235178Y-80852715D01*
X239290826Y-80865230D01*
X239343867Y-80866925D01*
X239426292Y-80872380D01*
X239463837Y-80890930D01*
X239468921Y-80908610D01*
X239481727Y-80932815D01*
X239527121Y-80945810D01*
X239615571Y-80950213D01*
X239635661Y-80950295D01*
X239732479Y-80953496D01*
X239784460Y-80964845D01*
X239802072Y-80986957D01*
X239802401Y-80991980D01*
X239818767Y-81019455D01*
X239874415Y-81031970D01*
X239927455Y-81033665D01*
X240009881Y-81039120D01*
X240047425Y-81057669D01*
X240052510Y-81075350D01*
X240068876Y-81102825D01*
X240124524Y-81115340D01*
X240177565Y-81117034D01*
X240259990Y-81122490D01*
X240297535Y-81141039D01*
X240302619Y-81158719D01*
X240318985Y-81186194D01*
X240374634Y-81198709D01*
X240427674Y-81200404D01*
X240510099Y-81205860D01*
X240547644Y-81224409D01*
X240552729Y-81242089D01*
X240569095Y-81269564D01*
X240624743Y-81282079D01*
X240677784Y-81283774D01*
X240760209Y-81289229D01*
X240797753Y-81307779D01*
X240802838Y-81325459D01*
X240827694Y-81358553D01*
X240886208Y-81367144D01*
X240952396Y-81379572D01*
X240969578Y-81408829D01*
X240991823Y-81445672D01*
X241011263Y-81450514D01*
X241044357Y-81475370D01*
X241052948Y-81533884D01*
X241040520Y-81600071D01*
X241011263Y-81617253D01*
X240978169Y-81642109D01*
X240969578Y-81700623D01*
X240982006Y-81766811D01*
X241011263Y-81783993D01*
X241044357Y-81759137D01*
X241052948Y-81700623D01*
X241065376Y-81634435D01*
X241094633Y-81617253D01*
X241131476Y-81595008D01*
X241136318Y-81575568D01*
X241149123Y-81551364D01*
X241194517Y-81538369D01*
X241282967Y-81533966D01*
X241303057Y-81533884D01*
X241399875Y-81537085D01*
X241451856Y-81548433D01*
X241469468Y-81570546D01*
X241469797Y-81575568D01*
X241444941Y-81608662D01*
X241386427Y-81617253D01*
X241320239Y-81629681D01*
X241303057Y-81658938D01*
X241319423Y-81686413D01*
X241375071Y-81698928D01*
X241428112Y-81700623D01*
X241505010Y-81703040D01*
X241541431Y-81716994D01*
X241552460Y-81752541D01*
X241553167Y-81783993D01*
X241540738Y-81850181D01*
X241511482Y-81867363D01*
X241478388Y-81892219D01*
X241469797Y-81950733D01*
X241469797Y-82034102D01*
X241261372Y-82034102D01*
X241151434Y-82036286D01*
X241086901Y-82044177D01*
X241057723Y-82059785D01*
X241052948Y-82075787D01*
X241044586Y-82093759D01*
X241013834Y-82105850D01*
X240952189Y-82113123D01*
X240851147Y-82116640D01*
X240719468Y-82117472D01*
X240575691Y-82118517D01*
X240478964Y-82122361D01*
X240420785Y-82130067D01*
X240392650Y-82142697D01*
X240385989Y-82159157D01*
X240376243Y-82179493D01*
X240340670Y-82192161D01*
X240269774Y-82198742D01*
X240154055Y-82200820D01*
X240135880Y-82200842D01*
X240013861Y-82202466D01*
X239937858Y-82208395D01*
X239898371Y-82220211D01*
X239885902Y-82239498D01*
X239885770Y-82242527D01*
X239860914Y-82275621D01*
X239802401Y-82284212D01*
X239736213Y-82296640D01*
X239719031Y-82325897D01*
X239696786Y-82362740D01*
X239677346Y-82367582D01*
X239640503Y-82389826D01*
X239635661Y-82409266D01*
X239613416Y-82446109D01*
X239593976Y-82450951D01*
X239557133Y-82473196D01*
X239552291Y-82492636D01*
X239530046Y-82529479D01*
X239510606Y-82534321D01*
X239477512Y-82559177D01*
X239468921Y-82617691D01*
X239456493Y-82683879D01*
X239427237Y-82701061D01*
X239390394Y-82723306D01*
X239385552Y-82742746D01*
X239407797Y-82779589D01*
X239427237Y-82784431D01*
X239464080Y-82762186D01*
X239468921Y-82742746D01*
X239491166Y-82705903D01*
X239510606Y-82701061D01*
X239543700Y-82676205D01*
X239552291Y-82617691D01*
X239564719Y-82551503D01*
X239593976Y-82534321D01*
X239630819Y-82512076D01*
X239635661Y-82492636D01*
X239657906Y-82455793D01*
X239677346Y-82450951D01*
X239714189Y-82428706D01*
X239719031Y-82409266D01*
X239743887Y-82376173D01*
X239802401Y-82367582D01*
X239868588Y-82355153D01*
X239885770Y-82325897D01*
X239895517Y-82305560D01*
X239931090Y-82292893D01*
X240001986Y-82286312D01*
X240117704Y-82284234D01*
X240135880Y-82284212D01*
X240257898Y-82285836D01*
X240333902Y-82291765D01*
X240373389Y-82303581D01*
X240385857Y-82322867D01*
X240385989Y-82325897D01*
X240410845Y-82358991D01*
X240469359Y-82367582D01*
X240535547Y-82380010D01*
X240552729Y-82409266D01*
X240574974Y-82446109D01*
X240594414Y-82450951D01*
X240631257Y-82473196D01*
X240636099Y-82492636D01*
X240658344Y-82529479D01*
X240677784Y-82534321D01*
X240714627Y-82556566D01*
X240719468Y-82576006D01*
X240741713Y-82612849D01*
X240761153Y-82617691D01*
X240797996Y-82639936D01*
X240802838Y-82659376D01*
X240825083Y-82696219D01*
X240844523Y-82701061D01*
X240877617Y-82725917D01*
X240886208Y-82784431D01*
X240898636Y-82850618D01*
X240927893Y-82867800D01*
X240955368Y-82884166D01*
X240967883Y-82939814D01*
X240969578Y-82992855D01*
X240975033Y-83075280D01*
X240993583Y-83112825D01*
X241011263Y-83117910D01*
X241048106Y-83140155D01*
X241052948Y-83159595D01*
X241028092Y-83192689D01*
X240969578Y-83201280D01*
X240903390Y-83213708D01*
X240886208Y-83242964D01*
X240863963Y-83279808D01*
X240844523Y-83284649D01*
X240811429Y-83309505D01*
X240802838Y-83368019D01*
X240790410Y-83434207D01*
X240761153Y-83451389D01*
X240728059Y-83476245D01*
X240719468Y-83534759D01*
X240731897Y-83600947D01*
X240761153Y-83618129D01*
X240794247Y-83593273D01*
X240802838Y-83534759D01*
X240815266Y-83468571D01*
X240844523Y-83451389D01*
X240877617Y-83426533D01*
X240886208Y-83368019D01*
X240893094Y-83308968D01*
X240925576Y-83287203D01*
X240969578Y-83284649D01*
X241035766Y-83272221D01*
X241052948Y-83242964D01*
X241077804Y-83209871D01*
X241136318Y-83201280D01*
X241202505Y-83188852D01*
X241219687Y-83159595D01*
X241236053Y-83132120D01*
X241291701Y-83119605D01*
X241344742Y-83117910D01*
X241427167Y-83123365D01*
X241464712Y-83141914D01*
X241469797Y-83159595D01*
X241492042Y-83196438D01*
X241511482Y-83201280D01*
X241544576Y-83226136D01*
X241553167Y-83284649D01*
X241540738Y-83350837D01*
X241511482Y-83368019D01*
X241474639Y-83390264D01*
X241469797Y-83409704D01*
X241447552Y-83446547D01*
X241428112Y-83451389D01*
X241391269Y-83473634D01*
X241386427Y-83493074D01*
X241364182Y-83529917D01*
X241344742Y-83534759D01*
X241307899Y-83557004D01*
X241303057Y-83576444D01*
X241280812Y-83613287D01*
X241261372Y-83618129D01*
X241224529Y-83640374D01*
X241219687Y-83659813D01*
X241194831Y-83692907D01*
X241136318Y-83701498D01*
X241070130Y-83713926D01*
X241052948Y-83743183D01*
X241028092Y-83776277D01*
X240969578Y-83784868D01*
X240903390Y-83797296D01*
X240886208Y-83826553D01*
X240873403Y-83850758D01*
X240828009Y-83863753D01*
X240739559Y-83868156D01*
X240719468Y-83868238D01*
X240622650Y-83871439D01*
X240570669Y-83882788D01*
X240553058Y-83904900D01*
X240552729Y-83909923D01*
X240527873Y-83943017D01*
X240469359Y-83951608D01*
X240403171Y-83964036D01*
X240385989Y-83993293D01*
X240363744Y-84030136D01*
X240344304Y-84034978D01*
X240307461Y-84057223D01*
X240302619Y-84076662D01*
X240324864Y-84113506D01*
X240344304Y-84118347D01*
X240377398Y-84143203D01*
X240385989Y-84201717D01*
X240379103Y-84260768D01*
X240346622Y-84282533D01*
X240302619Y-84285087D01*
X240236432Y-84297515D01*
X240219250Y-84326772D01*
X240202884Y-84354247D01*
X240147236Y-84366762D01*
X240094195Y-84368457D01*
X240011770Y-84373912D01*
X239974225Y-84392461D01*
X239969140Y-84410142D01*
X239960779Y-84428114D01*
X239930027Y-84440205D01*
X239868381Y-84447477D01*
X239767340Y-84450994D01*
X239635661Y-84451827D01*
X239491884Y-84450781D01*
X239395157Y-84446937D01*
X239336977Y-84439232D01*
X239308842Y-84426602D01*
X239302182Y-84410142D01*
X239285816Y-84382667D01*
X239230168Y-84370152D01*
X239177127Y-84368457D01*
X239094702Y-84363001D01*
X239057157Y-84344452D01*
X239052072Y-84326772D01*
X239027216Y-84293678D01*
X238968703Y-84285087D01*
X238902515Y-84272659D01*
X238885333Y-84243402D01*
X238863088Y-84206559D01*
X238843648Y-84201717D01*
X238806805Y-84179472D01*
X238801963Y-84160032D01*
X238779718Y-84123189D01*
X238760278Y-84118347D01*
X238723435Y-84096102D01*
X238718593Y-84076662D01*
X238696348Y-84039819D01*
X238676908Y-84034978D01*
X238640065Y-84012733D01*
X238635223Y-83993293D01*
X238612978Y-83956450D01*
X238593539Y-83951608D01*
X238556695Y-83929363D01*
X238551854Y-83909923D01*
X238529609Y-83873080D01*
X238510169Y-83868238D01*
X238473326Y-83845993D01*
X238468484Y-83826553D01*
X238446239Y-83789710D01*
X238426799Y-83784868D01*
X238389956Y-83762623D01*
X238385114Y-83743183D01*
X238362869Y-83706340D01*
X238343429Y-83701498D01*
X238310335Y-83676642D01*
X238301744Y-83618129D01*
X238289316Y-83551941D01*
X238260059Y-83534759D01*
X238226965Y-83509903D01*
X238218374Y-83451389D01*
X238205946Y-83385201D01*
X238176689Y-83368019D01*
X238143596Y-83343163D01*
X238135005Y-83284649D01*
X238122577Y-83218462D01*
X238093320Y-83201280D01*
X238065845Y-83184914D01*
X238053330Y-83129266D01*
X238051635Y-83076225D01*
X238046179Y-82993800D01*
X238027630Y-82956255D01*
X238009950Y-82951170D01*
X237994300Y-82943896D01*
X237983030Y-82917139D01*
X237975465Y-82863494D01*
X237970932Y-82775560D01*
X237968760Y-82645932D01*
X237968265Y-82492636D01*
X237968926Y-82320493D01*
X237971359Y-82196515D01*
X237976236Y-82113300D01*
X237984230Y-82063444D01*
X237996014Y-82039543D01*
X238009950Y-82034102D01*
X238034154Y-82021297D01*
X238047150Y-81975903D01*
X238051553Y-81887453D01*
X238051635Y-81867363D01*
X238054836Y-81770545D01*
X238066185Y-81718563D01*
X238088297Y-81700952D01*
X238093320Y-81700623D01*
X238126414Y-81675767D01*
X238135005Y-81617253D01*
X238147433Y-81551066D01*
X238176689Y-81533884D01*
X238204165Y-81517518D01*
X238216679Y-81461869D01*
X238218374Y-81408829D01*
X238223830Y-81326404D01*
X238242379Y-81288859D01*
X238260059Y-81283774D01*
X238293153Y-81258918D01*
X238301744Y-81200404D01*
X238314172Y-81134217D01*
X238343429Y-81117034D01*
X238376523Y-81092178D01*
X238385114Y-81033665D01*
X238397542Y-80967477D01*
X238426799Y-80950295D01*
X238463642Y-80928050D01*
X238468484Y-80908610D01*
X238490729Y-80871767D01*
X238510169Y-80866925D01*
X238547012Y-80889170D01*
X238551854Y-80908610D01*
X238574099Y-80945453D01*
X238593539Y-80950295D01*
X238630382Y-80928050D01*
X238635223Y-80908610D01*
X238612978Y-80871767D01*
X238593539Y-80866925D01*
X238556695Y-80844680D01*
X238551854Y-80825240D01*
X238529609Y-80788397D01*
X238510169Y-80783555D01*
X238473326Y-80761310D01*
X238468484Y-80741870D01*
X238446239Y-80705027D01*
X238426799Y-80700185D01*
X238389956Y-80677941D01*
X238385114Y-80658501D01*
X238362869Y-80621658D01*
X238343429Y-80616816D01*
X238306586Y-80594571D01*
X238301744Y-80575131D01*
X238276888Y-80542037D01*
X238218374Y-80533446D01*
X238152187Y-80521018D01*
X238135005Y-80491761D01*
X238112760Y-80454918D01*
X238093320Y-80450076D01*
X238056477Y-80427831D01*
X238051635Y-80408391D01*
X238029390Y-80371548D01*
X238009950Y-80366706D01*
X237976856Y-80341850D01*
X237968265Y-80283336D01*
X237955837Y-80217149D01*
X237926580Y-80199967D01*
X237902376Y-80187161D01*
X237889380Y-80141767D01*
X237884977Y-80053317D01*
X237884895Y-80033227D01*
X237888097Y-79936409D01*
X237899445Y-79884428D01*
X237921558Y-79866816D01*
X237926580Y-79866487D01*
X237959674Y-79841631D01*
X237962145Y-79824803D01*
X238635223Y-79824803D01*
X238657468Y-79861646D01*
X238676908Y-79866487D01*
X238713751Y-79888732D01*
X238718593Y-79908172D01*
X238740838Y-79945015D01*
X238760278Y-79949857D01*
X238784483Y-79962663D01*
X238797478Y-80008057D01*
X238801881Y-80096507D01*
X238801963Y-80116597D01*
X238805164Y-80213415D01*
X238816513Y-80265396D01*
X238838625Y-80283008D01*
X238843648Y-80283336D01*
X238880491Y-80305581D01*
X238885333Y-80325021D01*
X238910189Y-80358115D01*
X238968703Y-80366706D01*
X239034890Y-80354278D01*
X239052072Y-80325021D01*
X239074317Y-80288178D01*
X239093757Y-80283336D01*
X239130600Y-80261092D01*
X239135442Y-80241652D01*
X239157687Y-80204809D01*
X239177127Y-80199967D01*
X239204602Y-80183601D01*
X239217117Y-80127953D01*
X239218812Y-80074912D01*
X239224267Y-79992487D01*
X239242817Y-79954942D01*
X239260497Y-79949857D01*
X239297340Y-79927612D01*
X239302182Y-79908172D01*
X239324427Y-79871329D01*
X239343867Y-79866487D01*
X239380710Y-79844243D01*
X239385552Y-79824803D01*
X239363307Y-79787960D01*
X239343867Y-79783118D01*
X239307024Y-79805363D01*
X239302182Y-79824803D01*
X239279937Y-79861646D01*
X239260497Y-79866487D01*
X239223654Y-79888732D01*
X239218812Y-79908172D01*
X239207894Y-79930160D01*
X239168439Y-79943067D01*
X239090397Y-79948902D01*
X239010388Y-79949857D01*
X238900449Y-79947674D01*
X238835917Y-79939783D01*
X238806738Y-79924174D01*
X238801963Y-79908172D01*
X238779718Y-79871329D01*
X238760278Y-79866487D01*
X238723435Y-79844243D01*
X238718593Y-79824803D01*
X238696348Y-79787960D01*
X238676908Y-79783118D01*
X238640065Y-79805363D01*
X238635223Y-79824803D01*
X237962145Y-79824803D01*
X237968265Y-79783118D01*
X237980693Y-79716930D01*
X238009950Y-79699748D01*
X238046793Y-79677503D01*
X238051635Y-79658063D01*
X238073880Y-79621220D01*
X238093320Y-79616378D01*
X238968703Y-79616378D01*
X238975589Y-79675429D01*
X239008070Y-79697194D01*
X239052072Y-79699748D01*
X239118260Y-79687320D01*
X239135442Y-79658063D01*
X239885770Y-79658063D01*
X239908015Y-79694906D01*
X239927455Y-79699748D01*
X239964298Y-79677503D01*
X239969140Y-79658063D01*
X239976414Y-79642414D01*
X240003172Y-79631143D01*
X240056816Y-79623578D01*
X240144751Y-79619045D01*
X240274378Y-79616873D01*
X240427674Y-79616378D01*
X240599818Y-79617039D01*
X240723795Y-79619472D01*
X240807011Y-79624349D01*
X240856867Y-79632343D01*
X240880767Y-79644127D01*
X240886208Y-79658063D01*
X240908453Y-79694906D01*
X240927893Y-79699748D01*
X240964736Y-79721993D01*
X240969578Y-79741433D01*
X240991823Y-79778276D01*
X241011263Y-79783118D01*
X241048106Y-79760873D01*
X241052948Y-79741433D01*
X241030703Y-79704590D01*
X241011263Y-79699748D01*
X240974420Y-79677503D01*
X240969578Y-79658063D01*
X240947333Y-79621220D01*
X240927893Y-79616378D01*
X240891050Y-79594133D01*
X240886208Y-79574693D01*
X240861352Y-79541599D01*
X240802838Y-79533008D01*
X240736651Y-79520580D01*
X240719468Y-79491323D01*
X240710523Y-79472288D01*
X240677704Y-79459905D01*
X240612040Y-79452892D01*
X240504559Y-79449968D01*
X240427674Y-79449638D01*
X240294425Y-79450916D01*
X240207742Y-79455605D01*
X240158655Y-79464985D01*
X240138189Y-79480340D01*
X240135880Y-79491323D01*
X240111024Y-79524417D01*
X240052510Y-79533008D01*
X239986322Y-79545436D01*
X239969140Y-79574693D01*
X239946895Y-79611536D01*
X239927455Y-79616378D01*
X239890612Y-79638623D01*
X239885770Y-79658063D01*
X239135442Y-79658063D01*
X239157687Y-79621220D01*
X239177127Y-79616378D01*
X239213970Y-79594133D01*
X239218812Y-79574693D01*
X239202446Y-79547218D01*
X239146798Y-79534703D01*
X239093757Y-79533008D01*
X239016859Y-79535425D01*
X238980438Y-79549379D01*
X238969410Y-79584926D01*
X238968703Y-79616378D01*
X238093320Y-79616378D01*
X238130163Y-79594133D01*
X238135005Y-79574693D01*
X238145923Y-79552705D01*
X238185377Y-79539799D01*
X238263420Y-79533963D01*
X238343429Y-79533008D01*
X238453367Y-79530825D01*
X238517900Y-79522934D01*
X238547078Y-79507325D01*
X238551854Y-79491323D01*
X238529609Y-79454480D01*
X238510169Y-79449638D01*
X238473326Y-79427394D01*
X238468484Y-79407954D01*
X238443628Y-79374860D01*
X238385114Y-79366269D01*
X238301744Y-79366269D01*
X238301744Y-79199529D01*
X238304946Y-79102711D01*
X238316294Y-79050730D01*
X238338407Y-79033118D01*
X238343429Y-79032789D01*
X238376523Y-79007933D01*
X238385114Y-78949420D01*
X238397542Y-78883232D01*
X238426799Y-78866050D01*
X238459893Y-78841194D01*
X238468484Y-78782680D01*
X238480912Y-78716492D01*
X238510169Y-78699310D01*
X238547012Y-78721555D01*
X238551854Y-78740995D01*
X238574099Y-78777838D01*
X238593539Y-78782680D01*
X238630382Y-78760435D01*
X238635223Y-78740995D01*
X238660079Y-78707901D01*
X238718593Y-78699310D01*
X238784781Y-78686882D01*
X238801963Y-78657625D01*
X238824208Y-78620782D01*
X238843648Y-78615940D01*
X238880491Y-78593695D01*
X238885333Y-78574255D01*
X238863088Y-78537412D01*
X238843648Y-78532571D01*
X238806805Y-78554816D01*
X238801963Y-78574255D01*
X238777107Y-78607349D01*
X238718593Y-78615940D01*
X238652405Y-78603512D01*
X238635223Y-78574255D01*
X238657468Y-78537412D01*
X238676908Y-78532571D01*
X238713751Y-78510326D01*
X238718593Y-78490886D01*
G37*
G36*
X244853375Y-86179750D02*
G01*
X245081368Y-86407750D01*
X244927368Y-86407750D01*
X244773368Y-86407750D01*
X244545375Y-86179750D01*
X244317381Y-85951750D01*
X244471381Y-85951750D01*
X244625381Y-85951750D01*
X244853375Y-86179750D01*
G37*
G36*
X245247375Y-86065750D02*
G01*
X245361361Y-86179750D01*
X245206361Y-86179750D01*
X245051361Y-86179750D01*
X244937375Y-86065750D01*
X244823388Y-85951750D01*
X244978388Y-85951750D01*
X245133388Y-85951750D01*
X245247375Y-86065750D01*
G37*
G36*
X245110141Y-85118516D02*
G01*
X245224895Y-85233283D01*
X245213135Y-85242550D01*
X245169171Y-85274889D01*
X245122067Y-85305173D01*
X245072224Y-85333209D01*
X245020041Y-85358805D01*
X244965918Y-85381768D01*
X244910255Y-85401905D01*
X244853453Y-85419024D01*
X244838375Y-85423001D01*
X244826948Y-85425942D01*
X244816743Y-85428601D01*
X244808443Y-85430796D01*
X244802730Y-85432347D01*
X244800375Y-85433040D01*
X244801169Y-85433857D01*
X244805282Y-85435424D01*
X244812144Y-85437560D01*
X244821184Y-85440084D01*
X244828375Y-85441951D01*
X244892495Y-85460060D01*
X244954272Y-85481409D01*
X245013703Y-85505995D01*
X245070786Y-85533819D01*
X245125521Y-85564879D01*
X245177906Y-85599176D01*
X245227939Y-85636708D01*
X245252375Y-85656944D01*
X245264906Y-85668047D01*
X245279294Y-85681429D01*
X245294805Y-85696355D01*
X245310703Y-85712093D01*
X245326252Y-85727907D01*
X245340719Y-85743064D01*
X245353369Y-85756830D01*
X245360325Y-85764750D01*
X245379181Y-85786750D01*
X244795271Y-85787253D01*
X244211360Y-85787756D01*
X244015371Y-85983753D01*
X243819382Y-86179750D01*
X244015375Y-86375750D01*
X244211367Y-86571750D01*
X244994369Y-86571750D01*
X245777371Y-86571750D01*
X245385375Y-86963750D01*
X244993378Y-87355750D01*
X244503375Y-87355750D01*
X244013371Y-87355750D01*
X243621873Y-86964248D01*
X243230375Y-86572746D01*
X243230374Y-86179746D01*
X243230374Y-85786746D01*
X243621876Y-85395248D01*
X244013378Y-85003750D01*
X244504383Y-85003750D01*
X244995388Y-85003750D01*
X245110141Y-85118516D01*
G37*
G36*
X245692949Y-84799220D02*
G01*
X245694199Y-84802144D01*
X245695971Y-84808058D01*
X245698423Y-84817360D01*
X245699284Y-84820750D01*
X245715372Y-84876328D01*
X245735160Y-84930454D01*
X245758562Y-84982970D01*
X245785491Y-85033719D01*
X245815863Y-85082543D01*
X245849591Y-85129285D01*
X245886591Y-85173788D01*
X245897778Y-85186099D01*
X245936412Y-85224946D01*
X245978083Y-85261508D01*
X246022363Y-85295490D01*
X246068821Y-85326599D01*
X246117028Y-85354539D01*
X246166554Y-85379016D01*
X246200375Y-85393378D01*
X246221665Y-85401414D01*
X246244643Y-85409366D01*
X246267905Y-85416781D01*
X246290048Y-85423209D01*
X246305163Y-85427130D01*
X246314144Y-85429389D01*
X246321507Y-85431391D01*
X246326493Y-85432920D01*
X246328345Y-85433758D01*
X246328345Y-85433760D01*
X246326530Y-85434589D01*
X246321533Y-85436161D01*
X246314057Y-85438272D01*
X246304805Y-85440717D01*
X246301875Y-85441463D01*
X246247609Y-85457212D01*
X246194722Y-85476643D01*
X246143385Y-85499628D01*
X246093769Y-85526036D01*
X246046043Y-85555736D01*
X246000379Y-85588600D01*
X245956947Y-85624497D01*
X245915918Y-85663296D01*
X245877463Y-85704869D01*
X245841751Y-85749085D01*
X245808954Y-85795813D01*
X245784451Y-85835750D01*
X245758575Y-85884558D01*
X245735820Y-85935603D01*
X245716388Y-85988389D01*
X245700481Y-86042419D01*
X245700407Y-86042704D01*
X245697439Y-86053999D01*
X245695236Y-86061793D01*
X245693647Y-86066477D01*
X245692522Y-86068445D01*
X245691713Y-86068090D01*
X245691262Y-86066704D01*
X245683550Y-86036044D01*
X245675547Y-86007956D01*
X245666812Y-85981017D01*
X245656899Y-85953803D01*
X245652991Y-85943750D01*
X245630102Y-85891103D01*
X245603856Y-85840522D01*
X245574396Y-85792132D01*
X245541864Y-85746056D01*
X245506400Y-85702420D01*
X245468146Y-85661348D01*
X245427245Y-85622964D01*
X245383837Y-85587394D01*
X245338064Y-85554761D01*
X245290067Y-85525190D01*
X245239989Y-85498807D01*
X245187970Y-85475734D01*
X245134153Y-85456098D01*
X245081375Y-85440710D01*
X245072146Y-85438217D01*
X245064804Y-85435993D01*
X245059954Y-85434241D01*
X245058202Y-85433165D01*
X245058375Y-85433003D01*
X245061322Y-85432149D01*
X245067355Y-85430513D01*
X245075682Y-85428304D01*
X245085514Y-85425734D01*
X245088998Y-85424832D01*
X245143026Y-85408825D01*
X245195533Y-85389211D01*
X245246369Y-85366137D01*
X245295382Y-85339756D01*
X245342422Y-85310215D01*
X245387337Y-85277666D01*
X245429977Y-85242259D01*
X245470191Y-85204142D01*
X245507827Y-85163466D01*
X245542734Y-85120381D01*
X245574763Y-85075036D01*
X245603761Y-85027582D01*
X245629578Y-84978169D01*
X245652062Y-84926946D01*
X245671064Y-84874063D01*
X245682316Y-84835750D01*
X245685156Y-84825044D01*
X245687717Y-84815264D01*
X245689776Y-84807276D01*
X245691109Y-84801941D01*
X245691387Y-84800750D01*
X245692064Y-84798888D01*
X245692949Y-84799220D01*
G37*
%TD*%
M02*
