%TF.GenerationSoftware,KiCad,Pcbnew,(7.0.0)*%
%TF.CreationDate,2024-03-03T18:31:53+01:00*%
%TF.ProjectId,kicad_tsuru,6b696361-645f-4747-9375-72752e6b6963,rev?*%
%TF.SameCoordinates,Original*%
%TF.FileFunction,Soldermask,Top*%
%TF.FilePolarity,Negative*%
%FSLAX46Y46*%
G04 Gerber Fmt 4.6, Leading zero omitted, Abs format (unit mm)*
G04 Created by KiCad (PCBNEW (7.0.0)) date 2024-03-03 18:31:53*
%MOMM*%
%LPD*%
G01*
G04 APERTURE LIST*
G04 Aperture macros list*
%AMRoundRect*
0 Rectangle with rounded corners*
0 $1 Rounding radius*
0 $2 $3 $4 $5 $6 $7 $8 $9 X,Y pos of 4 corners*
0 Add a 4 corners polygon primitive as box body*
4,1,4,$2,$3,$4,$5,$6,$7,$8,$9,$2,$3,0*
0 Add four circle primitives for the rounded corners*
1,1,$1+$1,$2,$3*
1,1,$1+$1,$4,$5*
1,1,$1+$1,$6,$7*
1,1,$1+$1,$8,$9*
0 Add four rect primitives between the rounded corners*
20,1,$1+$1,$2,$3,$4,$5,0*
20,1,$1+$1,$4,$5,$6,$7,0*
20,1,$1+$1,$6,$7,$8,$9,0*
20,1,$1+$1,$8,$9,$2,$3,0*%
G04 Aperture macros list end*
%ADD10C,1.750000*%
%ADD11C,3.987800*%
%ADD12C,3.420000*%
%ADD13C,3.523634*%
%ADD14RoundRect,0.425000X-0.425000X0.425000X-0.425000X-0.425000X0.425000X-0.425000X0.425000X0.425000X0*%
%ADD15O,1.700000X1.700000*%
%ADD16C,0.700000*%
%ADD17C,4.400000*%
%ADD18C,3.048000*%
%ADD19C,0.990600*%
%ADD20C,0.650000*%
%ADD21O,1.000000X1.600000*%
%ADD22O,0.900000X2.100000*%
G04 APERTURE END LIST*
D10*
%TO.C,MX19*%
X214124375Y-71806250D03*
D11*
X219204375Y-71806250D03*
D10*
X224284375Y-71806250D03*
D12*
X215394375Y-69266250D03*
D13*
X221744375Y-66726250D03*
%TD*%
D10*
%TO.C,MX6*%
X162371875Y-52756250D03*
D11*
X157291875Y-52756250D03*
D10*
X152211875Y-52756250D03*
D12*
X161101875Y-55296250D03*
D13*
X154751875Y-57836250D03*
%TD*%
D10*
%TO.C,MX30*%
X248096875Y-90856250D03*
D11*
X243016875Y-90856250D03*
D10*
X237936875Y-90856250D03*
D12*
X246826875Y-93396250D03*
D13*
X240476875Y-95936250D03*
%TD*%
D10*
%TO.C,MX31*%
X152846875Y-90856250D03*
D11*
X147766875Y-90856250D03*
D10*
X142686875Y-90856250D03*
D12*
X151576875Y-93396250D03*
D13*
X145226875Y-95936250D03*
%TD*%
D10*
%TO.C,MX25*%
X123636875Y-90856250D03*
D11*
X128716875Y-90856250D03*
D10*
X133796875Y-90856250D03*
D12*
X124906875Y-88316250D03*
D13*
X131256875Y-85776250D03*
%TD*%
D10*
%TO.C,MX16*%
X156974375Y-71806250D03*
D11*
X162054375Y-71806250D03*
D10*
X167134375Y-71806250D03*
D12*
X158244375Y-69266250D03*
D13*
X164594375Y-66726250D03*
%TD*%
D10*
%TO.C,MX18*%
X195074375Y-71806250D03*
D11*
X200154375Y-71806250D03*
D10*
X205234375Y-71806250D03*
D12*
X196344375Y-69266250D03*
D13*
X202694375Y-66726250D03*
%TD*%
D10*
%TO.C,MX3*%
X105221875Y-52756250D03*
D11*
X100141875Y-52756250D03*
D10*
X95061875Y-52756250D03*
D12*
X103951875Y-55296250D03*
D13*
X97601875Y-57836250D03*
%TD*%
D10*
%TO.C,MX5*%
X143321875Y-52756250D03*
D11*
X138241875Y-52756250D03*
D10*
X133161875Y-52756250D03*
D12*
X142051875Y-55296250D03*
D13*
X135701875Y-57836250D03*
%TD*%
D14*
%TO.C,J3*%
X139376875Y-75876250D03*
D15*
X136836874Y-75876249D03*
X134296874Y-75876249D03*
X131756874Y-75876249D03*
X129216874Y-75876249D03*
%TD*%
D10*
%TO.C,MX12*%
X71249375Y-71806250D03*
D11*
X76329375Y-71806250D03*
D10*
X81409375Y-71806250D03*
D12*
X72519375Y-69266250D03*
D13*
X78869375Y-66726250D03*
%TD*%
D16*
%TO.C,H3*%
X44913735Y-81331322D03*
X45397009Y-80164596D03*
X45397009Y-82498048D03*
X46563735Y-79681322D03*
D17*
X46563735Y-81331322D03*
D16*
X46563735Y-82981322D03*
X47730461Y-80164596D03*
X47730461Y-82498048D03*
X48213735Y-81331322D03*
%TD*%
D10*
%TO.C,MX24*%
X114746875Y-90856250D03*
D11*
X109666875Y-90856250D03*
D10*
X104586875Y-90856250D03*
D12*
X113476875Y-93396250D03*
D13*
X107126875Y-95936250D03*
%TD*%
D10*
%TO.C,MX22*%
X76646875Y-90856250D03*
D11*
X71566875Y-90856250D03*
D10*
X66486875Y-90856250D03*
D12*
X75376875Y-93396250D03*
D13*
X69026875Y-95936250D03*
%TD*%
D10*
%TO.C,MX29*%
X229046875Y-90856250D03*
D11*
X223966875Y-90856250D03*
D10*
X218886875Y-90856250D03*
D12*
X227776875Y-93396250D03*
D13*
X221426875Y-95936250D03*
%TD*%
D16*
%TO.C,H1*%
X67535667Y-48291395D03*
X68018941Y-47124669D03*
X68018941Y-49458121D03*
X69185667Y-46641395D03*
D17*
X69185667Y-48291395D03*
D16*
X69185667Y-49941395D03*
X70352393Y-47124669D03*
X70352393Y-49458121D03*
X70835667Y-48291395D03*
%TD*%
D10*
%TO.C,MX17*%
X176024375Y-71806250D03*
D11*
X181104375Y-71806250D03*
D10*
X186184375Y-71806250D03*
D12*
X177294375Y-69266250D03*
D13*
X183644375Y-66726250D03*
%TD*%
D10*
%TO.C,MX15*%
X128399375Y-71806250D03*
D11*
X133479375Y-71806250D03*
D10*
X138559375Y-71806250D03*
D12*
X129669375Y-69266250D03*
D13*
X136019375Y-66726250D03*
%TD*%
D10*
%TO.C,MX21*%
X57596875Y-90856250D03*
D11*
X52516875Y-90856250D03*
D10*
X47436875Y-90856250D03*
D12*
X56326875Y-93396250D03*
D13*
X49976875Y-95936250D03*
%TD*%
D10*
%TO.C,MX27*%
X190946875Y-90856250D03*
D11*
X185866875Y-90856250D03*
D10*
X180786875Y-90856250D03*
D12*
X189676875Y-93396250D03*
D13*
X183326875Y-95936250D03*
%TD*%
D10*
%TO.C,MX7*%
X181421875Y-52756250D03*
D11*
X176341875Y-52756250D03*
D10*
X171261875Y-52756250D03*
D12*
X180151875Y-55296250D03*
D13*
X173801875Y-57836250D03*
%TD*%
D10*
%TO.C,MX26*%
X161736875Y-90856250D03*
D11*
X166816875Y-90856250D03*
D10*
X171896875Y-90856250D03*
D12*
X163006875Y-88316250D03*
D13*
X169356875Y-85776250D03*
%TD*%
D10*
%TO.C,MX20*%
X235555625Y-71806250D03*
D11*
X240635625Y-71806250D03*
D10*
X245715625Y-71806250D03*
D12*
X236825625Y-69266250D03*
D13*
X243175625Y-66726250D03*
%TD*%
D11*
%TO.C,S2*%
X232380625Y-50375000D03*
X232380625Y-74187500D03*
D18*
X247620625Y-50375000D03*
X247620625Y-74187500D03*
%TD*%
D10*
%TO.C,MX4*%
X124271875Y-52756250D03*
D11*
X119191875Y-52756250D03*
D10*
X114111875Y-52756250D03*
D12*
X123001875Y-55296250D03*
D13*
X116651875Y-57836250D03*
%TD*%
D10*
%TO.C,MX32*%
X235555625Y-62281250D03*
D11*
X240635625Y-62281250D03*
D10*
X245715625Y-62281250D03*
D12*
X236825625Y-59741250D03*
D13*
X243175625Y-57201250D03*
%TD*%
D10*
%TO.C,MX14*%
X109349375Y-71806250D03*
D11*
X114429375Y-71806250D03*
D10*
X119509375Y-71806250D03*
D12*
X110619375Y-69266250D03*
D13*
X116969375Y-66726250D03*
%TD*%
D10*
%TO.C,MX23*%
X95696875Y-90856250D03*
D11*
X90616875Y-90856250D03*
D10*
X85536875Y-90856250D03*
D12*
X94426875Y-93396250D03*
D13*
X88076875Y-95936250D03*
%TD*%
D16*
%TO.C,H2*%
X224698563Y-48291395D03*
X225181837Y-47124669D03*
X225181837Y-49458121D03*
X226348563Y-46641395D03*
D17*
X226348563Y-48291395D03*
D16*
X226348563Y-49941395D03*
X227515289Y-47124669D03*
X227515289Y-49458121D03*
X227998563Y-48291395D03*
%TD*%
%TO.C,H4*%
X247320495Y-81331322D03*
X247803769Y-80164596D03*
X247803769Y-82498048D03*
X248970495Y-79681322D03*
D17*
X248970495Y-81331322D03*
D16*
X248970495Y-82981322D03*
X250137221Y-80164596D03*
X250137221Y-82498048D03*
X250620495Y-81331322D03*
%TD*%
D10*
%TO.C,MX1*%
X62359375Y-52756250D03*
D11*
X57279375Y-52756250D03*
D10*
X52199375Y-52756250D03*
D12*
X61089375Y-55296250D03*
D13*
X54739375Y-57836250D03*
%TD*%
D10*
%TO.C,MX28*%
X209996875Y-90856250D03*
D11*
X204916875Y-90856250D03*
D10*
X199836875Y-90856250D03*
D12*
X208726875Y-93396250D03*
D13*
X202376875Y-95936250D03*
%TD*%
D10*
%TO.C,MX10*%
X243334375Y-52756250D03*
D11*
X238254375Y-52756250D03*
D10*
X233174375Y-52756250D03*
D12*
X242064375Y-55296250D03*
D13*
X235714375Y-57836250D03*
%TD*%
D10*
%TO.C,MX2*%
X86171875Y-52756250D03*
D11*
X81091875Y-52756250D03*
D10*
X76011875Y-52756250D03*
D12*
X84901875Y-55296250D03*
D13*
X78551875Y-57836250D03*
%TD*%
D11*
%TO.C,S1*%
X166816875Y-82601250D03*
X128716875Y-82601250D03*
%TD*%
D10*
%TO.C,MX11*%
X49818125Y-71806250D03*
D11*
X54898125Y-71806250D03*
D10*
X59978125Y-71806250D03*
D12*
X51088125Y-69266250D03*
D13*
X57438125Y-66726250D03*
%TD*%
D10*
%TO.C,MX8*%
X200471875Y-52756250D03*
D11*
X195391875Y-52756250D03*
D10*
X190311875Y-52756250D03*
D12*
X199201875Y-55296250D03*
D13*
X192851875Y-57836250D03*
%TD*%
D10*
%TO.C,MX13*%
X90299375Y-71806250D03*
D11*
X95379375Y-71806250D03*
D10*
X100459375Y-71806250D03*
D12*
X91569375Y-69266250D03*
D13*
X97919375Y-66726250D03*
%TD*%
D10*
%TO.C,MX9*%
X219521875Y-52756250D03*
D11*
X214441875Y-52756250D03*
D10*
X209361875Y-52756250D03*
D12*
X218251875Y-55296250D03*
D13*
X211901875Y-57836250D03*
%TD*%
D19*
%TO.C,J2*%
X133638125Y-81172500D03*
X138718125Y-80156500D03*
X138718125Y-82188500D03*
%TD*%
D20*
%TO.C,J1*%
X144876875Y-48053750D03*
X150656875Y-48053750D03*
D21*
X143446874Y-44373749D03*
D22*
X143446874Y-48553749D03*
D21*
X152086874Y-44373749D03*
D22*
X152086874Y-48553749D03*
%TD*%
G36*
X147811309Y-59646554D02*
G01*
X149841923Y-61677154D01*
X149863145Y-61685945D01*
X152206081Y-61685959D01*
X152250275Y-61704265D01*
X153973713Y-63427703D01*
X153989890Y-63455723D01*
X153989888Y-63488077D01*
X153973709Y-63516095D01*
X153129126Y-64360518D01*
X153125904Y-64365341D01*
X153124772Y-64371032D01*
X153124772Y-81007777D01*
X153106466Y-81051971D01*
X151383031Y-82775408D01*
X151355011Y-82791585D01*
X151322657Y-82791583D01*
X151294639Y-82775404D01*
X150450380Y-81930989D01*
X150445560Y-81927768D01*
X150439869Y-81926635D01*
X145100634Y-81926587D01*
X145079411Y-81935376D01*
X144239273Y-82775416D01*
X144195078Y-82793719D01*
X144150885Y-82775411D01*
X142427592Y-81051970D01*
X142409288Y-81007779D01*
X142409138Y-64377302D01*
X142400349Y-64356082D01*
X141560503Y-63516078D01*
X141543885Y-63475952D01*
X142616755Y-63475952D01*
X142632720Y-63597234D01*
X142634826Y-63605094D01*
X142681639Y-63718106D01*
X142685708Y-63725152D01*
X142761448Y-63823818D01*
X142764133Y-63826879D01*
X142855106Y-63917852D01*
X142860495Y-63923996D01*
X142932459Y-64017772D01*
X142940618Y-64031902D01*
X142984274Y-64137287D01*
X142988498Y-64153054D01*
X143003917Y-64270245D01*
X143004451Y-64278398D01*
X143004451Y-80526806D01*
X143004718Y-80530881D01*
X143020980Y-80654198D01*
X143023081Y-80662035D01*
X143069898Y-80775057D01*
X143073957Y-80782088D01*
X143149648Y-80880779D01*
X143152346Y-80883856D01*
X143840064Y-81571574D01*
X143843146Y-81574276D01*
X143941824Y-81649988D01*
X143948859Y-81654050D01*
X144061884Y-81700865D01*
X144069733Y-81702968D01*
X144191021Y-81718938D01*
X144199142Y-81718938D01*
X144320434Y-81702976D01*
X144328285Y-81700873D01*
X144441304Y-81654069D01*
X144448349Y-81650001D01*
X144547009Y-81574262D01*
X144550073Y-81571575D01*
X144641044Y-81480600D01*
X144647188Y-81475211D01*
X144740963Y-81403244D01*
X144755094Y-81395084D01*
X144860483Y-81351426D01*
X144876251Y-81347202D01*
X144993443Y-81331785D01*
X145001595Y-81331251D01*
X150532317Y-81331272D01*
X150540476Y-81331807D01*
X150657665Y-81347238D01*
X150673424Y-81351461D01*
X150778809Y-81395114D01*
X150792938Y-81403271D01*
X150886717Y-81475227D01*
X150892864Y-81480618D01*
X150983827Y-81571581D01*
X150986909Y-81574284D01*
X151085579Y-81650011D01*
X151092604Y-81654068D01*
X151205629Y-81700889D01*
X151213478Y-81702991D01*
X151334760Y-81718957D01*
X151342885Y-81718957D01*
X151464171Y-81702979D01*
X151472018Y-81700875D01*
X151585033Y-81654046D01*
X151592061Y-81649989D01*
X151690766Y-81574276D01*
X151693835Y-81571584D01*
X152381565Y-80883854D01*
X152384257Y-80880784D01*
X152459973Y-80782106D01*
X152464036Y-80775068D01*
X152510846Y-80662042D01*
X152512946Y-80654207D01*
X152529192Y-80530876D01*
X152529459Y-80526812D01*
X152529459Y-64278397D01*
X152529994Y-64270240D01*
X152545420Y-64153050D01*
X152549642Y-64137291D01*
X152593292Y-64031901D01*
X152601452Y-64017767D01*
X152673410Y-63924000D01*
X152678799Y-63917856D01*
X152769763Y-63826892D01*
X152772472Y-63823803D01*
X152848182Y-63725139D01*
X152852248Y-63718096D01*
X152899058Y-63605088D01*
X152901164Y-63597228D01*
X152917129Y-63475952D01*
X152917129Y-63467825D01*
X152901158Y-63346544D01*
X152899053Y-63338691D01*
X152852234Y-63225676D01*
X152848174Y-63218644D01*
X152772464Y-63119955D01*
X152769767Y-63116879D01*
X152082042Y-62429154D01*
X152078966Y-62426457D01*
X151980282Y-62350750D01*
X151973246Y-62346689D01*
X151860228Y-62299881D01*
X151852384Y-62297778D01*
X151729073Y-62281526D01*
X151724988Y-62281258D01*
X143808915Y-62281258D01*
X143804845Y-62281524D01*
X143681520Y-62297766D01*
X143673682Y-62299867D01*
X143560663Y-62346683D01*
X143553623Y-62350747D01*
X143454946Y-62426454D01*
X143451866Y-62429155D01*
X142764136Y-63116885D01*
X142761449Y-63119948D01*
X142685716Y-63218630D01*
X142681653Y-63225667D01*
X142634832Y-63338685D01*
X142632727Y-63346539D01*
X142616755Y-63467826D01*
X142616755Y-63475952D01*
X141543885Y-63475952D01*
X141542201Y-63471885D01*
X141560507Y-63427694D01*
X143283954Y-61704251D01*
X143328148Y-61685945D01*
X145671085Y-61685945D01*
X145692306Y-61677154D01*
X147722921Y-59646554D01*
X147767115Y-59628248D01*
X147811309Y-59646554D01*
G37*
M02*
