%TF.GenerationSoftware,KiCad,Pcbnew,(7.0.0)*%
%TF.CreationDate,2024-03-02T22:10:46+01:00*%
%TF.ProjectId,kicad_tsuru_plate,6b696361-645f-4747-9375-72755f706c61,rev?*%
%TF.SameCoordinates,Original*%
%TF.FileFunction,Soldermask,Bot*%
%TF.FilePolarity,Negative*%
%FSLAX46Y46*%
G04 Gerber Fmt 4.6, Leading zero omitted, Abs format (unit mm)*
G04 Created by KiCad (PCBNEW (7.0.0)) date 2024-03-02 22:10:46*
%MOMM*%
%LPD*%
G01*
G04 APERTURE LIST*
G04 APERTURE END LIST*
G36*
X72633898Y-93581843D02*
G01*
X72652204Y-93626037D01*
X72652204Y-95347995D01*
X72652134Y-95350945D01*
X72651777Y-95358500D01*
X72651224Y-95364354D01*
X72650370Y-95370356D01*
X72649268Y-95376136D01*
X72648479Y-95379424D01*
X72623445Y-95416112D01*
X72580361Y-95426907D01*
X72540986Y-95406357D01*
X72525204Y-95364840D01*
X72525204Y-95361910D01*
X72516413Y-95340688D01*
X71676427Y-94500702D01*
X71658121Y-94456508D01*
X71676427Y-94412314D01*
X72506898Y-93581843D01*
X72551092Y-93563537D01*
X72589704Y-93563537D01*
X72633898Y-93581843D01*
G37*
G36*
X92449917Y-89585302D02*
G01*
X92468223Y-89629496D01*
X92468223Y-89668108D01*
X92449917Y-89712302D01*
X91619446Y-90542773D01*
X91575252Y-90561079D01*
X91531058Y-90542773D01*
X90691071Y-89702786D01*
X90669850Y-89693996D01*
X90666920Y-89693996D01*
X90625407Y-89678218D01*
X90604854Y-89638850D01*
X90615638Y-89595769D01*
X90652315Y-89570726D01*
X90655602Y-89569936D01*
X90661403Y-89568829D01*
X90667405Y-89567975D01*
X90673268Y-89567421D01*
X90680824Y-89567065D01*
X90683765Y-89566996D01*
X92405723Y-89566996D01*
X92449917Y-89585302D01*
G37*
G36*
X135312525Y-70535254D02*
G01*
X135330831Y-70579448D01*
X135330831Y-70618060D01*
X135312525Y-70662254D01*
X134482054Y-71492725D01*
X134437860Y-71511031D01*
X134393666Y-71492725D01*
X133553679Y-70652738D01*
X133532458Y-70643948D01*
X133529528Y-70643948D01*
X133488015Y-70628170D01*
X133467462Y-70588802D01*
X133478246Y-70545721D01*
X133514923Y-70520678D01*
X133518210Y-70519888D01*
X133524011Y-70518781D01*
X133530013Y-70517927D01*
X133535876Y-70517373D01*
X133543432Y-70517017D01*
X133546373Y-70516948D01*
X135268331Y-70516948D01*
X135312525Y-70535254D01*
G37*
G36*
X197225181Y-89585302D02*
G01*
X197243487Y-89629496D01*
X197243487Y-89668108D01*
X197225181Y-89712302D01*
X196394710Y-90542773D01*
X196350516Y-90561079D01*
X196306322Y-90542773D01*
X195466335Y-89702786D01*
X195445114Y-89693996D01*
X195442184Y-89693996D01*
X195400671Y-89678218D01*
X195380118Y-89638850D01*
X195390902Y-89595769D01*
X195427579Y-89570726D01*
X195430866Y-89569936D01*
X195436667Y-89568829D01*
X195442669Y-89567975D01*
X195448532Y-89567421D01*
X195456088Y-89567065D01*
X195459029Y-89566996D01*
X197180987Y-89566996D01*
X197225181Y-89585302D01*
G37*
G36*
X179087868Y-70517017D02*
G01*
X179095423Y-70517373D01*
X179101285Y-70517927D01*
X179107287Y-70518781D01*
X179113084Y-70519887D01*
X179116372Y-70520677D01*
X179153051Y-70545718D01*
X179163837Y-70588800D01*
X179143285Y-70628169D01*
X179101771Y-70643948D01*
X179098841Y-70643948D01*
X179077619Y-70652738D01*
X178237633Y-71492725D01*
X178193439Y-71511031D01*
X178149245Y-71492725D01*
X177318774Y-70662254D01*
X177300468Y-70618060D01*
X177300468Y-70579448D01*
X177318774Y-70535254D01*
X177362968Y-70516948D01*
X179084926Y-70516948D01*
X179087868Y-70517017D01*
G37*
G36*
X237743145Y-55476771D02*
G01*
X238573616Y-56307242D01*
X238591922Y-56351436D01*
X238573616Y-56395630D01*
X237733629Y-57235616D01*
X237724839Y-57256838D01*
X237724839Y-57259768D01*
X237709060Y-57301282D01*
X237669691Y-57321834D01*
X237626609Y-57311048D01*
X237601568Y-57274369D01*
X237600778Y-57271081D01*
X237599672Y-57265284D01*
X237598818Y-57259282D01*
X237598264Y-57253420D01*
X237597908Y-57245865D01*
X237597839Y-57242923D01*
X237597839Y-55520965D01*
X237616145Y-55476771D01*
X237660339Y-55458465D01*
X237698951Y-55458465D01*
X237743145Y-55476771D01*
G37*
G36*
X52005177Y-74531795D02*
G01*
X52095565Y-74622183D01*
X52113871Y-74666377D01*
X52113871Y-76146543D01*
X52095565Y-76190737D01*
X51995661Y-76290640D01*
X51986871Y-76311862D01*
X51986871Y-89668108D01*
X51968565Y-89712302D01*
X51878177Y-89802690D01*
X51833983Y-89820996D01*
X50353817Y-89820996D01*
X50309623Y-89802690D01*
X50209719Y-89702786D01*
X50188498Y-89693996D01*
X38604737Y-89693996D01*
X38583515Y-89702786D01*
X38483612Y-89802690D01*
X38439418Y-89820996D01*
X37082010Y-89820996D01*
X37049536Y-89811897D01*
X37007814Y-89786525D01*
X37004040Y-89784569D01*
X36843964Y-89715039D01*
X36816603Y-89691991D01*
X36806364Y-89657713D01*
X36806364Y-88606707D01*
X37401684Y-88606707D01*
X37401952Y-88610787D01*
X37418234Y-88734103D01*
X37420335Y-88741938D01*
X37467142Y-88854963D01*
X37471202Y-88861996D01*
X37545663Y-88959050D01*
X37551405Y-88964792D01*
X37648449Y-89039266D01*
X37655487Y-89043330D01*
X37768497Y-89090146D01*
X37776342Y-89092248D01*
X37899656Y-89108487D01*
X37903729Y-89108755D01*
X50899634Y-89108755D01*
X50903718Y-89108487D01*
X51027035Y-89092283D01*
X51034884Y-89090181D01*
X51147915Y-89043363D01*
X51154943Y-89039305D01*
X51252005Y-88964823D01*
X51257743Y-88959084D01*
X51332218Y-88862019D01*
X51336277Y-88854987D01*
X51383089Y-88741953D01*
X51385189Y-88734114D01*
X51401418Y-88610776D01*
X51401684Y-88606716D01*
X51401684Y-75610803D01*
X51401415Y-75606722D01*
X51385135Y-75483409D01*
X51383035Y-75475579D01*
X51336218Y-75362559D01*
X51332157Y-75355526D01*
X51257691Y-75258476D01*
X51251951Y-75252736D01*
X51154908Y-75178263D01*
X51147873Y-75174200D01*
X51034868Y-75127378D01*
X51027017Y-75125274D01*
X50903718Y-75109023D01*
X50899633Y-75108755D01*
X37903728Y-75108755D01*
X37899659Y-75109021D01*
X37776330Y-75125267D01*
X37768487Y-75127368D01*
X37655456Y-75174175D01*
X37648428Y-75178231D01*
X37551362Y-75252704D01*
X37545625Y-75258442D01*
X37471146Y-75355503D01*
X37467089Y-75362532D01*
X37420278Y-75475556D01*
X37418175Y-75483405D01*
X37401949Y-75606733D01*
X37401684Y-75610794D01*
X37401684Y-88606707D01*
X36806364Y-88606707D01*
X36806364Y-76311862D01*
X36797573Y-76290640D01*
X36697670Y-76190737D01*
X36679364Y-76146543D01*
X36679364Y-74666377D01*
X36697670Y-74622183D01*
X36788058Y-74531795D01*
X36832252Y-74513489D01*
X51960983Y-74513489D01*
X52005177Y-74531795D01*
G37*
G36*
X205984234Y-93581843D02*
G01*
X206002540Y-93626037D01*
X206002540Y-95347995D01*
X206002470Y-95350945D01*
X206002113Y-95358500D01*
X206001560Y-95364354D01*
X206000706Y-95370356D01*
X205999604Y-95376136D01*
X205998815Y-95379424D01*
X205973781Y-95416112D01*
X205930697Y-95426907D01*
X205891322Y-95406357D01*
X205875540Y-95364840D01*
X205875540Y-95361910D01*
X205866749Y-95340688D01*
X205026763Y-94500702D01*
X205008457Y-94456508D01*
X205026763Y-94412314D01*
X205857234Y-93581843D01*
X205901428Y-93563537D01*
X205940040Y-93563537D01*
X205984234Y-93581843D01*
G37*
G36*
X202024305Y-93581843D02*
G01*
X202854776Y-94412314D01*
X202873082Y-94456508D01*
X202854776Y-94500702D01*
X202014789Y-95340688D01*
X202005999Y-95361910D01*
X202005999Y-95364840D01*
X201990220Y-95406354D01*
X201950851Y-95426906D01*
X201907769Y-95416120D01*
X201882728Y-95379441D01*
X201881938Y-95376153D01*
X201880832Y-95370356D01*
X201879978Y-95364354D01*
X201879424Y-95358492D01*
X201879068Y-95350937D01*
X201878999Y-95347995D01*
X201878999Y-93626037D01*
X201897305Y-93581843D01*
X201941499Y-93563537D01*
X201980111Y-93563537D01*
X202024305Y-93581843D01*
G37*
G36*
X216311841Y-74531795D02*
G01*
X217142312Y-75362266D01*
X217160618Y-75406460D01*
X217142312Y-75450654D01*
X216302325Y-76290640D01*
X216293535Y-76311862D01*
X216293535Y-76314792D01*
X216277756Y-76356306D01*
X216238387Y-76376858D01*
X216195305Y-76366072D01*
X216170264Y-76329393D01*
X216169474Y-76326105D01*
X216168368Y-76320308D01*
X216167514Y-76314306D01*
X216166960Y-76308444D01*
X216166604Y-76300889D01*
X216166535Y-76297947D01*
X216166535Y-74575989D01*
X216184841Y-74531795D01*
X216229035Y-74513489D01*
X216267647Y-74513489D01*
X216311841Y-74531795D01*
G37*
G36*
X216311841Y-74531795D02*
G01*
X216402229Y-74622183D01*
X216420535Y-74666377D01*
X216420535Y-76146543D01*
X216402229Y-76190737D01*
X216302325Y-76290640D01*
X216293535Y-76311862D01*
X216293535Y-89668108D01*
X216275229Y-89712302D01*
X216184841Y-89802690D01*
X216140647Y-89820996D01*
X214660481Y-89820996D01*
X214616287Y-89802690D01*
X214516383Y-89702786D01*
X214495162Y-89693996D01*
X202911401Y-89693996D01*
X202890179Y-89702786D01*
X202790276Y-89802690D01*
X202746082Y-89820996D01*
X201265916Y-89820996D01*
X201221722Y-89802690D01*
X201131334Y-89712302D01*
X201113028Y-89668108D01*
X201113028Y-88606712D01*
X201707934Y-88606712D01*
X201708199Y-88610782D01*
X201724343Y-88734109D01*
X201726449Y-88741978D01*
X201773264Y-88855001D01*
X201777331Y-88862044D01*
X201851814Y-88959101D01*
X201857559Y-88964846D01*
X201954637Y-89039318D01*
X201961671Y-89043377D01*
X202074718Y-89090179D01*
X202082565Y-89092279D01*
X202205899Y-89108487D01*
X202209984Y-89108755D01*
X215205886Y-89108755D01*
X215209961Y-89108487D01*
X215333281Y-89092225D01*
X215341117Y-89090124D01*
X215454137Y-89043307D01*
X215461170Y-89039246D01*
X215558220Y-88964778D01*
X215563963Y-88959035D01*
X215638433Y-88861991D01*
X215642497Y-88854954D01*
X215689317Y-88741940D01*
X215691419Y-88734097D01*
X215707667Y-88610775D01*
X215707934Y-88606713D01*
X215707934Y-75610821D01*
X215707662Y-75606705D01*
X215691338Y-75483412D01*
X215689240Y-75475593D01*
X215642424Y-75362568D01*
X215638368Y-75355543D01*
X215563907Y-75258491D01*
X215558171Y-75252755D01*
X215461137Y-75178279D01*
X215454100Y-75174215D01*
X215341107Y-75127389D01*
X215333259Y-75125285D01*
X215209977Y-75109024D01*
X215205875Y-75108755D01*
X202209983Y-75108755D01*
X202205902Y-75109021D01*
X202082579Y-75125231D01*
X202074733Y-75127332D01*
X201961698Y-75174150D01*
X201954677Y-75178203D01*
X201857608Y-75252687D01*
X201851871Y-75258425D01*
X201777396Y-75355490D01*
X201773337Y-75362521D01*
X201726528Y-75475550D01*
X201724425Y-75483402D01*
X201708200Y-75606732D01*
X201707934Y-75610794D01*
X201707934Y-88606712D01*
X201113028Y-88606712D01*
X201113028Y-76311862D01*
X201104237Y-76290640D01*
X201004334Y-76190737D01*
X200986028Y-76146543D01*
X200986028Y-74666377D01*
X201004334Y-74622183D01*
X201094722Y-74531795D01*
X201138916Y-74513489D01*
X216267647Y-74513489D01*
X216311841Y-74531795D01*
G37*
G36*
X49623921Y-93581843D02*
G01*
X50454392Y-94412314D01*
X50472698Y-94456508D01*
X50454392Y-94500702D01*
X49614405Y-95340688D01*
X49605615Y-95361910D01*
X49605615Y-95364840D01*
X49589836Y-95406354D01*
X49550467Y-95426906D01*
X49507385Y-95416120D01*
X49482344Y-95379441D01*
X49481554Y-95376153D01*
X49480448Y-95370356D01*
X49479594Y-95364354D01*
X49479040Y-95358492D01*
X49478684Y-95350937D01*
X49478615Y-95347995D01*
X49478615Y-93626037D01*
X49496921Y-93581843D01*
X49541115Y-93563537D01*
X49579727Y-93563537D01*
X49623921Y-93581843D01*
G37*
G36*
X116262477Y-70535254D02*
G01*
X116280783Y-70579448D01*
X116280783Y-70618060D01*
X116262477Y-70662254D01*
X115432006Y-71492725D01*
X115387812Y-71511031D01*
X115343618Y-71492725D01*
X114503631Y-70652738D01*
X114482410Y-70643948D01*
X114479480Y-70643948D01*
X114437967Y-70628170D01*
X114417414Y-70588802D01*
X114428198Y-70545721D01*
X114464875Y-70520678D01*
X114468162Y-70519888D01*
X114473963Y-70518781D01*
X114479965Y-70517927D01*
X114485828Y-70517373D01*
X114493384Y-70517017D01*
X114496325Y-70516948D01*
X116218283Y-70516948D01*
X116262477Y-70535254D01*
G37*
G36*
X139839880Y-92714760D02*
G01*
X140679866Y-93554746D01*
X140701088Y-93563537D01*
X140704018Y-93563537D01*
X140745535Y-93579319D01*
X140766085Y-93618694D01*
X140755290Y-93661778D01*
X140718602Y-93686812D01*
X140715314Y-93687601D01*
X140709534Y-93688703D01*
X140703532Y-93689557D01*
X140697678Y-93690110D01*
X140690123Y-93690467D01*
X140687173Y-93690537D01*
X138904199Y-93690537D01*
X138901249Y-93690467D01*
X138893693Y-93690110D01*
X138887839Y-93689557D01*
X138881837Y-93688703D01*
X138876053Y-93687600D01*
X138872766Y-93686811D01*
X138836080Y-93661775D01*
X138825287Y-93618692D01*
X138845838Y-93579318D01*
X138887354Y-93563537D01*
X138890284Y-93563537D01*
X138911505Y-93554746D01*
X139751492Y-92714760D01*
X139795686Y-92696454D01*
X139839880Y-92714760D01*
G37*
G36*
X192462669Y-70535254D02*
G01*
X192480975Y-70579448D01*
X192480975Y-70618060D01*
X192462669Y-70662254D01*
X191632198Y-71492725D01*
X191588004Y-71511031D01*
X191543810Y-71492725D01*
X190703823Y-70652738D01*
X190682602Y-70643948D01*
X190679672Y-70643948D01*
X190638159Y-70628170D01*
X190617606Y-70588802D01*
X190628390Y-70545721D01*
X190665067Y-70520678D01*
X190668354Y-70519888D01*
X190674155Y-70518781D01*
X190680157Y-70517927D01*
X190686020Y-70517373D01*
X190693576Y-70517017D01*
X190696517Y-70516948D01*
X192418475Y-70516948D01*
X192462669Y-70535254D01*
G37*
G36*
X196459210Y-55481747D02*
G01*
X196477516Y-55525941D01*
X196477516Y-57247899D01*
X196477446Y-57250849D01*
X196477089Y-57258404D01*
X196476536Y-57264258D01*
X196475682Y-57270260D01*
X196474580Y-57276040D01*
X196473791Y-57279328D01*
X196448757Y-57316016D01*
X196405673Y-57326811D01*
X196366298Y-57306261D01*
X196350516Y-57264744D01*
X196350516Y-57261814D01*
X196341725Y-57240592D01*
X195501739Y-56400606D01*
X195483433Y-56356412D01*
X195501739Y-56312218D01*
X196332210Y-55481747D01*
X196376404Y-55463441D01*
X196415016Y-55463441D01*
X196459210Y-55481747D01*
G37*
G36*
X68673969Y-93581843D02*
G01*
X69504440Y-94412314D01*
X69522746Y-94456508D01*
X69504440Y-94500702D01*
X68664453Y-95340688D01*
X68655663Y-95361910D01*
X68655663Y-95364840D01*
X68639884Y-95406354D01*
X68600515Y-95426906D01*
X68557433Y-95416120D01*
X68532392Y-95379441D01*
X68531602Y-95376153D01*
X68530496Y-95370356D01*
X68529642Y-95364354D01*
X68529088Y-95358492D01*
X68528732Y-95350937D01*
X68528663Y-95347995D01*
X68528663Y-93626037D01*
X68546969Y-93581843D01*
X68591163Y-93563537D01*
X68629775Y-93563537D01*
X68673969Y-93581843D01*
G37*
G36*
X92486529Y-74531795D02*
G01*
X92576917Y-74622183D01*
X92595223Y-74666377D01*
X92595223Y-76146543D01*
X92576917Y-76190737D01*
X92477013Y-76290640D01*
X92468223Y-76311862D01*
X92468223Y-89668108D01*
X92449917Y-89712302D01*
X92359529Y-89802690D01*
X92315335Y-89820996D01*
X90835169Y-89820996D01*
X90790975Y-89802690D01*
X90691071Y-89702786D01*
X90669850Y-89693996D01*
X79086089Y-89693996D01*
X79064867Y-89702786D01*
X78964964Y-89802690D01*
X78920770Y-89820996D01*
X77440604Y-89820996D01*
X77396410Y-89802690D01*
X77306022Y-89712302D01*
X77287716Y-89668108D01*
X77287716Y-88606717D01*
X77882934Y-88606717D01*
X77883199Y-88610773D01*
X77899428Y-88734101D01*
X77901529Y-88741940D01*
X77948345Y-88854965D01*
X77952403Y-88861994D01*
X78026880Y-88959041D01*
X78032621Y-88964782D01*
X78129681Y-89039241D01*
X78136715Y-89043300D01*
X78249752Y-89090097D01*
X78257573Y-89092194D01*
X78380908Y-89108487D01*
X78384979Y-89108755D01*
X91380890Y-89108755D01*
X91384959Y-89108488D01*
X91508278Y-89092246D01*
X91516128Y-89090142D01*
X91629147Y-89043325D01*
X91636180Y-89039264D01*
X91733236Y-88964792D01*
X91738978Y-88959050D01*
X91813452Y-88862001D01*
X91817516Y-88854964D01*
X91864339Y-88741944D01*
X91866440Y-88734104D01*
X91882668Y-88610774D01*
X91882934Y-88606717D01*
X91882934Y-75610799D01*
X91882667Y-75606730D01*
X91866422Y-75483398D01*
X91864321Y-75475558D01*
X91817504Y-75362533D01*
X91813440Y-75355493D01*
X91738973Y-75258432D01*
X91733230Y-75252688D01*
X91636181Y-75178203D01*
X91629145Y-75174139D01*
X91516138Y-75127307D01*
X91508274Y-75125200D01*
X91384951Y-75109019D01*
X91380898Y-75108755D01*
X78384972Y-75108755D01*
X78380915Y-75109020D01*
X78257584Y-75125250D01*
X78249738Y-75127352D01*
X78136715Y-75174165D01*
X78129680Y-75178227D01*
X78032627Y-75252699D01*
X78026885Y-75258441D01*
X77952414Y-75355501D01*
X77948355Y-75362531D01*
X77901546Y-75475562D01*
X77899445Y-75483400D01*
X77883200Y-75606730D01*
X77882934Y-75610799D01*
X77882934Y-88606717D01*
X77287716Y-88606717D01*
X77287716Y-76311862D01*
X77278925Y-76290640D01*
X77179022Y-76190737D01*
X77160716Y-76146543D01*
X77160716Y-74666377D01*
X77179022Y-74622183D01*
X77269410Y-74531795D01*
X77313604Y-74513489D01*
X92442335Y-74513489D01*
X92486529Y-74531795D01*
G37*
G36*
X36212508Y-108617113D02*
G01*
X36220063Y-108617469D01*
X36225925Y-108618023D01*
X36231927Y-108618877D01*
X36237724Y-108619983D01*
X36241012Y-108620773D01*
X36277691Y-108645814D01*
X36288477Y-108688896D01*
X36267925Y-108728265D01*
X36226411Y-108744044D01*
X36223481Y-108744044D01*
X36202259Y-108752834D01*
X35362273Y-109592821D01*
X35318079Y-109611127D01*
X35273885Y-109592821D01*
X34443414Y-108762350D01*
X34425108Y-108718156D01*
X34425108Y-108679544D01*
X34443414Y-108635350D01*
X34487608Y-108617044D01*
X36209566Y-108617044D01*
X36212508Y-108617113D01*
G37*
G36*
X169562844Y-108617113D02*
G01*
X169570399Y-108617469D01*
X169576261Y-108618023D01*
X169582263Y-108618877D01*
X169588060Y-108619983D01*
X169591348Y-108620773D01*
X169628027Y-108645814D01*
X169638813Y-108688896D01*
X169618261Y-108728265D01*
X169576747Y-108744044D01*
X169573817Y-108744044D01*
X169552595Y-108752834D01*
X168712609Y-109592821D01*
X168668415Y-109611127D01*
X168624221Y-109592821D01*
X167793750Y-108762350D01*
X167775444Y-108718156D01*
X167775444Y-108679544D01*
X167793750Y-108635350D01*
X167837944Y-108617044D01*
X169559902Y-108617044D01*
X169562844Y-108617113D01*
G37*
G36*
X131462748Y-108617113D02*
G01*
X131470303Y-108617469D01*
X131476165Y-108618023D01*
X131482167Y-108618877D01*
X131487964Y-108619983D01*
X131491252Y-108620773D01*
X131527931Y-108645814D01*
X131538717Y-108688896D01*
X131518165Y-108728265D01*
X131476651Y-108744044D01*
X131473721Y-108744044D01*
X131452499Y-108752834D01*
X130612513Y-109592821D01*
X130568319Y-109611127D01*
X130524125Y-109592821D01*
X129693654Y-108762350D01*
X129675348Y-108718156D01*
X129675348Y-108679544D01*
X129693654Y-108635350D01*
X129737848Y-108617044D01*
X131459806Y-108617044D01*
X131462748Y-108617113D01*
G37*
G36*
X73436481Y-74531795D02*
G01*
X73526869Y-74622183D01*
X73545175Y-74666377D01*
X73545175Y-76146543D01*
X73526869Y-76190737D01*
X73426965Y-76290640D01*
X73418175Y-76311862D01*
X73418175Y-89668108D01*
X73399869Y-89712302D01*
X73309481Y-89802690D01*
X73265287Y-89820996D01*
X71785121Y-89820996D01*
X71740927Y-89802690D01*
X71641023Y-89702786D01*
X71619802Y-89693996D01*
X60036041Y-89693996D01*
X60014819Y-89702786D01*
X59914916Y-89802690D01*
X59870722Y-89820996D01*
X58390556Y-89820996D01*
X58346362Y-89802690D01*
X58255974Y-89712302D01*
X58237668Y-89668108D01*
X58237668Y-88606701D01*
X58832934Y-88606701D01*
X58833202Y-88610794D01*
X58849447Y-88734088D01*
X58851550Y-88741932D01*
X58898373Y-88854942D01*
X58902434Y-88861974D01*
X58976908Y-88959011D01*
X58982651Y-88964753D01*
X59079702Y-89039210D01*
X59086739Y-89043272D01*
X59199758Y-89090075D01*
X59207587Y-89092176D01*
X59330888Y-89108484D01*
X59334994Y-89108755D01*
X72330890Y-89108755D01*
X72334959Y-89108488D01*
X72458278Y-89092246D01*
X72466128Y-89090142D01*
X72579147Y-89043325D01*
X72586180Y-89039264D01*
X72683236Y-88964792D01*
X72688978Y-88959050D01*
X72763452Y-88862001D01*
X72767516Y-88854964D01*
X72814339Y-88741944D01*
X72816440Y-88734104D01*
X72832668Y-88610774D01*
X72832934Y-88606717D01*
X72832934Y-75610799D01*
X72832667Y-75606730D01*
X72816422Y-75483398D01*
X72814321Y-75475558D01*
X72767504Y-75362533D01*
X72763440Y-75355493D01*
X72688973Y-75258432D01*
X72683230Y-75252688D01*
X72586181Y-75178203D01*
X72579145Y-75174139D01*
X72466138Y-75127307D01*
X72458274Y-75125200D01*
X72334951Y-75109019D01*
X72330898Y-75108755D01*
X59334987Y-75108755D01*
X59330896Y-75109023D01*
X59207590Y-75125271D01*
X59199754Y-75127371D01*
X59086737Y-75174194D01*
X59079699Y-75178258D01*
X58982657Y-75252727D01*
X58976913Y-75258471D01*
X58902443Y-75355524D01*
X58898386Y-75362549D01*
X58851565Y-75475573D01*
X58849464Y-75483412D01*
X58833201Y-75606725D01*
X58832934Y-75610799D01*
X58832934Y-88606701D01*
X58237668Y-88606701D01*
X58237668Y-76311862D01*
X58228877Y-76290640D01*
X58128974Y-76190737D01*
X58110668Y-76146543D01*
X58110668Y-74666377D01*
X58128974Y-74622183D01*
X58219362Y-74531795D01*
X58263556Y-74513489D01*
X73392287Y-74513489D01*
X73436481Y-74531795D01*
G37*
G36*
X111536577Y-74531795D02*
G01*
X112367048Y-75362266D01*
X112385354Y-75406460D01*
X112367048Y-75450654D01*
X111527061Y-76290640D01*
X111518271Y-76311862D01*
X111518271Y-76314792D01*
X111502492Y-76356306D01*
X111463123Y-76376858D01*
X111420041Y-76366072D01*
X111395000Y-76329393D01*
X111394210Y-76326105D01*
X111393104Y-76320308D01*
X111392250Y-76314306D01*
X111391696Y-76308444D01*
X111391340Y-76300889D01*
X111391271Y-76297947D01*
X111391271Y-74575989D01*
X111409577Y-74531795D01*
X111453771Y-74513489D01*
X111492383Y-74513489D01*
X111536577Y-74531795D01*
G37*
G36*
X192499281Y-55481747D02*
G01*
X193329752Y-56312218D01*
X193348058Y-56356412D01*
X193329752Y-56400606D01*
X192489765Y-57240592D01*
X192480975Y-57261814D01*
X192480975Y-57264744D01*
X192465196Y-57306258D01*
X192425827Y-57326810D01*
X192382745Y-57316024D01*
X192357704Y-57279345D01*
X192356914Y-57276057D01*
X192355808Y-57270260D01*
X192354954Y-57264258D01*
X192354400Y-57258396D01*
X192354044Y-57250841D01*
X192353975Y-57247899D01*
X192353975Y-55525941D01*
X192372281Y-55481747D01*
X192416475Y-55463441D01*
X192455087Y-55463441D01*
X192499281Y-55481747D01*
G37*
G36*
X167884138Y-93581843D02*
G01*
X167902444Y-93626037D01*
X167902444Y-95347995D01*
X167902374Y-95350945D01*
X167902017Y-95358500D01*
X167901464Y-95364354D01*
X167900610Y-95370356D01*
X167899508Y-95376136D01*
X167898719Y-95379424D01*
X167873685Y-95416112D01*
X167830601Y-95426907D01*
X167791226Y-95406357D01*
X167775444Y-95364840D01*
X167775444Y-95361910D01*
X167766653Y-95340688D01*
X166926667Y-94500702D01*
X166908361Y-94456508D01*
X166926667Y-94412314D01*
X167757138Y-93581843D01*
X167801332Y-93563537D01*
X167839944Y-93563537D01*
X167884138Y-93581843D01*
G37*
G36*
X145750284Y-89567065D02*
G01*
X145757839Y-89567421D01*
X145763701Y-89567975D01*
X145769703Y-89568829D01*
X145775500Y-89569935D01*
X145778788Y-89570725D01*
X145815467Y-89595766D01*
X145826253Y-89638848D01*
X145805701Y-89678217D01*
X145764187Y-89693996D01*
X145761257Y-89693996D01*
X145740035Y-89702786D01*
X144900049Y-90542773D01*
X144855855Y-90561079D01*
X144811661Y-90542773D01*
X143981190Y-89712302D01*
X143962884Y-89668108D01*
X143962884Y-89629496D01*
X143981190Y-89585302D01*
X144025384Y-89566996D01*
X145747342Y-89566996D01*
X145750284Y-89567065D01*
G37*
G36*
X97249041Y-55481747D02*
G01*
X97339429Y-55572135D01*
X97357735Y-55616329D01*
X97357735Y-57096495D01*
X97339429Y-57140689D01*
X97239525Y-57240592D01*
X97230735Y-57261814D01*
X97230735Y-70618060D01*
X97212429Y-70662254D01*
X97122041Y-70752642D01*
X97077847Y-70770948D01*
X95597681Y-70770948D01*
X95553487Y-70752642D01*
X95453583Y-70652738D01*
X95432362Y-70643948D01*
X83848601Y-70643948D01*
X83827379Y-70652738D01*
X83727476Y-70752642D01*
X83683282Y-70770948D01*
X82203116Y-70770948D01*
X82158922Y-70752642D01*
X82068534Y-70662254D01*
X82050228Y-70618060D01*
X82050228Y-69556717D01*
X82645434Y-69556717D01*
X82645699Y-69560773D01*
X82661928Y-69684101D01*
X82664029Y-69691940D01*
X82710845Y-69804965D01*
X82714903Y-69811994D01*
X82789380Y-69909041D01*
X82795121Y-69914782D01*
X82892181Y-69989241D01*
X82899215Y-69993300D01*
X83012252Y-70040097D01*
X83020073Y-70042194D01*
X83143408Y-70058487D01*
X83147479Y-70058755D01*
X96143390Y-70058755D01*
X96147459Y-70058488D01*
X96270778Y-70042246D01*
X96278628Y-70040142D01*
X96391647Y-69993325D01*
X96398680Y-69989264D01*
X96495736Y-69914792D01*
X96501478Y-69909050D01*
X96575952Y-69812001D01*
X96580016Y-69804964D01*
X96626839Y-69691944D01*
X96628940Y-69684104D01*
X96645168Y-69560774D01*
X96645434Y-69556717D01*
X96645434Y-56560799D01*
X96645167Y-56556730D01*
X96628922Y-56433398D01*
X96626821Y-56425558D01*
X96580004Y-56312533D01*
X96575940Y-56305493D01*
X96501473Y-56208432D01*
X96495730Y-56202688D01*
X96398681Y-56128203D01*
X96391645Y-56124139D01*
X96278638Y-56077307D01*
X96270774Y-56075200D01*
X96147451Y-56059019D01*
X96143398Y-56058755D01*
X83147472Y-56058755D01*
X83143415Y-56059020D01*
X83020084Y-56075250D01*
X83012238Y-56077352D01*
X82899215Y-56124165D01*
X82892180Y-56128227D01*
X82795127Y-56202699D01*
X82789385Y-56208441D01*
X82714914Y-56305501D01*
X82710855Y-56312531D01*
X82664046Y-56425562D01*
X82661945Y-56433400D01*
X82645700Y-56556730D01*
X82645434Y-56560799D01*
X82645434Y-69556717D01*
X82050228Y-69556717D01*
X82050228Y-57261814D01*
X82041437Y-57240592D01*
X81941534Y-57140689D01*
X81923228Y-57096495D01*
X81923228Y-55616329D01*
X81941534Y-55572135D01*
X82031922Y-55481747D01*
X82076116Y-55463441D01*
X97204847Y-55463441D01*
X97249041Y-55481747D01*
G37*
G36*
X150512796Y-108617113D02*
G01*
X150520351Y-108617469D01*
X150526213Y-108618023D01*
X150532215Y-108618877D01*
X150538012Y-108619983D01*
X150541300Y-108620773D01*
X150577979Y-108645814D01*
X150588765Y-108688896D01*
X150568213Y-108728265D01*
X150526699Y-108744044D01*
X150523769Y-108744044D01*
X150502547Y-108752834D01*
X149662561Y-109592821D01*
X149618367Y-109611127D01*
X149574173Y-109592821D01*
X148743702Y-108762350D01*
X148725396Y-108718156D01*
X148725396Y-108679544D01*
X148743702Y-108635350D01*
X148787896Y-108617044D01*
X150509854Y-108617044D01*
X150512796Y-108617113D01*
G37*
G36*
X54386433Y-55481747D02*
G01*
X54476821Y-55572135D01*
X54495127Y-55616329D01*
X54495127Y-57096495D01*
X54476821Y-57140689D01*
X54376917Y-57240592D01*
X54368127Y-57261814D01*
X54368127Y-70618060D01*
X54349821Y-70662254D01*
X54259433Y-70752642D01*
X54215239Y-70770948D01*
X52735073Y-70770948D01*
X52690879Y-70752642D01*
X52590975Y-70652738D01*
X52569754Y-70643948D01*
X40985993Y-70643948D01*
X40964771Y-70652738D01*
X40864868Y-70752642D01*
X40820674Y-70770948D01*
X39340508Y-70770948D01*
X39296314Y-70752642D01*
X39205926Y-70662254D01*
X39187620Y-70618060D01*
X39187620Y-69556701D01*
X39782934Y-69556701D01*
X39783202Y-69560794D01*
X39799447Y-69684088D01*
X39801550Y-69691932D01*
X39848373Y-69804942D01*
X39852434Y-69811974D01*
X39926908Y-69909011D01*
X39932651Y-69914753D01*
X40029702Y-69989210D01*
X40036739Y-69993272D01*
X40149758Y-70040075D01*
X40157587Y-70042176D01*
X40280888Y-70058484D01*
X40284994Y-70058755D01*
X53280893Y-70058755D01*
X53284958Y-70058488D01*
X53408288Y-70042266D01*
X53416137Y-70040164D01*
X53529169Y-69993354D01*
X53536200Y-69989295D01*
X53633265Y-69914821D01*
X53639007Y-69909079D01*
X53713481Y-69812024D01*
X53717547Y-69804980D01*
X53764356Y-69691962D01*
X53766460Y-69684106D01*
X53782666Y-69560788D01*
X53782934Y-69556705D01*
X53782934Y-56560796D01*
X53782667Y-56556730D01*
X53766443Y-56433391D01*
X53764342Y-56425548D01*
X53717533Y-56312510D01*
X53713471Y-56305473D01*
X53639001Y-56208403D01*
X53633259Y-56202660D01*
X53536202Y-56128171D01*
X53529170Y-56124110D01*
X53416146Y-56077284D01*
X53408283Y-56075180D01*
X53284952Y-56059019D01*
X53280901Y-56058755D01*
X40284987Y-56058755D01*
X40280896Y-56059023D01*
X40157590Y-56075271D01*
X40149754Y-56077371D01*
X40036737Y-56124194D01*
X40029699Y-56128258D01*
X39932657Y-56202727D01*
X39926913Y-56208471D01*
X39852443Y-56305524D01*
X39848386Y-56312549D01*
X39801565Y-56425573D01*
X39799464Y-56433412D01*
X39783201Y-56556725D01*
X39782934Y-56560799D01*
X39782934Y-69556701D01*
X39187620Y-69556701D01*
X39187620Y-57261814D01*
X39178829Y-57240592D01*
X39078926Y-57140689D01*
X39060620Y-57096495D01*
X39060620Y-55616329D01*
X39078926Y-55572135D01*
X39169314Y-55481747D01*
X39213508Y-55463441D01*
X54342239Y-55463441D01*
X54386433Y-55481747D01*
G37*
G36*
X153894528Y-91451244D02*
G01*
X153994431Y-91551147D01*
X154015653Y-91559938D01*
X158615646Y-91559938D01*
X158636867Y-91551147D01*
X158736771Y-91451244D01*
X158780965Y-91432938D01*
X160261131Y-91432938D01*
X160305325Y-91451244D01*
X160395713Y-91541632D01*
X160414019Y-91585826D01*
X160414019Y-93551106D01*
X160417660Y-93559895D01*
X160426450Y-93563537D01*
X163880015Y-93563537D01*
X163924209Y-93581843D01*
X164014597Y-93672231D01*
X164032903Y-93716425D01*
X164032903Y-95196591D01*
X164014597Y-95240785D01*
X163914693Y-95340688D01*
X163905903Y-95361910D01*
X163905903Y-108718156D01*
X163887597Y-108762350D01*
X163797209Y-108852738D01*
X163753015Y-108871044D01*
X162272849Y-108871044D01*
X162228655Y-108852738D01*
X162128751Y-108752834D01*
X162107530Y-108744044D01*
X150523769Y-108744044D01*
X150502547Y-108752834D01*
X150402644Y-108852738D01*
X150358450Y-108871044D01*
X148878284Y-108871044D01*
X148834090Y-108852738D01*
X148743702Y-108762350D01*
X148725396Y-108718156D01*
X148725396Y-107656717D01*
X149320434Y-107656717D01*
X149320699Y-107660773D01*
X149336928Y-107784101D01*
X149339029Y-107791940D01*
X149385845Y-107904965D01*
X149389903Y-107911994D01*
X149464380Y-108009041D01*
X149470121Y-108014782D01*
X149567181Y-108089241D01*
X149574215Y-108093300D01*
X149687252Y-108140097D01*
X149695073Y-108142194D01*
X149818408Y-108158487D01*
X149822479Y-108158755D01*
X162818390Y-108158755D01*
X162822459Y-108158488D01*
X162945778Y-108142246D01*
X162953628Y-108140142D01*
X163066647Y-108093325D01*
X163073680Y-108089264D01*
X163170736Y-108014792D01*
X163176478Y-108009050D01*
X163250952Y-107912001D01*
X163255016Y-107904964D01*
X163301839Y-107791944D01*
X163303940Y-107784104D01*
X163320168Y-107660774D01*
X163320434Y-107656717D01*
X163320434Y-94660799D01*
X163320167Y-94656730D01*
X163303922Y-94533398D01*
X163301821Y-94525558D01*
X163255004Y-94412533D01*
X163250940Y-94405493D01*
X163176473Y-94308432D01*
X163170730Y-94302688D01*
X163073681Y-94228203D01*
X163066645Y-94224139D01*
X162953638Y-94177307D01*
X162945774Y-94175200D01*
X162822451Y-94159019D01*
X162818398Y-94158755D01*
X160324529Y-94158755D01*
X160316376Y-94158221D01*
X160199168Y-94142799D01*
X160183407Y-94138577D01*
X160078010Y-94094929D01*
X160063881Y-94086773D01*
X159973367Y-94017332D01*
X159961829Y-94005796D01*
X159892374Y-93915297D01*
X159884215Y-93901169D01*
X159840554Y-93795795D01*
X159836324Y-93779993D01*
X159820964Y-93662799D01*
X159820434Y-93654677D01*
X159820434Y-92660799D01*
X159820167Y-92656730D01*
X159803922Y-92533398D01*
X159801821Y-92525558D01*
X159755004Y-92412533D01*
X159750940Y-92405493D01*
X159676473Y-92308432D01*
X159670730Y-92302688D01*
X159573681Y-92228203D01*
X159566645Y-92224139D01*
X159453638Y-92177307D01*
X159445774Y-92175200D01*
X159322451Y-92159019D01*
X159318398Y-92158755D01*
X153322472Y-92158755D01*
X153318415Y-92159020D01*
X153195084Y-92175250D01*
X153187238Y-92177352D01*
X153074215Y-92224165D01*
X153067180Y-92228227D01*
X152970127Y-92302699D01*
X152964385Y-92308441D01*
X152889914Y-92405501D01*
X152885855Y-92412531D01*
X152839046Y-92525562D01*
X152836945Y-92533400D01*
X152820700Y-92656730D01*
X152820434Y-92660799D01*
X152820434Y-93654652D01*
X152819898Y-93662816D01*
X152804458Y-93780000D01*
X152800235Y-93795757D01*
X152756576Y-93901140D01*
X152748418Y-93915268D01*
X152678979Y-94005756D01*
X152667444Y-94017292D01*
X152576949Y-94086731D01*
X152562820Y-94094888D01*
X152457434Y-94138543D01*
X152441686Y-94142765D01*
X152324499Y-94158219D01*
X152316328Y-94158755D01*
X149822472Y-94158755D01*
X149818415Y-94159020D01*
X149695084Y-94175250D01*
X149687238Y-94177352D01*
X149574215Y-94224165D01*
X149567180Y-94228227D01*
X149470127Y-94302699D01*
X149464385Y-94308441D01*
X149389914Y-94405501D01*
X149385855Y-94412531D01*
X149339046Y-94525562D01*
X149336945Y-94533400D01*
X149320700Y-94656730D01*
X149320434Y-94660799D01*
X149320434Y-107656717D01*
X148725396Y-107656717D01*
X148725396Y-95361910D01*
X148716605Y-95340688D01*
X148616702Y-95240785D01*
X148598396Y-95196591D01*
X148598396Y-93716425D01*
X148616702Y-93672231D01*
X148707090Y-93581843D01*
X148751284Y-93563537D01*
X152204849Y-93563537D01*
X152213638Y-93559895D01*
X152217280Y-93551106D01*
X152217280Y-91585826D01*
X152235586Y-91541632D01*
X152325974Y-91451244D01*
X152370168Y-91432938D01*
X153850334Y-91432938D01*
X153894528Y-91451244D01*
G37*
G36*
X159161697Y-74531795D02*
G01*
X159252085Y-74622183D01*
X159270391Y-74666377D01*
X159270391Y-76146543D01*
X159252085Y-76190737D01*
X159152181Y-76290640D01*
X159143391Y-76311862D01*
X159143391Y-89668108D01*
X159125085Y-89712302D01*
X159034697Y-89802690D01*
X158990503Y-89820996D01*
X157510337Y-89820996D01*
X157466143Y-89802690D01*
X157366239Y-89702786D01*
X157345018Y-89693996D01*
X145761257Y-89693996D01*
X145740035Y-89702786D01*
X145640132Y-89802690D01*
X145595938Y-89820996D01*
X144115772Y-89820996D01*
X144071578Y-89802690D01*
X143981190Y-89712302D01*
X143962884Y-89668108D01*
X143962884Y-88606717D01*
X144557934Y-88606717D01*
X144558199Y-88610773D01*
X144574428Y-88734101D01*
X144576529Y-88741940D01*
X144623345Y-88854965D01*
X144627403Y-88861994D01*
X144701880Y-88959041D01*
X144707621Y-88964782D01*
X144804681Y-89039241D01*
X144811715Y-89043300D01*
X144924752Y-89090097D01*
X144932573Y-89092194D01*
X145055908Y-89108487D01*
X145059979Y-89108755D01*
X158055890Y-89108755D01*
X158059959Y-89108488D01*
X158183278Y-89092246D01*
X158191128Y-89090142D01*
X158304147Y-89043325D01*
X158311180Y-89039264D01*
X158408236Y-88964792D01*
X158413978Y-88959050D01*
X158488452Y-88862001D01*
X158492516Y-88854964D01*
X158539339Y-88741944D01*
X158541440Y-88734104D01*
X158557668Y-88610774D01*
X158557934Y-88606717D01*
X158557934Y-75610799D01*
X158557667Y-75606730D01*
X158541422Y-75483398D01*
X158539321Y-75475558D01*
X158492504Y-75362533D01*
X158488440Y-75355493D01*
X158413973Y-75258432D01*
X158408230Y-75252688D01*
X158311181Y-75178203D01*
X158304145Y-75174139D01*
X158191138Y-75127307D01*
X158183274Y-75125200D01*
X158059951Y-75109019D01*
X158055898Y-75108755D01*
X145059972Y-75108755D01*
X145055915Y-75109020D01*
X144932584Y-75125250D01*
X144924738Y-75127352D01*
X144811715Y-75174165D01*
X144804680Y-75178227D01*
X144707627Y-75252699D01*
X144701885Y-75258441D01*
X144627414Y-75355501D01*
X144623355Y-75362531D01*
X144576546Y-75475562D01*
X144574445Y-75483400D01*
X144558200Y-75606730D01*
X144557934Y-75610799D01*
X144557934Y-88606717D01*
X143962884Y-88606717D01*
X143962884Y-76311862D01*
X143954093Y-76290640D01*
X143854190Y-76190737D01*
X143835884Y-76146543D01*
X143835884Y-74666377D01*
X143854190Y-74622183D01*
X143944578Y-74531795D01*
X143988772Y-74513489D01*
X159117503Y-74513489D01*
X159161697Y-74531795D01*
G37*
G36*
X87724017Y-93581843D02*
G01*
X87814405Y-93672231D01*
X87832711Y-93716425D01*
X87832711Y-95196591D01*
X87814405Y-95240785D01*
X87714501Y-95340688D01*
X87705711Y-95361910D01*
X87705711Y-108718156D01*
X87687405Y-108762350D01*
X87597017Y-108852738D01*
X87552823Y-108871044D01*
X86072657Y-108871044D01*
X86028463Y-108852738D01*
X85928559Y-108752834D01*
X85907338Y-108744044D01*
X74323577Y-108744044D01*
X74302355Y-108752834D01*
X74202452Y-108852738D01*
X74158258Y-108871044D01*
X72678092Y-108871044D01*
X72633898Y-108852738D01*
X72543510Y-108762350D01*
X72525204Y-108718156D01*
X72525204Y-107656717D01*
X73120434Y-107656717D01*
X73120699Y-107660773D01*
X73136928Y-107784101D01*
X73139029Y-107791940D01*
X73185845Y-107904965D01*
X73189903Y-107911994D01*
X73264380Y-108009041D01*
X73270121Y-108014782D01*
X73367181Y-108089241D01*
X73374215Y-108093300D01*
X73487252Y-108140097D01*
X73495073Y-108142194D01*
X73618408Y-108158487D01*
X73622479Y-108158755D01*
X86618390Y-108158755D01*
X86622459Y-108158488D01*
X86745778Y-108142246D01*
X86753628Y-108140142D01*
X86866647Y-108093325D01*
X86873680Y-108089264D01*
X86970736Y-108014792D01*
X86976478Y-108009050D01*
X87050952Y-107912001D01*
X87055016Y-107904964D01*
X87101839Y-107791944D01*
X87103940Y-107784104D01*
X87120168Y-107660774D01*
X87120434Y-107656717D01*
X87120434Y-94660799D01*
X87120167Y-94656730D01*
X87103922Y-94533398D01*
X87101821Y-94525558D01*
X87055004Y-94412533D01*
X87050940Y-94405493D01*
X86976473Y-94308432D01*
X86970730Y-94302688D01*
X86873681Y-94228203D01*
X86866645Y-94224139D01*
X86753638Y-94177307D01*
X86745774Y-94175200D01*
X86622451Y-94159019D01*
X86618398Y-94158755D01*
X73622472Y-94158755D01*
X73618415Y-94159020D01*
X73495084Y-94175250D01*
X73487238Y-94177352D01*
X73374215Y-94224165D01*
X73367180Y-94228227D01*
X73270127Y-94302699D01*
X73264385Y-94308441D01*
X73189914Y-94405501D01*
X73185855Y-94412531D01*
X73139046Y-94525562D01*
X73136945Y-94533400D01*
X73120700Y-94656730D01*
X73120434Y-94660799D01*
X73120434Y-107656717D01*
X72525204Y-107656717D01*
X72525204Y-95361910D01*
X72516413Y-95340688D01*
X72416510Y-95240785D01*
X72398204Y-95196591D01*
X72398204Y-93716425D01*
X72416510Y-93672231D01*
X72506898Y-93581843D01*
X72551092Y-93563537D01*
X87679823Y-93563537D01*
X87724017Y-93581843D01*
G37*
G36*
X154362573Y-70535254D02*
G01*
X154380879Y-70579448D01*
X154380879Y-70618060D01*
X154362573Y-70662254D01*
X153532102Y-71492725D01*
X153487908Y-71511031D01*
X153443714Y-71492725D01*
X152603727Y-70652738D01*
X152582506Y-70643948D01*
X152579576Y-70643948D01*
X152538063Y-70628170D01*
X152517510Y-70588802D01*
X152528294Y-70545721D01*
X152564971Y-70520678D01*
X152568258Y-70519888D01*
X152574059Y-70518781D01*
X152580061Y-70517927D01*
X152585924Y-70517373D01*
X152593480Y-70517017D01*
X152596421Y-70516948D01*
X154318379Y-70516948D01*
X154362573Y-70535254D01*
G37*
G36*
X240124401Y-93581843D02*
G01*
X240954872Y-94412314D01*
X240973178Y-94456508D01*
X240954872Y-94500702D01*
X240114885Y-95340688D01*
X240106095Y-95361910D01*
X240106095Y-95364840D01*
X240090316Y-95406354D01*
X240050947Y-95426906D01*
X240007865Y-95416120D01*
X239982824Y-95379441D01*
X239982034Y-95376153D01*
X239980928Y-95370356D01*
X239980074Y-95364354D01*
X239979520Y-95358492D01*
X239979164Y-95350937D01*
X239979095Y-95347995D01*
X239979095Y-93626037D01*
X239997401Y-93581843D01*
X240041595Y-93563537D01*
X240080207Y-93563537D01*
X240124401Y-93581843D01*
G37*
G36*
X160037820Y-70517017D02*
G01*
X160045375Y-70517373D01*
X160051237Y-70517927D01*
X160057239Y-70518781D01*
X160063036Y-70519887D01*
X160066324Y-70520677D01*
X160103003Y-70545718D01*
X160113789Y-70588800D01*
X160093237Y-70628169D01*
X160051723Y-70643948D01*
X160048793Y-70643948D01*
X160027571Y-70652738D01*
X159187585Y-71492725D01*
X159143391Y-71511031D01*
X159099197Y-71492725D01*
X158268726Y-70662254D01*
X158250420Y-70618060D01*
X158250420Y-70579448D01*
X158268726Y-70535254D01*
X158312920Y-70516948D01*
X160034878Y-70516948D01*
X160037820Y-70517017D01*
G37*
G36*
X115496506Y-74531795D02*
G01*
X115514812Y-74575989D01*
X115514812Y-76297947D01*
X115514742Y-76300897D01*
X115514385Y-76308452D01*
X115513832Y-76314306D01*
X115512978Y-76320308D01*
X115511876Y-76326088D01*
X115511087Y-76329376D01*
X115486053Y-76366064D01*
X115442969Y-76376859D01*
X115403594Y-76356309D01*
X115387812Y-76314792D01*
X115387812Y-76311862D01*
X115379021Y-76290640D01*
X114539035Y-75450654D01*
X114520729Y-75406460D01*
X114539035Y-75362266D01*
X115369506Y-74531795D01*
X115413700Y-74513489D01*
X115452312Y-74513489D01*
X115496506Y-74531795D01*
G37*
G36*
X178211745Y-74531795D02*
G01*
X178302133Y-74622183D01*
X178320439Y-74666377D01*
X178320439Y-76146543D01*
X178302133Y-76190737D01*
X178202229Y-76290640D01*
X178193439Y-76311862D01*
X178193439Y-89668108D01*
X178175133Y-89712302D01*
X178084745Y-89802690D01*
X178040551Y-89820996D01*
X176560385Y-89820996D01*
X176516191Y-89802690D01*
X176416287Y-89702786D01*
X176395066Y-89693996D01*
X164811305Y-89693996D01*
X164790083Y-89702786D01*
X164690180Y-89802690D01*
X164645986Y-89820996D01*
X163165820Y-89820996D01*
X163121626Y-89802690D01*
X163031238Y-89712302D01*
X163012932Y-89668108D01*
X163012932Y-88606717D01*
X163607934Y-88606717D01*
X163608199Y-88610773D01*
X163624428Y-88734101D01*
X163626529Y-88741940D01*
X163673345Y-88854965D01*
X163677403Y-88861994D01*
X163751880Y-88959041D01*
X163757621Y-88964782D01*
X163854681Y-89039241D01*
X163861715Y-89043300D01*
X163974752Y-89090097D01*
X163982573Y-89092194D01*
X164105908Y-89108487D01*
X164109979Y-89108755D01*
X177105890Y-89108755D01*
X177109959Y-89108488D01*
X177233278Y-89092246D01*
X177241128Y-89090142D01*
X177354147Y-89043325D01*
X177361180Y-89039264D01*
X177458236Y-88964792D01*
X177463978Y-88959050D01*
X177538452Y-88862001D01*
X177542516Y-88854964D01*
X177589339Y-88741944D01*
X177591440Y-88734104D01*
X177607668Y-88610774D01*
X177607934Y-88606717D01*
X177607934Y-75610799D01*
X177607667Y-75606730D01*
X177591422Y-75483398D01*
X177589321Y-75475558D01*
X177542504Y-75362533D01*
X177538440Y-75355493D01*
X177463973Y-75258432D01*
X177458230Y-75252688D01*
X177361181Y-75178203D01*
X177354145Y-75174139D01*
X177241138Y-75127307D01*
X177233274Y-75125200D01*
X177109951Y-75109019D01*
X177105898Y-75108755D01*
X164109972Y-75108755D01*
X164105915Y-75109020D01*
X163982584Y-75125250D01*
X163974738Y-75127352D01*
X163861715Y-75174165D01*
X163854680Y-75178227D01*
X163757627Y-75252699D01*
X163751885Y-75258441D01*
X163677414Y-75355501D01*
X163673355Y-75362531D01*
X163626546Y-75475562D01*
X163624445Y-75483400D01*
X163608200Y-75606730D01*
X163607934Y-75610799D01*
X163607934Y-88606717D01*
X163012932Y-88606717D01*
X163012932Y-76311862D01*
X163004141Y-76290640D01*
X162904238Y-76190737D01*
X162885932Y-76146543D01*
X162885932Y-74666377D01*
X162904238Y-74622183D01*
X162994626Y-74531795D01*
X163038820Y-74513489D01*
X178167551Y-74513489D01*
X178211745Y-74531795D01*
G37*
G36*
X159565242Y-90711161D02*
G01*
X160395713Y-91541632D01*
X160414019Y-91585826D01*
X160414019Y-91624438D01*
X160395713Y-91668632D01*
X160351519Y-91686938D01*
X158629561Y-91686938D01*
X158626611Y-91686868D01*
X158619055Y-91686511D01*
X158613201Y-91685958D01*
X158607199Y-91685104D01*
X158601415Y-91684001D01*
X158598128Y-91683212D01*
X158561442Y-91658176D01*
X158550649Y-91615093D01*
X158571200Y-91575719D01*
X158612716Y-91559938D01*
X158615646Y-91559938D01*
X158636867Y-91551147D01*
X159476854Y-90711161D01*
X159521048Y-90692855D01*
X159565242Y-90711161D01*
G37*
G36*
X129784042Y-93581843D02*
G01*
X129802348Y-93626037D01*
X129802348Y-95347995D01*
X129802278Y-95350945D01*
X129801921Y-95358500D01*
X129801368Y-95364354D01*
X129800514Y-95370356D01*
X129799412Y-95376136D01*
X129798623Y-95379424D01*
X129773589Y-95416112D01*
X129730505Y-95426907D01*
X129691130Y-95406357D01*
X129675348Y-95364840D01*
X129675348Y-95361910D01*
X129666557Y-95340688D01*
X128826571Y-94500702D01*
X128808265Y-94456508D01*
X128826571Y-94412314D01*
X129657042Y-93581843D01*
X129701236Y-93563537D01*
X129739848Y-93563537D01*
X129784042Y-93581843D01*
G37*
G36*
X79075116Y-89567065D02*
G01*
X79082671Y-89567421D01*
X79088533Y-89567975D01*
X79094535Y-89568829D01*
X79100332Y-89569935D01*
X79103620Y-89570725D01*
X79140299Y-89595766D01*
X79151085Y-89638848D01*
X79130533Y-89678217D01*
X79089019Y-89693996D01*
X79086089Y-89693996D01*
X79064867Y-89702786D01*
X78224881Y-90542773D01*
X78180687Y-90561079D01*
X78136493Y-90542773D01*
X77306022Y-89712302D01*
X77287716Y-89668108D01*
X77287716Y-89629496D01*
X77306022Y-89585302D01*
X77350216Y-89566996D01*
X79072174Y-89566996D01*
X79075116Y-89567065D01*
G37*
G36*
X92486529Y-74531795D02*
G01*
X93317000Y-75362266D01*
X93335306Y-75406460D01*
X93317000Y-75450654D01*
X92477013Y-76290640D01*
X92468223Y-76311862D01*
X92468223Y-76314792D01*
X92452444Y-76356306D01*
X92413075Y-76376858D01*
X92369993Y-76366072D01*
X92344952Y-76329393D01*
X92344162Y-76326105D01*
X92343056Y-76320308D01*
X92342202Y-76314306D01*
X92341648Y-76308444D01*
X92341292Y-76300889D01*
X92341223Y-76297947D01*
X92341223Y-74575989D01*
X92359529Y-74531795D01*
X92403723Y-74513489D01*
X92442335Y-74513489D01*
X92486529Y-74531795D01*
G37*
G36*
X237694074Y-89581014D02*
G01*
X237715824Y-89616780D01*
X237710124Y-89658250D01*
X237679531Y-89686822D01*
X237497622Y-89765835D01*
X237493848Y-89767791D01*
X237252606Y-89914493D01*
X237249118Y-89916955D01*
X237030102Y-90095138D01*
X237026987Y-90098047D01*
X236834263Y-90304404D01*
X236831584Y-90307698D01*
X236758930Y-90410624D01*
X236730798Y-90432724D01*
X236695154Y-90435774D01*
X236663676Y-90418775D01*
X235947687Y-89702786D01*
X235926466Y-89693996D01*
X235923536Y-89693996D01*
X235882023Y-89678218D01*
X235861470Y-89638850D01*
X235872254Y-89595769D01*
X235908931Y-89570726D01*
X235912218Y-89569936D01*
X235918019Y-89568829D01*
X235924021Y-89567975D01*
X235929884Y-89567421D01*
X235937440Y-89567065D01*
X235940381Y-89566996D01*
X237654631Y-89566996D01*
X237694074Y-89581014D01*
G37*
G36*
X102887676Y-70517017D02*
G01*
X102895231Y-70517373D01*
X102901093Y-70517927D01*
X102907095Y-70518781D01*
X102912892Y-70519887D01*
X102916180Y-70520677D01*
X102952859Y-70545718D01*
X102963645Y-70588800D01*
X102943093Y-70628169D01*
X102901579Y-70643948D01*
X102898649Y-70643948D01*
X102877427Y-70652738D01*
X102037441Y-71492725D01*
X101993247Y-71511031D01*
X101949053Y-71492725D01*
X101118582Y-70662254D01*
X101100276Y-70618060D01*
X101100276Y-70579448D01*
X101118582Y-70535254D01*
X101162776Y-70516948D01*
X102884734Y-70516948D01*
X102887676Y-70517017D01*
G37*
G36*
X225034282Y-93581843D02*
G01*
X225052588Y-93626037D01*
X225052588Y-95347995D01*
X225052518Y-95350945D01*
X225052161Y-95358500D01*
X225051608Y-95364354D01*
X225050754Y-95370356D01*
X225049652Y-95376136D01*
X225048863Y-95379424D01*
X225023829Y-95416112D01*
X224980745Y-95426907D01*
X224941370Y-95406357D01*
X224925588Y-95364840D01*
X224925588Y-95361910D01*
X224916797Y-95340688D01*
X224076811Y-94500702D01*
X224058505Y-94456508D01*
X224076811Y-94412314D01*
X224907282Y-93581843D01*
X224951476Y-93563537D01*
X224990088Y-93563537D01*
X225034282Y-93581843D01*
G37*
G36*
X54386433Y-55481747D02*
G01*
X55216904Y-56312218D01*
X55235210Y-56356412D01*
X55216904Y-56400606D01*
X54376917Y-57240592D01*
X54368127Y-57261814D01*
X54368127Y-57264744D01*
X54352348Y-57306258D01*
X54312979Y-57326810D01*
X54269897Y-57316024D01*
X54244856Y-57279345D01*
X54244066Y-57276057D01*
X54242960Y-57270260D01*
X54242106Y-57264258D01*
X54241552Y-57258396D01*
X54241196Y-57250841D01*
X54241127Y-57247899D01*
X54241127Y-55525941D01*
X54259433Y-55481747D01*
X54303627Y-55463441D01*
X54342239Y-55463441D01*
X54386433Y-55481747D01*
G37*
G36*
X115054349Y-90711161D02*
G01*
X115894335Y-91551147D01*
X115915557Y-91559938D01*
X115918487Y-91559938D01*
X115960004Y-91575720D01*
X115980554Y-91615095D01*
X115969759Y-91658179D01*
X115933071Y-91683213D01*
X115929783Y-91684002D01*
X115924003Y-91685104D01*
X115918001Y-91685958D01*
X115912147Y-91686511D01*
X115904592Y-91686868D01*
X115901642Y-91686938D01*
X114179684Y-91686938D01*
X114135490Y-91668632D01*
X114117184Y-91624438D01*
X114117184Y-91585826D01*
X114135490Y-91541632D01*
X114965961Y-90711161D01*
X115010155Y-90692855D01*
X115054349Y-90711161D01*
G37*
G36*
X97212429Y-70535254D02*
G01*
X97230735Y-70579448D01*
X97230735Y-70618060D01*
X97212429Y-70662254D01*
X96381958Y-71492725D01*
X96337764Y-71511031D01*
X96293570Y-71492725D01*
X95453583Y-70652738D01*
X95432362Y-70643948D01*
X95429432Y-70643948D01*
X95387919Y-70628170D01*
X95367366Y-70588802D01*
X95378150Y-70545721D01*
X95414827Y-70520678D01*
X95418114Y-70519888D01*
X95423915Y-70518781D01*
X95429917Y-70517927D01*
X95435780Y-70517373D01*
X95443336Y-70517017D01*
X95446277Y-70516948D01*
X97168235Y-70516948D01*
X97212429Y-70535254D01*
G37*
G36*
X93362652Y-108617113D02*
G01*
X93370207Y-108617469D01*
X93376069Y-108618023D01*
X93382071Y-108618877D01*
X93387868Y-108619983D01*
X93391156Y-108620773D01*
X93427835Y-108645814D01*
X93438621Y-108688896D01*
X93418069Y-108728265D01*
X93376555Y-108744044D01*
X93373625Y-108744044D01*
X93352403Y-108752834D01*
X92512417Y-109592821D01*
X92468223Y-109611127D01*
X92424029Y-109592821D01*
X91593558Y-108762350D01*
X91575252Y-108718156D01*
X91575252Y-108679544D01*
X91593558Y-108635350D01*
X91637752Y-108617044D01*
X93359710Y-108617044D01*
X93362652Y-108617113D01*
G37*
G36*
X159161697Y-74531795D02*
G01*
X159992168Y-75362266D01*
X160010474Y-75406460D01*
X159992168Y-75450654D01*
X159152181Y-76290640D01*
X159143391Y-76311862D01*
X159143391Y-76314792D01*
X159127612Y-76356306D01*
X159088243Y-76376858D01*
X159045161Y-76366072D01*
X159020120Y-76329393D01*
X159019330Y-76326105D01*
X159018224Y-76320308D01*
X159017370Y-76314306D01*
X159016816Y-76308444D01*
X159016460Y-76300889D01*
X159016391Y-76297947D01*
X159016391Y-74575989D01*
X159034697Y-74531795D01*
X159078891Y-74513489D01*
X159117503Y-74513489D01*
X159161697Y-74531795D01*
G37*
G36*
X87687405Y-108635350D02*
G01*
X87705711Y-108679544D01*
X87705711Y-108718156D01*
X87687405Y-108762350D01*
X86856934Y-109592821D01*
X86812740Y-109611127D01*
X86768546Y-109592821D01*
X85928559Y-108752834D01*
X85907338Y-108744044D01*
X85904408Y-108744044D01*
X85862895Y-108728266D01*
X85842342Y-108688898D01*
X85853126Y-108645817D01*
X85889803Y-108620774D01*
X85893090Y-108619984D01*
X85898891Y-108618877D01*
X85904893Y-108618023D01*
X85910756Y-108617469D01*
X85918312Y-108617113D01*
X85921253Y-108617044D01*
X87643211Y-108617044D01*
X87687405Y-108635350D01*
G37*
G36*
X125787501Y-108635350D02*
G01*
X125805807Y-108679544D01*
X125805807Y-108718156D01*
X125787501Y-108762350D01*
X124957030Y-109592821D01*
X124912836Y-109611127D01*
X124868642Y-109592821D01*
X124028655Y-108752834D01*
X124007434Y-108744044D01*
X124004504Y-108744044D01*
X123962991Y-108728266D01*
X123942438Y-108688898D01*
X123953222Y-108645817D01*
X123989899Y-108620774D01*
X123993186Y-108619984D01*
X123998987Y-108618877D01*
X124004989Y-108618023D01*
X124010852Y-108617469D01*
X124018408Y-108617113D01*
X124021349Y-108617044D01*
X125743307Y-108617044D01*
X125787501Y-108635350D01*
G37*
G36*
X106774065Y-93581843D02*
G01*
X107604536Y-94412314D01*
X107622842Y-94456508D01*
X107604536Y-94500702D01*
X106764549Y-95340688D01*
X106755759Y-95361910D01*
X106755759Y-95364840D01*
X106739980Y-95406354D01*
X106700611Y-95426906D01*
X106657529Y-95416120D01*
X106632488Y-95379441D01*
X106631698Y-95376153D01*
X106630592Y-95370356D01*
X106629738Y-95364354D01*
X106629184Y-95358492D01*
X106628828Y-95350937D01*
X106628759Y-95347995D01*
X106628759Y-93626037D01*
X106647065Y-93581843D01*
X106691259Y-93563537D01*
X106729871Y-93563537D01*
X106774065Y-93581843D01*
G37*
G36*
X221074353Y-93581843D02*
G01*
X221904824Y-94412314D01*
X221923130Y-94456508D01*
X221904824Y-94500702D01*
X221064837Y-95340688D01*
X221056047Y-95361910D01*
X221056047Y-95364840D01*
X221040268Y-95406354D01*
X221000899Y-95426906D01*
X220957817Y-95416120D01*
X220932776Y-95379441D01*
X220931986Y-95376153D01*
X220930880Y-95370356D01*
X220930026Y-95364354D01*
X220929472Y-95358492D01*
X220929116Y-95350937D01*
X220929047Y-95347995D01*
X220929047Y-93626037D01*
X220947353Y-93581843D01*
X220991547Y-93563537D01*
X221030159Y-93563537D01*
X221074353Y-93581843D01*
G37*
G36*
X221930722Y-72834251D02*
G01*
X221949018Y-72878435D01*
X221949018Y-74362601D01*
X221930712Y-74406795D01*
X221886518Y-74425101D01*
X221842324Y-74406795D01*
X221841580Y-74406051D01*
X221823274Y-74361857D01*
X221823274Y-73325642D01*
X221822027Y-73319316D01*
X221823266Y-72879010D01*
X221841601Y-72834962D01*
X221842353Y-72834211D01*
X221886546Y-72815935D01*
X221930722Y-72834251D01*
G37*
G36*
X237743145Y-55476771D02*
G01*
X237833533Y-55567159D01*
X237851839Y-55611353D01*
X237851839Y-57091519D01*
X237833533Y-57135713D01*
X237733629Y-57235616D01*
X237724839Y-57256838D01*
X237724839Y-89626148D01*
X237714600Y-89660426D01*
X237687239Y-89683474D01*
X237497622Y-89765835D01*
X237493848Y-89767791D01*
X237421321Y-89811897D01*
X237388847Y-89820996D01*
X236091785Y-89820996D01*
X236047591Y-89802690D01*
X235947687Y-89702786D01*
X235926466Y-89693996D01*
X221962705Y-89693996D01*
X221941483Y-89702786D01*
X221841580Y-89802690D01*
X221797386Y-89820996D01*
X220317220Y-89820996D01*
X220273026Y-89802690D01*
X220182638Y-89712302D01*
X220164332Y-89668108D01*
X220164332Y-82263746D01*
X220155541Y-82242524D01*
X220055638Y-82142621D01*
X220037332Y-82098427D01*
X220037332Y-80618261D01*
X220055638Y-80574067D01*
X220164332Y-80465373D01*
X221053014Y-79576690D01*
X221060585Y-79571631D01*
X221941483Y-78690733D01*
X221950274Y-78669512D01*
X221950274Y-72876376D01*
X221951512Y-72436065D01*
X221950390Y-72430360D01*
X221947162Y-72425522D01*
X221060585Y-71538945D01*
X221053014Y-71533886D01*
X220055638Y-70536510D01*
X220037332Y-70492316D01*
X220037332Y-69556717D01*
X220757934Y-69556717D01*
X220758199Y-69560773D01*
X220774428Y-69684101D01*
X220776529Y-69691940D01*
X220823345Y-69804965D01*
X220827403Y-69811994D01*
X220901880Y-69909041D01*
X220907621Y-69914782D01*
X221004681Y-69989241D01*
X221011715Y-69993300D01*
X221124752Y-70040097D01*
X221132573Y-70042194D01*
X221255908Y-70058487D01*
X221259979Y-70058755D01*
X222635084Y-70058755D01*
X222643251Y-70059291D01*
X222760424Y-70074734D01*
X222776181Y-70078958D01*
X222881558Y-70122620D01*
X222895684Y-70130778D01*
X222986172Y-70200220D01*
X222997707Y-70211755D01*
X223067142Y-70302248D01*
X223075299Y-70316376D01*
X223118955Y-70421765D01*
X223123175Y-70437503D01*
X223138646Y-70554680D01*
X223139184Y-70562861D01*
X223139184Y-80517653D01*
X223138649Y-80525816D01*
X223123210Y-80643008D01*
X223118987Y-80658765D01*
X223075331Y-80764148D01*
X223067174Y-80778276D01*
X222997731Y-80868776D01*
X222986196Y-80880311D01*
X222895699Y-80949759D01*
X222881572Y-80957916D01*
X222776197Y-81001575D01*
X222760428Y-81005801D01*
X222643243Y-81021221D01*
X222635089Y-81021755D01*
X221641230Y-81021755D01*
X221637159Y-81022021D01*
X221513821Y-81038240D01*
X221505979Y-81040340D01*
X221392941Y-81087150D01*
X221385913Y-81091206D01*
X221288844Y-81165682D01*
X221283102Y-81171424D01*
X221208627Y-81268481D01*
X221204561Y-81275523D01*
X221157751Y-81388544D01*
X221155647Y-81396401D01*
X221139449Y-81519731D01*
X221139184Y-81523797D01*
X221139184Y-87519701D01*
X221139452Y-87523795D01*
X221155697Y-87647088D01*
X221157801Y-87654941D01*
X221204621Y-87767951D01*
X221208682Y-87774983D01*
X221283157Y-87872030D01*
X221288896Y-87877769D01*
X221385948Y-87952235D01*
X221392985Y-87956298D01*
X221506000Y-88003110D01*
X221513837Y-88005212D01*
X221637149Y-88021486D01*
X221641238Y-88021755D01*
X222635084Y-88021755D01*
X222643251Y-88022291D01*
X222760424Y-88037734D01*
X222776181Y-88041958D01*
X222881558Y-88085620D01*
X222895684Y-88093778D01*
X222986172Y-88163220D01*
X222997707Y-88174755D01*
X223067142Y-88265248D01*
X223075299Y-88279376D01*
X223118955Y-88384765D01*
X223123175Y-88400503D01*
X223138646Y-88517680D01*
X223139184Y-88525861D01*
X223139184Y-88606701D01*
X223139452Y-88610795D01*
X223155697Y-88734088D01*
X223157801Y-88741941D01*
X223204621Y-88854951D01*
X223208682Y-88861983D01*
X223283157Y-88959030D01*
X223288896Y-88964769D01*
X223385948Y-89039235D01*
X223392985Y-89043298D01*
X223506000Y-89090110D01*
X223513837Y-89092212D01*
X223637149Y-89108486D01*
X223641238Y-89108755D01*
X236637137Y-89108755D01*
X236641216Y-89108487D01*
X236764530Y-89092255D01*
X236772374Y-89090154D01*
X236885394Y-89043340D01*
X236892431Y-89039277D01*
X236989485Y-88964802D01*
X236995223Y-88959063D01*
X237069693Y-88862004D01*
X237073752Y-88854972D01*
X237120561Y-88741946D01*
X237122663Y-88734104D01*
X237138915Y-88610789D01*
X237139184Y-88606704D01*
X237139184Y-66085794D01*
X237138917Y-66081732D01*
X237122692Y-65958395D01*
X237120592Y-65950552D01*
X237073782Y-65837521D01*
X237069720Y-65830483D01*
X236995250Y-65733423D01*
X236989505Y-65727677D01*
X236892451Y-65653200D01*
X236885411Y-65649136D01*
X236772395Y-65602322D01*
X236764530Y-65600216D01*
X236641208Y-65584020D01*
X236637141Y-65583755D01*
X235262029Y-65583755D01*
X235253876Y-65583221D01*
X235136668Y-65567799D01*
X235120907Y-65563577D01*
X235015510Y-65519929D01*
X235001381Y-65511773D01*
X234910867Y-65442332D01*
X234899329Y-65430796D01*
X234829874Y-65340297D01*
X234821715Y-65326169D01*
X234778054Y-65220795D01*
X234773824Y-65204993D01*
X234758464Y-65087799D01*
X234757934Y-65079677D01*
X234757934Y-64649840D01*
X234758467Y-64641699D01*
X234773866Y-64524489D01*
X234778087Y-64508722D01*
X234821724Y-64403323D01*
X234829883Y-64389187D01*
X234899322Y-64298680D01*
X234910863Y-64287138D01*
X235001371Y-64217693D01*
X235015506Y-64209534D01*
X235120898Y-64165894D01*
X235136675Y-64161671D01*
X235253881Y-64146287D01*
X235262015Y-64145755D01*
X235637137Y-64145755D01*
X235641216Y-64145487D01*
X235764530Y-64129255D01*
X235772374Y-64127154D01*
X235885394Y-64080340D01*
X235892431Y-64076277D01*
X235989485Y-64001802D01*
X235995223Y-63996063D01*
X236069693Y-63899004D01*
X236073752Y-63891972D01*
X236120561Y-63778946D01*
X236122663Y-63771104D01*
X236138915Y-63647789D01*
X236139184Y-63643704D01*
X236139184Y-57647794D01*
X236138917Y-57643732D01*
X236122692Y-57520395D01*
X236120592Y-57512552D01*
X236073782Y-57399521D01*
X236069720Y-57392483D01*
X235995250Y-57295423D01*
X235989505Y-57289677D01*
X235892451Y-57215200D01*
X235885411Y-57211136D01*
X235772395Y-57164322D01*
X235764530Y-57162216D01*
X235641208Y-57146020D01*
X235637141Y-57145755D01*
X235262029Y-57145755D01*
X235253876Y-57145221D01*
X235136668Y-57129799D01*
X235120907Y-57125577D01*
X235015510Y-57081929D01*
X235001381Y-57073773D01*
X234910867Y-57004332D01*
X234899329Y-56992796D01*
X234829874Y-56902297D01*
X234821715Y-56888169D01*
X234778054Y-56782795D01*
X234773824Y-56766993D01*
X234758464Y-56649799D01*
X234757934Y-56641677D01*
X234757934Y-56560799D01*
X234757667Y-56556730D01*
X234741422Y-56433398D01*
X234739321Y-56425558D01*
X234692504Y-56312533D01*
X234688440Y-56305493D01*
X234613973Y-56208432D01*
X234608230Y-56202688D01*
X234511181Y-56128203D01*
X234504145Y-56124139D01*
X234391138Y-56077307D01*
X234383274Y-56075200D01*
X234259951Y-56059019D01*
X234255898Y-56058755D01*
X221259972Y-56058755D01*
X221255915Y-56059020D01*
X221132584Y-56075250D01*
X221124738Y-56077352D01*
X221011715Y-56124165D01*
X221004680Y-56128227D01*
X220907627Y-56202699D01*
X220901885Y-56208441D01*
X220827414Y-56305501D01*
X220823355Y-56312531D01*
X220776546Y-56425562D01*
X220774445Y-56433400D01*
X220758200Y-56556730D01*
X220757934Y-56560799D01*
X220757934Y-69556717D01*
X220037332Y-69556717D01*
X220037332Y-69012150D01*
X220055638Y-68967956D01*
X220155541Y-68868052D01*
X220164332Y-68846831D01*
X220164332Y-57256838D01*
X220155541Y-57235616D01*
X220055638Y-57135713D01*
X220037332Y-57091519D01*
X220037332Y-55611353D01*
X220055638Y-55567159D01*
X220146026Y-55476771D01*
X220190220Y-55458465D01*
X237698951Y-55458465D01*
X237743145Y-55476771D01*
G37*
G36*
X110733994Y-93581843D02*
G01*
X110752300Y-93626037D01*
X110752300Y-95347995D01*
X110752230Y-95350945D01*
X110751873Y-95358500D01*
X110751320Y-95364354D01*
X110750466Y-95370356D01*
X110749364Y-95376136D01*
X110748575Y-95379424D01*
X110723541Y-95416112D01*
X110680457Y-95426907D01*
X110641082Y-95406357D01*
X110625300Y-95364840D01*
X110625300Y-95361910D01*
X110616509Y-95340688D01*
X109776523Y-94500702D01*
X109758217Y-94456508D01*
X109776523Y-94412314D01*
X110606994Y-93581843D01*
X110651188Y-93563537D01*
X110689800Y-93563537D01*
X110733994Y-93581843D01*
G37*
G36*
X135349137Y-55481747D02*
G01*
X135439525Y-55572135D01*
X135457831Y-55616329D01*
X135457831Y-57096495D01*
X135439525Y-57140689D01*
X135339621Y-57240592D01*
X135330831Y-57261814D01*
X135330831Y-70618060D01*
X135312525Y-70662254D01*
X135222137Y-70752642D01*
X135177943Y-70770948D01*
X133697777Y-70770948D01*
X133653583Y-70752642D01*
X133553679Y-70652738D01*
X133532458Y-70643948D01*
X121948697Y-70643948D01*
X121927475Y-70652738D01*
X121827572Y-70752642D01*
X121783378Y-70770948D01*
X120303212Y-70770948D01*
X120259018Y-70752642D01*
X120168630Y-70662254D01*
X120150324Y-70618060D01*
X120150324Y-69556717D01*
X120745434Y-69556717D01*
X120745699Y-69560773D01*
X120761928Y-69684101D01*
X120764029Y-69691940D01*
X120810845Y-69804965D01*
X120814903Y-69811994D01*
X120889380Y-69909041D01*
X120895121Y-69914782D01*
X120992181Y-69989241D01*
X120999215Y-69993300D01*
X121112252Y-70040097D01*
X121120073Y-70042194D01*
X121243408Y-70058487D01*
X121247479Y-70058755D01*
X134243390Y-70058755D01*
X134247459Y-70058488D01*
X134370778Y-70042246D01*
X134378628Y-70040142D01*
X134491647Y-69993325D01*
X134498680Y-69989264D01*
X134595736Y-69914792D01*
X134601478Y-69909050D01*
X134675952Y-69812001D01*
X134680016Y-69804964D01*
X134726839Y-69691944D01*
X134728940Y-69684104D01*
X134745168Y-69560774D01*
X134745434Y-69556717D01*
X134745434Y-56560799D01*
X134745167Y-56556730D01*
X134728922Y-56433398D01*
X134726821Y-56425558D01*
X134680004Y-56312533D01*
X134675940Y-56305493D01*
X134601473Y-56208432D01*
X134595730Y-56202688D01*
X134498681Y-56128203D01*
X134491645Y-56124139D01*
X134378638Y-56077307D01*
X134370774Y-56075200D01*
X134247451Y-56059019D01*
X134243398Y-56058755D01*
X121247472Y-56058755D01*
X121243415Y-56059020D01*
X121120084Y-56075250D01*
X121112238Y-56077352D01*
X120999215Y-56124165D01*
X120992180Y-56128227D01*
X120895127Y-56202699D01*
X120889385Y-56208441D01*
X120814914Y-56305501D01*
X120810855Y-56312531D01*
X120764046Y-56425562D01*
X120761945Y-56433400D01*
X120745700Y-56556730D01*
X120745434Y-56560799D01*
X120745434Y-69556717D01*
X120150324Y-69556717D01*
X120150324Y-57261814D01*
X120141533Y-57240592D01*
X120041630Y-57140689D01*
X120023324Y-57096495D01*
X120023324Y-55616329D01*
X120041630Y-55572135D01*
X120132018Y-55481747D01*
X120176212Y-55463441D01*
X135304943Y-55463441D01*
X135349137Y-55481747D01*
G37*
G36*
X186934186Y-93581843D02*
G01*
X186952492Y-93626037D01*
X186952492Y-95347995D01*
X186952422Y-95350945D01*
X186952065Y-95358500D01*
X186951512Y-95364354D01*
X186950658Y-95370356D01*
X186949556Y-95376136D01*
X186948767Y-95379424D01*
X186923733Y-95416112D01*
X186880649Y-95426907D01*
X186841274Y-95406357D01*
X186825492Y-95364840D01*
X186825492Y-95361910D01*
X186816701Y-95340688D01*
X185976715Y-94500702D01*
X185958409Y-94456508D01*
X185976715Y-94412314D01*
X186807186Y-93581843D01*
X186851380Y-93563537D01*
X186889992Y-93563537D01*
X186934186Y-93581843D01*
G37*
G36*
X211549329Y-55481747D02*
G01*
X212379800Y-56312218D01*
X212398106Y-56356412D01*
X212379800Y-56400606D01*
X211539813Y-57240592D01*
X211531023Y-57261814D01*
X211531023Y-57264744D01*
X211515244Y-57306258D01*
X211475875Y-57326810D01*
X211432793Y-57316024D01*
X211407752Y-57279345D01*
X211406962Y-57276057D01*
X211405856Y-57270260D01*
X211405002Y-57264258D01*
X211404448Y-57258396D01*
X211404092Y-57250841D01*
X211404023Y-57247899D01*
X211404023Y-55525941D01*
X211422329Y-55481747D01*
X211466523Y-55463441D01*
X211505135Y-55463441D01*
X211549329Y-55481747D01*
G37*
G36*
X216275229Y-89585302D02*
G01*
X216293535Y-89629496D01*
X216293535Y-89668108D01*
X216275229Y-89712302D01*
X215444758Y-90542773D01*
X215400564Y-90561079D01*
X215356370Y-90542773D01*
X214516383Y-89702786D01*
X214495162Y-89693996D01*
X214492232Y-89693996D01*
X214450719Y-89678218D01*
X214430166Y-89638850D01*
X214440950Y-89595769D01*
X214477627Y-89570726D01*
X214480914Y-89569936D01*
X214486715Y-89568829D01*
X214492717Y-89567975D01*
X214498580Y-89567421D01*
X214506136Y-89567065D01*
X214509077Y-89566996D01*
X216231035Y-89566996D01*
X216275229Y-89585302D01*
G37*
G36*
X211549329Y-55481747D02*
G01*
X211639717Y-55572135D01*
X211658023Y-55616329D01*
X211658023Y-57096495D01*
X211639717Y-57140689D01*
X211539813Y-57240592D01*
X211531023Y-57261814D01*
X211531023Y-70618060D01*
X211512717Y-70662254D01*
X211422329Y-70752642D01*
X211378135Y-70770948D01*
X209897969Y-70770948D01*
X209853775Y-70752642D01*
X209753871Y-70652738D01*
X209732650Y-70643948D01*
X198148889Y-70643948D01*
X198127667Y-70652738D01*
X198027764Y-70752642D01*
X197983570Y-70770948D01*
X196503404Y-70770948D01*
X196459210Y-70752642D01*
X196368822Y-70662254D01*
X196350516Y-70618060D01*
X196350516Y-69556717D01*
X196945434Y-69556717D01*
X196945699Y-69560773D01*
X196961928Y-69684101D01*
X196964029Y-69691940D01*
X197010845Y-69804965D01*
X197014903Y-69811994D01*
X197089380Y-69909041D01*
X197095121Y-69914782D01*
X197192181Y-69989241D01*
X197199215Y-69993300D01*
X197312252Y-70040097D01*
X197320073Y-70042194D01*
X197443408Y-70058487D01*
X197447479Y-70058755D01*
X210443390Y-70058755D01*
X210447459Y-70058488D01*
X210570778Y-70042246D01*
X210578628Y-70040142D01*
X210691647Y-69993325D01*
X210698680Y-69989264D01*
X210795736Y-69914792D01*
X210801478Y-69909050D01*
X210875952Y-69812001D01*
X210880016Y-69804964D01*
X210926839Y-69691944D01*
X210928940Y-69684104D01*
X210945168Y-69560774D01*
X210945434Y-69556717D01*
X210945434Y-56560799D01*
X210945167Y-56556730D01*
X210928922Y-56433398D01*
X210926821Y-56425558D01*
X210880004Y-56312533D01*
X210875940Y-56305493D01*
X210801473Y-56208432D01*
X210795730Y-56202688D01*
X210698681Y-56128203D01*
X210691645Y-56124139D01*
X210578638Y-56077307D01*
X210570774Y-56075200D01*
X210447451Y-56059019D01*
X210443398Y-56058755D01*
X197447472Y-56058755D01*
X197443415Y-56059020D01*
X197320084Y-56075250D01*
X197312238Y-56077352D01*
X197199215Y-56124165D01*
X197192180Y-56128227D01*
X197095127Y-56202699D01*
X197089385Y-56208441D01*
X197014914Y-56305501D01*
X197010855Y-56312531D01*
X196964046Y-56425562D01*
X196961945Y-56433400D01*
X196945700Y-56556730D01*
X196945434Y-56560799D01*
X196945434Y-69556717D01*
X196350516Y-69556717D01*
X196350516Y-57261814D01*
X196341725Y-57240592D01*
X196241822Y-57140689D01*
X196223516Y-57096495D01*
X196223516Y-55616329D01*
X196241822Y-55572135D01*
X196332210Y-55481747D01*
X196376404Y-55463441D01*
X211505135Y-55463441D01*
X211549329Y-55481747D01*
G37*
G36*
X221074353Y-93581843D02*
G01*
X221164741Y-93672231D01*
X221183047Y-93716425D01*
X221183047Y-95196591D01*
X221164741Y-95240785D01*
X221064837Y-95340688D01*
X221056047Y-95361910D01*
X221056047Y-108718156D01*
X221037741Y-108762350D01*
X220947353Y-108852738D01*
X220903159Y-108871044D01*
X219422993Y-108871044D01*
X219378799Y-108852738D01*
X219278895Y-108752834D01*
X219257674Y-108744044D01*
X207673913Y-108744044D01*
X207652691Y-108752834D01*
X207552788Y-108852738D01*
X207508594Y-108871044D01*
X206028428Y-108871044D01*
X205984234Y-108852738D01*
X205893846Y-108762350D01*
X205875540Y-108718156D01*
X205875540Y-107656717D01*
X206470434Y-107656717D01*
X206470699Y-107660773D01*
X206486928Y-107784101D01*
X206489029Y-107791940D01*
X206535845Y-107904965D01*
X206539903Y-107911994D01*
X206614380Y-108009041D01*
X206620121Y-108014782D01*
X206717181Y-108089241D01*
X206724215Y-108093300D01*
X206837252Y-108140097D01*
X206845073Y-108142194D01*
X206968408Y-108158487D01*
X206972479Y-108158755D01*
X219968390Y-108158755D01*
X219972459Y-108158488D01*
X220095778Y-108142246D01*
X220103628Y-108140142D01*
X220216647Y-108093325D01*
X220223680Y-108089264D01*
X220320736Y-108014792D01*
X220326478Y-108009050D01*
X220400952Y-107912001D01*
X220405016Y-107904964D01*
X220451839Y-107791944D01*
X220453940Y-107784104D01*
X220470168Y-107660774D01*
X220470434Y-107656717D01*
X220470434Y-94660799D01*
X220470167Y-94656730D01*
X220453922Y-94533398D01*
X220451821Y-94525558D01*
X220405004Y-94412533D01*
X220400940Y-94405493D01*
X220326473Y-94308432D01*
X220320730Y-94302688D01*
X220223681Y-94228203D01*
X220216645Y-94224139D01*
X220103638Y-94177307D01*
X220095774Y-94175200D01*
X219972451Y-94159019D01*
X219968398Y-94158755D01*
X206972472Y-94158755D01*
X206968415Y-94159020D01*
X206845084Y-94175250D01*
X206837238Y-94177352D01*
X206724215Y-94224165D01*
X206717180Y-94228227D01*
X206620127Y-94302699D01*
X206614385Y-94308441D01*
X206539914Y-94405501D01*
X206535855Y-94412531D01*
X206489046Y-94525562D01*
X206486945Y-94533400D01*
X206470700Y-94656730D01*
X206470434Y-94660799D01*
X206470434Y-107656717D01*
X205875540Y-107656717D01*
X205875540Y-95361910D01*
X205866749Y-95340688D01*
X205766846Y-95240785D01*
X205748540Y-95196591D01*
X205748540Y-93716425D01*
X205766846Y-93672231D01*
X205857234Y-93581843D01*
X205901428Y-93563537D01*
X221030159Y-93563537D01*
X221074353Y-93581843D01*
G37*
G36*
X49587309Y-108635350D02*
G01*
X49605615Y-108679544D01*
X49605615Y-108718156D01*
X49587309Y-108762350D01*
X48756838Y-109592821D01*
X48712644Y-109611127D01*
X48668450Y-109592821D01*
X47828463Y-108752834D01*
X47807242Y-108744044D01*
X47804312Y-108744044D01*
X47762799Y-108728266D01*
X47742246Y-108688898D01*
X47753030Y-108645817D01*
X47789707Y-108620774D01*
X47792994Y-108619984D01*
X47798795Y-108618877D01*
X47804797Y-108618023D01*
X47810660Y-108617469D01*
X47818216Y-108617113D01*
X47821157Y-108617044D01*
X49543115Y-108617044D01*
X49587309Y-108635350D01*
G37*
G36*
X144837549Y-108635350D02*
G01*
X144855855Y-108679544D01*
X144855855Y-108718156D01*
X144837549Y-108762350D01*
X144007078Y-109592821D01*
X143962884Y-109611127D01*
X143918690Y-109592821D01*
X143078703Y-108752834D01*
X143057482Y-108744044D01*
X143054552Y-108744044D01*
X143013039Y-108728266D01*
X142992486Y-108688898D01*
X143003270Y-108645817D01*
X143039947Y-108620774D01*
X143043234Y-108619984D01*
X143049035Y-108618877D01*
X143055037Y-108618023D01*
X143060900Y-108617469D01*
X143068456Y-108617113D01*
X143071397Y-108617044D01*
X144793355Y-108617044D01*
X144837549Y-108635350D01*
G37*
G36*
X192499281Y-55481747D02*
G01*
X192589669Y-55572135D01*
X192607975Y-55616329D01*
X192607975Y-57096495D01*
X192589669Y-57140689D01*
X192489765Y-57240592D01*
X192480975Y-57261814D01*
X192480975Y-70618060D01*
X192462669Y-70662254D01*
X192372281Y-70752642D01*
X192328087Y-70770948D01*
X190847921Y-70770948D01*
X190803727Y-70752642D01*
X190703823Y-70652738D01*
X190682602Y-70643948D01*
X179098841Y-70643948D01*
X179077619Y-70652738D01*
X178977716Y-70752642D01*
X178933522Y-70770948D01*
X177453356Y-70770948D01*
X177409162Y-70752642D01*
X177318774Y-70662254D01*
X177300468Y-70618060D01*
X177300468Y-69556717D01*
X177895434Y-69556717D01*
X177895699Y-69560773D01*
X177911928Y-69684101D01*
X177914029Y-69691940D01*
X177960845Y-69804965D01*
X177964903Y-69811994D01*
X178039380Y-69909041D01*
X178045121Y-69914782D01*
X178142181Y-69989241D01*
X178149215Y-69993300D01*
X178262252Y-70040097D01*
X178270073Y-70042194D01*
X178393408Y-70058487D01*
X178397479Y-70058755D01*
X191393390Y-70058755D01*
X191397459Y-70058488D01*
X191520778Y-70042246D01*
X191528628Y-70040142D01*
X191641647Y-69993325D01*
X191648680Y-69989264D01*
X191745736Y-69914792D01*
X191751478Y-69909050D01*
X191825952Y-69812001D01*
X191830016Y-69804964D01*
X191876839Y-69691944D01*
X191878940Y-69684104D01*
X191895168Y-69560774D01*
X191895434Y-69556717D01*
X191895434Y-56560799D01*
X191895167Y-56556730D01*
X191878922Y-56433398D01*
X191876821Y-56425558D01*
X191830004Y-56312533D01*
X191825940Y-56305493D01*
X191751473Y-56208432D01*
X191745730Y-56202688D01*
X191648681Y-56128203D01*
X191641645Y-56124139D01*
X191528638Y-56077307D01*
X191520774Y-56075200D01*
X191397451Y-56059019D01*
X191393398Y-56058755D01*
X178397472Y-56058755D01*
X178393415Y-56059020D01*
X178270084Y-56075250D01*
X178262238Y-56077352D01*
X178149215Y-56124165D01*
X178142180Y-56128227D01*
X178045127Y-56202699D01*
X178039385Y-56208441D01*
X177964914Y-56305501D01*
X177960855Y-56312531D01*
X177914046Y-56425562D01*
X177911945Y-56433400D01*
X177895700Y-56556730D01*
X177895434Y-56560799D01*
X177895434Y-69556717D01*
X177300468Y-69556717D01*
X177300468Y-57261814D01*
X177291677Y-57240592D01*
X177191774Y-57140689D01*
X177173468Y-57096495D01*
X177173468Y-55616329D01*
X177191774Y-55572135D01*
X177282162Y-55481747D01*
X177326356Y-55463441D01*
X192455087Y-55463441D01*
X192499281Y-55481747D01*
G37*
G36*
X188612892Y-108617113D02*
G01*
X188620447Y-108617469D01*
X188626309Y-108618023D01*
X188632311Y-108618877D01*
X188638108Y-108619983D01*
X188641396Y-108620773D01*
X188678075Y-108645814D01*
X188688861Y-108688896D01*
X188668309Y-108728265D01*
X188626795Y-108744044D01*
X188623865Y-108744044D01*
X188602643Y-108752834D01*
X187762657Y-109592821D01*
X187718463Y-109611127D01*
X187674269Y-109592821D01*
X186843798Y-108762350D01*
X186825492Y-108718156D01*
X186825492Y-108679544D01*
X186843798Y-108635350D01*
X186887992Y-108617044D01*
X188609950Y-108617044D01*
X188612892Y-108617113D01*
G37*
G36*
X134779711Y-92714760D02*
G01*
X135619697Y-93554746D01*
X135640919Y-93563537D01*
X135643849Y-93563537D01*
X135685366Y-93579319D01*
X135705916Y-93618694D01*
X135695121Y-93661778D01*
X135658433Y-93686812D01*
X135655145Y-93687601D01*
X135649365Y-93688703D01*
X135643363Y-93689557D01*
X135637509Y-93690110D01*
X135629954Y-93690467D01*
X135627004Y-93690537D01*
X133844030Y-93690537D01*
X133841080Y-93690467D01*
X133833524Y-93690110D01*
X133827670Y-93689557D01*
X133821668Y-93688703D01*
X133815884Y-93687600D01*
X133812597Y-93686811D01*
X133775911Y-93661775D01*
X133765118Y-93618692D01*
X133785669Y-93579318D01*
X133827185Y-93563537D01*
X133830115Y-93563537D01*
X133851336Y-93554746D01*
X134691323Y-92714760D01*
X134735517Y-92696454D01*
X134779711Y-92714760D01*
G37*
G36*
X178211745Y-74531795D02*
G01*
X179042216Y-75362266D01*
X179060522Y-75406460D01*
X179042216Y-75450654D01*
X178202229Y-76290640D01*
X178193439Y-76311862D01*
X178193439Y-76314792D01*
X178177660Y-76356306D01*
X178138291Y-76376858D01*
X178095209Y-76366072D01*
X178070168Y-76329393D01*
X178069378Y-76326105D01*
X178068272Y-76320308D01*
X178067418Y-76314306D01*
X178066864Y-76308444D01*
X178066508Y-76300889D01*
X178066439Y-76297947D01*
X178066439Y-74575989D01*
X178084745Y-74531795D01*
X178128939Y-74513489D01*
X178167551Y-74513489D01*
X178211745Y-74531795D01*
G37*
G36*
X120259018Y-55481747D02*
G01*
X120277324Y-55525941D01*
X120277324Y-57247899D01*
X120277254Y-57250849D01*
X120276897Y-57258404D01*
X120276344Y-57264258D01*
X120275490Y-57270260D01*
X120274388Y-57276040D01*
X120273599Y-57279328D01*
X120248565Y-57316016D01*
X120205481Y-57326811D01*
X120166106Y-57306261D01*
X120150324Y-57264744D01*
X120150324Y-57261814D01*
X120141533Y-57240592D01*
X119301547Y-56400606D01*
X119283241Y-56356412D01*
X119301547Y-56312218D01*
X120132018Y-55481747D01*
X120176212Y-55463441D01*
X120214824Y-55463441D01*
X120259018Y-55481747D01*
G37*
G36*
X220273026Y-80445067D02*
G01*
X220291332Y-80489261D01*
X220291332Y-82249831D01*
X220291262Y-82252781D01*
X220290905Y-82260336D01*
X220290352Y-82266190D01*
X220289498Y-82272192D01*
X220288396Y-82277972D01*
X220287607Y-82281260D01*
X220262573Y-82317948D01*
X220219489Y-82328743D01*
X220180114Y-82308193D01*
X220164332Y-82266676D01*
X220164332Y-82263746D01*
X220155541Y-82242524D01*
X219315555Y-81402538D01*
X219297249Y-81358344D01*
X219315555Y-81314150D01*
X220184638Y-80445067D01*
X220228832Y-80426761D01*
X220273026Y-80445067D01*
G37*
G36*
X153154445Y-90711161D02*
G01*
X153994431Y-91551147D01*
X154015653Y-91559938D01*
X154018583Y-91559938D01*
X154060100Y-91575720D01*
X154080650Y-91615095D01*
X154069855Y-91658179D01*
X154033167Y-91683213D01*
X154029879Y-91684002D01*
X154024099Y-91685104D01*
X154018097Y-91685958D01*
X154012243Y-91686511D01*
X154004688Y-91686868D01*
X154001738Y-91686938D01*
X152279780Y-91686938D01*
X152235586Y-91668632D01*
X152217280Y-91624438D01*
X152217280Y-91585826D01*
X152235586Y-91541632D01*
X153066057Y-90711161D01*
X153110251Y-90692855D01*
X153154445Y-90711161D01*
G37*
G36*
X130550013Y-89585302D02*
G01*
X130568319Y-89629496D01*
X130568319Y-89668108D01*
X130550013Y-89712302D01*
X129719542Y-90542773D01*
X129675348Y-90561079D01*
X129631154Y-90542773D01*
X128791167Y-89702786D01*
X128769946Y-89693996D01*
X128767016Y-89693996D01*
X128725503Y-89678218D01*
X128704950Y-89638850D01*
X128715734Y-89595769D01*
X128752411Y-89570726D01*
X128755698Y-89569936D01*
X128761499Y-89568829D01*
X128767501Y-89567975D01*
X128773364Y-89567421D01*
X128780920Y-89567065D01*
X128783861Y-89566996D01*
X130505819Y-89566996D01*
X130550013Y-89585302D01*
G37*
G36*
X221037741Y-108635350D02*
G01*
X221056047Y-108679544D01*
X221056047Y-108718156D01*
X221037741Y-108762350D01*
X220207270Y-109592821D01*
X220163076Y-109611127D01*
X220118882Y-109592821D01*
X219278895Y-108752834D01*
X219257674Y-108744044D01*
X219254744Y-108744044D01*
X219213231Y-108728266D01*
X219192678Y-108688898D01*
X219203462Y-108645817D01*
X219240139Y-108620774D01*
X219243426Y-108619984D01*
X219249227Y-108618877D01*
X219255229Y-108618023D01*
X219261092Y-108617469D01*
X219268648Y-108617113D01*
X219271589Y-108617044D01*
X220993547Y-108617044D01*
X221037741Y-108635350D01*
G37*
G36*
X198137916Y-70517017D02*
G01*
X198145471Y-70517373D01*
X198151333Y-70517927D01*
X198157335Y-70518781D01*
X198163132Y-70519887D01*
X198166420Y-70520677D01*
X198203099Y-70545718D01*
X198213885Y-70588800D01*
X198193333Y-70628169D01*
X198151819Y-70643948D01*
X198148889Y-70643948D01*
X198127667Y-70652738D01*
X197287681Y-71492725D01*
X197243487Y-71511031D01*
X197199293Y-71492725D01*
X196368822Y-70662254D01*
X196350516Y-70618060D01*
X196350516Y-70579448D01*
X196368822Y-70535254D01*
X196413016Y-70516948D01*
X198134974Y-70516948D01*
X198137916Y-70517017D01*
G37*
G36*
X237663524Y-93568711D02*
G01*
X237756603Y-93609141D01*
X237760618Y-93610567D01*
X238032491Y-93686743D01*
X238036663Y-93687610D01*
X238316389Y-93726057D01*
X238320627Y-93726347D01*
X238602987Y-93726347D01*
X238607224Y-93726057D01*
X238886950Y-93687610D01*
X238891122Y-93686743D01*
X239162995Y-93610567D01*
X239167010Y-93609141D01*
X239260090Y-93568711D01*
X239284990Y-93563537D01*
X240080207Y-93563537D01*
X240124401Y-93581843D01*
X240214789Y-93672231D01*
X240233095Y-93716425D01*
X240233095Y-95196591D01*
X240214789Y-95240785D01*
X240114885Y-95340688D01*
X240106095Y-95361910D01*
X240106095Y-108718156D01*
X240087789Y-108762350D01*
X239997401Y-108852738D01*
X239953207Y-108871044D01*
X238473041Y-108871044D01*
X238428847Y-108852738D01*
X238328943Y-108752834D01*
X238307722Y-108744044D01*
X226723961Y-108744044D01*
X226702739Y-108752834D01*
X226602836Y-108852738D01*
X226558642Y-108871044D01*
X225078476Y-108871044D01*
X225034282Y-108852738D01*
X224943894Y-108762350D01*
X224925588Y-108718156D01*
X224925588Y-107656717D01*
X225520434Y-107656717D01*
X225520699Y-107660773D01*
X225536928Y-107784101D01*
X225539029Y-107791940D01*
X225585845Y-107904965D01*
X225589903Y-107911994D01*
X225664380Y-108009041D01*
X225670121Y-108014782D01*
X225767181Y-108089241D01*
X225774215Y-108093300D01*
X225887252Y-108140097D01*
X225895073Y-108142194D01*
X226018408Y-108158487D01*
X226022479Y-108158755D01*
X239018390Y-108158755D01*
X239022459Y-108158488D01*
X239145778Y-108142246D01*
X239153628Y-108140142D01*
X239266647Y-108093325D01*
X239273680Y-108089264D01*
X239370736Y-108014792D01*
X239376478Y-108009050D01*
X239450952Y-107912001D01*
X239455016Y-107904964D01*
X239501839Y-107791944D01*
X239503940Y-107784104D01*
X239520168Y-107660774D01*
X239520434Y-107656717D01*
X239520434Y-94660799D01*
X239520167Y-94656730D01*
X239503922Y-94533398D01*
X239501821Y-94525558D01*
X239455004Y-94412533D01*
X239450940Y-94405493D01*
X239376473Y-94308432D01*
X239370730Y-94302688D01*
X239273681Y-94228203D01*
X239266645Y-94224139D01*
X239153638Y-94177307D01*
X239145774Y-94175200D01*
X239022451Y-94159019D01*
X239018398Y-94158755D01*
X226022472Y-94158755D01*
X226018415Y-94159020D01*
X225895084Y-94175250D01*
X225887238Y-94177352D01*
X225774215Y-94224165D01*
X225767180Y-94228227D01*
X225670127Y-94302699D01*
X225664385Y-94308441D01*
X225589914Y-94405501D01*
X225585855Y-94412531D01*
X225539046Y-94525562D01*
X225536945Y-94533400D01*
X225520700Y-94656730D01*
X225520434Y-94660799D01*
X225520434Y-107656717D01*
X224925588Y-107656717D01*
X224925588Y-95361910D01*
X224916797Y-95340688D01*
X224816894Y-95240785D01*
X224798588Y-95196591D01*
X224798588Y-93716425D01*
X224816894Y-93672231D01*
X224907282Y-93581843D01*
X224951476Y-93563537D01*
X237638624Y-93563537D01*
X237663524Y-93568711D01*
G37*
G36*
X226712988Y-108617113D02*
G01*
X226720543Y-108617469D01*
X226726405Y-108618023D01*
X226732407Y-108618877D01*
X226738204Y-108619983D01*
X226741492Y-108620773D01*
X226778171Y-108645814D01*
X226788957Y-108688896D01*
X226768405Y-108728265D01*
X226726891Y-108744044D01*
X226723961Y-108744044D01*
X226702739Y-108752834D01*
X225862753Y-109592821D01*
X225818559Y-109611127D01*
X225774365Y-109592821D01*
X224943894Y-108762350D01*
X224925588Y-108718156D01*
X224925588Y-108679544D01*
X224943894Y-108635350D01*
X224988088Y-108617044D01*
X226710046Y-108617044D01*
X226712988Y-108617113D01*
G37*
G36*
X97249041Y-55481747D02*
G01*
X98079512Y-56312218D01*
X98097818Y-56356412D01*
X98079512Y-56400606D01*
X97239525Y-57240592D01*
X97230735Y-57261814D01*
X97230735Y-57264744D01*
X97214956Y-57306258D01*
X97175587Y-57326810D01*
X97132505Y-57316024D01*
X97107464Y-57279345D01*
X97106674Y-57276057D01*
X97105568Y-57270260D01*
X97104714Y-57264258D01*
X97104160Y-57258396D01*
X97103804Y-57250841D01*
X97103735Y-57247899D01*
X97103735Y-55525941D01*
X97122041Y-55481747D01*
X97166235Y-55463441D01*
X97204847Y-55463441D01*
X97249041Y-55481747D01*
G37*
G36*
X78198993Y-55481747D02*
G01*
X78289381Y-55572135D01*
X78307687Y-55616329D01*
X78307687Y-57096495D01*
X78289381Y-57140689D01*
X78189477Y-57240592D01*
X78180687Y-57261814D01*
X78180687Y-70618060D01*
X78162381Y-70662254D01*
X78071993Y-70752642D01*
X78027799Y-70770948D01*
X76547633Y-70770948D01*
X76503439Y-70752642D01*
X76403535Y-70652738D01*
X76382314Y-70643948D01*
X64798553Y-70643948D01*
X64777331Y-70652738D01*
X64677428Y-70752642D01*
X64633234Y-70770948D01*
X63153068Y-70770948D01*
X63108874Y-70752642D01*
X63018486Y-70662254D01*
X63000180Y-70618060D01*
X63000180Y-69556717D01*
X63595434Y-69556717D01*
X63595699Y-69560773D01*
X63611928Y-69684101D01*
X63614029Y-69691940D01*
X63660845Y-69804965D01*
X63664903Y-69811994D01*
X63739380Y-69909041D01*
X63745121Y-69914782D01*
X63842181Y-69989241D01*
X63849215Y-69993300D01*
X63962252Y-70040097D01*
X63970073Y-70042194D01*
X64093408Y-70058487D01*
X64097479Y-70058755D01*
X77093390Y-70058755D01*
X77097459Y-70058488D01*
X77220778Y-70042246D01*
X77228628Y-70040142D01*
X77341647Y-69993325D01*
X77348680Y-69989264D01*
X77445736Y-69914792D01*
X77451478Y-69909050D01*
X77525952Y-69812001D01*
X77530016Y-69804964D01*
X77576839Y-69691944D01*
X77578940Y-69684104D01*
X77595168Y-69560774D01*
X77595434Y-69556717D01*
X77595434Y-56560799D01*
X77595167Y-56556730D01*
X77578922Y-56433398D01*
X77576821Y-56425558D01*
X77530004Y-56312533D01*
X77525940Y-56305493D01*
X77451473Y-56208432D01*
X77445730Y-56202688D01*
X77348681Y-56128203D01*
X77341645Y-56124139D01*
X77228638Y-56077307D01*
X77220774Y-56075200D01*
X77097451Y-56059019D01*
X77093398Y-56058755D01*
X64097487Y-56058755D01*
X64093396Y-56059023D01*
X63970090Y-56075271D01*
X63962254Y-56077371D01*
X63849237Y-56124194D01*
X63842199Y-56128258D01*
X63745157Y-56202727D01*
X63739413Y-56208471D01*
X63664943Y-56305524D01*
X63660886Y-56312549D01*
X63614065Y-56425573D01*
X63611964Y-56433412D01*
X63595701Y-56556725D01*
X63595434Y-56560799D01*
X63595434Y-69556717D01*
X63000180Y-69556717D01*
X63000180Y-57261814D01*
X62991389Y-57240592D01*
X62891486Y-57140689D01*
X62873180Y-57096495D01*
X62873180Y-55616329D01*
X62891486Y-55572135D01*
X62981874Y-55481747D01*
X63026068Y-55463441D01*
X78154799Y-55463441D01*
X78198993Y-55481747D01*
G37*
G36*
X163887597Y-108635350D02*
G01*
X163905903Y-108679544D01*
X163905903Y-108718156D01*
X163887597Y-108762350D01*
X163057126Y-109592821D01*
X163012932Y-109611127D01*
X162968738Y-109592821D01*
X162128751Y-108752834D01*
X162107530Y-108744044D01*
X162104600Y-108744044D01*
X162063087Y-108728266D01*
X162042534Y-108688898D01*
X162053318Y-108645817D01*
X162089995Y-108620774D01*
X162093282Y-108619984D01*
X162099083Y-108618877D01*
X162105085Y-108618023D01*
X162110948Y-108617469D01*
X162118504Y-108617113D01*
X162121445Y-108617044D01*
X163843403Y-108617044D01*
X163887597Y-108635350D01*
G37*
G36*
X182171674Y-74531795D02*
G01*
X182189980Y-74575989D01*
X182189980Y-76297947D01*
X182189910Y-76300897D01*
X182189553Y-76308452D01*
X182189000Y-76314306D01*
X182188146Y-76320308D01*
X182187044Y-76326088D01*
X182186255Y-76329376D01*
X182161221Y-76366064D01*
X182118137Y-76376859D01*
X182078762Y-76356309D01*
X182062980Y-76314792D01*
X182062980Y-76311862D01*
X182054189Y-76290640D01*
X181214203Y-75450654D01*
X181195897Y-75406460D01*
X181214203Y-75362266D01*
X182044674Y-74531795D01*
X182088868Y-74513489D01*
X182127480Y-74513489D01*
X182171674Y-74531795D01*
G37*
G36*
X68637357Y-108635350D02*
G01*
X68655663Y-108679544D01*
X68655663Y-108718156D01*
X68637357Y-108762350D01*
X67806886Y-109592821D01*
X67762692Y-109611127D01*
X67718498Y-109592821D01*
X66878511Y-108752834D01*
X66857290Y-108744044D01*
X66854360Y-108744044D01*
X66812847Y-108728266D01*
X66792294Y-108688898D01*
X66803078Y-108645817D01*
X66839755Y-108620774D01*
X66843042Y-108619984D01*
X66848843Y-108618877D01*
X66854845Y-108618023D01*
X66860708Y-108617469D01*
X66868264Y-108617113D01*
X66871205Y-108617044D01*
X68593163Y-108617044D01*
X68637357Y-108635350D01*
G37*
G36*
X178175133Y-89585302D02*
G01*
X178193439Y-89629496D01*
X178193439Y-89668108D01*
X178175133Y-89712302D01*
X177344662Y-90542773D01*
X177300468Y-90561079D01*
X177256274Y-90542773D01*
X176416287Y-89702786D01*
X176395066Y-89693996D01*
X176392136Y-89693996D01*
X176350623Y-89678218D01*
X176330070Y-89638850D01*
X176340854Y-89595769D01*
X176377531Y-89570726D01*
X176380818Y-89569936D01*
X176386619Y-89568829D01*
X176392621Y-89567975D01*
X176398484Y-89567421D01*
X176406040Y-89567065D01*
X176408981Y-89566996D01*
X178130939Y-89566996D01*
X178175133Y-89585302D01*
G37*
G36*
X111536577Y-74531795D02*
G01*
X111626965Y-74622183D01*
X111645271Y-74666377D01*
X111645271Y-76146543D01*
X111626965Y-76190737D01*
X111527061Y-76290640D01*
X111518271Y-76311862D01*
X111518271Y-89668108D01*
X111499965Y-89712302D01*
X111409577Y-89802690D01*
X111365383Y-89820996D01*
X109885217Y-89820996D01*
X109841023Y-89802690D01*
X109741119Y-89702786D01*
X109719898Y-89693996D01*
X98136137Y-89693996D01*
X98114915Y-89702786D01*
X98015012Y-89802690D01*
X97970818Y-89820996D01*
X96490652Y-89820996D01*
X96446458Y-89802690D01*
X96356070Y-89712302D01*
X96337764Y-89668108D01*
X96337764Y-88606717D01*
X96932934Y-88606717D01*
X96933199Y-88610773D01*
X96949428Y-88734101D01*
X96951529Y-88741940D01*
X96998345Y-88854965D01*
X97002403Y-88861994D01*
X97076880Y-88959041D01*
X97082621Y-88964782D01*
X97179681Y-89039241D01*
X97186715Y-89043300D01*
X97299752Y-89090097D01*
X97307573Y-89092194D01*
X97430908Y-89108487D01*
X97434979Y-89108755D01*
X110430890Y-89108755D01*
X110434959Y-89108488D01*
X110558278Y-89092246D01*
X110566128Y-89090142D01*
X110679147Y-89043325D01*
X110686180Y-89039264D01*
X110783236Y-88964792D01*
X110788978Y-88959050D01*
X110863452Y-88862001D01*
X110867516Y-88854964D01*
X110914339Y-88741944D01*
X110916440Y-88734104D01*
X110932668Y-88610774D01*
X110932934Y-88606717D01*
X110932934Y-75610799D01*
X110932667Y-75606730D01*
X110916422Y-75483398D01*
X110914321Y-75475558D01*
X110867504Y-75362533D01*
X110863440Y-75355493D01*
X110788973Y-75258432D01*
X110783230Y-75252688D01*
X110686181Y-75178203D01*
X110679145Y-75174139D01*
X110566138Y-75127307D01*
X110558274Y-75125200D01*
X110434951Y-75109019D01*
X110430898Y-75108755D01*
X97434972Y-75108755D01*
X97430915Y-75109020D01*
X97307584Y-75125250D01*
X97299738Y-75127352D01*
X97186715Y-75174165D01*
X97179680Y-75178227D01*
X97082627Y-75252699D01*
X97076885Y-75258441D01*
X97002414Y-75355501D01*
X96998355Y-75362531D01*
X96951546Y-75475562D01*
X96949445Y-75483400D01*
X96933200Y-75606730D01*
X96932934Y-75610799D01*
X96932934Y-88606717D01*
X96337764Y-88606717D01*
X96337764Y-76311862D01*
X96328973Y-76290640D01*
X96229070Y-76190737D01*
X96210764Y-76146543D01*
X96210764Y-74666377D01*
X96229070Y-74622183D01*
X96319458Y-74531795D01*
X96363652Y-74513489D01*
X111492383Y-74513489D01*
X111536577Y-74531795D01*
G37*
G36*
X135519794Y-93454843D02*
G01*
X135619697Y-93554746D01*
X135640919Y-93563537D01*
X138890284Y-93563537D01*
X138911505Y-93554746D01*
X139011409Y-93454843D01*
X139055603Y-93436537D01*
X140535769Y-93436537D01*
X140579963Y-93454843D01*
X140679866Y-93554746D01*
X140701088Y-93563537D01*
X144829967Y-93563537D01*
X144874161Y-93581843D01*
X144964549Y-93672231D01*
X144982855Y-93716425D01*
X144982855Y-95196591D01*
X144964549Y-95240785D01*
X144864645Y-95340688D01*
X144855855Y-95361910D01*
X144855855Y-108718156D01*
X144837549Y-108762350D01*
X144747161Y-108852738D01*
X144702967Y-108871044D01*
X143222801Y-108871044D01*
X143178607Y-108852738D01*
X143078703Y-108752834D01*
X143057482Y-108744044D01*
X131473721Y-108744044D01*
X131452499Y-108752834D01*
X131352596Y-108852738D01*
X131308402Y-108871044D01*
X129828236Y-108871044D01*
X129784042Y-108852738D01*
X129693654Y-108762350D01*
X129675348Y-108718156D01*
X129675348Y-107656717D01*
X130270434Y-107656717D01*
X130270699Y-107660773D01*
X130286928Y-107784101D01*
X130289029Y-107791940D01*
X130335845Y-107904965D01*
X130339903Y-107911994D01*
X130414380Y-108009041D01*
X130420121Y-108014782D01*
X130517181Y-108089241D01*
X130524215Y-108093300D01*
X130637252Y-108140097D01*
X130645073Y-108142194D01*
X130768408Y-108158487D01*
X130772479Y-108158755D01*
X143768390Y-108158755D01*
X143772459Y-108158488D01*
X143895778Y-108142246D01*
X143903628Y-108140142D01*
X144016647Y-108093325D01*
X144023680Y-108089264D01*
X144120736Y-108014792D01*
X144126478Y-108009050D01*
X144200952Y-107912001D01*
X144205016Y-107904964D01*
X144251839Y-107791944D01*
X144253940Y-107784104D01*
X144270168Y-107660774D01*
X144270434Y-107656717D01*
X144270434Y-94660799D01*
X144270167Y-94656730D01*
X144253922Y-94533398D01*
X144251821Y-94525558D01*
X144205004Y-94412533D01*
X144200940Y-94405493D01*
X144126473Y-94308432D01*
X144120730Y-94302688D01*
X144023681Y-94228203D01*
X144016645Y-94224139D01*
X143903638Y-94177307D01*
X143895774Y-94175200D01*
X143772451Y-94159019D01*
X143768398Y-94158755D01*
X130772676Y-94158755D01*
X130768591Y-94159022D01*
X130645090Y-94175250D01*
X130637234Y-94177354D01*
X130524215Y-94224165D01*
X130517180Y-94228227D01*
X130420127Y-94302699D01*
X130414385Y-94308441D01*
X130339914Y-94405501D01*
X130335855Y-94412531D01*
X130289046Y-94525562D01*
X130286945Y-94533400D01*
X130270700Y-94656730D01*
X130270434Y-94660799D01*
X130270434Y-107656717D01*
X129675348Y-107656717D01*
X129675348Y-95361910D01*
X129666557Y-95340688D01*
X129566654Y-95240785D01*
X129548348Y-95196591D01*
X129548348Y-93716425D01*
X129566654Y-93672231D01*
X129657042Y-93581843D01*
X129701236Y-93563537D01*
X133830115Y-93563537D01*
X133851336Y-93554746D01*
X133951240Y-93454843D01*
X133995434Y-93436537D01*
X135475600Y-93436537D01*
X135519794Y-93454843D01*
G37*
G36*
X202024305Y-93581843D02*
G01*
X202114693Y-93672231D01*
X202132999Y-93716425D01*
X202132999Y-95196591D01*
X202114693Y-95240785D01*
X202014789Y-95340688D01*
X202005999Y-95361910D01*
X202005999Y-108718156D01*
X201987693Y-108762350D01*
X201897305Y-108852738D01*
X201853111Y-108871044D01*
X200372945Y-108871044D01*
X200328751Y-108852738D01*
X200228847Y-108752834D01*
X200207626Y-108744044D01*
X188623865Y-108744044D01*
X188602643Y-108752834D01*
X188502740Y-108852738D01*
X188458546Y-108871044D01*
X186978380Y-108871044D01*
X186934186Y-108852738D01*
X186843798Y-108762350D01*
X186825492Y-108718156D01*
X186825492Y-107656717D01*
X187420434Y-107656717D01*
X187420699Y-107660773D01*
X187436928Y-107784101D01*
X187439029Y-107791940D01*
X187485845Y-107904965D01*
X187489903Y-107911994D01*
X187564380Y-108009041D01*
X187570121Y-108014782D01*
X187667181Y-108089241D01*
X187674215Y-108093300D01*
X187787252Y-108140097D01*
X187795073Y-108142194D01*
X187918408Y-108158487D01*
X187922479Y-108158755D01*
X200918390Y-108158755D01*
X200922459Y-108158488D01*
X201045778Y-108142246D01*
X201053628Y-108140142D01*
X201166647Y-108093325D01*
X201173680Y-108089264D01*
X201270736Y-108014792D01*
X201276478Y-108009050D01*
X201350952Y-107912001D01*
X201355016Y-107904964D01*
X201401839Y-107791944D01*
X201403940Y-107784104D01*
X201420168Y-107660774D01*
X201420434Y-107656717D01*
X201420434Y-94660799D01*
X201420167Y-94656730D01*
X201403922Y-94533398D01*
X201401821Y-94525558D01*
X201355004Y-94412533D01*
X201350940Y-94405493D01*
X201276473Y-94308432D01*
X201270730Y-94302688D01*
X201173681Y-94228203D01*
X201166645Y-94224139D01*
X201053638Y-94177307D01*
X201045774Y-94175200D01*
X200922451Y-94159019D01*
X200918398Y-94158755D01*
X187922472Y-94158755D01*
X187918415Y-94159020D01*
X187795084Y-94175250D01*
X187787238Y-94177352D01*
X187674215Y-94224165D01*
X187667180Y-94228227D01*
X187570127Y-94302699D01*
X187564385Y-94308441D01*
X187489914Y-94405501D01*
X187485855Y-94412531D01*
X187439046Y-94525562D01*
X187436945Y-94533400D01*
X187420700Y-94656730D01*
X187420434Y-94660799D01*
X187420434Y-107656717D01*
X186825492Y-107656717D01*
X186825492Y-95361910D01*
X186816701Y-95340688D01*
X186716798Y-95240785D01*
X186698492Y-95196591D01*
X186698492Y-93716425D01*
X186716798Y-93672231D01*
X186807186Y-93581843D01*
X186851380Y-93563537D01*
X201980111Y-93563537D01*
X202024305Y-93581843D01*
G37*
G36*
X82158922Y-55481747D02*
G01*
X82177228Y-55525941D01*
X82177228Y-57247899D01*
X82177158Y-57250849D01*
X82176801Y-57258404D01*
X82176248Y-57264258D01*
X82175394Y-57270260D01*
X82174292Y-57276040D01*
X82173503Y-57279328D01*
X82148469Y-57316016D01*
X82105385Y-57326811D01*
X82066010Y-57306261D01*
X82050228Y-57264744D01*
X82050228Y-57261814D01*
X82041437Y-57240592D01*
X81201451Y-56400606D01*
X81183145Y-56356412D01*
X81201451Y-56312218D01*
X82031922Y-55481747D01*
X82076116Y-55463441D01*
X82114728Y-55463441D01*
X82158922Y-55481747D01*
G37*
G36*
X125824113Y-93581843D02*
G01*
X126654584Y-94412314D01*
X126672890Y-94456508D01*
X126654584Y-94500702D01*
X125814597Y-95340688D01*
X125805807Y-95361910D01*
X125805807Y-95364840D01*
X125790028Y-95406354D01*
X125750659Y-95426906D01*
X125707577Y-95416120D01*
X125682536Y-95379441D01*
X125681746Y-95376153D01*
X125680640Y-95370356D01*
X125679786Y-95364354D01*
X125679232Y-95358492D01*
X125678876Y-95350937D01*
X125678807Y-95347995D01*
X125678807Y-93626037D01*
X125697113Y-93581843D01*
X125741307Y-93563537D01*
X125779919Y-93563537D01*
X125824113Y-93581843D01*
G37*
G36*
X40975020Y-70517017D02*
G01*
X40982575Y-70517373D01*
X40988437Y-70517927D01*
X40994439Y-70518781D01*
X41000236Y-70519887D01*
X41003524Y-70520677D01*
X41040203Y-70545718D01*
X41050989Y-70588800D01*
X41030437Y-70628169D01*
X40988923Y-70643948D01*
X40985993Y-70643948D01*
X40964771Y-70652738D01*
X40124785Y-71492725D01*
X40080591Y-71511031D01*
X40036397Y-71492725D01*
X39205926Y-70662254D01*
X39187620Y-70618060D01*
X39187620Y-70579448D01*
X39205926Y-70535254D01*
X39250120Y-70516948D01*
X40972078Y-70516948D01*
X40975020Y-70517017D01*
G37*
G36*
X173412621Y-70535254D02*
G01*
X173430927Y-70579448D01*
X173430927Y-70618060D01*
X173412621Y-70662254D01*
X172582150Y-71492725D01*
X172537956Y-71511031D01*
X172493762Y-71492725D01*
X171653775Y-70652738D01*
X171632554Y-70643948D01*
X171629624Y-70643948D01*
X171588111Y-70628170D01*
X171567558Y-70588802D01*
X171578342Y-70545721D01*
X171615019Y-70520678D01*
X171618306Y-70519888D01*
X171624107Y-70518781D01*
X171630109Y-70517927D01*
X171635972Y-70517373D01*
X171643528Y-70517017D01*
X171646469Y-70516948D01*
X173368427Y-70516948D01*
X173412621Y-70535254D01*
G37*
G36*
X201221722Y-74531795D02*
G01*
X201240028Y-74575989D01*
X201240028Y-76297947D01*
X201239958Y-76300897D01*
X201239601Y-76308452D01*
X201239048Y-76314306D01*
X201238194Y-76320308D01*
X201237092Y-76326088D01*
X201236303Y-76329376D01*
X201211269Y-76366064D01*
X201168185Y-76376859D01*
X201128810Y-76356309D01*
X201113028Y-76314792D01*
X201113028Y-76311862D01*
X201104237Y-76290640D01*
X200264251Y-75450654D01*
X200245945Y-75406460D01*
X200264251Y-75362266D01*
X201094722Y-74531795D01*
X201138916Y-74513489D01*
X201177528Y-74513489D01*
X201221722Y-74531795D01*
G37*
G36*
X54349821Y-70535254D02*
G01*
X54368127Y-70579448D01*
X54368127Y-70618060D01*
X54349821Y-70662254D01*
X53519350Y-71492725D01*
X53475156Y-71511031D01*
X53430962Y-71492725D01*
X52590975Y-70652738D01*
X52569754Y-70643948D01*
X52566824Y-70643948D01*
X52525311Y-70628170D01*
X52504758Y-70588802D01*
X52515542Y-70545721D01*
X52552219Y-70520678D01*
X52555506Y-70519888D01*
X52561307Y-70518781D01*
X52567309Y-70517927D01*
X52573172Y-70517373D01*
X52580728Y-70517017D01*
X52583669Y-70516948D01*
X54305627Y-70516948D01*
X54349821Y-70535254D01*
G37*
G36*
X73399869Y-89585302D02*
G01*
X73418175Y-89629496D01*
X73418175Y-89668108D01*
X73399869Y-89712302D01*
X72569398Y-90542773D01*
X72525204Y-90561079D01*
X72481010Y-90542773D01*
X71641023Y-89702786D01*
X71619802Y-89693996D01*
X71616872Y-89693996D01*
X71575359Y-89678218D01*
X71554806Y-89638850D01*
X71565590Y-89595769D01*
X71602267Y-89570726D01*
X71605554Y-89569936D01*
X71611355Y-89568829D01*
X71617357Y-89567975D01*
X71623220Y-89567421D01*
X71630776Y-89567065D01*
X71633717Y-89566996D01*
X73355675Y-89566996D01*
X73399869Y-89585302D01*
G37*
G36*
X96446458Y-74531795D02*
G01*
X96464764Y-74575989D01*
X96464764Y-76297947D01*
X96464694Y-76300897D01*
X96464337Y-76308452D01*
X96463784Y-76314306D01*
X96462930Y-76320308D01*
X96461828Y-76326088D01*
X96461039Y-76329376D01*
X96436005Y-76366064D01*
X96392921Y-76376859D01*
X96353546Y-76356309D01*
X96337764Y-76314792D01*
X96337764Y-76311862D01*
X96328973Y-76290640D01*
X95488987Y-75450654D01*
X95470681Y-75406460D01*
X95488987Y-75362266D01*
X96319458Y-74531795D01*
X96363652Y-74513489D01*
X96402264Y-74513489D01*
X96446458Y-74531795D01*
G37*
G36*
X51968565Y-89585302D02*
G01*
X51986871Y-89629496D01*
X51986871Y-89668108D01*
X51968565Y-89712302D01*
X51138094Y-90542773D01*
X51093900Y-90561079D01*
X51049706Y-90542773D01*
X50209719Y-89702786D01*
X50188498Y-89693996D01*
X50185568Y-89693996D01*
X50144055Y-89678218D01*
X50123502Y-89638850D01*
X50134286Y-89595769D01*
X50170963Y-89570726D01*
X50174250Y-89569936D01*
X50180051Y-89568829D01*
X50186053Y-89567975D01*
X50191916Y-89567421D01*
X50199472Y-89567065D01*
X50202413Y-89566996D01*
X51924371Y-89566996D01*
X51968565Y-89585302D01*
G37*
G36*
X58346362Y-74531795D02*
G01*
X58364668Y-74575989D01*
X58364668Y-76297947D01*
X58364598Y-76300897D01*
X58364241Y-76308452D01*
X58363688Y-76314306D01*
X58362834Y-76320308D01*
X58361732Y-76326088D01*
X58360943Y-76329376D01*
X58335909Y-76366064D01*
X58292825Y-76376859D01*
X58253450Y-76356309D01*
X58237668Y-76314792D01*
X58237668Y-76311862D01*
X58228877Y-76290640D01*
X57388891Y-75450654D01*
X57370585Y-75406460D01*
X57388891Y-75362266D01*
X58219362Y-74531795D01*
X58263556Y-74513489D01*
X58302168Y-74513489D01*
X58346362Y-74531795D01*
G37*
G36*
X240087789Y-108635350D02*
G01*
X240106095Y-108679544D01*
X240106095Y-108718156D01*
X240087789Y-108762350D01*
X239257318Y-109592821D01*
X239213124Y-109611127D01*
X239168930Y-109592821D01*
X238328943Y-108752834D01*
X238307722Y-108744044D01*
X238304792Y-108744044D01*
X238263279Y-108728266D01*
X238242726Y-108688898D01*
X238253510Y-108645817D01*
X238290187Y-108620774D01*
X238293474Y-108619984D01*
X238299275Y-108618877D01*
X238305277Y-108618023D01*
X238311140Y-108617469D01*
X238318696Y-108617113D01*
X238321637Y-108617044D01*
X240043595Y-108617044D01*
X240087789Y-108635350D01*
G37*
G36*
X182974257Y-93581843D02*
G01*
X183804728Y-94412314D01*
X183823034Y-94456508D01*
X183804728Y-94500702D01*
X182964741Y-95340688D01*
X182955951Y-95361910D01*
X182955951Y-95364840D01*
X182940172Y-95406354D01*
X182900803Y-95426906D01*
X182857721Y-95416120D01*
X182832680Y-95379441D01*
X182831890Y-95376153D01*
X182830784Y-95370356D01*
X182829930Y-95364354D01*
X182829376Y-95358492D01*
X182829020Y-95350937D01*
X182828951Y-95347995D01*
X182828951Y-93626037D01*
X182847257Y-93581843D01*
X182891451Y-93563537D01*
X182930063Y-93563537D01*
X182974257Y-93581843D01*
G37*
G36*
X163924209Y-93581843D02*
G01*
X164754680Y-94412314D01*
X164772986Y-94456508D01*
X164754680Y-94500702D01*
X163914693Y-95340688D01*
X163905903Y-95361910D01*
X163905903Y-95364840D01*
X163890124Y-95406354D01*
X163850755Y-95426906D01*
X163807673Y-95416120D01*
X163782632Y-95379441D01*
X163781842Y-95376153D01*
X163780736Y-95370356D01*
X163779882Y-95364354D01*
X163779328Y-95358492D01*
X163778972Y-95350937D01*
X163778903Y-95347995D01*
X163778903Y-93626037D01*
X163797209Y-93581843D01*
X163841403Y-93563537D01*
X163880015Y-93563537D01*
X163924209Y-93581843D01*
G37*
G36*
X115794432Y-91451244D02*
G01*
X115894335Y-91551147D01*
X115915557Y-91559938D01*
X120515550Y-91559938D01*
X120536771Y-91551147D01*
X120636675Y-91451244D01*
X120680869Y-91432938D01*
X122161035Y-91432938D01*
X122205229Y-91451244D01*
X122295617Y-91541632D01*
X122313923Y-91585826D01*
X122313923Y-93551106D01*
X122317564Y-93559895D01*
X122326354Y-93563537D01*
X125779919Y-93563537D01*
X125824113Y-93581843D01*
X125914501Y-93672231D01*
X125932807Y-93716425D01*
X125932807Y-95196591D01*
X125914501Y-95240785D01*
X125814597Y-95340688D01*
X125805807Y-95361910D01*
X125805807Y-108718156D01*
X125787501Y-108762350D01*
X125697113Y-108852738D01*
X125652919Y-108871044D01*
X124172753Y-108871044D01*
X124128559Y-108852738D01*
X124028655Y-108752834D01*
X124007434Y-108744044D01*
X112423673Y-108744044D01*
X112402451Y-108752834D01*
X112302548Y-108852738D01*
X112258354Y-108871044D01*
X110778188Y-108871044D01*
X110733994Y-108852738D01*
X110643606Y-108762350D01*
X110625300Y-108718156D01*
X110625300Y-107656717D01*
X111220434Y-107656717D01*
X111220699Y-107660773D01*
X111236928Y-107784101D01*
X111239029Y-107791940D01*
X111285845Y-107904965D01*
X111289903Y-107911994D01*
X111364380Y-108009041D01*
X111370121Y-108014782D01*
X111467181Y-108089241D01*
X111474215Y-108093300D01*
X111587252Y-108140097D01*
X111595073Y-108142194D01*
X111718408Y-108158487D01*
X111722479Y-108158755D01*
X124718390Y-108158755D01*
X124722459Y-108158488D01*
X124845778Y-108142246D01*
X124853628Y-108140142D01*
X124966647Y-108093325D01*
X124973680Y-108089264D01*
X125070736Y-108014792D01*
X125076478Y-108009050D01*
X125150952Y-107912001D01*
X125155016Y-107904964D01*
X125201839Y-107791944D01*
X125203940Y-107784104D01*
X125220168Y-107660774D01*
X125220434Y-107656717D01*
X125220434Y-94660799D01*
X125220167Y-94656730D01*
X125203922Y-94533398D01*
X125201821Y-94525558D01*
X125155004Y-94412533D01*
X125150940Y-94405493D01*
X125076473Y-94308432D01*
X125070730Y-94302688D01*
X124973681Y-94228203D01*
X124966645Y-94224139D01*
X124853638Y-94177307D01*
X124845774Y-94175200D01*
X124722451Y-94159019D01*
X124718398Y-94158755D01*
X122224529Y-94158755D01*
X122216376Y-94158221D01*
X122099168Y-94142799D01*
X122083407Y-94138577D01*
X121978010Y-94094929D01*
X121963881Y-94086773D01*
X121873367Y-94017332D01*
X121861829Y-94005796D01*
X121792374Y-93915297D01*
X121784215Y-93901169D01*
X121740554Y-93795795D01*
X121736324Y-93779993D01*
X121720964Y-93662799D01*
X121720434Y-93654677D01*
X121720434Y-92660799D01*
X121720167Y-92656730D01*
X121703922Y-92533398D01*
X121701821Y-92525558D01*
X121655004Y-92412533D01*
X121650940Y-92405493D01*
X121576473Y-92308432D01*
X121570730Y-92302688D01*
X121473681Y-92228203D01*
X121466645Y-92224139D01*
X121353638Y-92177307D01*
X121345774Y-92175200D01*
X121222451Y-92159019D01*
X121218398Y-92158755D01*
X115222472Y-92158755D01*
X115218415Y-92159020D01*
X115095084Y-92175250D01*
X115087238Y-92177352D01*
X114974215Y-92224165D01*
X114967180Y-92228227D01*
X114870127Y-92302699D01*
X114864385Y-92308441D01*
X114789914Y-92405501D01*
X114785855Y-92412531D01*
X114739046Y-92525562D01*
X114736945Y-92533400D01*
X114720700Y-92656730D01*
X114720434Y-92660799D01*
X114720434Y-93654652D01*
X114719898Y-93662816D01*
X114704458Y-93780000D01*
X114700235Y-93795757D01*
X114656576Y-93901140D01*
X114648418Y-93915268D01*
X114578979Y-94005756D01*
X114567444Y-94017292D01*
X114476949Y-94086731D01*
X114462820Y-94094888D01*
X114357434Y-94138543D01*
X114341686Y-94142765D01*
X114224499Y-94158219D01*
X114216328Y-94158755D01*
X111722472Y-94158755D01*
X111718415Y-94159020D01*
X111595084Y-94175250D01*
X111587238Y-94177352D01*
X111474215Y-94224165D01*
X111467180Y-94228227D01*
X111370127Y-94302699D01*
X111364385Y-94308441D01*
X111289914Y-94405501D01*
X111285855Y-94412531D01*
X111239046Y-94525562D01*
X111236945Y-94533400D01*
X111220700Y-94656730D01*
X111220434Y-94660799D01*
X111220434Y-107656717D01*
X110625300Y-107656717D01*
X110625300Y-95361910D01*
X110616509Y-95340688D01*
X110516606Y-95240785D01*
X110498300Y-95196591D01*
X110498300Y-93716425D01*
X110516606Y-93672231D01*
X110606994Y-93581843D01*
X110651188Y-93563537D01*
X114104753Y-93563537D01*
X114113542Y-93559895D01*
X114117184Y-93551106D01*
X114117184Y-91585826D01*
X114135490Y-91541632D01*
X114225878Y-91451244D01*
X114270072Y-91432938D01*
X115750238Y-91432938D01*
X115794432Y-91451244D01*
G37*
G36*
X38593764Y-89567065D02*
G01*
X38601319Y-89567421D01*
X38607181Y-89567975D01*
X38613183Y-89568829D01*
X38618980Y-89569935D01*
X38622268Y-89570725D01*
X38658947Y-89595766D01*
X38669733Y-89638848D01*
X38649181Y-89678217D01*
X38607667Y-89693996D01*
X38604737Y-89693996D01*
X38583515Y-89702786D01*
X37842457Y-90443843D01*
X37810979Y-90460842D01*
X37775335Y-90457791D01*
X37747202Y-90435692D01*
X37670070Y-90326422D01*
X37667399Y-90323138D01*
X37474675Y-90116781D01*
X37471560Y-90113872D01*
X37252544Y-89935689D01*
X37249056Y-89933227D01*
X37007814Y-89786525D01*
X37004040Y-89784569D01*
X36843964Y-89715039D01*
X36816603Y-89691991D01*
X36806364Y-89657713D01*
X36806364Y-89629496D01*
X36824670Y-89585302D01*
X36868864Y-89566996D01*
X38590822Y-89566996D01*
X38593764Y-89567065D01*
G37*
G36*
X220273026Y-55476771D02*
G01*
X220291332Y-55520965D01*
X220291332Y-57242923D01*
X220291262Y-57245873D01*
X220290905Y-57253428D01*
X220290352Y-57259282D01*
X220289498Y-57265284D01*
X220288396Y-57271064D01*
X220287607Y-57274352D01*
X220262573Y-57311040D01*
X220219489Y-57321835D01*
X220180114Y-57301285D01*
X220164332Y-57259768D01*
X220164332Y-57256838D01*
X220155541Y-57235616D01*
X219315555Y-56395630D01*
X219297249Y-56351436D01*
X219315555Y-56307242D01*
X220146026Y-55476771D01*
X220190220Y-55458465D01*
X220228832Y-55458465D01*
X220273026Y-55476771D01*
G37*
G36*
X182937645Y-108635350D02*
G01*
X182955951Y-108679544D01*
X182955951Y-108718156D01*
X182937645Y-108762350D01*
X182107174Y-109592821D01*
X182062980Y-109611127D01*
X182018786Y-109592821D01*
X181178799Y-108752834D01*
X181157578Y-108744044D01*
X181154648Y-108744044D01*
X181113135Y-108728266D01*
X181092582Y-108688898D01*
X181103366Y-108645817D01*
X181140043Y-108620774D01*
X181143330Y-108619984D01*
X181149131Y-108618877D01*
X181155133Y-108618023D01*
X181160996Y-108617469D01*
X181168552Y-108617113D01*
X181171493Y-108617044D01*
X182893451Y-108617044D01*
X182937645Y-108635350D01*
G37*
G36*
X63108874Y-55481747D02*
G01*
X63127180Y-55525941D01*
X63127180Y-57247899D01*
X63127110Y-57250849D01*
X63126753Y-57258404D01*
X63126200Y-57264258D01*
X63125346Y-57270260D01*
X63124244Y-57276040D01*
X63123455Y-57279328D01*
X63098421Y-57316016D01*
X63055337Y-57326811D01*
X63015962Y-57306261D01*
X63000180Y-57264744D01*
X63000180Y-57261814D01*
X62991389Y-57240592D01*
X62151403Y-56400606D01*
X62133097Y-56356412D01*
X62151403Y-56312218D01*
X62981874Y-55481747D01*
X63026068Y-55463441D01*
X63064680Y-55463441D01*
X63108874Y-55481747D01*
G37*
G36*
X60025068Y-89567065D02*
G01*
X60032623Y-89567421D01*
X60038485Y-89567975D01*
X60044487Y-89568829D01*
X60050284Y-89569935D01*
X60053572Y-89570725D01*
X60090251Y-89595766D01*
X60101037Y-89638848D01*
X60080485Y-89678217D01*
X60038971Y-89693996D01*
X60036041Y-89693996D01*
X60014819Y-89702786D01*
X59174833Y-90542773D01*
X59130639Y-90561079D01*
X59086445Y-90542773D01*
X58255974Y-89712302D01*
X58237668Y-89668108D01*
X58237668Y-89629496D01*
X58255974Y-89585302D01*
X58300168Y-89566996D01*
X60022126Y-89566996D01*
X60025068Y-89567065D01*
G37*
G36*
X106774065Y-93581843D02*
G01*
X106864453Y-93672231D01*
X106882759Y-93716425D01*
X106882759Y-95196591D01*
X106864453Y-95240785D01*
X106764549Y-95340688D01*
X106755759Y-95361910D01*
X106755759Y-108718156D01*
X106737453Y-108762350D01*
X106647065Y-108852738D01*
X106602871Y-108871044D01*
X105122705Y-108871044D01*
X105078511Y-108852738D01*
X104978607Y-108752834D01*
X104957386Y-108744044D01*
X93373625Y-108744044D01*
X93352403Y-108752834D01*
X93252500Y-108852738D01*
X93208306Y-108871044D01*
X91728140Y-108871044D01*
X91683946Y-108852738D01*
X91593558Y-108762350D01*
X91575252Y-108718156D01*
X91575252Y-107656717D01*
X92170434Y-107656717D01*
X92170699Y-107660773D01*
X92186928Y-107784101D01*
X92189029Y-107791940D01*
X92235845Y-107904965D01*
X92239903Y-107911994D01*
X92314380Y-108009041D01*
X92320121Y-108014782D01*
X92417181Y-108089241D01*
X92424215Y-108093300D01*
X92537252Y-108140097D01*
X92545073Y-108142194D01*
X92668408Y-108158487D01*
X92672479Y-108158755D01*
X105668390Y-108158755D01*
X105672459Y-108158488D01*
X105795778Y-108142246D01*
X105803628Y-108140142D01*
X105916647Y-108093325D01*
X105923680Y-108089264D01*
X106020736Y-108014792D01*
X106026478Y-108009050D01*
X106100952Y-107912001D01*
X106105016Y-107904964D01*
X106151839Y-107791944D01*
X106153940Y-107784104D01*
X106170168Y-107660774D01*
X106170434Y-107656717D01*
X106170434Y-94660799D01*
X106170167Y-94656730D01*
X106153922Y-94533398D01*
X106151821Y-94525558D01*
X106105004Y-94412533D01*
X106100940Y-94405493D01*
X106026473Y-94308432D01*
X106020730Y-94302688D01*
X105923681Y-94228203D01*
X105916645Y-94224139D01*
X105803638Y-94177307D01*
X105795774Y-94175200D01*
X105672451Y-94159019D01*
X105668398Y-94158755D01*
X92672472Y-94158755D01*
X92668415Y-94159020D01*
X92545084Y-94175250D01*
X92537238Y-94177352D01*
X92424215Y-94224165D01*
X92417180Y-94228227D01*
X92320127Y-94302699D01*
X92314385Y-94308441D01*
X92239914Y-94405501D01*
X92235855Y-94412531D01*
X92189046Y-94525562D01*
X92186945Y-94533400D01*
X92170700Y-94656730D01*
X92170434Y-94660799D01*
X92170434Y-107656717D01*
X91575252Y-107656717D01*
X91575252Y-95361910D01*
X91566461Y-95340688D01*
X91466558Y-95240785D01*
X91448252Y-95196591D01*
X91448252Y-93716425D01*
X91466558Y-93672231D01*
X91556946Y-93581843D01*
X91601140Y-93563537D01*
X106729871Y-93563537D01*
X106774065Y-93581843D01*
G37*
G36*
X220262570Y-68792627D02*
G01*
X220287606Y-68829313D01*
X220288395Y-68832600D01*
X220289498Y-68838384D01*
X220290352Y-68844386D01*
X220290905Y-68850240D01*
X220291262Y-68857796D01*
X220291332Y-68860746D01*
X220291332Y-70621316D01*
X220273026Y-70665510D01*
X220228832Y-70683816D01*
X220184638Y-70665510D01*
X219315555Y-69796427D01*
X219297249Y-69752233D01*
X219315555Y-69708039D01*
X220155541Y-68868052D01*
X220164332Y-68846831D01*
X220164332Y-68843901D01*
X220180113Y-68802385D01*
X220219487Y-68781834D01*
X220262570Y-68792627D01*
G37*
G36*
X78198993Y-55481747D02*
G01*
X79029464Y-56312218D01*
X79047770Y-56356412D01*
X79029464Y-56400606D01*
X78189477Y-57240592D01*
X78180687Y-57261814D01*
X78180687Y-57264744D01*
X78164908Y-57306258D01*
X78125539Y-57326810D01*
X78082457Y-57316024D01*
X78057416Y-57279345D01*
X78056626Y-57276057D01*
X78055520Y-57270260D01*
X78054666Y-57264258D01*
X78054112Y-57258396D01*
X78053756Y-57250841D01*
X78053687Y-57247899D01*
X78053687Y-55525941D01*
X78071993Y-55481747D01*
X78116187Y-55463441D01*
X78154799Y-55463441D01*
X78198993Y-55481747D01*
G37*
G36*
X163121626Y-74531795D02*
G01*
X163139932Y-74575989D01*
X163139932Y-76297947D01*
X163139862Y-76300897D01*
X163139505Y-76308452D01*
X163138952Y-76314306D01*
X163138098Y-76320308D01*
X163136996Y-76326088D01*
X163136207Y-76329376D01*
X163111173Y-76366064D01*
X163068089Y-76376859D01*
X163028714Y-76356309D01*
X163012932Y-76314792D01*
X163012932Y-76311862D01*
X163004141Y-76290640D01*
X162164155Y-75450654D01*
X162145849Y-75406460D01*
X162164155Y-75362266D01*
X162994626Y-74531795D01*
X163038820Y-74513489D01*
X163077432Y-74513489D01*
X163121626Y-74531795D01*
G37*
G36*
X154399185Y-55481747D02*
G01*
X155229656Y-56312218D01*
X155247962Y-56356412D01*
X155229656Y-56400606D01*
X154389669Y-57240592D01*
X154380879Y-57261814D01*
X154380879Y-57264744D01*
X154365100Y-57306258D01*
X154325731Y-57326810D01*
X154282649Y-57316024D01*
X154257608Y-57279345D01*
X154256818Y-57276057D01*
X154255712Y-57270260D01*
X154254858Y-57264258D01*
X154254304Y-57258396D01*
X154253948Y-57250841D01*
X154253879Y-57247899D01*
X154253879Y-55525941D01*
X154272185Y-55481747D01*
X154316379Y-55463441D01*
X154354991Y-55463441D01*
X154399185Y-55481747D01*
G37*
G36*
X83837628Y-70517017D02*
G01*
X83845183Y-70517373D01*
X83851045Y-70517927D01*
X83857047Y-70518781D01*
X83862844Y-70519887D01*
X83866132Y-70520677D01*
X83902811Y-70545718D01*
X83913597Y-70588800D01*
X83893045Y-70628169D01*
X83851531Y-70643948D01*
X83848601Y-70643948D01*
X83827379Y-70652738D01*
X82987393Y-71492725D01*
X82943199Y-71511031D01*
X82899005Y-71492725D01*
X82068534Y-70662254D01*
X82050228Y-70618060D01*
X82050228Y-70579448D01*
X82068534Y-70535254D01*
X82112728Y-70516948D01*
X83834686Y-70516948D01*
X83837628Y-70517017D01*
G37*
G36*
X144874161Y-93581843D02*
G01*
X145704632Y-94412314D01*
X145722938Y-94456508D01*
X145704632Y-94500702D01*
X144864645Y-95340688D01*
X144855855Y-95361910D01*
X144855855Y-95364840D01*
X144840076Y-95406354D01*
X144800707Y-95426906D01*
X144757625Y-95416120D01*
X144732584Y-95379441D01*
X144731794Y-95376153D01*
X144730688Y-95370356D01*
X144729834Y-95364354D01*
X144729280Y-95358492D01*
X144728924Y-95350937D01*
X144728855Y-95347995D01*
X144728855Y-93626037D01*
X144747161Y-93581843D01*
X144791355Y-93563537D01*
X144829967Y-93563537D01*
X144874161Y-93581843D01*
G37*
G36*
X116299089Y-55481747D02*
G01*
X117129560Y-56312218D01*
X117147866Y-56356412D01*
X117129560Y-56400606D01*
X116289573Y-57240592D01*
X116280783Y-57261814D01*
X116280783Y-57264744D01*
X116265004Y-57306258D01*
X116225635Y-57326810D01*
X116182553Y-57316024D01*
X116157512Y-57279345D01*
X116156722Y-57276057D01*
X116155616Y-57270260D01*
X116154762Y-57264258D01*
X116154208Y-57258396D01*
X116153852Y-57250841D01*
X116153783Y-57247899D01*
X116153783Y-55525941D01*
X116172089Y-55481747D01*
X116216283Y-55463441D01*
X116254895Y-55463441D01*
X116299089Y-55481747D01*
G37*
G36*
X182974257Y-93581843D02*
G01*
X183064645Y-93672231D01*
X183082951Y-93716425D01*
X183082951Y-95196591D01*
X183064645Y-95240785D01*
X182964741Y-95340688D01*
X182955951Y-95361910D01*
X182955951Y-108718156D01*
X182937645Y-108762350D01*
X182847257Y-108852738D01*
X182803063Y-108871044D01*
X181322897Y-108871044D01*
X181278703Y-108852738D01*
X181178799Y-108752834D01*
X181157578Y-108744044D01*
X169573817Y-108744044D01*
X169552595Y-108752834D01*
X169452692Y-108852738D01*
X169408498Y-108871044D01*
X167928332Y-108871044D01*
X167884138Y-108852738D01*
X167793750Y-108762350D01*
X167775444Y-108718156D01*
X167775444Y-107656717D01*
X168370434Y-107656717D01*
X168370699Y-107660773D01*
X168386928Y-107784101D01*
X168389029Y-107791940D01*
X168435845Y-107904965D01*
X168439903Y-107911994D01*
X168514380Y-108009041D01*
X168520121Y-108014782D01*
X168617181Y-108089241D01*
X168624215Y-108093300D01*
X168737252Y-108140097D01*
X168745073Y-108142194D01*
X168868408Y-108158487D01*
X168872479Y-108158755D01*
X181868390Y-108158755D01*
X181872459Y-108158488D01*
X181995778Y-108142246D01*
X182003628Y-108140142D01*
X182116647Y-108093325D01*
X182123680Y-108089264D01*
X182220736Y-108014792D01*
X182226478Y-108009050D01*
X182300952Y-107912001D01*
X182305016Y-107904964D01*
X182351839Y-107791944D01*
X182353940Y-107784104D01*
X182370168Y-107660774D01*
X182370434Y-107656717D01*
X182370434Y-94660799D01*
X182370167Y-94656730D01*
X182353922Y-94533398D01*
X182351821Y-94525558D01*
X182305004Y-94412533D01*
X182300940Y-94405493D01*
X182226473Y-94308432D01*
X182220730Y-94302688D01*
X182123681Y-94228203D01*
X182116645Y-94224139D01*
X182003638Y-94177307D01*
X181995774Y-94175200D01*
X181872451Y-94159019D01*
X181868398Y-94158755D01*
X168872472Y-94158755D01*
X168868415Y-94159020D01*
X168745084Y-94175250D01*
X168737238Y-94177352D01*
X168624215Y-94224165D01*
X168617180Y-94228227D01*
X168520127Y-94302699D01*
X168514385Y-94308441D01*
X168439914Y-94405501D01*
X168435855Y-94412531D01*
X168389046Y-94525562D01*
X168386945Y-94533400D01*
X168370700Y-94656730D01*
X168370434Y-94660799D01*
X168370434Y-107656717D01*
X167775444Y-107656717D01*
X167775444Y-95361910D01*
X167766653Y-95340688D01*
X167666750Y-95240785D01*
X167648444Y-95196591D01*
X167648444Y-93716425D01*
X167666750Y-93672231D01*
X167757138Y-93581843D01*
X167801332Y-93563537D01*
X182930063Y-93563537D01*
X182974257Y-93581843D01*
G37*
G36*
X117175212Y-89567065D02*
G01*
X117182767Y-89567421D01*
X117188629Y-89567975D01*
X117194631Y-89568829D01*
X117200428Y-89569935D01*
X117203716Y-89570725D01*
X117240395Y-89595766D01*
X117251181Y-89638848D01*
X117230629Y-89678217D01*
X117189115Y-89693996D01*
X117186185Y-89693996D01*
X117164963Y-89702786D01*
X116324977Y-90542773D01*
X116280783Y-90561079D01*
X116236589Y-90542773D01*
X115406118Y-89712302D01*
X115387812Y-89668108D01*
X115387812Y-89629496D01*
X115406118Y-89585302D01*
X115450312Y-89566996D01*
X117172270Y-89566996D01*
X117175212Y-89567065D01*
G37*
G36*
X112412700Y-108617113D02*
G01*
X112420255Y-108617469D01*
X112426117Y-108618023D01*
X112432119Y-108618877D01*
X112437916Y-108619983D01*
X112441204Y-108620773D01*
X112477883Y-108645814D01*
X112488669Y-108688896D01*
X112468117Y-108728265D01*
X112426603Y-108744044D01*
X112423673Y-108744044D01*
X112402451Y-108752834D01*
X111562465Y-109592821D01*
X111518271Y-109611127D01*
X111474077Y-109592821D01*
X110643606Y-108762350D01*
X110625300Y-108718156D01*
X110625300Y-108679544D01*
X110643606Y-108635350D01*
X110687800Y-108617044D01*
X112409758Y-108617044D01*
X112412700Y-108617113D01*
G37*
G36*
X53583850Y-93581843D02*
G01*
X53602156Y-93626037D01*
X53602156Y-95347995D01*
X53602086Y-95350945D01*
X53601729Y-95358500D01*
X53601176Y-95364354D01*
X53600322Y-95370356D01*
X53599220Y-95376136D01*
X53598431Y-95379424D01*
X53573397Y-95416112D01*
X53530313Y-95426907D01*
X53490938Y-95406357D01*
X53475156Y-95364840D01*
X53475156Y-95361910D01*
X53466365Y-95340688D01*
X52626379Y-94500702D01*
X52608073Y-94456508D01*
X52626379Y-94412314D01*
X53456850Y-93581843D01*
X53501044Y-93563537D01*
X53539656Y-93563537D01*
X53583850Y-93581843D01*
G37*
G36*
X159125085Y-89585302D02*
G01*
X159143391Y-89629496D01*
X159143391Y-89668108D01*
X159125085Y-89712302D01*
X158294614Y-90542773D01*
X158250420Y-90561079D01*
X158206226Y-90542773D01*
X157366239Y-89702786D01*
X157345018Y-89693996D01*
X157342088Y-89693996D01*
X157300575Y-89678218D01*
X157280022Y-89638850D01*
X157290806Y-89595769D01*
X157327483Y-89570726D01*
X157330770Y-89569936D01*
X157336571Y-89568829D01*
X157342573Y-89567975D01*
X157348436Y-89567421D01*
X157355992Y-89567065D01*
X157358933Y-89566996D01*
X159080891Y-89566996D01*
X159125085Y-89585302D01*
G37*
G36*
X221930712Y-72834241D02*
G01*
X221949018Y-72878435D01*
X221949018Y-74362601D01*
X221930712Y-74406795D01*
X221886518Y-74425101D01*
X221842324Y-74406795D01*
X221100241Y-73664712D01*
X221081935Y-73620518D01*
X221100241Y-73576324D01*
X221842324Y-72834241D01*
X221886518Y-72815935D01*
X221930712Y-72834241D01*
G37*
G36*
X222055842Y-72676745D02*
G01*
X222075637Y-72719497D01*
X222075948Y-72726083D01*
X222076018Y-72729031D01*
X222076018Y-74512005D01*
X222075948Y-74514955D01*
X222075591Y-74522510D01*
X222075039Y-74528354D01*
X222074652Y-74531077D01*
X222052050Y-74570900D01*
X222008366Y-74584627D01*
X221967048Y-74564890D01*
X221950274Y-74522283D01*
X221950274Y-72876376D01*
X221950707Y-72722269D01*
X221968587Y-72678681D01*
X222011820Y-72659960D01*
X222055842Y-72676745D01*
G37*
G36*
X68673969Y-93581843D02*
G01*
X68764357Y-93672231D01*
X68782663Y-93716425D01*
X68782663Y-95196591D01*
X68764357Y-95240785D01*
X68664453Y-95340688D01*
X68655663Y-95361910D01*
X68655663Y-108718156D01*
X68637357Y-108762350D01*
X68546969Y-108852738D01*
X68502775Y-108871044D01*
X67022609Y-108871044D01*
X66978415Y-108852738D01*
X66878511Y-108752834D01*
X66857290Y-108744044D01*
X55273529Y-108744044D01*
X55252307Y-108752834D01*
X55152404Y-108852738D01*
X55108210Y-108871044D01*
X53628044Y-108871044D01*
X53583850Y-108852738D01*
X53493462Y-108762350D01*
X53475156Y-108718156D01*
X53475156Y-107656701D01*
X54070434Y-107656701D01*
X54070702Y-107660794D01*
X54086947Y-107784088D01*
X54089050Y-107791932D01*
X54135873Y-107904942D01*
X54139934Y-107911974D01*
X54214408Y-108009011D01*
X54220151Y-108014753D01*
X54317202Y-108089210D01*
X54324239Y-108093272D01*
X54437258Y-108140075D01*
X54445087Y-108142176D01*
X54568388Y-108158484D01*
X54572494Y-108158755D01*
X67568390Y-108158755D01*
X67572459Y-108158488D01*
X67695778Y-108142246D01*
X67703628Y-108140142D01*
X67816647Y-108093325D01*
X67823680Y-108089264D01*
X67920736Y-108014792D01*
X67926478Y-108009050D01*
X68000952Y-107912001D01*
X68005016Y-107904964D01*
X68051839Y-107791944D01*
X68053940Y-107784104D01*
X68070168Y-107660774D01*
X68070434Y-107656717D01*
X68070434Y-94660799D01*
X68070167Y-94656730D01*
X68053922Y-94533398D01*
X68051821Y-94525558D01*
X68005004Y-94412533D01*
X68000940Y-94405493D01*
X67926473Y-94308432D01*
X67920730Y-94302688D01*
X67823681Y-94228203D01*
X67816645Y-94224139D01*
X67703638Y-94177307D01*
X67695774Y-94175200D01*
X67572451Y-94159019D01*
X67568398Y-94158755D01*
X54572487Y-94158755D01*
X54568396Y-94159023D01*
X54445090Y-94175271D01*
X54437254Y-94177371D01*
X54324237Y-94224194D01*
X54317199Y-94228258D01*
X54220157Y-94302727D01*
X54214413Y-94308471D01*
X54139943Y-94405524D01*
X54135886Y-94412549D01*
X54089065Y-94525573D01*
X54086964Y-94533412D01*
X54070701Y-94656725D01*
X54070434Y-94660799D01*
X54070434Y-107656701D01*
X53475156Y-107656701D01*
X53475156Y-95361910D01*
X53466365Y-95340688D01*
X53366462Y-95240785D01*
X53348156Y-95196591D01*
X53348156Y-93716425D01*
X53366462Y-93672231D01*
X53456850Y-93581843D01*
X53501044Y-93563537D01*
X68629775Y-93563537D01*
X68673969Y-93581843D01*
G37*
G36*
X164800332Y-89567065D02*
G01*
X164807887Y-89567421D01*
X164813749Y-89567975D01*
X164819751Y-89568829D01*
X164825548Y-89569935D01*
X164828836Y-89570725D01*
X164865515Y-89595766D01*
X164876301Y-89638848D01*
X164855749Y-89678217D01*
X164814235Y-89693996D01*
X164811305Y-89693996D01*
X164790083Y-89702786D01*
X163950097Y-90542773D01*
X163905903Y-90561079D01*
X163861709Y-90542773D01*
X163031238Y-89712302D01*
X163012932Y-89668108D01*
X163012932Y-89629496D01*
X163031238Y-89585302D01*
X163075432Y-89566996D01*
X164797390Y-89566996D01*
X164800332Y-89567065D01*
G37*
G36*
X121465146Y-90711161D02*
G01*
X122295617Y-91541632D01*
X122313923Y-91585826D01*
X122313923Y-91624438D01*
X122295617Y-91668632D01*
X122251423Y-91686938D01*
X120529465Y-91686938D01*
X120526515Y-91686868D01*
X120518959Y-91686511D01*
X120513105Y-91685958D01*
X120507103Y-91685104D01*
X120501319Y-91684001D01*
X120498032Y-91683212D01*
X120461346Y-91658176D01*
X120450553Y-91615093D01*
X120471104Y-91575719D01*
X120512620Y-91559938D01*
X120515550Y-91559938D01*
X120536771Y-91551147D01*
X121376758Y-90711161D01*
X121420952Y-90692855D01*
X121465146Y-90711161D01*
G37*
G36*
X35198443Y-93568711D02*
G01*
X35334652Y-93627875D01*
X35338667Y-93629301D01*
X35610540Y-93705477D01*
X35614712Y-93706344D01*
X35894438Y-93744791D01*
X35898676Y-93745081D01*
X36181036Y-93745081D01*
X36185273Y-93744791D01*
X36464999Y-93706344D01*
X36469171Y-93705477D01*
X36741044Y-93629301D01*
X36745059Y-93627875D01*
X36881269Y-93568711D01*
X36906169Y-93563537D01*
X49579727Y-93563537D01*
X49623921Y-93581843D01*
X49714309Y-93672231D01*
X49732615Y-93716425D01*
X49732615Y-95196591D01*
X49714309Y-95240785D01*
X49614405Y-95340688D01*
X49605615Y-95361910D01*
X49605615Y-108718156D01*
X49587309Y-108762350D01*
X49496921Y-108852738D01*
X49452727Y-108871044D01*
X47972561Y-108871044D01*
X47928367Y-108852738D01*
X47828463Y-108752834D01*
X47807242Y-108744044D01*
X36223481Y-108744044D01*
X36202259Y-108752834D01*
X36102356Y-108852738D01*
X36058162Y-108871044D01*
X34577996Y-108871044D01*
X34533802Y-108852738D01*
X34443414Y-108762350D01*
X34425108Y-108718156D01*
X34425108Y-107656701D01*
X35020434Y-107656701D01*
X35020702Y-107660794D01*
X35036947Y-107784088D01*
X35039050Y-107791932D01*
X35085873Y-107904942D01*
X35089934Y-107911974D01*
X35164408Y-108009011D01*
X35170151Y-108014753D01*
X35267202Y-108089210D01*
X35274239Y-108093272D01*
X35387258Y-108140075D01*
X35395087Y-108142176D01*
X35518388Y-108158484D01*
X35522494Y-108158755D01*
X48518393Y-108158755D01*
X48522458Y-108158488D01*
X48645788Y-108142266D01*
X48653637Y-108140164D01*
X48766669Y-108093354D01*
X48773700Y-108089295D01*
X48870765Y-108014821D01*
X48876507Y-108009079D01*
X48950981Y-107912024D01*
X48955047Y-107904980D01*
X49001856Y-107791962D01*
X49003960Y-107784106D01*
X49020166Y-107660788D01*
X49020434Y-107656705D01*
X49020434Y-94660796D01*
X49020167Y-94656730D01*
X49003943Y-94533391D01*
X49001842Y-94525548D01*
X48955033Y-94412510D01*
X48950971Y-94405473D01*
X48876501Y-94308403D01*
X48870759Y-94302660D01*
X48773702Y-94228171D01*
X48766670Y-94224110D01*
X48653646Y-94177284D01*
X48645783Y-94175180D01*
X48522452Y-94159019D01*
X48518401Y-94158755D01*
X35522487Y-94158755D01*
X35518396Y-94159023D01*
X35395090Y-94175271D01*
X35387254Y-94177371D01*
X35274237Y-94224194D01*
X35267199Y-94228258D01*
X35170157Y-94302727D01*
X35164413Y-94308471D01*
X35089943Y-94405524D01*
X35085886Y-94412549D01*
X35039065Y-94525573D01*
X35036964Y-94533412D01*
X35020701Y-94656725D01*
X35020434Y-94660799D01*
X35020434Y-107656701D01*
X34425108Y-107656701D01*
X34425108Y-95361910D01*
X34416317Y-95340688D01*
X34316414Y-95240785D01*
X34298108Y-95196591D01*
X34298108Y-93716425D01*
X34316414Y-93672231D01*
X34406802Y-93581843D01*
X34450996Y-93563537D01*
X35173543Y-93563537D01*
X35198443Y-93568711D01*
G37*
G36*
X202900428Y-89567065D02*
G01*
X202907983Y-89567421D01*
X202913845Y-89567975D01*
X202919847Y-89568829D01*
X202925644Y-89569935D01*
X202928932Y-89570725D01*
X202965611Y-89595766D01*
X202976397Y-89638848D01*
X202955845Y-89678217D01*
X202914331Y-89693996D01*
X202911401Y-89693996D01*
X202890179Y-89702786D01*
X202050193Y-90542773D01*
X202005999Y-90561079D01*
X201961805Y-90542773D01*
X201131334Y-89712302D01*
X201113028Y-89668108D01*
X201113028Y-89629496D01*
X201131334Y-89585302D01*
X201175528Y-89566996D01*
X202897486Y-89566996D01*
X202900428Y-89567065D01*
G37*
G36*
X173449233Y-55481747D02*
G01*
X173539621Y-55572135D01*
X173557927Y-55616329D01*
X173557927Y-57096495D01*
X173539621Y-57140689D01*
X173439717Y-57240592D01*
X173430927Y-57261814D01*
X173430927Y-70618060D01*
X173412621Y-70662254D01*
X173322233Y-70752642D01*
X173278039Y-70770948D01*
X171797873Y-70770948D01*
X171753679Y-70752642D01*
X171653775Y-70652738D01*
X171632554Y-70643948D01*
X160048793Y-70643948D01*
X160027571Y-70652738D01*
X159927668Y-70752642D01*
X159883474Y-70770948D01*
X158403308Y-70770948D01*
X158359114Y-70752642D01*
X158268726Y-70662254D01*
X158250420Y-70618060D01*
X158250420Y-69556717D01*
X158845434Y-69556717D01*
X158845699Y-69560773D01*
X158861928Y-69684101D01*
X158864029Y-69691940D01*
X158910845Y-69804965D01*
X158914903Y-69811994D01*
X158989380Y-69909041D01*
X158995121Y-69914782D01*
X159092181Y-69989241D01*
X159099215Y-69993300D01*
X159212252Y-70040097D01*
X159220073Y-70042194D01*
X159343408Y-70058487D01*
X159347479Y-70058755D01*
X172343390Y-70058755D01*
X172347459Y-70058488D01*
X172470778Y-70042246D01*
X172478628Y-70040142D01*
X172591647Y-69993325D01*
X172598680Y-69989264D01*
X172695736Y-69914792D01*
X172701478Y-69909050D01*
X172775952Y-69812001D01*
X172780016Y-69804964D01*
X172826839Y-69691944D01*
X172828940Y-69684104D01*
X172845168Y-69560774D01*
X172845434Y-69556717D01*
X172845434Y-56560799D01*
X172845167Y-56556730D01*
X172828922Y-56433398D01*
X172826821Y-56425558D01*
X172780004Y-56312533D01*
X172775940Y-56305493D01*
X172701473Y-56208432D01*
X172695730Y-56202688D01*
X172598681Y-56128203D01*
X172591645Y-56124139D01*
X172478638Y-56077307D01*
X172470774Y-56075200D01*
X172347451Y-56059019D01*
X172343398Y-56058755D01*
X159347472Y-56058755D01*
X159343415Y-56059020D01*
X159220084Y-56075250D01*
X159212238Y-56077352D01*
X159099215Y-56124165D01*
X159092180Y-56128227D01*
X158995127Y-56202699D01*
X158989385Y-56208441D01*
X158914914Y-56305501D01*
X158910855Y-56312531D01*
X158864046Y-56425562D01*
X158861945Y-56433400D01*
X158845700Y-56556730D01*
X158845434Y-56560799D01*
X158845434Y-69556717D01*
X158250420Y-69556717D01*
X158250420Y-57261814D01*
X158241629Y-57240592D01*
X158141726Y-57140689D01*
X158123420Y-57096495D01*
X158123420Y-55616329D01*
X158141726Y-55572135D01*
X158232114Y-55481747D01*
X158276308Y-55463441D01*
X173405039Y-55463441D01*
X173449233Y-55481747D01*
G37*
G36*
X34533802Y-93581843D02*
G01*
X34552108Y-93626037D01*
X34552108Y-95347995D01*
X34552038Y-95350945D01*
X34551681Y-95358500D01*
X34551128Y-95364354D01*
X34550274Y-95370356D01*
X34549172Y-95376136D01*
X34548383Y-95379424D01*
X34523349Y-95416112D01*
X34480265Y-95426907D01*
X34440890Y-95406357D01*
X34425108Y-95364840D01*
X34425108Y-95361910D01*
X34416317Y-95340688D01*
X33576331Y-94500702D01*
X33558025Y-94456508D01*
X33576331Y-94412314D01*
X34406802Y-93581843D01*
X34450996Y-93563537D01*
X34489608Y-93563537D01*
X34533802Y-93581843D01*
G37*
G36*
X148834090Y-93581843D02*
G01*
X148852396Y-93626037D01*
X148852396Y-95347995D01*
X148852326Y-95350945D01*
X148851969Y-95358500D01*
X148851416Y-95364354D01*
X148850562Y-95370356D01*
X148849460Y-95376136D01*
X148848671Y-95379424D01*
X148823637Y-95416112D01*
X148780553Y-95426907D01*
X148741178Y-95406357D01*
X148725396Y-95364840D01*
X148725396Y-95361910D01*
X148716605Y-95340688D01*
X147876619Y-94500702D01*
X147858313Y-94456508D01*
X147876619Y-94412314D01*
X148707090Y-93581843D01*
X148751284Y-93563537D01*
X148789896Y-93563537D01*
X148834090Y-93581843D01*
G37*
G36*
X111499965Y-89585302D02*
G01*
X111518271Y-89629496D01*
X111518271Y-89668108D01*
X111499965Y-89712302D01*
X110669494Y-90542773D01*
X110625300Y-90561079D01*
X110581106Y-90542773D01*
X109741119Y-89702786D01*
X109719898Y-89693996D01*
X109716968Y-89693996D01*
X109675455Y-89678218D01*
X109654902Y-89638850D01*
X109665686Y-89595769D01*
X109702363Y-89570726D01*
X109705650Y-89569936D01*
X109711451Y-89568829D01*
X109717453Y-89567975D01*
X109723316Y-89567421D01*
X109730872Y-89567065D01*
X109733813Y-89566996D01*
X111455771Y-89566996D01*
X111499965Y-89585302D01*
G37*
G36*
X158359114Y-55481747D02*
G01*
X158377420Y-55525941D01*
X158377420Y-57247899D01*
X158377350Y-57250849D01*
X158376993Y-57258404D01*
X158376440Y-57264258D01*
X158375586Y-57270260D01*
X158374484Y-57276040D01*
X158373695Y-57279328D01*
X158348661Y-57316016D01*
X158305577Y-57326811D01*
X158266202Y-57306261D01*
X158250420Y-57264744D01*
X158250420Y-57261814D01*
X158241629Y-57240592D01*
X157401643Y-56400606D01*
X157383337Y-56356412D01*
X157401643Y-56312218D01*
X158232114Y-55481747D01*
X158276308Y-55463441D01*
X158314920Y-55463441D01*
X158359114Y-55481747D01*
G37*
G36*
X36915058Y-74531795D02*
G01*
X36933364Y-74575989D01*
X36933364Y-76297947D01*
X36933294Y-76300897D01*
X36932937Y-76308452D01*
X36932384Y-76314306D01*
X36931530Y-76320308D01*
X36930428Y-76326088D01*
X36929639Y-76329376D01*
X36904605Y-76366064D01*
X36861521Y-76376859D01*
X36822146Y-76356309D01*
X36806364Y-76314792D01*
X36806364Y-76311862D01*
X36797573Y-76290640D01*
X35957587Y-75450654D01*
X35939281Y-75406460D01*
X35957587Y-75362266D01*
X36788058Y-74531795D01*
X36832252Y-74513489D01*
X36870864Y-74513489D01*
X36915058Y-74531795D01*
G37*
G36*
X183850380Y-89567065D02*
G01*
X183857935Y-89567421D01*
X183863797Y-89567975D01*
X183869799Y-89568829D01*
X183875596Y-89569935D01*
X183878884Y-89570725D01*
X183915563Y-89595766D01*
X183926349Y-89638848D01*
X183905797Y-89678217D01*
X183864283Y-89693996D01*
X183861353Y-89693996D01*
X183840131Y-89702786D01*
X183000145Y-90542773D01*
X182955951Y-90561079D01*
X182911757Y-90542773D01*
X182081286Y-89712302D01*
X182062980Y-89668108D01*
X182062980Y-89629496D01*
X182081286Y-89585302D01*
X182125480Y-89566996D01*
X183847438Y-89566996D01*
X183850380Y-89567065D01*
G37*
G36*
X221930712Y-76703782D02*
G01*
X221949018Y-76747976D01*
X221949018Y-78232142D01*
X221930712Y-78276336D01*
X221886518Y-78294642D01*
X221842324Y-78276336D01*
X221100241Y-77534253D01*
X221081935Y-77490059D01*
X221100241Y-77445865D01*
X221842324Y-76703782D01*
X221886518Y-76685476D01*
X221930712Y-76703782D01*
G37*
G36*
X39296314Y-55481747D02*
G01*
X39314620Y-55525941D01*
X39314620Y-57247899D01*
X39314550Y-57250849D01*
X39314193Y-57258404D01*
X39313640Y-57264258D01*
X39312786Y-57270260D01*
X39311684Y-57276040D01*
X39310895Y-57279328D01*
X39285861Y-57316016D01*
X39242777Y-57326811D01*
X39203402Y-57306261D01*
X39187620Y-57264744D01*
X39187620Y-57261814D01*
X39178829Y-57240592D01*
X38338843Y-56400606D01*
X38320537Y-56356412D01*
X38338843Y-56312218D01*
X39169314Y-55481747D01*
X39213508Y-55463441D01*
X39252120Y-55463441D01*
X39296314Y-55481747D01*
G37*
G36*
X197261793Y-74531795D02*
G01*
X197352181Y-74622183D01*
X197370487Y-74666377D01*
X197370487Y-76146543D01*
X197352181Y-76190737D01*
X197252277Y-76290640D01*
X197243487Y-76311862D01*
X197243487Y-89668108D01*
X197225181Y-89712302D01*
X197134793Y-89802690D01*
X197090599Y-89820996D01*
X195610433Y-89820996D01*
X195566239Y-89802690D01*
X195466335Y-89702786D01*
X195445114Y-89693996D01*
X183861353Y-89693996D01*
X183840131Y-89702786D01*
X183740228Y-89802690D01*
X183696034Y-89820996D01*
X182215868Y-89820996D01*
X182171674Y-89802690D01*
X182081286Y-89712302D01*
X182062980Y-89668108D01*
X182062980Y-88606717D01*
X182657934Y-88606717D01*
X182658199Y-88610773D01*
X182674428Y-88734101D01*
X182676529Y-88741940D01*
X182723345Y-88854965D01*
X182727403Y-88861994D01*
X182801880Y-88959041D01*
X182807621Y-88964782D01*
X182904681Y-89039241D01*
X182911715Y-89043300D01*
X183024752Y-89090097D01*
X183032573Y-89092194D01*
X183155908Y-89108487D01*
X183159979Y-89108755D01*
X196155890Y-89108755D01*
X196159959Y-89108488D01*
X196283278Y-89092246D01*
X196291128Y-89090142D01*
X196404147Y-89043325D01*
X196411180Y-89039264D01*
X196508236Y-88964792D01*
X196513978Y-88959050D01*
X196588452Y-88862001D01*
X196592516Y-88854964D01*
X196639339Y-88741944D01*
X196641440Y-88734104D01*
X196657668Y-88610774D01*
X196657934Y-88606717D01*
X196657934Y-75610799D01*
X196657667Y-75606730D01*
X196641422Y-75483398D01*
X196639321Y-75475558D01*
X196592504Y-75362533D01*
X196588440Y-75355493D01*
X196513973Y-75258432D01*
X196508230Y-75252688D01*
X196411181Y-75178203D01*
X196404145Y-75174139D01*
X196291138Y-75127307D01*
X196283274Y-75125200D01*
X196159951Y-75109019D01*
X196155898Y-75108755D01*
X183159972Y-75108755D01*
X183155915Y-75109020D01*
X183032584Y-75125250D01*
X183024738Y-75127352D01*
X182911715Y-75174165D01*
X182904680Y-75178227D01*
X182807627Y-75252699D01*
X182801885Y-75258441D01*
X182727414Y-75355501D01*
X182723355Y-75362531D01*
X182676546Y-75475562D01*
X182674445Y-75483400D01*
X182658200Y-75606730D01*
X182657934Y-75610799D01*
X182657934Y-88606717D01*
X182062980Y-88606717D01*
X182062980Y-76311862D01*
X182054189Y-76290640D01*
X181954286Y-76190737D01*
X181935980Y-76146543D01*
X181935980Y-74666377D01*
X181954286Y-74622183D01*
X182044674Y-74531795D01*
X182088868Y-74513489D01*
X197217599Y-74513489D01*
X197261793Y-74531795D01*
G37*
G36*
X137315052Y-69948702D02*
G01*
X139345666Y-71979302D01*
X139366888Y-71988093D01*
X141709824Y-71988107D01*
X141754018Y-72006413D01*
X143477456Y-73729851D01*
X143493633Y-73757871D01*
X143493631Y-73790225D01*
X143477452Y-73818243D01*
X142632869Y-74662666D01*
X142629647Y-74667489D01*
X142628515Y-74673180D01*
X142628515Y-91309925D01*
X142610209Y-91354119D01*
X140886774Y-93077556D01*
X140858754Y-93093733D01*
X140826400Y-93093731D01*
X140798382Y-93077552D01*
X139954123Y-92233137D01*
X139949303Y-92229916D01*
X139943612Y-92228783D01*
X134604377Y-92228735D01*
X134583154Y-92237524D01*
X133743016Y-93077564D01*
X133698821Y-93095867D01*
X133654628Y-93077559D01*
X131931335Y-91354118D01*
X131913031Y-91309927D01*
X131912881Y-74679450D01*
X131904092Y-74658230D01*
X131064246Y-73818226D01*
X131047621Y-73778083D01*
X132120490Y-73778083D01*
X132136468Y-73899369D01*
X132138573Y-73907221D01*
X132185411Y-74020240D01*
X132189464Y-74027259D01*
X132265187Y-74125959D01*
X132267886Y-74129037D01*
X132358851Y-74220002D01*
X132364238Y-74226144D01*
X132436208Y-74319921D01*
X132444367Y-74334050D01*
X132488026Y-74439427D01*
X132492253Y-74455203D01*
X132507661Y-74572398D01*
X132508194Y-74580545D01*
X132508194Y-90828950D01*
X132508462Y-90833038D01*
X132524712Y-90956352D01*
X132526811Y-90964185D01*
X132573624Y-91077216D01*
X132577684Y-91084248D01*
X132653390Y-91182926D01*
X132656091Y-91186006D01*
X133343807Y-91873722D01*
X133346889Y-91876424D01*
X133445563Y-91952133D01*
X133452599Y-91956195D01*
X133565620Y-92003005D01*
X133573463Y-92005107D01*
X133694755Y-92021071D01*
X133702875Y-92021071D01*
X133824159Y-92005100D01*
X133832004Y-92002998D01*
X133945027Y-91956180D01*
X133952058Y-91952121D01*
X134050747Y-91876413D01*
X134053819Y-91873720D01*
X134144780Y-91782755D01*
X134150934Y-91777358D01*
X134244723Y-91705412D01*
X134258848Y-91697259D01*
X134364239Y-91653609D01*
X134379985Y-91649388D01*
X134497182Y-91633935D01*
X134505352Y-91633399D01*
X140036056Y-91633420D01*
X140044219Y-91633955D01*
X140161412Y-91649393D01*
X140177165Y-91653615D01*
X140282552Y-91697263D01*
X140296682Y-91705421D01*
X140390460Y-91777376D01*
X140396608Y-91782767D01*
X140487578Y-91873737D01*
X140490639Y-91876423D01*
X140589305Y-91952206D01*
X140596346Y-91956275D01*
X140709366Y-92003128D01*
X140717219Y-92005234D01*
X140838518Y-92021218D01*
X140846647Y-92021218D01*
X140967951Y-92005242D01*
X140975801Y-92003137D01*
X141088820Y-91956292D01*
X141095873Y-91952216D01*
X141194508Y-91876427D01*
X141197574Y-91873736D01*
X141885303Y-91186007D01*
X141888006Y-91182925D01*
X141963726Y-91084263D01*
X141967795Y-91077216D01*
X142014603Y-90964202D01*
X142016706Y-90956351D01*
X142032936Y-90833020D01*
X142033202Y-90828964D01*
X142033202Y-74580552D01*
X142033737Y-74572390D01*
X142049173Y-74455199D01*
X142053396Y-74439442D01*
X142097050Y-74334056D01*
X142105204Y-74319931D01*
X142177154Y-74226148D01*
X142182548Y-74219998D01*
X142273511Y-74129035D01*
X142276209Y-74125958D01*
X142351919Y-74027274D01*
X142355980Y-74020238D01*
X142402793Y-73907214D01*
X142404894Y-73899373D01*
X142420864Y-73778083D01*
X142420864Y-73769961D01*
X142404904Y-73648667D01*
X142402805Y-73640829D01*
X142356004Y-73527804D01*
X142351937Y-73520760D01*
X142276208Y-73422103D01*
X142273511Y-73419028D01*
X141585778Y-72731295D01*
X141582719Y-72728612D01*
X141484039Y-72652863D01*
X141477006Y-72648802D01*
X141363984Y-72601986D01*
X141356138Y-72599884D01*
X141232812Y-72583672D01*
X141228734Y-72583406D01*
X133312661Y-72583406D01*
X133308582Y-72583673D01*
X133185271Y-72599907D01*
X133177417Y-72602012D01*
X133064403Y-72648830D01*
X133057373Y-72652888D01*
X132958679Y-72728610D01*
X132955615Y-72731297D01*
X132267884Y-73419028D01*
X132265187Y-73422103D01*
X132189452Y-73520766D01*
X132185384Y-73527809D01*
X132138563Y-73640818D01*
X132136457Y-73648676D01*
X132120490Y-73769958D01*
X132120490Y-73778083D01*
X131047621Y-73778083D01*
X131045944Y-73774033D01*
X131064250Y-73729842D01*
X132787697Y-72006399D01*
X132831891Y-71988093D01*
X135174828Y-71988093D01*
X135196049Y-71979302D01*
X137226664Y-69948702D01*
X137270858Y-69930396D01*
X137315052Y-69948702D01*
G37*
G36*
X78162381Y-70535254D02*
G01*
X78180687Y-70579448D01*
X78180687Y-70618060D01*
X78162381Y-70662254D01*
X77331910Y-71492725D01*
X77287716Y-71511031D01*
X77243522Y-71492725D01*
X76403535Y-70652738D01*
X76382314Y-70643948D01*
X76379384Y-70643948D01*
X76337871Y-70628170D01*
X76317318Y-70588802D01*
X76328102Y-70545721D01*
X76364779Y-70520678D01*
X76368066Y-70519888D01*
X76373867Y-70518781D01*
X76379869Y-70517927D01*
X76385732Y-70517373D01*
X76393288Y-70517017D01*
X76396229Y-70516948D01*
X78118187Y-70516948D01*
X78162381Y-70535254D01*
G37*
G36*
X197261793Y-74531795D02*
G01*
X198092264Y-75362266D01*
X198110570Y-75406460D01*
X198092264Y-75450654D01*
X197252277Y-76290640D01*
X197243487Y-76311862D01*
X197243487Y-76314792D01*
X197227708Y-76356306D01*
X197188339Y-76376858D01*
X197145257Y-76366072D01*
X197120216Y-76329393D01*
X197119426Y-76326105D01*
X197118320Y-76320308D01*
X197117466Y-76314306D01*
X197116912Y-76308444D01*
X197116556Y-76300889D01*
X197116487Y-76297947D01*
X197116487Y-74575989D01*
X197134793Y-74531795D01*
X197178987Y-74513489D01*
X197217599Y-74513489D01*
X197261793Y-74531795D01*
G37*
G36*
X144071578Y-74531795D02*
G01*
X144089884Y-74575989D01*
X144089884Y-76297947D01*
X144089814Y-76300897D01*
X144089457Y-76308452D01*
X144088904Y-76314306D01*
X144088050Y-76320308D01*
X144086948Y-76326088D01*
X144086159Y-76329376D01*
X144061125Y-76366064D01*
X144018041Y-76376859D01*
X143978666Y-76356309D01*
X143962884Y-76314792D01*
X143962884Y-76311862D01*
X143954093Y-76290640D01*
X143114107Y-75450654D01*
X143095801Y-75406460D01*
X143114107Y-75362266D01*
X143944578Y-74531795D01*
X143988772Y-74513489D01*
X144027384Y-74513489D01*
X144071578Y-74531795D01*
G37*
G36*
X64787580Y-70517017D02*
G01*
X64795135Y-70517373D01*
X64800997Y-70517927D01*
X64806999Y-70518781D01*
X64812796Y-70519887D01*
X64816084Y-70520677D01*
X64852763Y-70545718D01*
X64863549Y-70588800D01*
X64842997Y-70628169D01*
X64801483Y-70643948D01*
X64798553Y-70643948D01*
X64777331Y-70652738D01*
X63937345Y-71492725D01*
X63893151Y-71511031D01*
X63848957Y-71492725D01*
X63018486Y-70662254D01*
X63000180Y-70618060D01*
X63000180Y-70579448D01*
X63018486Y-70535254D01*
X63062680Y-70516948D01*
X64784638Y-70516948D01*
X64787580Y-70517017D01*
G37*
G36*
X101208970Y-55481747D02*
G01*
X101227276Y-55525941D01*
X101227276Y-57247899D01*
X101227206Y-57250849D01*
X101226849Y-57258404D01*
X101226296Y-57264258D01*
X101225442Y-57270260D01*
X101224340Y-57276040D01*
X101223551Y-57279328D01*
X101198517Y-57316016D01*
X101155433Y-57326811D01*
X101116058Y-57306261D01*
X101100276Y-57264744D01*
X101100276Y-57261814D01*
X101091485Y-57240592D01*
X100251499Y-56400606D01*
X100233193Y-56356412D01*
X100251499Y-56312218D01*
X101081970Y-55481747D01*
X101126164Y-55463441D01*
X101164776Y-55463441D01*
X101208970Y-55481747D01*
G37*
G36*
X98125164Y-89567065D02*
G01*
X98132719Y-89567421D01*
X98138581Y-89567975D01*
X98144583Y-89568829D01*
X98150380Y-89569935D01*
X98153668Y-89570725D01*
X98190347Y-89595766D01*
X98201133Y-89638848D01*
X98180581Y-89678217D01*
X98139067Y-89693996D01*
X98136137Y-89693996D01*
X98114915Y-89702786D01*
X97274929Y-90542773D01*
X97230735Y-90561079D01*
X97186541Y-90542773D01*
X96356070Y-89712302D01*
X96337764Y-89668108D01*
X96337764Y-89629496D01*
X96356070Y-89585302D01*
X96400264Y-89566996D01*
X98122222Y-89566996D01*
X98125164Y-89567065D01*
G37*
G36*
X91683946Y-93581843D02*
G01*
X91702252Y-93626037D01*
X91702252Y-95347995D01*
X91702182Y-95350945D01*
X91701825Y-95358500D01*
X91701272Y-95364354D01*
X91700418Y-95370356D01*
X91699316Y-95376136D01*
X91698527Y-95379424D01*
X91673493Y-95416112D01*
X91630409Y-95426907D01*
X91591034Y-95406357D01*
X91575252Y-95364840D01*
X91575252Y-95361910D01*
X91566461Y-95340688D01*
X90726475Y-94500702D01*
X90708169Y-94456508D01*
X90726475Y-94412314D01*
X91556946Y-93581843D01*
X91601140Y-93563537D01*
X91639752Y-93563537D01*
X91683946Y-93581843D01*
G37*
G36*
X173449233Y-55481747D02*
G01*
X174279704Y-56312218D01*
X174298010Y-56356412D01*
X174279704Y-56400606D01*
X173439717Y-57240592D01*
X173430927Y-57261814D01*
X173430927Y-57264744D01*
X173415148Y-57306258D01*
X173375779Y-57326810D01*
X173332697Y-57316024D01*
X173307656Y-57279345D01*
X173306866Y-57276057D01*
X173305760Y-57270260D01*
X173304906Y-57264258D01*
X173304352Y-57258396D01*
X173303996Y-57250841D01*
X173303927Y-57247899D01*
X173303927Y-55525941D01*
X173322233Y-55481747D01*
X173366427Y-55463441D01*
X173405039Y-55463441D01*
X173449233Y-55481747D01*
G37*
G36*
X139309066Y-55481747D02*
G01*
X139327372Y-55525941D01*
X139327372Y-57247899D01*
X139327302Y-57250849D01*
X139326945Y-57258404D01*
X139326392Y-57264258D01*
X139325538Y-57270260D01*
X139324436Y-57276040D01*
X139323647Y-57279328D01*
X139298613Y-57316016D01*
X139255529Y-57326811D01*
X139216154Y-57306261D01*
X139200372Y-57264744D01*
X139200372Y-57261814D01*
X139191581Y-57240592D01*
X138351595Y-56400606D01*
X138333289Y-56356412D01*
X138351595Y-56312218D01*
X139182066Y-55481747D01*
X139226260Y-55463441D01*
X139264872Y-55463441D01*
X139309066Y-55481747D01*
G37*
G36*
X52005177Y-74531795D02*
G01*
X52835648Y-75362266D01*
X52853954Y-75406460D01*
X52835648Y-75450654D01*
X51995661Y-76290640D01*
X51986871Y-76311862D01*
X51986871Y-76314792D01*
X51971092Y-76356306D01*
X51931723Y-76376858D01*
X51888641Y-76366072D01*
X51863600Y-76329393D01*
X51862810Y-76326105D01*
X51861704Y-76320308D01*
X51860850Y-76314306D01*
X51860296Y-76308444D01*
X51859940Y-76300889D01*
X51859871Y-76297947D01*
X51859871Y-74575989D01*
X51878177Y-74531795D01*
X51922371Y-74513489D01*
X51960983Y-74513489D01*
X52005177Y-74531795D01*
G37*
G36*
X77396410Y-74531795D02*
G01*
X77414716Y-74575989D01*
X77414716Y-76297947D01*
X77414646Y-76300897D01*
X77414289Y-76308452D01*
X77413736Y-76314306D01*
X77412882Y-76320308D01*
X77411780Y-76326088D01*
X77410991Y-76329376D01*
X77385957Y-76366064D01*
X77342873Y-76376859D01*
X77303498Y-76356309D01*
X77287716Y-76314792D01*
X77287716Y-76311862D01*
X77278925Y-76290640D01*
X76438939Y-75450654D01*
X76420633Y-75406460D01*
X76438939Y-75362266D01*
X77269410Y-74531795D01*
X77313604Y-74513489D01*
X77352216Y-74513489D01*
X77396410Y-74531795D01*
G37*
G36*
X201987693Y-108635350D02*
G01*
X202005999Y-108679544D01*
X202005999Y-108718156D01*
X201987693Y-108762350D01*
X201157222Y-109592821D01*
X201113028Y-109611127D01*
X201068834Y-109592821D01*
X200228847Y-108752834D01*
X200207626Y-108744044D01*
X200204696Y-108744044D01*
X200163183Y-108728266D01*
X200142630Y-108688898D01*
X200153414Y-108645817D01*
X200190091Y-108620774D01*
X200193378Y-108619984D01*
X200199179Y-108618877D01*
X200205181Y-108618023D01*
X200211044Y-108617469D01*
X200218600Y-108617113D01*
X200221541Y-108617044D01*
X201943499Y-108617044D01*
X201987693Y-108635350D01*
G37*
G36*
X177409162Y-55481747D02*
G01*
X177427468Y-55525941D01*
X177427468Y-57247899D01*
X177427398Y-57250849D01*
X177427041Y-57258404D01*
X177426488Y-57264258D01*
X177425634Y-57270260D01*
X177424532Y-57276040D01*
X177423743Y-57279328D01*
X177398709Y-57316016D01*
X177355625Y-57326811D01*
X177316250Y-57306261D01*
X177300468Y-57264744D01*
X177300468Y-57261814D01*
X177291677Y-57240592D01*
X176451691Y-56400606D01*
X176433385Y-56356412D01*
X176451691Y-56312218D01*
X177282162Y-55481747D01*
X177326356Y-55463441D01*
X177364968Y-55463441D01*
X177409162Y-55481747D01*
G37*
G36*
X74312604Y-108617113D02*
G01*
X74320159Y-108617469D01*
X74326021Y-108618023D01*
X74332023Y-108618877D01*
X74337820Y-108619983D01*
X74341108Y-108620773D01*
X74377787Y-108645814D01*
X74388573Y-108688896D01*
X74368021Y-108728265D01*
X74326507Y-108744044D01*
X74323577Y-108744044D01*
X74302355Y-108752834D01*
X73462369Y-109592821D01*
X73418175Y-109611127D01*
X73373981Y-109592821D01*
X72543510Y-108762350D01*
X72525204Y-108718156D01*
X72525204Y-108679544D01*
X72543510Y-108635350D01*
X72587704Y-108617044D01*
X74309662Y-108617044D01*
X74312604Y-108617113D01*
G37*
G36*
X140987772Y-70517017D02*
G01*
X140995327Y-70517373D01*
X141001189Y-70517927D01*
X141007191Y-70518781D01*
X141012988Y-70519887D01*
X141016276Y-70520677D01*
X141052955Y-70545718D01*
X141063741Y-70588800D01*
X141043189Y-70628169D01*
X141001675Y-70643948D01*
X140998745Y-70643948D01*
X140977523Y-70652738D01*
X140137537Y-71492725D01*
X140093343Y-71511031D01*
X140049149Y-71492725D01*
X139218678Y-70662254D01*
X139200372Y-70618060D01*
X139200372Y-70579448D01*
X139218678Y-70535254D01*
X139262872Y-70516948D01*
X140984830Y-70516948D01*
X140987772Y-70517017D01*
G37*
G36*
X221951732Y-89567065D02*
G01*
X221959287Y-89567421D01*
X221965149Y-89567975D01*
X221971151Y-89568829D01*
X221976948Y-89569935D01*
X221980236Y-89570725D01*
X222016915Y-89595766D01*
X222027701Y-89638848D01*
X222007149Y-89678217D01*
X221965635Y-89693996D01*
X221962705Y-89693996D01*
X221941483Y-89702786D01*
X221101497Y-90542773D01*
X221057303Y-90561079D01*
X221013109Y-90542773D01*
X220182638Y-89712302D01*
X220164332Y-89668108D01*
X220164332Y-89629496D01*
X220182638Y-89585302D01*
X220226832Y-89566996D01*
X221948790Y-89566996D01*
X221951732Y-89567065D01*
G37*
G36*
X135349137Y-55481747D02*
G01*
X136179608Y-56312218D01*
X136197914Y-56356412D01*
X136179608Y-56400606D01*
X135339621Y-57240592D01*
X135330831Y-57261814D01*
X135330831Y-57264744D01*
X135315052Y-57306258D01*
X135275683Y-57326810D01*
X135232601Y-57316024D01*
X135207560Y-57279345D01*
X135206770Y-57276057D01*
X135205664Y-57270260D01*
X135204810Y-57264258D01*
X135204256Y-57258396D01*
X135203900Y-57250841D01*
X135203831Y-57247899D01*
X135203831Y-55525941D01*
X135222137Y-55481747D01*
X135266331Y-55463441D01*
X135304943Y-55463441D01*
X135349137Y-55481747D01*
G37*
G36*
X130586625Y-74531795D02*
G01*
X131417096Y-75362266D01*
X131435402Y-75406460D01*
X131417096Y-75450654D01*
X130577109Y-76290640D01*
X130568319Y-76311862D01*
X130568319Y-76314792D01*
X130552540Y-76356306D01*
X130513171Y-76376858D01*
X130470089Y-76366072D01*
X130445048Y-76329393D01*
X130444258Y-76326105D01*
X130443152Y-76320308D01*
X130442298Y-76314306D01*
X130441744Y-76308444D01*
X130441388Y-76300889D01*
X130441319Y-76297947D01*
X130441319Y-74575989D01*
X130459625Y-74531795D01*
X130503819Y-74513489D01*
X130542431Y-74513489D01*
X130586625Y-74531795D01*
G37*
G36*
X130586625Y-74531795D02*
G01*
X130677013Y-74622183D01*
X130695319Y-74666377D01*
X130695319Y-76146543D01*
X130677013Y-76190737D01*
X130577109Y-76290640D01*
X130568319Y-76311862D01*
X130568319Y-89668108D01*
X130550013Y-89712302D01*
X130459625Y-89802690D01*
X130415431Y-89820996D01*
X128935265Y-89820996D01*
X128891071Y-89802690D01*
X128791167Y-89702786D01*
X128769946Y-89693996D01*
X117186185Y-89693996D01*
X117164963Y-89702786D01*
X117065060Y-89802690D01*
X117020866Y-89820996D01*
X115540700Y-89820996D01*
X115496506Y-89802690D01*
X115406118Y-89712302D01*
X115387812Y-89668108D01*
X115387812Y-88606717D01*
X115982934Y-88606717D01*
X115983199Y-88610773D01*
X115999428Y-88734101D01*
X116001529Y-88741940D01*
X116048345Y-88854965D01*
X116052403Y-88861994D01*
X116126880Y-88959041D01*
X116132621Y-88964782D01*
X116229681Y-89039241D01*
X116236715Y-89043300D01*
X116349752Y-89090097D01*
X116357573Y-89092194D01*
X116480908Y-89108487D01*
X116484979Y-89108755D01*
X129480890Y-89108755D01*
X129484959Y-89108488D01*
X129608278Y-89092246D01*
X129616128Y-89090142D01*
X129729147Y-89043325D01*
X129736180Y-89039264D01*
X129833236Y-88964792D01*
X129838978Y-88959050D01*
X129913452Y-88862001D01*
X129917516Y-88854964D01*
X129964339Y-88741944D01*
X129966440Y-88734104D01*
X129982668Y-88610774D01*
X129982934Y-88606717D01*
X129982934Y-75610799D01*
X129982667Y-75606730D01*
X129966422Y-75483398D01*
X129964321Y-75475558D01*
X129917504Y-75362533D01*
X129913440Y-75355493D01*
X129838973Y-75258432D01*
X129833230Y-75252688D01*
X129736181Y-75178203D01*
X129729145Y-75174139D01*
X129616138Y-75127307D01*
X129608274Y-75125200D01*
X129484951Y-75109019D01*
X129480898Y-75108755D01*
X116484972Y-75108755D01*
X116480915Y-75109020D01*
X116357584Y-75125250D01*
X116349738Y-75127352D01*
X116236715Y-75174165D01*
X116229680Y-75178227D01*
X116132627Y-75252699D01*
X116126885Y-75258441D01*
X116052414Y-75355501D01*
X116048355Y-75362531D01*
X116001546Y-75475562D01*
X115999445Y-75483400D01*
X115983200Y-75606730D01*
X115982934Y-75610799D01*
X115982934Y-88606717D01*
X115387812Y-88606717D01*
X115387812Y-76311862D01*
X115379021Y-76290640D01*
X115279118Y-76190737D01*
X115260812Y-76146543D01*
X115260812Y-74666377D01*
X115279118Y-74622183D01*
X115369506Y-74531795D01*
X115413700Y-74513489D01*
X130542431Y-74513489D01*
X130586625Y-74531795D01*
G37*
G36*
X116299089Y-55481747D02*
G01*
X116389477Y-55572135D01*
X116407783Y-55616329D01*
X116407783Y-57096495D01*
X116389477Y-57140689D01*
X116289573Y-57240592D01*
X116280783Y-57261814D01*
X116280783Y-70618060D01*
X116262477Y-70662254D01*
X116172089Y-70752642D01*
X116127895Y-70770948D01*
X114647729Y-70770948D01*
X114603535Y-70752642D01*
X114503631Y-70652738D01*
X114482410Y-70643948D01*
X102898649Y-70643948D01*
X102877427Y-70652738D01*
X102777524Y-70752642D01*
X102733330Y-70770948D01*
X101253164Y-70770948D01*
X101208970Y-70752642D01*
X101118582Y-70662254D01*
X101100276Y-70618060D01*
X101100276Y-69556717D01*
X101695434Y-69556717D01*
X101695699Y-69560773D01*
X101711928Y-69684101D01*
X101714029Y-69691940D01*
X101760845Y-69804965D01*
X101764903Y-69811994D01*
X101839380Y-69909041D01*
X101845121Y-69914782D01*
X101942181Y-69989241D01*
X101949215Y-69993300D01*
X102062252Y-70040097D01*
X102070073Y-70042194D01*
X102193408Y-70058487D01*
X102197479Y-70058755D01*
X115193390Y-70058755D01*
X115197459Y-70058488D01*
X115320778Y-70042246D01*
X115328628Y-70040142D01*
X115441647Y-69993325D01*
X115448680Y-69989264D01*
X115545736Y-69914792D01*
X115551478Y-69909050D01*
X115625952Y-69812001D01*
X115630016Y-69804964D01*
X115676839Y-69691944D01*
X115678940Y-69684104D01*
X115695168Y-69560774D01*
X115695434Y-69556717D01*
X115695434Y-56560799D01*
X115695167Y-56556730D01*
X115678922Y-56433398D01*
X115676821Y-56425558D01*
X115630004Y-56312533D01*
X115625940Y-56305493D01*
X115551473Y-56208432D01*
X115545730Y-56202688D01*
X115448681Y-56128203D01*
X115441645Y-56124139D01*
X115328638Y-56077307D01*
X115320774Y-56075200D01*
X115197451Y-56059019D01*
X115193398Y-56058755D01*
X102197472Y-56058755D01*
X102193415Y-56059020D01*
X102070084Y-56075250D01*
X102062238Y-56077352D01*
X101949215Y-56124165D01*
X101942180Y-56128227D01*
X101845127Y-56202699D01*
X101839385Y-56208441D01*
X101764914Y-56305501D01*
X101760855Y-56312531D01*
X101714046Y-56425562D01*
X101711945Y-56433400D01*
X101695700Y-56556730D01*
X101695434Y-56560799D01*
X101695434Y-69556717D01*
X101100276Y-69556717D01*
X101100276Y-57261814D01*
X101091485Y-57240592D01*
X100991582Y-57140689D01*
X100973276Y-57096495D01*
X100973276Y-55616329D01*
X100991582Y-55572135D01*
X101081970Y-55481747D01*
X101126164Y-55463441D01*
X116254895Y-55463441D01*
X116299089Y-55481747D01*
G37*
G36*
X106737453Y-108635350D02*
G01*
X106755759Y-108679544D01*
X106755759Y-108718156D01*
X106737453Y-108762350D01*
X105906982Y-109592821D01*
X105862788Y-109611127D01*
X105818594Y-109592821D01*
X104978607Y-108752834D01*
X104957386Y-108744044D01*
X104954456Y-108744044D01*
X104912943Y-108728266D01*
X104892390Y-108688898D01*
X104903174Y-108645817D01*
X104939851Y-108620774D01*
X104943138Y-108619984D01*
X104948939Y-108618877D01*
X104954941Y-108618023D01*
X104960804Y-108617469D01*
X104968360Y-108617113D01*
X104971301Y-108617044D01*
X106693259Y-108617044D01*
X106737453Y-108635350D01*
G37*
G36*
X87724017Y-93581843D02*
G01*
X88554488Y-94412314D01*
X88572794Y-94456508D01*
X88554488Y-94500702D01*
X87714501Y-95340688D01*
X87705711Y-95361910D01*
X87705711Y-95364840D01*
X87689932Y-95406354D01*
X87650563Y-95426906D01*
X87607481Y-95416120D01*
X87582440Y-95379441D01*
X87581650Y-95376153D01*
X87580544Y-95370356D01*
X87579690Y-95364354D01*
X87579136Y-95358492D01*
X87578780Y-95350937D01*
X87578711Y-95347995D01*
X87578711Y-93626037D01*
X87597017Y-93581843D01*
X87641211Y-93563537D01*
X87679823Y-93563537D01*
X87724017Y-93581843D01*
G37*
G36*
X73436481Y-74531795D02*
G01*
X74266952Y-75362266D01*
X74285258Y-75406460D01*
X74266952Y-75450654D01*
X73426965Y-76290640D01*
X73418175Y-76311862D01*
X73418175Y-76314792D01*
X73402396Y-76356306D01*
X73363027Y-76376858D01*
X73319945Y-76366072D01*
X73294904Y-76329393D01*
X73294114Y-76326105D01*
X73293008Y-76320308D01*
X73292154Y-76314306D01*
X73291600Y-76308444D01*
X73291244Y-76300889D01*
X73291175Y-76297947D01*
X73291175Y-74575989D01*
X73309481Y-74531795D01*
X73353675Y-74513489D01*
X73392287Y-74513489D01*
X73436481Y-74531795D01*
G37*
G36*
X207662940Y-108617113D02*
G01*
X207670495Y-108617469D01*
X207676357Y-108618023D01*
X207682359Y-108618877D01*
X207688156Y-108619983D01*
X207691444Y-108620773D01*
X207728123Y-108645814D01*
X207738909Y-108688896D01*
X207718357Y-108728265D01*
X207676843Y-108744044D01*
X207673913Y-108744044D01*
X207652691Y-108752834D01*
X206812705Y-109592821D01*
X206768511Y-109611127D01*
X206724317Y-109592821D01*
X205893846Y-108762350D01*
X205875540Y-108718156D01*
X205875540Y-108679544D01*
X205893846Y-108635350D01*
X205938040Y-108617044D01*
X207659998Y-108617044D01*
X207662940Y-108617113D01*
G37*
G36*
X154399185Y-55481747D02*
G01*
X154489573Y-55572135D01*
X154507879Y-55616329D01*
X154507879Y-57096495D01*
X154489573Y-57140689D01*
X154389669Y-57240592D01*
X154380879Y-57261814D01*
X154380879Y-70618060D01*
X154362573Y-70662254D01*
X154272185Y-70752642D01*
X154227991Y-70770948D01*
X152747825Y-70770948D01*
X152703631Y-70752642D01*
X152603727Y-70652738D01*
X152582506Y-70643948D01*
X140998745Y-70643948D01*
X140977523Y-70652738D01*
X140877620Y-70752642D01*
X140833426Y-70770948D01*
X139353260Y-70770948D01*
X139309066Y-70752642D01*
X139218678Y-70662254D01*
X139200372Y-70618060D01*
X139200372Y-69556712D01*
X139795434Y-69556712D01*
X139795699Y-69560782D01*
X139811843Y-69684109D01*
X139813949Y-69691978D01*
X139860764Y-69805001D01*
X139864831Y-69812044D01*
X139939314Y-69909101D01*
X139945059Y-69914846D01*
X140042137Y-69989318D01*
X140049171Y-69993377D01*
X140162218Y-70040179D01*
X140170065Y-70042279D01*
X140293399Y-70058487D01*
X140297484Y-70058755D01*
X153293386Y-70058755D01*
X153297461Y-70058487D01*
X153420781Y-70042225D01*
X153428617Y-70040124D01*
X153541637Y-69993307D01*
X153548670Y-69989246D01*
X153645720Y-69914778D01*
X153651463Y-69909035D01*
X153725933Y-69811991D01*
X153729997Y-69804954D01*
X153776817Y-69691940D01*
X153778919Y-69684097D01*
X153795167Y-69560775D01*
X153795434Y-69556713D01*
X153795434Y-56560821D01*
X153795162Y-56556705D01*
X153778838Y-56433412D01*
X153776740Y-56425593D01*
X153729924Y-56312568D01*
X153725868Y-56305543D01*
X153651407Y-56208491D01*
X153645671Y-56202755D01*
X153548637Y-56128279D01*
X153541600Y-56124215D01*
X153428607Y-56077389D01*
X153420759Y-56075285D01*
X153297477Y-56059024D01*
X153293375Y-56058755D01*
X140297483Y-56058755D01*
X140293402Y-56059021D01*
X140170079Y-56075231D01*
X140162233Y-56077332D01*
X140049198Y-56124150D01*
X140042177Y-56128203D01*
X139945108Y-56202687D01*
X139939371Y-56208425D01*
X139864896Y-56305490D01*
X139860837Y-56312521D01*
X139814028Y-56425550D01*
X139811925Y-56433402D01*
X139795700Y-56556732D01*
X139795434Y-56560794D01*
X139795434Y-69556712D01*
X139200372Y-69556712D01*
X139200372Y-57261814D01*
X139191581Y-57240592D01*
X139091678Y-57140689D01*
X139073372Y-57096495D01*
X139073372Y-55616329D01*
X139091678Y-55572135D01*
X139182066Y-55481747D01*
X139226260Y-55463441D01*
X154354991Y-55463441D01*
X154399185Y-55481747D01*
G37*
G36*
X211512717Y-70535254D02*
G01*
X211531023Y-70579448D01*
X211531023Y-70618060D01*
X211512717Y-70662254D01*
X210682246Y-71492725D01*
X210638052Y-71511031D01*
X210593858Y-71492725D01*
X209753871Y-70652738D01*
X209732650Y-70643948D01*
X209729720Y-70643948D01*
X209688207Y-70628170D01*
X209667654Y-70588802D01*
X209678438Y-70545721D01*
X209715115Y-70520678D01*
X209718402Y-70519888D01*
X209724203Y-70518781D01*
X209730205Y-70517927D01*
X209736068Y-70517373D01*
X209743624Y-70517017D01*
X209746565Y-70516948D01*
X211468523Y-70516948D01*
X211512717Y-70535254D01*
G37*
G36*
X55262556Y-108617113D02*
G01*
X55270111Y-108617469D01*
X55275973Y-108618023D01*
X55281975Y-108618877D01*
X55287772Y-108619983D01*
X55291060Y-108620773D01*
X55327739Y-108645814D01*
X55338525Y-108688896D01*
X55317973Y-108728265D01*
X55276459Y-108744044D01*
X55273529Y-108744044D01*
X55252307Y-108752834D01*
X54412321Y-109592821D01*
X54368127Y-109611127D01*
X54323933Y-109592821D01*
X53493462Y-108762350D01*
X53475156Y-108718156D01*
X53475156Y-108679544D01*
X53493462Y-108635350D01*
X53537656Y-108617044D01*
X55259614Y-108617044D01*
X55262556Y-108617113D01*
G37*
G36*
X121937724Y-70517017D02*
G01*
X121945279Y-70517373D01*
X121951141Y-70517927D01*
X121957143Y-70518781D01*
X121962940Y-70519887D01*
X121966228Y-70520677D01*
X122002907Y-70545718D01*
X122013693Y-70588800D01*
X121993141Y-70628169D01*
X121951627Y-70643948D01*
X121948697Y-70643948D01*
X121927475Y-70652738D01*
X121087489Y-71492725D01*
X121043295Y-71511031D01*
X120999101Y-71492725D01*
X120168630Y-70662254D01*
X120150324Y-70618060D01*
X120150324Y-70579448D01*
X120168630Y-70535254D01*
X120212824Y-70516948D01*
X121934782Y-70516948D01*
X121937724Y-70517017D01*
G37*
M02*
