%TF.GenerationSoftware,KiCad,Pcbnew,(7.0.0)*%
%TF.CreationDate,2024-03-02T20:52:53+01:00*%
%TF.ProjectId,kicad_tsuru_plate,6b696361-645f-4747-9375-72755f706c61,rev?*%
%TF.SameCoordinates,Original*%
%TF.FileFunction,Copper,L1,Top*%
%TF.FilePolarity,Positive*%
%FSLAX46Y46*%
G04 Gerber Fmt 4.6, Leading zero omitted, Abs format (unit mm)*
G04 Created by KiCad (PCBNEW (7.0.0)) date 2024-03-02 20:52:53*
%MOMM*%
%LPD*%
G01*
G04 APERTURE LIST*
G04 APERTURE END LIST*
%TA.AperFunction,NonConductor*%
G36*
X237284307Y-53534314D02*
G01*
X237483153Y-53542998D01*
X237483305Y-53543066D01*
X237483306Y-53543005D01*
X237483336Y-53543006D01*
X237701614Y-53553083D01*
X237706845Y-53553548D01*
X237920471Y-53581673D01*
X238125455Y-53610267D01*
X238130298Y-53611141D01*
X238341564Y-53657980D01*
X238342083Y-53658098D01*
X238521489Y-53700293D01*
X238542383Y-53705208D01*
X238546869Y-53706441D01*
X238668160Y-53744685D01*
X238753655Y-53771642D01*
X238754692Y-53771979D01*
X238949131Y-53837148D01*
X238953134Y-53838646D01*
X239081058Y-53891635D01*
X239153736Y-53921740D01*
X239155063Y-53922307D01*
X239342334Y-54004995D01*
X239345923Y-54006719D01*
X239462478Y-54067395D01*
X239538714Y-54107082D01*
X239540266Y-54107918D01*
X239718862Y-54207394D01*
X239722013Y-54209272D01*
X239905527Y-54326186D01*
X239907259Y-54327331D01*
X240075709Y-54442722D01*
X240078411Y-54444682D01*
X240168651Y-54513927D01*
X240251158Y-54577238D01*
X240253038Y-54578739D01*
X240409976Y-54709060D01*
X240412273Y-54711064D01*
X240572905Y-54858259D01*
X240574874Y-54860144D01*
X240718989Y-55004259D01*
X240720875Y-55006229D01*
X240868179Y-55166987D01*
X240870182Y-55169283D01*
X241000278Y-55325952D01*
X241001780Y-55327833D01*
X241134612Y-55500946D01*
X241136589Y-55503672D01*
X241251559Y-55671509D01*
X241252709Y-55673250D01*
X241370065Y-55857468D01*
X241371954Y-55860635D01*
X241434104Y-55972217D01*
X241470823Y-56038141D01*
X241471627Y-56039632D01*
X241572622Y-56233646D01*
X241574358Y-56237259D01*
X241644367Y-56395817D01*
X241656285Y-56422808D01*
X241656851Y-56424131D01*
X241666572Y-56447600D01*
X241740681Y-56626521D01*
X241742198Y-56630577D01*
X241806478Y-56822370D01*
X241806825Y-56823437D01*
X241872860Y-57032880D01*
X241874093Y-57037365D01*
X241920184Y-57233345D01*
X241920363Y-57234127D01*
X241968108Y-57449500D01*
X241968990Y-57454393D01*
X241996530Y-57651836D01*
X241996594Y-57652313D01*
X242025645Y-57872997D01*
X242026113Y-57878268D01*
X242034839Y-58067043D01*
X242034842Y-58067204D01*
X242034847Y-58067204D01*
X242044845Y-58296255D01*
X242044334Y-58296277D01*
X242044934Y-58299047D01*
X242044934Y-105919900D01*
X242044874Y-105922628D01*
X242035619Y-106134445D01*
X242035613Y-106134591D01*
X242026196Y-106339153D01*
X242025727Y-106344439D01*
X241996405Y-106567106D01*
X241996341Y-106567581D01*
X241969093Y-106762899D01*
X241968210Y-106767793D01*
X241920071Y-106984909D01*
X241919893Y-106985690D01*
X241874230Y-107179828D01*
X241872997Y-107184313D01*
X241806403Y-107395506D01*
X241806056Y-107396573D01*
X241742388Y-107586529D01*
X241740870Y-107590586D01*
X241656348Y-107794631D01*
X241655780Y-107795958D01*
X241574620Y-107979761D01*
X241572884Y-107983375D01*
X241471084Y-108178923D01*
X241470247Y-108180476D01*
X241372297Y-108356325D01*
X241370408Y-108359494D01*
X241252100Y-108545195D01*
X241250950Y-108546935D01*
X241137021Y-108713247D01*
X241135043Y-108715973D01*
X241001178Y-108890428D01*
X240999677Y-108892309D01*
X240870710Y-109047614D01*
X240868707Y-109049910D01*
X240720287Y-109211881D01*
X240718401Y-109213850D01*
X240575509Y-109356740D01*
X240573539Y-109358626D01*
X240411715Y-109506910D01*
X240409419Y-109508914D01*
X240253781Y-109638152D01*
X240251901Y-109639653D01*
X240077895Y-109773173D01*
X240075168Y-109775151D01*
X239908113Y-109889584D01*
X239906374Y-109890733D01*
X239721546Y-110008483D01*
X239718376Y-110010373D01*
X239541253Y-110109027D01*
X239539701Y-110109863D01*
X239345525Y-110210948D01*
X239341909Y-110212685D01*
X239156126Y-110294714D01*
X239154800Y-110295281D01*
X238952840Y-110378938D01*
X238948784Y-110380456D01*
X238755821Y-110445129D01*
X238754754Y-110445476D01*
X238546639Y-110511099D01*
X238542153Y-110512332D01*
X238343291Y-110559102D01*
X238342511Y-110559280D01*
X238130193Y-110606355D01*
X238125298Y-110607238D01*
X237921355Y-110635685D01*
X237920880Y-110635749D01*
X237706815Y-110663936D01*
X237701542Y-110664404D01*
X237488310Y-110674261D01*
X237488152Y-110674268D01*
X237283827Y-110683195D01*
X237281099Y-110683255D01*
X37259287Y-110683255D01*
X37256560Y-110683195D01*
X37068525Y-110674984D01*
X37068365Y-110674910D01*
X37068362Y-110674977D01*
X36838573Y-110664337D01*
X36833306Y-110663869D01*
X36629191Y-110636996D01*
X36628714Y-110636932D01*
X36414600Y-110607064D01*
X36409707Y-110606181D01*
X36204835Y-110560761D01*
X36204053Y-110560583D01*
X35997524Y-110512006D01*
X35993040Y-110510773D01*
X35791314Y-110447169D01*
X35790246Y-110446822D01*
X35590685Y-110379936D01*
X35586629Y-110378418D01*
X35390413Y-110297142D01*
X35389086Y-110296575D01*
X35197350Y-110211915D01*
X35193736Y-110210178D01*
X35004862Y-110111856D01*
X35003308Y-110111019D01*
X34820712Y-110009313D01*
X34817544Y-110007424D01*
X34637649Y-109892819D01*
X34635909Y-109891669D01*
X34463777Y-109773756D01*
X34461050Y-109771779D01*
X34291647Y-109641791D01*
X34289767Y-109640290D01*
X34208380Y-109572708D01*
X34129392Y-109507117D01*
X34127115Y-109505131D01*
X33969566Y-109360763D01*
X33967597Y-109358877D01*
X33820308Y-109211589D01*
X33818422Y-109209619D01*
X33674024Y-109052035D01*
X33672021Y-109049739D01*
X33538965Y-108889507D01*
X33537464Y-108887627D01*
X33407347Y-108718057D01*
X33405369Y-108715330D01*
X33403942Y-108713247D01*
X33287610Y-108543425D01*
X33286512Y-108541764D01*
X33171667Y-108361494D01*
X33169798Y-108358360D01*
X33068321Y-108176175D01*
X33067524Y-108174696D01*
X32968900Y-107985242D01*
X32967195Y-107981694D01*
X32882838Y-107790647D01*
X32882291Y-107789366D01*
X32800684Y-107592351D01*
X32799166Y-107588296D01*
X32798574Y-107586529D01*
X32732600Y-107389696D01*
X32732340Y-107388895D01*
X32668339Y-107185909D01*
X32667106Y-107181425D01*
X32661643Y-107158200D01*
X32618904Y-106976496D01*
X32618837Y-106976201D01*
X32572938Y-106769164D01*
X32572068Y-106764344D01*
X32542660Y-106553541D01*
X32542604Y-106553123D01*
X32541342Y-106543536D01*
X32515277Y-106345559D01*
X32514814Y-106340350D01*
X32504418Y-106115542D01*
X32504454Y-106115383D01*
X32504411Y-106115385D01*
X32495993Y-105922583D01*
X32495934Y-105919857D01*
X32495934Y-91564763D01*
X33648803Y-91564763D01*
X33648867Y-91566762D01*
X33648867Y-91566766D01*
X33658617Y-91870841D01*
X33658618Y-91870855D01*
X33658682Y-91872839D01*
X33658998Y-91874798D01*
X33659000Y-91874811D01*
X33707556Y-92175147D01*
X33707558Y-92175157D01*
X33707876Y-92177122D01*
X33708441Y-92179028D01*
X33708444Y-92179038D01*
X33795008Y-92470699D01*
X33795011Y-92470709D01*
X33795578Y-92472617D01*
X33796383Y-92474437D01*
X33796387Y-92474446D01*
X33878137Y-92659120D01*
X33920346Y-92754470D01*
X33921377Y-92756172D01*
X33921383Y-92756182D01*
X34079093Y-93016341D01*
X34079097Y-93016347D01*
X34080132Y-93018054D01*
X34272313Y-93259042D01*
X34493733Y-93473475D01*
X34740756Y-93657833D01*
X35009327Y-93809089D01*
X35295034Y-93924760D01*
X35593188Y-94002945D01*
X35815176Y-94031567D01*
X35832246Y-94033768D01*
X35872488Y-94056009D01*
X35886626Y-94099759D01*
X35867009Y-94141343D01*
X35824254Y-94158255D01*
X35520504Y-94158255D01*
X35520434Y-94158246D01*
X35520434Y-94158234D01*
X35520345Y-94158234D01*
X35467546Y-94158240D01*
X35467540Y-94158240D01*
X35464042Y-94158241D01*
X35460633Y-94159019D01*
X35460627Y-94159020D01*
X35357501Y-94182569D01*
X35357497Y-94182570D01*
X35354087Y-94183349D01*
X35350937Y-94184866D01*
X35350929Y-94184869D01*
X35255641Y-94230765D01*
X35255633Y-94230769D01*
X35252475Y-94232291D01*
X35249730Y-94234479D01*
X35249727Y-94234482D01*
X35167040Y-94300427D01*
X35167035Y-94300431D01*
X35164299Y-94302614D01*
X35162117Y-94305349D01*
X35162113Y-94305354D01*
X35096183Y-94388030D01*
X35093980Y-94390793D01*
X35092459Y-94393949D01*
X35092457Y-94393954D01*
X35046564Y-94489246D01*
X35045042Y-94492407D01*
X35044262Y-94495819D01*
X35044260Y-94495828D01*
X35020719Y-94598943D01*
X35020718Y-94598949D01*
X35019939Y-94602363D01*
X35019938Y-94605861D01*
X35019938Y-94605868D01*
X35019934Y-94658655D01*
X35019934Y-107658430D01*
X35019891Y-107658755D01*
X35019845Y-107658755D01*
X35019845Y-107659104D01*
X35019845Y-107659105D01*
X35019850Y-107711641D01*
X35019850Y-107711646D01*
X35019851Y-107715153D01*
X35020632Y-107718572D01*
X35020633Y-107718578D01*
X35044180Y-107821695D01*
X35044181Y-107821699D01*
X35044962Y-107825117D01*
X35046481Y-107828270D01*
X35046483Y-107828276D01*
X35092386Y-107923570D01*
X35093912Y-107926737D01*
X35099492Y-107933733D01*
X35162047Y-108012161D01*
X35164246Y-108014917D01*
X35252439Y-108085236D01*
X35354068Y-108134168D01*
X35431171Y-108151760D01*
X35460482Y-108158448D01*
X35464037Y-108159259D01*
X35520434Y-108159255D01*
X35520934Y-108159255D01*
X48519934Y-108159255D01*
X48520533Y-108159255D01*
X48520563Y-108159242D01*
X48520644Y-108159234D01*
X48576827Y-108159241D01*
X48686789Y-108134155D01*
X48788409Y-108085225D01*
X48876592Y-108014907D01*
X48946914Y-107926727D01*
X48995848Y-107825109D01*
X49020939Y-107715148D01*
X49020934Y-107659105D01*
X54069845Y-107659105D01*
X54069850Y-107711641D01*
X54069850Y-107711646D01*
X54069851Y-107715153D01*
X54070632Y-107718572D01*
X54070633Y-107718578D01*
X54094180Y-107821695D01*
X54094181Y-107821699D01*
X54094962Y-107825117D01*
X54096481Y-107828270D01*
X54096483Y-107828276D01*
X54142386Y-107923570D01*
X54143912Y-107926737D01*
X54149492Y-107933733D01*
X54212047Y-108012161D01*
X54214246Y-108014917D01*
X54302439Y-108085236D01*
X54404068Y-108134168D01*
X54481171Y-108151760D01*
X54510482Y-108158448D01*
X54514037Y-108159259D01*
X54570434Y-108159255D01*
X54570934Y-108159255D01*
X67569934Y-108159255D01*
X67570533Y-108159255D01*
X67570568Y-108159239D01*
X67570626Y-108159232D01*
X67626824Y-108159231D01*
X67736776Y-108134130D01*
X67838387Y-108085195D01*
X67926563Y-108014878D01*
X67996883Y-107926705D01*
X68045823Y-107825096D01*
X68070925Y-107715156D01*
X73119841Y-107715156D01*
X73120621Y-107718572D01*
X73120622Y-107718579D01*
X73144155Y-107821706D01*
X73144157Y-107821713D01*
X73144937Y-107825129D01*
X73193881Y-107926759D01*
X73196069Y-107929502D01*
X73196072Y-107929507D01*
X73236154Y-107979761D01*
X73264217Y-108014946D01*
X73352417Y-108085266D01*
X73355575Y-108086786D01*
X73355578Y-108086788D01*
X73400970Y-108108638D01*
X73454055Y-108134192D01*
X73564034Y-108159269D01*
X73620434Y-108159255D01*
X73620934Y-108159255D01*
X86619934Y-108159255D01*
X86620533Y-108159255D01*
X86620568Y-108159239D01*
X86620626Y-108159232D01*
X86676824Y-108159231D01*
X86786776Y-108134130D01*
X86888387Y-108085195D01*
X86976563Y-108014878D01*
X87046883Y-107926705D01*
X87095823Y-107825096D01*
X87120925Y-107715156D01*
X92169841Y-107715156D01*
X92170621Y-107718572D01*
X92170622Y-107718579D01*
X92194155Y-107821706D01*
X92194157Y-107821713D01*
X92194937Y-107825129D01*
X92243881Y-107926759D01*
X92246069Y-107929502D01*
X92246072Y-107929507D01*
X92286154Y-107979761D01*
X92314217Y-108014946D01*
X92402417Y-108085266D01*
X92405575Y-108086786D01*
X92405578Y-108086788D01*
X92450970Y-108108638D01*
X92504055Y-108134192D01*
X92614034Y-108159269D01*
X92670434Y-108159255D01*
X92670934Y-108159255D01*
X105669934Y-108159255D01*
X105670533Y-108159255D01*
X105670568Y-108159239D01*
X105670626Y-108159232D01*
X105726824Y-108159231D01*
X105836776Y-108134130D01*
X105938387Y-108085195D01*
X106026563Y-108014878D01*
X106096883Y-107926705D01*
X106145823Y-107825096D01*
X106170925Y-107715156D01*
X111219841Y-107715156D01*
X111220621Y-107718572D01*
X111220622Y-107718579D01*
X111244155Y-107821706D01*
X111244157Y-107821713D01*
X111244937Y-107825129D01*
X111293881Y-107926759D01*
X111296069Y-107929502D01*
X111296072Y-107929507D01*
X111336154Y-107979761D01*
X111364217Y-108014946D01*
X111452417Y-108085266D01*
X111455575Y-108086786D01*
X111455578Y-108086788D01*
X111500970Y-108108638D01*
X111554055Y-108134192D01*
X111664034Y-108159269D01*
X111720434Y-108159255D01*
X111720934Y-108159255D01*
X124719934Y-108159255D01*
X124720533Y-108159255D01*
X124720568Y-108159239D01*
X124720626Y-108159232D01*
X124776824Y-108159231D01*
X124886776Y-108134130D01*
X124988387Y-108085195D01*
X125076563Y-108014878D01*
X125146883Y-107926705D01*
X125195823Y-107825096D01*
X125220925Y-107715156D01*
X130269841Y-107715156D01*
X130270621Y-107718572D01*
X130270622Y-107718579D01*
X130294155Y-107821706D01*
X130294157Y-107821713D01*
X130294937Y-107825129D01*
X130343881Y-107926759D01*
X130346069Y-107929502D01*
X130346072Y-107929507D01*
X130386154Y-107979761D01*
X130414217Y-108014946D01*
X130502417Y-108085266D01*
X130505575Y-108086786D01*
X130505578Y-108086788D01*
X130550970Y-108108638D01*
X130604055Y-108134192D01*
X130714034Y-108159269D01*
X130770434Y-108159255D01*
X130770934Y-108159255D01*
X143769934Y-108159255D01*
X143770533Y-108159255D01*
X143770568Y-108159239D01*
X143770626Y-108159232D01*
X143826824Y-108159231D01*
X143936776Y-108134130D01*
X144038387Y-108085195D01*
X144126563Y-108014878D01*
X144196883Y-107926705D01*
X144245823Y-107825096D01*
X144270925Y-107715156D01*
X149319841Y-107715156D01*
X149320621Y-107718572D01*
X149320622Y-107718579D01*
X149344155Y-107821706D01*
X149344157Y-107821713D01*
X149344937Y-107825129D01*
X149393881Y-107926759D01*
X149396069Y-107929502D01*
X149396072Y-107929507D01*
X149436154Y-107979761D01*
X149464217Y-108014946D01*
X149552417Y-108085266D01*
X149555575Y-108086786D01*
X149555578Y-108086788D01*
X149600970Y-108108638D01*
X149654055Y-108134192D01*
X149764034Y-108159269D01*
X149820434Y-108159255D01*
X149820934Y-108159255D01*
X162819934Y-108159255D01*
X162820533Y-108159255D01*
X162820568Y-108159239D01*
X162820626Y-108159232D01*
X162876824Y-108159231D01*
X162986776Y-108134130D01*
X163088387Y-108085195D01*
X163176563Y-108014878D01*
X163246883Y-107926705D01*
X163295823Y-107825096D01*
X163320925Y-107715156D01*
X168369841Y-107715156D01*
X168370621Y-107718572D01*
X168370622Y-107718579D01*
X168394155Y-107821706D01*
X168394157Y-107821713D01*
X168394937Y-107825129D01*
X168443881Y-107926759D01*
X168446069Y-107929502D01*
X168446072Y-107929507D01*
X168486154Y-107979761D01*
X168514217Y-108014946D01*
X168602417Y-108085266D01*
X168605575Y-108086786D01*
X168605578Y-108086788D01*
X168650970Y-108108638D01*
X168704055Y-108134192D01*
X168814034Y-108159269D01*
X168870434Y-108159255D01*
X168870934Y-108159255D01*
X181869934Y-108159255D01*
X181870533Y-108159255D01*
X181870568Y-108159239D01*
X181870626Y-108159232D01*
X181926824Y-108159231D01*
X182036776Y-108134130D01*
X182138387Y-108085195D01*
X182226563Y-108014878D01*
X182296883Y-107926705D01*
X182345823Y-107825096D01*
X182370925Y-107715156D01*
X187419841Y-107715156D01*
X187420621Y-107718572D01*
X187420622Y-107718579D01*
X187444155Y-107821706D01*
X187444157Y-107821713D01*
X187444937Y-107825129D01*
X187493881Y-107926759D01*
X187496069Y-107929502D01*
X187496072Y-107929507D01*
X187536154Y-107979761D01*
X187564217Y-108014946D01*
X187652417Y-108085266D01*
X187655575Y-108086786D01*
X187655578Y-108086788D01*
X187700970Y-108108638D01*
X187754055Y-108134192D01*
X187864034Y-108159269D01*
X187920434Y-108159255D01*
X187920934Y-108159255D01*
X200919934Y-108159255D01*
X200920533Y-108159255D01*
X200920568Y-108159239D01*
X200920626Y-108159232D01*
X200976824Y-108159231D01*
X201086776Y-108134130D01*
X201188387Y-108085195D01*
X201276563Y-108014878D01*
X201346883Y-107926705D01*
X201395823Y-107825096D01*
X201420925Y-107715156D01*
X206469841Y-107715156D01*
X206470621Y-107718572D01*
X206470622Y-107718579D01*
X206494155Y-107821706D01*
X206494157Y-107821713D01*
X206494937Y-107825129D01*
X206543881Y-107926759D01*
X206546069Y-107929502D01*
X206546072Y-107929507D01*
X206586154Y-107979761D01*
X206614217Y-108014946D01*
X206702417Y-108085266D01*
X206705575Y-108086786D01*
X206705578Y-108086788D01*
X206750970Y-108108638D01*
X206804055Y-108134192D01*
X206914034Y-108159269D01*
X206970434Y-108159255D01*
X206970934Y-108159255D01*
X219969934Y-108159255D01*
X219970533Y-108159255D01*
X219970568Y-108159239D01*
X219970626Y-108159232D01*
X220026824Y-108159231D01*
X220136776Y-108134130D01*
X220238387Y-108085195D01*
X220326563Y-108014878D01*
X220396883Y-107926705D01*
X220445823Y-107825096D01*
X220470925Y-107715156D01*
X225519841Y-107715156D01*
X225520621Y-107718572D01*
X225520622Y-107718579D01*
X225544155Y-107821706D01*
X225544157Y-107821713D01*
X225544937Y-107825129D01*
X225593881Y-107926759D01*
X225596069Y-107929502D01*
X225596072Y-107929507D01*
X225636154Y-107979761D01*
X225664217Y-108014946D01*
X225752417Y-108085266D01*
X225755575Y-108086786D01*
X225755578Y-108086788D01*
X225800970Y-108108638D01*
X225854055Y-108134192D01*
X225964034Y-108159269D01*
X226020434Y-108159255D01*
X226020934Y-108159255D01*
X239019934Y-108159255D01*
X239020533Y-108159255D01*
X239020568Y-108159239D01*
X239020626Y-108159232D01*
X239076824Y-108159231D01*
X239186776Y-108134130D01*
X239288387Y-108085195D01*
X239376563Y-108014878D01*
X239446883Y-107926705D01*
X239495823Y-107825096D01*
X239520928Y-107715145D01*
X239520934Y-107658755D01*
X239520934Y-107658255D01*
X239520934Y-94658656D01*
X239520873Y-94658509D01*
X239520843Y-94658214D01*
X239520841Y-94602370D01*
X239495743Y-94492428D01*
X239494203Y-94489231D01*
X239448335Y-94393982D01*
X239446815Y-94390825D01*
X239444632Y-94388087D01*
X239444630Y-94388084D01*
X239411295Y-94346279D01*
X239376510Y-94302654D01*
X239373766Y-94300465D01*
X239373764Y-94300463D01*
X239291094Y-94234520D01*
X239291093Y-94234519D01*
X239288351Y-94232332D01*
X239285188Y-94230808D01*
X239189920Y-94184910D01*
X239189917Y-94184909D01*
X239186756Y-94183386D01*
X239183337Y-94182605D01*
X239183332Y-94182603D01*
X239080236Y-94159049D01*
X239080230Y-94159048D01*
X239076819Y-94158269D01*
X239073314Y-94158268D01*
X239073313Y-94158268D01*
X239020533Y-94158255D01*
X238680584Y-94158255D01*
X238637104Y-94140652D01*
X238618116Y-94097758D01*
X238634317Y-94053736D01*
X238676580Y-94033383D01*
X238767370Y-94027554D01*
X239069920Y-93968633D01*
X239362452Y-93871505D01*
X239640162Y-93737768D01*
X239898489Y-93569615D01*
X240133193Y-93369809D01*
X240340419Y-93141630D01*
X240516765Y-92888824D01*
X240659336Y-92615544D01*
X240765789Y-92326276D01*
X240834378Y-92025769D01*
X240863975Y-91718959D01*
X240854096Y-91410883D01*
X240804902Y-91106600D01*
X240736823Y-90877222D01*
X240717769Y-90813022D01*
X240717768Y-90813021D01*
X240717200Y-90811105D01*
X240592432Y-90529252D01*
X240512061Y-90396672D01*
X240433684Y-90267380D01*
X240433682Y-90267378D01*
X240432646Y-90265668D01*
X240240465Y-90024680D01*
X240019045Y-89810247D01*
X240017435Y-89809045D01*
X240017431Y-89809042D01*
X239773637Y-89627094D01*
X239773633Y-89627091D01*
X239772022Y-89625889D01*
X239503451Y-89474633D01*
X239501591Y-89473880D01*
X239501587Y-89473878D01*
X239219600Y-89359713D01*
X239219594Y-89359711D01*
X239217744Y-89358962D01*
X239215817Y-89358456D01*
X239215809Y-89358454D01*
X238921523Y-89281284D01*
X238921524Y-89281284D01*
X238919590Y-89280777D01*
X238917611Y-89280521D01*
X238917607Y-89280521D01*
X238615878Y-89241617D01*
X238615865Y-89241616D01*
X238613886Y-89241361D01*
X238382795Y-89241361D01*
X238381820Y-89241423D01*
X238381807Y-89241424D01*
X238154165Y-89256039D01*
X238154152Y-89256040D01*
X238152168Y-89256168D01*
X238150211Y-89256548D01*
X238150196Y-89256551D01*
X237851594Y-89314704D01*
X237851591Y-89314704D01*
X237849618Y-89315089D01*
X237847717Y-89315720D01*
X237847710Y-89315722D01*
X237558987Y-89411585D01*
X237558975Y-89411589D01*
X237557086Y-89412217D01*
X237555289Y-89413082D01*
X237555285Y-89413084D01*
X237425429Y-89475619D01*
X237279376Y-89545954D01*
X237277698Y-89547045D01*
X237277693Y-89547049D01*
X237022738Y-89713007D01*
X237022731Y-89713011D01*
X237021049Y-89714107D01*
X237019518Y-89715409D01*
X237019513Y-89715414D01*
X236787876Y-89912609D01*
X236787870Y-89912614D01*
X236786345Y-89913913D01*
X236785006Y-89915387D01*
X236784994Y-89915399D01*
X236580469Y-90140604D01*
X236580459Y-90140616D01*
X236579119Y-90142092D01*
X236577976Y-90143729D01*
X236577970Y-90143738D01*
X236403917Y-90393257D01*
X236403912Y-90393264D01*
X236402773Y-90394898D01*
X236401850Y-90396666D01*
X236401847Y-90396672D01*
X236261129Y-90666399D01*
X236261122Y-90666413D01*
X236260202Y-90668178D01*
X236259514Y-90670047D01*
X236259508Y-90670061D01*
X236154444Y-90955555D01*
X236154440Y-90955567D01*
X236153749Y-90957446D01*
X236153303Y-90959396D01*
X236153301Y-90959406D01*
X236085604Y-91256004D01*
X236085601Y-91256016D01*
X236085160Y-91257953D01*
X236084969Y-91259932D01*
X236084967Y-91259945D01*
X236055755Y-91562762D01*
X236055754Y-91562777D01*
X236055563Y-91564763D01*
X236055627Y-91566762D01*
X236055627Y-91566766D01*
X236065377Y-91870841D01*
X236065378Y-91870855D01*
X236065442Y-91872839D01*
X236065758Y-91874798D01*
X236065760Y-91874811D01*
X236114316Y-92175147D01*
X236114318Y-92175157D01*
X236114636Y-92177122D01*
X236115201Y-92179028D01*
X236115204Y-92179038D01*
X236201768Y-92470699D01*
X236201771Y-92470709D01*
X236202338Y-92472617D01*
X236203143Y-92474437D01*
X236203147Y-92474446D01*
X236284897Y-92659120D01*
X236327106Y-92754470D01*
X236328137Y-92756172D01*
X236328143Y-92756182D01*
X236485853Y-93016341D01*
X236485857Y-93016347D01*
X236486892Y-93018054D01*
X236679073Y-93259042D01*
X236900493Y-93473475D01*
X237147516Y-93657833D01*
X237416087Y-93809089D01*
X237701794Y-93924760D01*
X237999948Y-94002945D01*
X238221936Y-94031567D01*
X238239006Y-94033768D01*
X238279248Y-94056009D01*
X238293386Y-94099759D01*
X238273769Y-94141343D01*
X238231014Y-94158255D01*
X226020488Y-94158255D01*
X226020434Y-94158244D01*
X226020434Y-94158234D01*
X226020385Y-94158233D01*
X226020381Y-94158233D01*
X225967551Y-94158231D01*
X225967549Y-94158231D01*
X225964039Y-94158231D01*
X225960617Y-94159011D01*
X225960615Y-94159012D01*
X225857495Y-94182543D01*
X225857490Y-94182544D01*
X225854075Y-94183324D01*
X225850920Y-94184842D01*
X225850912Y-94184846D01*
X225755615Y-94230737D01*
X225755606Y-94230742D01*
X225752453Y-94232261D01*
X225749709Y-94234448D01*
X225749706Y-94234451D01*
X225667015Y-94300395D01*
X225667010Y-94300399D01*
X225664270Y-94302585D01*
X225662085Y-94305324D01*
X225662081Y-94305329D01*
X225596134Y-94388030D01*
X225596131Y-94388034D01*
X225593949Y-94390771D01*
X225592431Y-94393923D01*
X225592427Y-94393930D01*
X225546540Y-94489231D01*
X225545017Y-94492395D01*
X225544236Y-94495814D01*
X225544236Y-94495817D01*
X225532417Y-94547622D01*
X225519928Y-94602360D01*
X225519928Y-94605870D01*
X225519928Y-94605874D01*
X225519934Y-94658755D01*
X225519934Y-107658536D01*
X225519890Y-107658755D01*
X225519845Y-107658755D01*
X225519844Y-107658978D01*
X225519844Y-107658983D01*
X225519841Y-107711634D01*
X225519841Y-107715156D01*
X220470925Y-107715156D01*
X220470928Y-107715145D01*
X220470934Y-107658755D01*
X220470934Y-107658255D01*
X220470934Y-94658656D01*
X220470873Y-94658509D01*
X220470843Y-94658214D01*
X220470841Y-94602370D01*
X220445743Y-94492428D01*
X220444203Y-94489231D01*
X220398335Y-94393982D01*
X220396815Y-94390825D01*
X220394632Y-94388087D01*
X220394630Y-94388084D01*
X220361295Y-94346279D01*
X220326510Y-94302654D01*
X220323766Y-94300465D01*
X220323764Y-94300463D01*
X220241094Y-94234520D01*
X220241093Y-94234519D01*
X220238351Y-94232332D01*
X220235188Y-94230808D01*
X220139920Y-94184910D01*
X220139917Y-94184909D01*
X220136756Y-94183386D01*
X220133337Y-94182605D01*
X220133332Y-94182603D01*
X220030236Y-94159049D01*
X220030230Y-94159048D01*
X220026819Y-94158269D01*
X220023314Y-94158268D01*
X220023313Y-94158268D01*
X219970533Y-94158255D01*
X206970488Y-94158255D01*
X206970434Y-94158244D01*
X206970434Y-94158234D01*
X206970385Y-94158233D01*
X206970381Y-94158233D01*
X206917551Y-94158231D01*
X206917549Y-94158231D01*
X206914039Y-94158231D01*
X206910617Y-94159011D01*
X206910615Y-94159012D01*
X206807495Y-94182543D01*
X206807490Y-94182544D01*
X206804075Y-94183324D01*
X206800920Y-94184842D01*
X206800912Y-94184846D01*
X206705615Y-94230737D01*
X206705606Y-94230742D01*
X206702453Y-94232261D01*
X206699709Y-94234448D01*
X206699706Y-94234451D01*
X206617015Y-94300395D01*
X206617010Y-94300399D01*
X206614270Y-94302585D01*
X206612085Y-94305324D01*
X206612081Y-94305329D01*
X206546134Y-94388030D01*
X206546131Y-94388034D01*
X206543949Y-94390771D01*
X206542431Y-94393923D01*
X206542427Y-94393930D01*
X206496540Y-94489231D01*
X206495017Y-94492395D01*
X206494236Y-94495814D01*
X206494236Y-94495817D01*
X206482417Y-94547622D01*
X206469928Y-94602360D01*
X206469928Y-94605870D01*
X206469928Y-94605874D01*
X206469934Y-94658755D01*
X206469934Y-107658536D01*
X206469890Y-107658755D01*
X206469845Y-107658755D01*
X206469844Y-107658978D01*
X206469844Y-107658983D01*
X206469841Y-107711634D01*
X206469841Y-107715156D01*
X201420925Y-107715156D01*
X201420928Y-107715145D01*
X201420934Y-107658755D01*
X201420934Y-107658255D01*
X201420934Y-94658656D01*
X201420873Y-94658509D01*
X201420843Y-94658214D01*
X201420841Y-94602370D01*
X201395743Y-94492428D01*
X201394203Y-94489231D01*
X201348335Y-94393982D01*
X201346815Y-94390825D01*
X201344632Y-94388087D01*
X201344630Y-94388084D01*
X201311295Y-94346279D01*
X201276510Y-94302654D01*
X201273766Y-94300465D01*
X201273764Y-94300463D01*
X201191094Y-94234520D01*
X201191093Y-94234519D01*
X201188351Y-94232332D01*
X201185188Y-94230808D01*
X201089920Y-94184910D01*
X201089917Y-94184909D01*
X201086756Y-94183386D01*
X201083337Y-94182605D01*
X201083332Y-94182603D01*
X200980236Y-94159049D01*
X200980230Y-94159048D01*
X200976819Y-94158269D01*
X200973314Y-94158268D01*
X200973313Y-94158268D01*
X200920533Y-94158255D01*
X187920488Y-94158255D01*
X187920434Y-94158244D01*
X187920434Y-94158234D01*
X187920385Y-94158233D01*
X187920381Y-94158233D01*
X187867551Y-94158231D01*
X187867549Y-94158231D01*
X187864039Y-94158231D01*
X187860617Y-94159011D01*
X187860615Y-94159012D01*
X187757495Y-94182543D01*
X187757490Y-94182544D01*
X187754075Y-94183324D01*
X187750920Y-94184842D01*
X187750912Y-94184846D01*
X187655615Y-94230737D01*
X187655606Y-94230742D01*
X187652453Y-94232261D01*
X187649709Y-94234448D01*
X187649706Y-94234451D01*
X187567015Y-94300395D01*
X187567010Y-94300399D01*
X187564270Y-94302585D01*
X187562085Y-94305324D01*
X187562081Y-94305329D01*
X187496134Y-94388030D01*
X187496131Y-94388034D01*
X187493949Y-94390771D01*
X187492431Y-94393923D01*
X187492427Y-94393930D01*
X187446540Y-94489231D01*
X187445017Y-94492395D01*
X187444236Y-94495814D01*
X187444236Y-94495817D01*
X187432417Y-94547622D01*
X187419928Y-94602360D01*
X187419928Y-94605870D01*
X187419928Y-94605874D01*
X187419934Y-94658755D01*
X187419934Y-107658536D01*
X187419890Y-107658755D01*
X187419845Y-107658755D01*
X187419844Y-107658978D01*
X187419844Y-107658983D01*
X187419841Y-107711634D01*
X187419841Y-107715156D01*
X182370925Y-107715156D01*
X182370928Y-107715145D01*
X182370934Y-107658755D01*
X182370934Y-107658255D01*
X182370934Y-94658656D01*
X182370873Y-94658509D01*
X182370843Y-94658214D01*
X182370841Y-94602370D01*
X182345743Y-94492428D01*
X182344203Y-94489231D01*
X182298335Y-94393982D01*
X182296815Y-94390825D01*
X182294632Y-94388087D01*
X182294630Y-94388084D01*
X182261295Y-94346279D01*
X182226510Y-94302654D01*
X182223766Y-94300465D01*
X182223764Y-94300463D01*
X182141094Y-94234520D01*
X182141093Y-94234519D01*
X182138351Y-94232332D01*
X182135188Y-94230808D01*
X182039920Y-94184910D01*
X182039917Y-94184909D01*
X182036756Y-94183386D01*
X182033337Y-94182605D01*
X182033332Y-94182603D01*
X181930236Y-94159049D01*
X181930230Y-94159048D01*
X181926819Y-94158269D01*
X181923314Y-94158268D01*
X181923313Y-94158268D01*
X181870533Y-94158255D01*
X168870488Y-94158255D01*
X168870434Y-94158244D01*
X168870434Y-94158234D01*
X168870385Y-94158233D01*
X168870381Y-94158233D01*
X168817551Y-94158231D01*
X168817549Y-94158231D01*
X168814039Y-94158231D01*
X168810617Y-94159011D01*
X168810615Y-94159012D01*
X168707495Y-94182543D01*
X168707490Y-94182544D01*
X168704075Y-94183324D01*
X168700920Y-94184842D01*
X168700912Y-94184846D01*
X168605615Y-94230737D01*
X168605606Y-94230742D01*
X168602453Y-94232261D01*
X168599709Y-94234448D01*
X168599706Y-94234451D01*
X168517015Y-94300395D01*
X168517010Y-94300399D01*
X168514270Y-94302585D01*
X168512085Y-94305324D01*
X168512081Y-94305329D01*
X168446134Y-94388030D01*
X168446131Y-94388034D01*
X168443949Y-94390771D01*
X168442431Y-94393923D01*
X168442427Y-94393930D01*
X168396540Y-94489231D01*
X168395017Y-94492395D01*
X168394236Y-94495814D01*
X168394236Y-94495817D01*
X168382417Y-94547622D01*
X168369928Y-94602360D01*
X168369928Y-94605870D01*
X168369928Y-94605874D01*
X168369934Y-94658755D01*
X168369934Y-107658536D01*
X168369890Y-107658755D01*
X168369845Y-107658755D01*
X168369844Y-107658978D01*
X168369844Y-107658983D01*
X168369841Y-107711634D01*
X168369841Y-107715156D01*
X163320925Y-107715156D01*
X163320928Y-107715145D01*
X163320934Y-107658755D01*
X163320934Y-107658255D01*
X163320934Y-94658656D01*
X163320873Y-94658509D01*
X163320843Y-94658214D01*
X163320841Y-94602370D01*
X163295743Y-94492428D01*
X163294203Y-94489231D01*
X163248335Y-94393982D01*
X163246815Y-94390825D01*
X163244632Y-94388087D01*
X163244630Y-94388084D01*
X163211295Y-94346279D01*
X163176510Y-94302654D01*
X163173766Y-94300465D01*
X163173764Y-94300463D01*
X163091094Y-94234520D01*
X163091093Y-94234519D01*
X163088351Y-94232332D01*
X163085188Y-94230808D01*
X162989920Y-94184910D01*
X162989917Y-94184909D01*
X162986756Y-94183386D01*
X162983337Y-94182605D01*
X162983332Y-94182603D01*
X162880236Y-94159049D01*
X162880230Y-94159048D01*
X162876819Y-94158269D01*
X162873314Y-94158268D01*
X162873313Y-94158268D01*
X162820533Y-94158255D01*
X160323939Y-94158255D01*
X160316944Y-94157862D01*
X160313688Y-94157495D01*
X160294863Y-94155375D01*
X160293698Y-94155233D01*
X160208222Y-94143975D01*
X160195745Y-94141004D01*
X160156082Y-94127129D01*
X160152802Y-94125877D01*
X160093285Y-94101224D01*
X160083955Y-94096405D01*
X160083813Y-94096316D01*
X160045245Y-94072086D01*
X160040447Y-94068749D01*
X160039403Y-94067948D01*
X159991991Y-94031567D01*
X159985850Y-94026182D01*
X159953016Y-93993352D01*
X159947624Y-93987205D01*
X159910307Y-93938578D01*
X159906981Y-93933797D01*
X159882823Y-93895359D01*
X159878009Y-93886041D01*
X159853019Y-93825723D01*
X159851789Y-93822502D01*
X159838196Y-93783670D01*
X159835224Y-93771185D01*
X159823373Y-93681095D01*
X159823258Y-93680163D01*
X159821326Y-93663034D01*
X159820934Y-93656036D01*
X159820934Y-92659120D01*
X159820934Y-92658656D01*
X159820873Y-92658509D01*
X159820843Y-92658214D01*
X159820841Y-92602370D01*
X159795743Y-92492428D01*
X159794203Y-92489231D01*
X159748335Y-92393982D01*
X159746815Y-92390825D01*
X159744632Y-92388087D01*
X159744630Y-92388084D01*
X159711295Y-92346279D01*
X159676510Y-92302654D01*
X159673766Y-92300465D01*
X159673764Y-92300463D01*
X159591094Y-92234520D01*
X159591093Y-92234519D01*
X159588351Y-92232332D01*
X159585188Y-92230808D01*
X159489920Y-92184910D01*
X159489917Y-92184909D01*
X159486756Y-92183386D01*
X159483337Y-92182605D01*
X159483332Y-92182603D01*
X159380236Y-92159049D01*
X159380230Y-92159048D01*
X159376819Y-92158269D01*
X159373314Y-92158268D01*
X159373313Y-92158268D01*
X159320533Y-92158255D01*
X153320488Y-92158255D01*
X153320434Y-92158244D01*
X153320434Y-92158234D01*
X153320385Y-92158233D01*
X153320381Y-92158233D01*
X153267551Y-92158231D01*
X153267549Y-92158231D01*
X153264039Y-92158231D01*
X153260617Y-92159011D01*
X153260615Y-92159012D01*
X153157495Y-92182543D01*
X153157490Y-92182544D01*
X153154075Y-92183324D01*
X153150920Y-92184842D01*
X153150912Y-92184846D01*
X153055615Y-92230737D01*
X153055606Y-92230742D01*
X153052453Y-92232261D01*
X153049709Y-92234448D01*
X153049706Y-92234451D01*
X152967015Y-92300395D01*
X152967010Y-92300399D01*
X152964270Y-92302585D01*
X152962085Y-92305324D01*
X152962081Y-92305329D01*
X152896134Y-92388030D01*
X152896131Y-92388034D01*
X152893949Y-92390771D01*
X152892431Y-92393923D01*
X152892427Y-92393930D01*
X152854540Y-92472617D01*
X152845017Y-92492395D01*
X152819928Y-92602360D01*
X152819928Y-92605870D01*
X152819928Y-92605874D01*
X152819934Y-92658755D01*
X152819934Y-93655243D01*
X152819540Y-93662248D01*
X152817007Y-93684704D01*
X152816867Y-93685854D01*
X152805688Y-93770795D01*
X152802713Y-93783286D01*
X152788537Y-93823790D01*
X152787289Y-93827061D01*
X152763046Y-93885591D01*
X152758222Y-93894927D01*
X152755469Y-93899308D01*
X152733397Y-93934430D01*
X152730061Y-93939225D01*
X152693551Y-93986799D01*
X152688163Y-93992943D01*
X152654675Y-94026430D01*
X152648523Y-94031824D01*
X152600748Y-94068474D01*
X152595959Y-94071805D01*
X152556776Y-94096426D01*
X152547430Y-94101253D01*
X152488023Y-94125847D01*
X152484760Y-94127092D01*
X152445160Y-94140950D01*
X152432703Y-94143919D01*
X152347874Y-94155128D01*
X152346691Y-94155273D01*
X152323743Y-94157861D01*
X152316739Y-94158255D01*
X149820488Y-94158255D01*
X149820434Y-94158244D01*
X149820434Y-94158234D01*
X149820385Y-94158233D01*
X149820381Y-94158233D01*
X149767551Y-94158231D01*
X149767549Y-94158231D01*
X149764039Y-94158231D01*
X149760617Y-94159011D01*
X149760615Y-94159012D01*
X149657495Y-94182543D01*
X149657490Y-94182544D01*
X149654075Y-94183324D01*
X149650920Y-94184842D01*
X149650912Y-94184846D01*
X149555615Y-94230737D01*
X149555606Y-94230742D01*
X149552453Y-94232261D01*
X149549709Y-94234448D01*
X149549706Y-94234451D01*
X149467015Y-94300395D01*
X149467010Y-94300399D01*
X149464270Y-94302585D01*
X149462085Y-94305324D01*
X149462081Y-94305329D01*
X149396134Y-94388030D01*
X149396131Y-94388034D01*
X149393949Y-94390771D01*
X149392431Y-94393923D01*
X149392427Y-94393930D01*
X149346540Y-94489231D01*
X149345017Y-94492395D01*
X149344236Y-94495814D01*
X149344236Y-94495817D01*
X149332417Y-94547622D01*
X149319928Y-94602360D01*
X149319928Y-94605870D01*
X149319928Y-94605874D01*
X149319934Y-94658755D01*
X149319934Y-107658536D01*
X149319890Y-107658755D01*
X149319845Y-107658755D01*
X149319844Y-107658978D01*
X149319844Y-107658983D01*
X149319841Y-107711634D01*
X149319841Y-107715156D01*
X144270925Y-107715156D01*
X144270928Y-107715145D01*
X144270934Y-107658755D01*
X144270934Y-107658255D01*
X144270934Y-94658656D01*
X144270873Y-94658509D01*
X144270843Y-94658214D01*
X144270841Y-94602370D01*
X144245743Y-94492428D01*
X144244203Y-94489231D01*
X144198335Y-94393982D01*
X144196815Y-94390825D01*
X144194632Y-94388087D01*
X144194630Y-94388084D01*
X144161295Y-94346279D01*
X144126510Y-94302654D01*
X144123766Y-94300465D01*
X144123764Y-94300463D01*
X144041094Y-94234520D01*
X144041093Y-94234519D01*
X144038351Y-94232332D01*
X144035188Y-94230808D01*
X143939920Y-94184910D01*
X143939917Y-94184909D01*
X143936756Y-94183386D01*
X143933337Y-94182605D01*
X143933332Y-94182603D01*
X143830236Y-94159049D01*
X143830230Y-94159048D01*
X143826819Y-94158269D01*
X143823314Y-94158268D01*
X143823313Y-94158268D01*
X143770533Y-94158255D01*
X130770527Y-94158255D01*
X130770488Y-94158255D01*
X130770434Y-94158244D01*
X130770434Y-94158234D01*
X130770385Y-94158233D01*
X130770381Y-94158233D01*
X130717551Y-94158231D01*
X130717549Y-94158231D01*
X130714039Y-94158231D01*
X130710617Y-94159011D01*
X130710615Y-94159012D01*
X130607495Y-94182543D01*
X130607490Y-94182544D01*
X130604075Y-94183324D01*
X130600920Y-94184842D01*
X130600912Y-94184846D01*
X130505615Y-94230737D01*
X130505606Y-94230742D01*
X130502453Y-94232261D01*
X130499709Y-94234448D01*
X130499706Y-94234451D01*
X130417015Y-94300395D01*
X130417010Y-94300399D01*
X130414270Y-94302585D01*
X130412085Y-94305324D01*
X130412081Y-94305329D01*
X130346134Y-94388030D01*
X130346131Y-94388034D01*
X130343949Y-94390771D01*
X130342431Y-94393923D01*
X130342427Y-94393930D01*
X130296540Y-94489231D01*
X130295017Y-94492395D01*
X130294236Y-94495814D01*
X130294236Y-94495817D01*
X130282417Y-94547622D01*
X130269928Y-94602360D01*
X130269928Y-94605870D01*
X130269928Y-94605874D01*
X130269934Y-94658755D01*
X130269934Y-107658536D01*
X130269890Y-107658755D01*
X130269845Y-107658755D01*
X130269844Y-107658978D01*
X130269844Y-107658983D01*
X130269841Y-107711634D01*
X130269841Y-107715156D01*
X125220925Y-107715156D01*
X125220928Y-107715145D01*
X125220934Y-107658755D01*
X125220934Y-107658255D01*
X125220934Y-94658656D01*
X125220873Y-94658509D01*
X125220843Y-94658214D01*
X125220841Y-94602370D01*
X125195743Y-94492428D01*
X125194203Y-94489231D01*
X125148335Y-94393982D01*
X125146815Y-94390825D01*
X125144632Y-94388087D01*
X125144630Y-94388084D01*
X125111295Y-94346279D01*
X125076510Y-94302654D01*
X125073766Y-94300465D01*
X125073764Y-94300463D01*
X124991094Y-94234520D01*
X124991093Y-94234519D01*
X124988351Y-94232332D01*
X124985188Y-94230808D01*
X124889920Y-94184910D01*
X124889917Y-94184909D01*
X124886756Y-94183386D01*
X124883337Y-94182605D01*
X124883332Y-94182603D01*
X124780236Y-94159049D01*
X124780230Y-94159048D01*
X124776819Y-94158269D01*
X124773314Y-94158268D01*
X124773313Y-94158268D01*
X124720533Y-94158255D01*
X122223938Y-94158255D01*
X122216944Y-94157862D01*
X122195144Y-94155407D01*
X122193963Y-94155263D01*
X122108105Y-94143936D01*
X122095644Y-94140968D01*
X122056533Y-94127287D01*
X122053249Y-94126034D01*
X122051484Y-94125303D01*
X122043578Y-94122027D01*
X121993143Y-94101135D01*
X121983816Y-94096316D01*
X121945490Y-94072239D01*
X121940690Y-94068901D01*
X121939448Y-94067948D01*
X121891843Y-94031420D01*
X121885706Y-94026039D01*
X121853159Y-93993497D01*
X121847767Y-93987349D01*
X121810158Y-93938341D01*
X121806827Y-93933552D01*
X121782910Y-93895497D01*
X121778090Y-93886169D01*
X121752867Y-93825287D01*
X121751622Y-93822025D01*
X121747094Y-93809089D01*
X121738234Y-93783777D01*
X121735264Y-93771307D01*
X121723346Y-93680855D01*
X121723235Y-93679955D01*
X121721325Y-93663026D01*
X121720934Y-93656044D01*
X121720934Y-92659120D01*
X121720934Y-92658656D01*
X121720873Y-92658509D01*
X121720843Y-92658214D01*
X121720841Y-92602370D01*
X121695743Y-92492428D01*
X121694203Y-92489231D01*
X121648335Y-92393982D01*
X121646815Y-92390825D01*
X121644632Y-92388087D01*
X121644630Y-92388084D01*
X121611295Y-92346279D01*
X121576510Y-92302654D01*
X121573766Y-92300465D01*
X121573764Y-92300463D01*
X121491094Y-92234520D01*
X121491093Y-92234519D01*
X121488351Y-92232332D01*
X121485188Y-92230808D01*
X121389920Y-92184910D01*
X121389917Y-92184909D01*
X121386756Y-92183386D01*
X121383337Y-92182605D01*
X121383332Y-92182603D01*
X121280236Y-92159049D01*
X121280230Y-92159048D01*
X121276819Y-92158269D01*
X121273314Y-92158268D01*
X121273313Y-92158268D01*
X121220533Y-92158255D01*
X115220488Y-92158255D01*
X115220434Y-92158244D01*
X115220434Y-92158234D01*
X115220385Y-92158233D01*
X115220381Y-92158233D01*
X115167551Y-92158231D01*
X115167549Y-92158231D01*
X115164039Y-92158231D01*
X115160617Y-92159011D01*
X115160615Y-92159012D01*
X115057495Y-92182543D01*
X115057490Y-92182544D01*
X115054075Y-92183324D01*
X115050920Y-92184842D01*
X115050912Y-92184846D01*
X114955615Y-92230737D01*
X114955606Y-92230742D01*
X114952453Y-92232261D01*
X114949709Y-92234448D01*
X114949706Y-92234451D01*
X114867015Y-92300395D01*
X114867010Y-92300399D01*
X114864270Y-92302585D01*
X114862085Y-92305324D01*
X114862081Y-92305329D01*
X114796134Y-92388030D01*
X114796131Y-92388034D01*
X114793949Y-92390771D01*
X114792431Y-92393923D01*
X114792427Y-92393930D01*
X114754540Y-92472617D01*
X114745017Y-92492395D01*
X114719928Y-92602360D01*
X114719928Y-92605870D01*
X114719928Y-92605874D01*
X114719934Y-92658755D01*
X114719934Y-93655243D01*
X114719540Y-93662250D01*
X114716880Y-93685826D01*
X114716745Y-93686930D01*
X114705823Y-93770379D01*
X114702843Y-93782914D01*
X114687996Y-93825335D01*
X114686748Y-93828607D01*
X114663336Y-93885129D01*
X114658512Y-93894466D01*
X114632874Y-93935264D01*
X114629537Y-93940060D01*
X114594051Y-93986299D01*
X114588663Y-93992443D01*
X114554173Y-94026932D01*
X114548021Y-94032326D01*
X114501586Y-94067948D01*
X114496797Y-94071279D01*
X114456312Y-94096718D01*
X114446966Y-94101545D01*
X114389579Y-94125303D01*
X114386316Y-94126548D01*
X114344792Y-94141079D01*
X114332292Y-94144054D01*
X114248878Y-94155016D01*
X114247738Y-94155155D01*
X114223743Y-94157861D01*
X114216739Y-94158255D01*
X111720488Y-94158255D01*
X111720434Y-94158244D01*
X111720434Y-94158234D01*
X111720385Y-94158233D01*
X111720381Y-94158233D01*
X111667551Y-94158231D01*
X111667549Y-94158231D01*
X111664039Y-94158231D01*
X111660617Y-94159011D01*
X111660615Y-94159012D01*
X111557495Y-94182543D01*
X111557490Y-94182544D01*
X111554075Y-94183324D01*
X111550920Y-94184842D01*
X111550912Y-94184846D01*
X111455615Y-94230737D01*
X111455606Y-94230742D01*
X111452453Y-94232261D01*
X111449709Y-94234448D01*
X111449706Y-94234451D01*
X111367015Y-94300395D01*
X111367010Y-94300399D01*
X111364270Y-94302585D01*
X111362085Y-94305324D01*
X111362081Y-94305329D01*
X111296134Y-94388030D01*
X111296131Y-94388034D01*
X111293949Y-94390771D01*
X111292431Y-94393923D01*
X111292427Y-94393930D01*
X111246540Y-94489231D01*
X111245017Y-94492395D01*
X111244236Y-94495814D01*
X111244236Y-94495817D01*
X111232417Y-94547622D01*
X111219928Y-94602360D01*
X111219928Y-94605870D01*
X111219928Y-94605874D01*
X111219934Y-94658755D01*
X111219934Y-107658536D01*
X111219890Y-107658755D01*
X111219845Y-107658755D01*
X111219844Y-107658978D01*
X111219844Y-107658983D01*
X111219841Y-107711634D01*
X111219841Y-107715156D01*
X106170925Y-107715156D01*
X106170928Y-107715145D01*
X106170934Y-107658755D01*
X106170934Y-107658255D01*
X106170934Y-94658656D01*
X106170873Y-94658509D01*
X106170843Y-94658214D01*
X106170841Y-94602370D01*
X106145743Y-94492428D01*
X106144203Y-94489231D01*
X106098335Y-94393982D01*
X106096815Y-94390825D01*
X106094632Y-94388087D01*
X106094630Y-94388084D01*
X106061295Y-94346279D01*
X106026510Y-94302654D01*
X106023766Y-94300465D01*
X106023764Y-94300463D01*
X105941094Y-94234520D01*
X105941093Y-94234519D01*
X105938351Y-94232332D01*
X105935188Y-94230808D01*
X105839920Y-94184910D01*
X105839917Y-94184909D01*
X105836756Y-94183386D01*
X105833337Y-94182605D01*
X105833332Y-94182603D01*
X105730236Y-94159049D01*
X105730230Y-94159048D01*
X105726819Y-94158269D01*
X105723314Y-94158268D01*
X105723313Y-94158268D01*
X105670533Y-94158255D01*
X92670488Y-94158255D01*
X92670434Y-94158244D01*
X92670434Y-94158234D01*
X92670385Y-94158233D01*
X92670381Y-94158233D01*
X92617551Y-94158231D01*
X92617549Y-94158231D01*
X92614039Y-94158231D01*
X92610617Y-94159011D01*
X92610615Y-94159012D01*
X92507495Y-94182543D01*
X92507490Y-94182544D01*
X92504075Y-94183324D01*
X92500920Y-94184842D01*
X92500912Y-94184846D01*
X92405615Y-94230737D01*
X92405606Y-94230742D01*
X92402453Y-94232261D01*
X92399709Y-94234448D01*
X92399706Y-94234451D01*
X92317015Y-94300395D01*
X92317010Y-94300399D01*
X92314270Y-94302585D01*
X92312085Y-94305324D01*
X92312081Y-94305329D01*
X92246134Y-94388030D01*
X92246131Y-94388034D01*
X92243949Y-94390771D01*
X92242431Y-94393923D01*
X92242427Y-94393930D01*
X92196540Y-94489231D01*
X92195017Y-94492395D01*
X92194236Y-94495814D01*
X92194236Y-94495817D01*
X92182417Y-94547622D01*
X92169928Y-94602360D01*
X92169928Y-94605870D01*
X92169928Y-94605874D01*
X92169934Y-94658755D01*
X92169934Y-107658536D01*
X92169890Y-107658755D01*
X92169845Y-107658755D01*
X92169844Y-107658978D01*
X92169844Y-107658983D01*
X92169841Y-107711634D01*
X92169841Y-107715156D01*
X87120925Y-107715156D01*
X87120928Y-107715145D01*
X87120934Y-107658755D01*
X87120934Y-107658255D01*
X87120934Y-94658656D01*
X87120873Y-94658509D01*
X87120843Y-94658214D01*
X87120841Y-94602370D01*
X87095743Y-94492428D01*
X87094203Y-94489231D01*
X87048335Y-94393982D01*
X87046815Y-94390825D01*
X87044632Y-94388087D01*
X87044630Y-94388084D01*
X87011295Y-94346279D01*
X86976510Y-94302654D01*
X86973766Y-94300465D01*
X86973764Y-94300463D01*
X86891094Y-94234520D01*
X86891093Y-94234519D01*
X86888351Y-94232332D01*
X86885188Y-94230808D01*
X86789920Y-94184910D01*
X86789917Y-94184909D01*
X86786756Y-94183386D01*
X86783337Y-94182605D01*
X86783332Y-94182603D01*
X86680236Y-94159049D01*
X86680230Y-94159048D01*
X86676819Y-94158269D01*
X86673314Y-94158268D01*
X86673313Y-94158268D01*
X86620533Y-94158255D01*
X73620488Y-94158255D01*
X73620434Y-94158244D01*
X73620434Y-94158234D01*
X73620385Y-94158233D01*
X73620381Y-94158233D01*
X73567551Y-94158231D01*
X73567549Y-94158231D01*
X73564039Y-94158231D01*
X73560617Y-94159011D01*
X73560615Y-94159012D01*
X73457495Y-94182543D01*
X73457490Y-94182544D01*
X73454075Y-94183324D01*
X73450920Y-94184842D01*
X73450912Y-94184846D01*
X73355615Y-94230737D01*
X73355606Y-94230742D01*
X73352453Y-94232261D01*
X73349709Y-94234448D01*
X73349706Y-94234451D01*
X73267015Y-94300395D01*
X73267010Y-94300399D01*
X73264270Y-94302585D01*
X73262085Y-94305324D01*
X73262081Y-94305329D01*
X73196134Y-94388030D01*
X73196131Y-94388034D01*
X73193949Y-94390771D01*
X73192431Y-94393923D01*
X73192427Y-94393930D01*
X73146540Y-94489231D01*
X73145017Y-94492395D01*
X73144236Y-94495814D01*
X73144236Y-94495817D01*
X73132417Y-94547622D01*
X73119928Y-94602360D01*
X73119928Y-94605870D01*
X73119928Y-94605874D01*
X73119934Y-94658755D01*
X73119934Y-107658536D01*
X73119890Y-107658755D01*
X73119845Y-107658755D01*
X73119844Y-107658978D01*
X73119844Y-107658983D01*
X73119841Y-107711634D01*
X73119841Y-107715156D01*
X68070925Y-107715156D01*
X68070928Y-107715145D01*
X68070934Y-107658755D01*
X68070934Y-107658255D01*
X68070934Y-94658656D01*
X68070873Y-94658509D01*
X68070843Y-94658214D01*
X68070841Y-94602370D01*
X68045743Y-94492428D01*
X68044203Y-94489231D01*
X67998335Y-94393982D01*
X67996815Y-94390825D01*
X67994632Y-94388087D01*
X67994630Y-94388084D01*
X67961295Y-94346279D01*
X67926510Y-94302654D01*
X67923766Y-94300465D01*
X67923764Y-94300463D01*
X67841094Y-94234520D01*
X67841093Y-94234519D01*
X67838351Y-94232332D01*
X67835188Y-94230808D01*
X67739920Y-94184910D01*
X67739917Y-94184909D01*
X67736756Y-94183386D01*
X67733337Y-94182605D01*
X67733332Y-94182603D01*
X67630236Y-94159049D01*
X67630230Y-94159048D01*
X67626819Y-94158269D01*
X67623314Y-94158268D01*
X67623313Y-94158268D01*
X67570533Y-94158255D01*
X54570504Y-94158255D01*
X54570434Y-94158246D01*
X54570434Y-94158234D01*
X54570345Y-94158234D01*
X54517546Y-94158240D01*
X54517540Y-94158240D01*
X54514042Y-94158241D01*
X54510633Y-94159019D01*
X54510627Y-94159020D01*
X54407501Y-94182569D01*
X54407497Y-94182570D01*
X54404087Y-94183349D01*
X54400937Y-94184866D01*
X54400929Y-94184869D01*
X54305641Y-94230765D01*
X54305633Y-94230769D01*
X54302475Y-94232291D01*
X54299730Y-94234479D01*
X54299727Y-94234482D01*
X54217040Y-94300427D01*
X54217035Y-94300431D01*
X54214299Y-94302614D01*
X54212117Y-94305349D01*
X54212113Y-94305354D01*
X54146183Y-94388030D01*
X54143980Y-94390793D01*
X54142459Y-94393949D01*
X54142457Y-94393954D01*
X54096564Y-94489246D01*
X54095042Y-94492407D01*
X54094262Y-94495819D01*
X54094260Y-94495828D01*
X54070719Y-94598943D01*
X54070718Y-94598949D01*
X54069939Y-94602363D01*
X54069938Y-94605861D01*
X54069938Y-94605868D01*
X54069934Y-94658655D01*
X54069934Y-107658430D01*
X54069891Y-107658755D01*
X54069845Y-107658755D01*
X54069845Y-107659104D01*
X54069845Y-107659105D01*
X49020934Y-107659105D01*
X49020934Y-107658755D01*
X49020934Y-107658255D01*
X49020934Y-94658656D01*
X49020875Y-94658515D01*
X49020845Y-94658199D01*
X49020851Y-94602367D01*
X48995768Y-94492416D01*
X48946846Y-94390803D01*
X48912182Y-94347328D01*
X48878725Y-94305366D01*
X48876539Y-94302624D01*
X48873744Y-94300395D01*
X48791120Y-94234493D01*
X48791119Y-94234492D01*
X48788373Y-94232302D01*
X48739359Y-94208693D01*
X48689930Y-94184884D01*
X48689925Y-94184882D01*
X48686769Y-94183362D01*
X48683350Y-94182581D01*
X48683349Y-94182581D01*
X48580247Y-94159041D01*
X48576822Y-94158259D01*
X48573313Y-94158258D01*
X48573307Y-94158258D01*
X48520533Y-94158255D01*
X36273824Y-94158255D01*
X36230344Y-94140652D01*
X36211356Y-94097758D01*
X36227557Y-94053736D01*
X36269820Y-94033383D01*
X36360610Y-94027554D01*
X36663160Y-93968633D01*
X36955692Y-93871505D01*
X37233402Y-93737768D01*
X37491729Y-93569615D01*
X37726433Y-93369809D01*
X37933659Y-93141630D01*
X38110005Y-92888824D01*
X38252576Y-92615544D01*
X38359029Y-92326276D01*
X38427618Y-92025769D01*
X38457215Y-91718959D01*
X38447336Y-91410883D01*
X38398142Y-91106600D01*
X38330063Y-90877222D01*
X38311009Y-90813022D01*
X38311008Y-90813021D01*
X38310440Y-90811105D01*
X38185672Y-90529252D01*
X38105301Y-90396672D01*
X38026924Y-90267380D01*
X38026922Y-90267378D01*
X38025886Y-90265668D01*
X37833705Y-90024680D01*
X37612285Y-89810247D01*
X37610675Y-89809045D01*
X37610671Y-89809042D01*
X37366877Y-89627094D01*
X37366873Y-89627091D01*
X37365262Y-89625889D01*
X37096691Y-89474633D01*
X37094831Y-89473880D01*
X37094827Y-89473878D01*
X36812840Y-89359713D01*
X36812834Y-89359711D01*
X36810984Y-89358962D01*
X36809057Y-89358456D01*
X36809049Y-89358454D01*
X36514763Y-89281284D01*
X36514764Y-89281284D01*
X36512830Y-89280777D01*
X36510851Y-89280521D01*
X36510847Y-89280521D01*
X36209118Y-89241617D01*
X36209105Y-89241616D01*
X36207126Y-89241361D01*
X35976035Y-89241361D01*
X35975060Y-89241423D01*
X35975047Y-89241424D01*
X35747405Y-89256039D01*
X35747392Y-89256040D01*
X35745408Y-89256168D01*
X35743451Y-89256548D01*
X35743436Y-89256551D01*
X35444834Y-89314704D01*
X35444831Y-89314704D01*
X35442858Y-89315089D01*
X35440957Y-89315720D01*
X35440950Y-89315722D01*
X35152227Y-89411585D01*
X35152215Y-89411589D01*
X35150326Y-89412217D01*
X35148529Y-89413082D01*
X35148525Y-89413084D01*
X35018669Y-89475619D01*
X34872616Y-89545954D01*
X34870938Y-89547045D01*
X34870933Y-89547049D01*
X34615978Y-89713007D01*
X34615971Y-89713011D01*
X34614289Y-89714107D01*
X34612758Y-89715409D01*
X34612753Y-89715414D01*
X34381116Y-89912609D01*
X34381110Y-89912614D01*
X34379585Y-89913913D01*
X34378246Y-89915387D01*
X34378234Y-89915399D01*
X34173709Y-90140604D01*
X34173699Y-90140616D01*
X34172359Y-90142092D01*
X34171216Y-90143729D01*
X34171210Y-90143738D01*
X33997157Y-90393257D01*
X33997152Y-90393264D01*
X33996013Y-90394898D01*
X33995090Y-90396666D01*
X33995087Y-90396672D01*
X33854369Y-90666399D01*
X33854362Y-90666413D01*
X33853442Y-90668178D01*
X33852754Y-90670047D01*
X33852748Y-90670061D01*
X33747684Y-90955555D01*
X33747680Y-90955567D01*
X33746989Y-90957446D01*
X33746543Y-90959396D01*
X33746541Y-90959406D01*
X33678844Y-91256004D01*
X33678841Y-91256016D01*
X33678400Y-91257953D01*
X33678209Y-91259932D01*
X33678207Y-91259945D01*
X33648995Y-91562762D01*
X33648994Y-91562777D01*
X33648803Y-91564763D01*
X32495934Y-91564763D01*
X32495934Y-75552362D01*
X37401179Y-75552362D01*
X37401184Y-75608755D01*
X37401184Y-75609255D01*
X37401184Y-88608854D01*
X37401222Y-88608949D01*
X37401243Y-88609164D01*
X37401240Y-88661635D01*
X37401240Y-88665145D01*
X37402018Y-88668555D01*
X37402019Y-88668563D01*
X37425546Y-88771677D01*
X37426327Y-88775099D01*
X37427847Y-88778257D01*
X37427848Y-88778258D01*
X37473723Y-88873538D01*
X37475253Y-88876714D01*
X37477434Y-88879449D01*
X37477437Y-88879454D01*
X37509951Y-88920230D01*
X37545564Y-88964893D01*
X37548305Y-88967079D01*
X37548306Y-88967080D01*
X37630965Y-89033007D01*
X37633734Y-89035215D01*
X37735343Y-89084153D01*
X37845294Y-89109253D01*
X37901584Y-89109254D01*
X37901585Y-89109255D01*
X37901684Y-89109255D01*
X50901184Y-89109255D01*
X50901613Y-89109255D01*
X50901684Y-89109269D01*
X50901684Y-89109284D01*
X50958079Y-89109285D01*
X51068043Y-89084189D01*
X51169663Y-89035250D01*
X51257845Y-88964925D01*
X51328166Y-88876739D01*
X51377098Y-88775115D01*
X51402189Y-88665150D01*
X51402184Y-88609105D01*
X58832345Y-88609105D01*
X58832350Y-88661641D01*
X58832350Y-88661646D01*
X58832351Y-88665153D01*
X58833132Y-88668576D01*
X58833133Y-88668578D01*
X58856680Y-88771695D01*
X58856681Y-88771699D01*
X58857462Y-88775117D01*
X58858981Y-88778270D01*
X58858983Y-88778276D01*
X58904886Y-88873570D01*
X58906412Y-88876737D01*
X58928471Y-88904393D01*
X58974543Y-88962156D01*
X58976746Y-88964917D01*
X59064939Y-89035236D01*
X59166568Y-89084168D01*
X59217387Y-89095763D01*
X59273087Y-89108472D01*
X59276537Y-89109259D01*
X59332934Y-89109255D01*
X59333434Y-89109255D01*
X72332434Y-89109255D01*
X72333033Y-89109255D01*
X72333068Y-89109239D01*
X72333126Y-89109232D01*
X72389324Y-89109231D01*
X72499276Y-89084130D01*
X72600887Y-89035195D01*
X72689063Y-88964878D01*
X72759383Y-88876705D01*
X72808323Y-88775096D01*
X72833425Y-88665156D01*
X77882341Y-88665156D01*
X77883121Y-88668577D01*
X77883122Y-88668579D01*
X77906655Y-88771706D01*
X77906657Y-88771713D01*
X77907437Y-88775129D01*
X77956381Y-88876759D01*
X77958569Y-88879502D01*
X77958572Y-88879507D01*
X78003873Y-88936304D01*
X78026717Y-88964946D01*
X78114917Y-89035266D01*
X78118075Y-89036786D01*
X78118078Y-89036788D01*
X78163470Y-89058638D01*
X78216555Y-89084192D01*
X78326534Y-89109269D01*
X78382934Y-89109255D01*
X78383434Y-89109255D01*
X91382434Y-89109255D01*
X91383033Y-89109255D01*
X91383068Y-89109239D01*
X91383126Y-89109232D01*
X91439324Y-89109231D01*
X91549276Y-89084130D01*
X91650887Y-89035195D01*
X91739063Y-88964878D01*
X91809383Y-88876705D01*
X91858323Y-88775096D01*
X91883425Y-88665156D01*
X96932341Y-88665156D01*
X96933121Y-88668577D01*
X96933122Y-88668579D01*
X96956655Y-88771706D01*
X96956657Y-88771713D01*
X96957437Y-88775129D01*
X97006381Y-88876759D01*
X97008569Y-88879502D01*
X97008572Y-88879507D01*
X97053873Y-88936304D01*
X97076717Y-88964946D01*
X97164917Y-89035266D01*
X97168075Y-89036786D01*
X97168078Y-89036788D01*
X97213470Y-89058638D01*
X97266555Y-89084192D01*
X97376534Y-89109269D01*
X97432934Y-89109255D01*
X97433434Y-89109255D01*
X110432434Y-89109255D01*
X110433033Y-89109255D01*
X110433068Y-89109239D01*
X110433126Y-89109232D01*
X110489324Y-89109231D01*
X110599276Y-89084130D01*
X110700887Y-89035195D01*
X110789063Y-88964878D01*
X110859383Y-88876705D01*
X110908323Y-88775096D01*
X110933425Y-88665156D01*
X115982341Y-88665156D01*
X115983121Y-88668577D01*
X115983122Y-88668579D01*
X116006655Y-88771706D01*
X116006657Y-88771713D01*
X116007437Y-88775129D01*
X116056381Y-88876759D01*
X116058569Y-88879502D01*
X116058572Y-88879507D01*
X116103873Y-88936304D01*
X116126717Y-88964946D01*
X116214917Y-89035266D01*
X116218075Y-89036786D01*
X116218078Y-89036788D01*
X116263470Y-89058638D01*
X116316555Y-89084192D01*
X116426534Y-89109269D01*
X116482934Y-89109255D01*
X116483434Y-89109255D01*
X129482434Y-89109255D01*
X129483033Y-89109255D01*
X129483068Y-89109239D01*
X129483126Y-89109232D01*
X129539324Y-89109231D01*
X129649276Y-89084130D01*
X129750887Y-89035195D01*
X129839063Y-88964878D01*
X129909383Y-88876705D01*
X129958323Y-88775096D01*
X129983428Y-88665145D01*
X129983434Y-88608755D01*
X129983434Y-88608255D01*
X129983434Y-75608656D01*
X129983373Y-75608509D01*
X129983343Y-75608214D01*
X129983341Y-75552370D01*
X129958243Y-75442428D01*
X129956706Y-75439237D01*
X129910835Y-75343982D01*
X129909315Y-75340825D01*
X129907132Y-75338087D01*
X129907130Y-75338084D01*
X129873795Y-75296279D01*
X129839010Y-75252654D01*
X129836266Y-75250465D01*
X129836264Y-75250463D01*
X129753594Y-75184520D01*
X129753593Y-75184519D01*
X129750851Y-75182332D01*
X129747688Y-75180808D01*
X129652420Y-75134910D01*
X129652417Y-75134909D01*
X129649256Y-75133386D01*
X129645837Y-75132605D01*
X129645832Y-75132603D01*
X129542736Y-75109049D01*
X129542730Y-75109048D01*
X129539319Y-75108269D01*
X129535814Y-75108268D01*
X129535813Y-75108268D01*
X129483033Y-75108255D01*
X116482988Y-75108255D01*
X116482934Y-75108244D01*
X116482934Y-75108234D01*
X116482885Y-75108233D01*
X116482881Y-75108233D01*
X116430051Y-75108231D01*
X116430049Y-75108231D01*
X116426539Y-75108231D01*
X116423117Y-75109011D01*
X116423115Y-75109012D01*
X116319995Y-75132543D01*
X116319990Y-75132544D01*
X116316575Y-75133324D01*
X116313420Y-75134842D01*
X116313412Y-75134846D01*
X116218115Y-75180737D01*
X116218106Y-75180742D01*
X116214953Y-75182261D01*
X116212209Y-75184448D01*
X116212206Y-75184451D01*
X116129515Y-75250395D01*
X116129510Y-75250399D01*
X116126770Y-75252585D01*
X116124585Y-75255324D01*
X116124581Y-75255329D01*
X116058634Y-75338030D01*
X116058631Y-75338034D01*
X116056449Y-75340771D01*
X116054931Y-75343923D01*
X116054927Y-75343930D01*
X116009040Y-75439231D01*
X116007517Y-75442395D01*
X116006736Y-75445814D01*
X116006736Y-75445817D01*
X116006731Y-75445839D01*
X115982428Y-75552360D01*
X115982428Y-75555870D01*
X115982428Y-75555874D01*
X115982434Y-75608755D01*
X115982434Y-88608536D01*
X115982390Y-88608755D01*
X115982345Y-88608755D01*
X115982344Y-88608978D01*
X115982344Y-88608983D01*
X115982341Y-88661635D01*
X115982341Y-88665156D01*
X110933425Y-88665156D01*
X110933428Y-88665145D01*
X110933434Y-88608755D01*
X110933434Y-88608255D01*
X110933434Y-75608656D01*
X110933373Y-75608509D01*
X110933343Y-75608214D01*
X110933341Y-75552370D01*
X110908243Y-75442428D01*
X110906706Y-75439237D01*
X110860835Y-75343982D01*
X110859315Y-75340825D01*
X110857132Y-75338087D01*
X110857130Y-75338084D01*
X110823795Y-75296279D01*
X110789010Y-75252654D01*
X110786266Y-75250465D01*
X110786264Y-75250463D01*
X110703594Y-75184520D01*
X110703593Y-75184519D01*
X110700851Y-75182332D01*
X110697688Y-75180808D01*
X110602420Y-75134910D01*
X110602417Y-75134909D01*
X110599256Y-75133386D01*
X110595837Y-75132605D01*
X110595832Y-75132603D01*
X110492736Y-75109049D01*
X110492730Y-75109048D01*
X110489319Y-75108269D01*
X110485814Y-75108268D01*
X110485813Y-75108268D01*
X110433033Y-75108255D01*
X97432988Y-75108255D01*
X97432934Y-75108244D01*
X97432934Y-75108234D01*
X97432885Y-75108233D01*
X97432881Y-75108233D01*
X97380051Y-75108231D01*
X97380049Y-75108231D01*
X97376539Y-75108231D01*
X97373117Y-75109011D01*
X97373115Y-75109012D01*
X97269995Y-75132543D01*
X97269990Y-75132544D01*
X97266575Y-75133324D01*
X97263420Y-75134842D01*
X97263412Y-75134846D01*
X97168115Y-75180737D01*
X97168106Y-75180742D01*
X97164953Y-75182261D01*
X97162209Y-75184448D01*
X97162206Y-75184451D01*
X97079515Y-75250395D01*
X97079510Y-75250399D01*
X97076770Y-75252585D01*
X97074585Y-75255324D01*
X97074581Y-75255329D01*
X97008634Y-75338030D01*
X97008631Y-75338034D01*
X97006449Y-75340771D01*
X97004931Y-75343923D01*
X97004927Y-75343930D01*
X96959040Y-75439231D01*
X96957517Y-75442395D01*
X96956736Y-75445814D01*
X96956736Y-75445817D01*
X96956731Y-75445839D01*
X96932428Y-75552360D01*
X96932428Y-75555870D01*
X96932428Y-75555874D01*
X96932434Y-75608755D01*
X96932434Y-88608536D01*
X96932390Y-88608755D01*
X96932345Y-88608755D01*
X96932344Y-88608978D01*
X96932344Y-88608983D01*
X96932341Y-88661635D01*
X96932341Y-88665156D01*
X91883425Y-88665156D01*
X91883428Y-88665145D01*
X91883434Y-88608755D01*
X91883434Y-88608255D01*
X91883434Y-75608656D01*
X91883373Y-75608509D01*
X91883343Y-75608214D01*
X91883341Y-75552370D01*
X91858243Y-75442428D01*
X91856706Y-75439237D01*
X91810835Y-75343982D01*
X91809315Y-75340825D01*
X91807132Y-75338087D01*
X91807130Y-75338084D01*
X91773795Y-75296279D01*
X91739010Y-75252654D01*
X91736266Y-75250465D01*
X91736264Y-75250463D01*
X91653594Y-75184520D01*
X91653593Y-75184519D01*
X91650851Y-75182332D01*
X91647688Y-75180808D01*
X91552420Y-75134910D01*
X91552417Y-75134909D01*
X91549256Y-75133386D01*
X91545837Y-75132605D01*
X91545832Y-75132603D01*
X91442736Y-75109049D01*
X91442730Y-75109048D01*
X91439319Y-75108269D01*
X91435814Y-75108268D01*
X91435813Y-75108268D01*
X91383033Y-75108255D01*
X78382988Y-75108255D01*
X78382934Y-75108244D01*
X78382934Y-75108234D01*
X78382885Y-75108233D01*
X78382881Y-75108233D01*
X78330051Y-75108231D01*
X78330049Y-75108231D01*
X78326539Y-75108231D01*
X78323117Y-75109011D01*
X78323115Y-75109012D01*
X78219995Y-75132543D01*
X78219990Y-75132544D01*
X78216575Y-75133324D01*
X78213420Y-75134842D01*
X78213412Y-75134846D01*
X78118115Y-75180737D01*
X78118106Y-75180742D01*
X78114953Y-75182261D01*
X78112209Y-75184448D01*
X78112206Y-75184451D01*
X78029515Y-75250395D01*
X78029510Y-75250399D01*
X78026770Y-75252585D01*
X78024585Y-75255324D01*
X78024581Y-75255329D01*
X77958634Y-75338030D01*
X77958631Y-75338034D01*
X77956449Y-75340771D01*
X77954931Y-75343923D01*
X77954927Y-75343930D01*
X77909040Y-75439231D01*
X77907517Y-75442395D01*
X77906736Y-75445814D01*
X77906736Y-75445817D01*
X77906731Y-75445839D01*
X77882428Y-75552360D01*
X77882428Y-75555870D01*
X77882428Y-75555874D01*
X77882434Y-75608755D01*
X77882434Y-88608536D01*
X77882390Y-88608755D01*
X77882345Y-88608755D01*
X77882344Y-88608978D01*
X77882344Y-88608983D01*
X77882341Y-88661635D01*
X77882341Y-88665156D01*
X72833425Y-88665156D01*
X72833428Y-88665145D01*
X72833434Y-88608755D01*
X72833434Y-88608255D01*
X72833434Y-75608656D01*
X72833373Y-75608509D01*
X72833343Y-75608214D01*
X72833341Y-75552370D01*
X72808243Y-75442428D01*
X72806706Y-75439237D01*
X72760835Y-75343982D01*
X72759315Y-75340825D01*
X72757132Y-75338087D01*
X72757130Y-75338084D01*
X72723795Y-75296279D01*
X72689010Y-75252654D01*
X72686266Y-75250465D01*
X72686264Y-75250463D01*
X72603594Y-75184520D01*
X72603593Y-75184519D01*
X72600851Y-75182332D01*
X72597688Y-75180808D01*
X72502420Y-75134910D01*
X72502417Y-75134909D01*
X72499256Y-75133386D01*
X72495837Y-75132605D01*
X72495832Y-75132603D01*
X72392736Y-75109049D01*
X72392730Y-75109048D01*
X72389319Y-75108269D01*
X72385814Y-75108268D01*
X72385813Y-75108268D01*
X72333033Y-75108255D01*
X59333004Y-75108255D01*
X59332934Y-75108246D01*
X59332934Y-75108234D01*
X59332845Y-75108234D01*
X59280046Y-75108240D01*
X59280040Y-75108240D01*
X59276542Y-75108241D01*
X59273133Y-75109019D01*
X59273127Y-75109020D01*
X59170001Y-75132569D01*
X59169997Y-75132570D01*
X59166587Y-75133349D01*
X59163437Y-75134866D01*
X59163429Y-75134869D01*
X59068141Y-75180765D01*
X59068133Y-75180769D01*
X59064975Y-75182291D01*
X59062230Y-75184479D01*
X59062227Y-75184482D01*
X58979540Y-75250427D01*
X58979535Y-75250431D01*
X58976799Y-75252614D01*
X58974619Y-75255348D01*
X58974613Y-75255354D01*
X58908667Y-75338050D01*
X58906480Y-75340793D01*
X58904959Y-75343949D01*
X58904957Y-75343954D01*
X58859064Y-75439246D01*
X58857542Y-75442407D01*
X58856762Y-75445819D01*
X58856760Y-75445828D01*
X58833219Y-75548943D01*
X58833218Y-75548949D01*
X58832439Y-75552363D01*
X58832438Y-75555861D01*
X58832438Y-75555868D01*
X58832434Y-75608655D01*
X58832434Y-88608430D01*
X58832391Y-88608755D01*
X58832345Y-88608755D01*
X58832345Y-88609104D01*
X58832345Y-88609105D01*
X51402184Y-88609105D01*
X51402184Y-88608755D01*
X51402184Y-88608255D01*
X51402184Y-75608656D01*
X51402156Y-75608590D01*
X51402143Y-75608468D01*
X51402141Y-75552366D01*
X51377040Y-75442418D01*
X51328106Y-75340810D01*
X51325922Y-75338071D01*
X51325920Y-75338068D01*
X51259979Y-75255379D01*
X51257792Y-75252636D01*
X51255022Y-75250427D01*
X51213707Y-75217475D01*
X51169623Y-75182315D01*
X51068019Y-75133373D01*
X51064597Y-75132591D01*
X51064593Y-75132590D01*
X50961497Y-75109046D01*
X50958073Y-75108264D01*
X50954564Y-75108263D01*
X50954561Y-75108263D01*
X50901783Y-75108255D01*
X37901585Y-75108255D01*
X37901542Y-75108271D01*
X37901430Y-75108282D01*
X37848801Y-75108276D01*
X37848797Y-75108276D01*
X37845291Y-75108276D01*
X37841873Y-75109055D01*
X37841870Y-75109056D01*
X37738752Y-75132578D01*
X37738750Y-75132578D01*
X37735329Y-75133359D01*
X37732170Y-75134879D01*
X37732164Y-75134882D01*
X37636864Y-75180767D01*
X37636860Y-75180768D01*
X37633708Y-75182287D01*
X37630972Y-75184467D01*
X37630968Y-75184471D01*
X37548268Y-75250414D01*
X37548263Y-75250418D01*
X37545524Y-75252603D01*
X37543338Y-75255343D01*
X37543334Y-75255348D01*
X37477391Y-75338037D01*
X37477387Y-75338042D01*
X37475202Y-75340783D01*
X37473681Y-75343939D01*
X37473678Y-75343946D01*
X37427792Y-75439237D01*
X37427790Y-75439241D01*
X37426269Y-75442401D01*
X37425490Y-75445817D01*
X37425488Y-75445823D01*
X37401960Y-75548935D01*
X37401960Y-75548938D01*
X37401179Y-75552362D01*
X32495934Y-75552362D01*
X32495934Y-73774022D01*
X132116245Y-73774022D01*
X132116638Y-73777507D01*
X132116638Y-73777513D01*
X132128488Y-73882598D01*
X132128884Y-73886110D01*
X132130042Y-73889418D01*
X132130043Y-73889422D01*
X132147404Y-73939012D01*
X132166155Y-73992573D01*
X132226190Y-74088068D01*
X132228669Y-74090546D01*
X132228671Y-74090548D01*
X132265996Y-74127853D01*
X132266010Y-74127869D01*
X132359225Y-74221084D01*
X132363331Y-74225614D01*
X132370371Y-74234191D01*
X132371602Y-74235741D01*
X132428263Y-74309584D01*
X132433795Y-74318163D01*
X132450003Y-74348479D01*
X132452624Y-74354019D01*
X132479784Y-74419600D01*
X132481837Y-74425336D01*
X132483392Y-74430458D01*
X132491751Y-74458007D01*
X132493908Y-74467993D01*
X132506210Y-74561401D01*
X132506443Y-74563421D01*
X132507392Y-74573033D01*
X132507694Y-74579174D01*
X132507694Y-90831101D01*
X132507707Y-90831132D01*
X132507712Y-90831181D01*
X132507718Y-90877228D01*
X132507718Y-90877233D01*
X132507719Y-90880295D01*
X132508316Y-90883297D01*
X132508317Y-90883303D01*
X132526361Y-90973976D01*
X132526362Y-90973981D01*
X132526960Y-90976983D01*
X132528129Y-90979806D01*
X132528131Y-90979812D01*
X132545671Y-91022162D01*
X132564683Y-91068066D01*
X132619440Y-91150045D01*
X132621606Y-91152212D01*
X132621607Y-91152213D01*
X132654214Y-91184835D01*
X132652156Y-91186892D01*
X132652160Y-91186894D01*
X132654216Y-91184839D01*
X133344551Y-91875174D01*
X133344552Y-91875174D01*
X133344905Y-91875528D01*
X133342740Y-91877686D01*
X133342743Y-91877689D01*
X133344893Y-91875540D01*
X133384772Y-91915414D01*
X133480275Y-91975417D01*
X133586735Y-92012665D01*
X133698814Y-92025290D01*
X133810892Y-92012659D01*
X133917350Y-91975405D01*
X134012850Y-91915397D01*
X134052653Y-91875592D01*
X134052657Y-91875591D01*
X134145875Y-91782367D01*
X134150393Y-91778273D01*
X134159075Y-91771150D01*
X134160551Y-91769979D01*
X134234297Y-91713400D01*
X134242857Y-91707881D01*
X134273526Y-91691492D01*
X134279014Y-91688896D01*
X134344044Y-91661961D01*
X134349761Y-91659915D01*
X134383096Y-91649804D01*
X134393035Y-91647657D01*
X134484648Y-91635585D01*
X134486518Y-91635370D01*
X134497639Y-91634274D01*
X134498396Y-91634200D01*
X134504519Y-91633899D01*
X140037102Y-91633920D01*
X140043189Y-91634219D01*
X140054295Y-91635314D01*
X140056178Y-91635532D01*
X140148473Y-91647693D01*
X140158424Y-91649842D01*
X140191460Y-91659863D01*
X140197197Y-91661916D01*
X140262499Y-91688962D01*
X140268024Y-91691575D01*
X140298459Y-91707840D01*
X140307040Y-91713372D01*
X140316929Y-91720959D01*
X140381147Y-91770229D01*
X140382726Y-91771483D01*
X140390881Y-91778174D01*
X140395431Y-91782298D01*
X140488739Y-91875605D01*
X140488785Y-91875624D01*
X140488898Y-91875717D01*
X140528554Y-91915410D01*
X140624038Y-91975461D01*
X140730497Y-92012744D01*
X140842584Y-92025385D01*
X140954672Y-92012751D01*
X141061132Y-91975476D01*
X141156620Y-91915431D01*
X141196397Y-91875619D01*
X141196415Y-91875606D01*
X141196414Y-91875605D01*
X141886695Y-91185322D01*
X141886772Y-91185278D01*
X141886756Y-91185262D01*
X141887110Y-91184909D01*
X141887117Y-91184916D01*
X141921979Y-91150062D01*
X141976759Y-91068088D01*
X142014486Y-90976999D01*
X142033710Y-90880298D01*
X142033702Y-90831002D01*
X142033702Y-90830502D01*
X142033702Y-88665156D01*
X144557341Y-88665156D01*
X144558121Y-88668577D01*
X144558122Y-88668579D01*
X144581655Y-88771706D01*
X144581657Y-88771713D01*
X144582437Y-88775129D01*
X144631381Y-88876759D01*
X144633569Y-88879502D01*
X144633572Y-88879507D01*
X144678873Y-88936304D01*
X144701717Y-88964946D01*
X144789917Y-89035266D01*
X144793075Y-89036786D01*
X144793078Y-89036788D01*
X144838470Y-89058638D01*
X144891555Y-89084192D01*
X145001534Y-89109269D01*
X145057934Y-89109255D01*
X145058434Y-89109255D01*
X158057434Y-89109255D01*
X158058033Y-89109255D01*
X158058068Y-89109239D01*
X158058126Y-89109232D01*
X158114324Y-89109231D01*
X158224276Y-89084130D01*
X158325887Y-89035195D01*
X158414063Y-88964878D01*
X158484383Y-88876705D01*
X158533323Y-88775096D01*
X158558425Y-88665156D01*
X163607341Y-88665156D01*
X163608121Y-88668577D01*
X163608122Y-88668579D01*
X163631655Y-88771706D01*
X163631657Y-88771713D01*
X163632437Y-88775129D01*
X163681381Y-88876759D01*
X163683569Y-88879502D01*
X163683572Y-88879507D01*
X163728873Y-88936304D01*
X163751717Y-88964946D01*
X163839917Y-89035266D01*
X163843075Y-89036786D01*
X163843078Y-89036788D01*
X163888470Y-89058638D01*
X163941555Y-89084192D01*
X164051534Y-89109269D01*
X164107934Y-89109255D01*
X164108434Y-89109255D01*
X177107434Y-89109255D01*
X177108033Y-89109255D01*
X177108068Y-89109239D01*
X177108126Y-89109232D01*
X177164324Y-89109231D01*
X177274276Y-89084130D01*
X177375887Y-89035195D01*
X177464063Y-88964878D01*
X177534383Y-88876705D01*
X177583323Y-88775096D01*
X177608425Y-88665156D01*
X182657341Y-88665156D01*
X182658121Y-88668577D01*
X182658122Y-88668579D01*
X182681655Y-88771706D01*
X182681657Y-88771713D01*
X182682437Y-88775129D01*
X182731381Y-88876759D01*
X182733569Y-88879502D01*
X182733572Y-88879507D01*
X182778873Y-88936304D01*
X182801717Y-88964946D01*
X182889917Y-89035266D01*
X182893075Y-89036786D01*
X182893078Y-89036788D01*
X182938470Y-89058638D01*
X182991555Y-89084192D01*
X183101534Y-89109269D01*
X183157934Y-89109255D01*
X183158434Y-89109255D01*
X196157434Y-89109255D01*
X196158033Y-89109255D01*
X196158068Y-89109239D01*
X196158126Y-89109232D01*
X196214324Y-89109231D01*
X196324276Y-89084130D01*
X196425887Y-89035195D01*
X196514063Y-88964878D01*
X196584383Y-88876705D01*
X196633323Y-88775096D01*
X196658425Y-88665156D01*
X201707341Y-88665156D01*
X201708121Y-88668577D01*
X201708122Y-88668579D01*
X201731655Y-88771706D01*
X201731657Y-88771713D01*
X201732437Y-88775129D01*
X201781381Y-88876759D01*
X201783569Y-88879502D01*
X201783572Y-88879507D01*
X201828873Y-88936304D01*
X201851717Y-88964946D01*
X201939917Y-89035266D01*
X201943075Y-89036786D01*
X201943078Y-89036788D01*
X201988470Y-89058638D01*
X202041555Y-89084192D01*
X202151534Y-89109269D01*
X202207934Y-89109255D01*
X202208434Y-89109255D01*
X215207434Y-89109255D01*
X215208033Y-89109255D01*
X215208068Y-89109239D01*
X215208126Y-89109232D01*
X215264324Y-89109231D01*
X215374276Y-89084130D01*
X215475887Y-89035195D01*
X215564063Y-88964878D01*
X215634383Y-88876705D01*
X215683323Y-88775096D01*
X215708428Y-88665145D01*
X215708434Y-88608755D01*
X215708434Y-88608255D01*
X215708434Y-75608656D01*
X215708373Y-75608509D01*
X215708343Y-75608214D01*
X215708341Y-75552370D01*
X215683243Y-75442428D01*
X215681706Y-75439237D01*
X215635835Y-75343982D01*
X215634315Y-75340825D01*
X215632132Y-75338087D01*
X215632130Y-75338084D01*
X215598795Y-75296279D01*
X215564010Y-75252654D01*
X215561266Y-75250465D01*
X215561264Y-75250463D01*
X215478594Y-75184520D01*
X215478593Y-75184519D01*
X215475851Y-75182332D01*
X215472688Y-75180808D01*
X215377420Y-75134910D01*
X215377417Y-75134909D01*
X215374256Y-75133386D01*
X215370837Y-75132605D01*
X215370832Y-75132603D01*
X215267736Y-75109049D01*
X215267730Y-75109048D01*
X215264319Y-75108269D01*
X215260814Y-75108268D01*
X215260813Y-75108268D01*
X215208033Y-75108255D01*
X202207988Y-75108255D01*
X202207934Y-75108244D01*
X202207934Y-75108234D01*
X202207885Y-75108233D01*
X202207881Y-75108233D01*
X202155051Y-75108231D01*
X202155049Y-75108231D01*
X202151539Y-75108231D01*
X202148117Y-75109011D01*
X202148115Y-75109012D01*
X202044995Y-75132543D01*
X202044990Y-75132544D01*
X202041575Y-75133324D01*
X202038420Y-75134842D01*
X202038412Y-75134846D01*
X201943115Y-75180737D01*
X201943106Y-75180742D01*
X201939953Y-75182261D01*
X201937209Y-75184448D01*
X201937206Y-75184451D01*
X201854515Y-75250395D01*
X201854510Y-75250399D01*
X201851770Y-75252585D01*
X201849585Y-75255324D01*
X201849581Y-75255329D01*
X201783634Y-75338030D01*
X201783631Y-75338034D01*
X201781449Y-75340771D01*
X201779931Y-75343923D01*
X201779927Y-75343930D01*
X201734040Y-75439231D01*
X201732517Y-75442395D01*
X201731736Y-75445814D01*
X201731736Y-75445817D01*
X201731731Y-75445839D01*
X201707428Y-75552360D01*
X201707428Y-75555870D01*
X201707428Y-75555874D01*
X201707434Y-75608755D01*
X201707434Y-88608536D01*
X201707390Y-88608755D01*
X201707345Y-88608755D01*
X201707344Y-88608978D01*
X201707344Y-88608983D01*
X201707341Y-88661635D01*
X201707341Y-88665156D01*
X196658425Y-88665156D01*
X196658428Y-88665145D01*
X196658434Y-88608755D01*
X196658434Y-88608255D01*
X196658434Y-75608656D01*
X196658373Y-75608509D01*
X196658343Y-75608214D01*
X196658341Y-75552370D01*
X196633243Y-75442428D01*
X196631706Y-75439237D01*
X196585835Y-75343982D01*
X196584315Y-75340825D01*
X196582132Y-75338087D01*
X196582130Y-75338084D01*
X196548795Y-75296279D01*
X196514010Y-75252654D01*
X196511266Y-75250465D01*
X196511264Y-75250463D01*
X196428594Y-75184520D01*
X196428593Y-75184519D01*
X196425851Y-75182332D01*
X196422688Y-75180808D01*
X196327420Y-75134910D01*
X196327417Y-75134909D01*
X196324256Y-75133386D01*
X196320837Y-75132605D01*
X196320832Y-75132603D01*
X196217736Y-75109049D01*
X196217730Y-75109048D01*
X196214319Y-75108269D01*
X196210814Y-75108268D01*
X196210813Y-75108268D01*
X196158033Y-75108255D01*
X183157988Y-75108255D01*
X183157934Y-75108244D01*
X183157934Y-75108234D01*
X183157885Y-75108233D01*
X183157881Y-75108233D01*
X183105051Y-75108231D01*
X183105049Y-75108231D01*
X183101539Y-75108231D01*
X183098117Y-75109011D01*
X183098115Y-75109012D01*
X182994995Y-75132543D01*
X182994990Y-75132544D01*
X182991575Y-75133324D01*
X182988420Y-75134842D01*
X182988412Y-75134846D01*
X182893115Y-75180737D01*
X182893106Y-75180742D01*
X182889953Y-75182261D01*
X182887209Y-75184448D01*
X182887206Y-75184451D01*
X182804515Y-75250395D01*
X182804510Y-75250399D01*
X182801770Y-75252585D01*
X182799585Y-75255324D01*
X182799581Y-75255329D01*
X182733634Y-75338030D01*
X182733631Y-75338034D01*
X182731449Y-75340771D01*
X182729931Y-75343923D01*
X182729927Y-75343930D01*
X182684040Y-75439231D01*
X182682517Y-75442395D01*
X182681736Y-75445814D01*
X182681736Y-75445817D01*
X182681731Y-75445839D01*
X182657428Y-75552360D01*
X182657428Y-75555870D01*
X182657428Y-75555874D01*
X182657434Y-75608755D01*
X182657434Y-88608536D01*
X182657390Y-88608755D01*
X182657345Y-88608755D01*
X182657344Y-88608978D01*
X182657344Y-88608983D01*
X182657341Y-88661635D01*
X182657341Y-88665156D01*
X177608425Y-88665156D01*
X177608428Y-88665145D01*
X177608434Y-88608755D01*
X177608434Y-88608255D01*
X177608434Y-75608656D01*
X177608373Y-75608509D01*
X177608343Y-75608214D01*
X177608341Y-75552370D01*
X177583243Y-75442428D01*
X177581706Y-75439237D01*
X177535835Y-75343982D01*
X177534315Y-75340825D01*
X177532132Y-75338087D01*
X177532130Y-75338084D01*
X177498795Y-75296279D01*
X177464010Y-75252654D01*
X177461266Y-75250465D01*
X177461264Y-75250463D01*
X177378594Y-75184520D01*
X177378593Y-75184519D01*
X177375851Y-75182332D01*
X177372688Y-75180808D01*
X177277420Y-75134910D01*
X177277417Y-75134909D01*
X177274256Y-75133386D01*
X177270837Y-75132605D01*
X177270832Y-75132603D01*
X177167736Y-75109049D01*
X177167730Y-75109048D01*
X177164319Y-75108269D01*
X177160814Y-75108268D01*
X177160813Y-75108268D01*
X177108033Y-75108255D01*
X164107988Y-75108255D01*
X164107934Y-75108244D01*
X164107934Y-75108234D01*
X164107885Y-75108233D01*
X164107881Y-75108233D01*
X164055051Y-75108231D01*
X164055049Y-75108231D01*
X164051539Y-75108231D01*
X164048117Y-75109011D01*
X164048115Y-75109012D01*
X163944995Y-75132543D01*
X163944990Y-75132544D01*
X163941575Y-75133324D01*
X163938420Y-75134842D01*
X163938412Y-75134846D01*
X163843115Y-75180737D01*
X163843106Y-75180742D01*
X163839953Y-75182261D01*
X163837209Y-75184448D01*
X163837206Y-75184451D01*
X163754515Y-75250395D01*
X163754510Y-75250399D01*
X163751770Y-75252585D01*
X163749585Y-75255324D01*
X163749581Y-75255329D01*
X163683634Y-75338030D01*
X163683631Y-75338034D01*
X163681449Y-75340771D01*
X163679931Y-75343923D01*
X163679927Y-75343930D01*
X163634040Y-75439231D01*
X163632517Y-75442395D01*
X163631736Y-75445814D01*
X163631736Y-75445817D01*
X163631731Y-75445839D01*
X163607428Y-75552360D01*
X163607428Y-75555870D01*
X163607428Y-75555874D01*
X163607434Y-75608755D01*
X163607434Y-88608536D01*
X163607390Y-88608755D01*
X163607345Y-88608755D01*
X163607344Y-88608978D01*
X163607344Y-88608983D01*
X163607341Y-88661635D01*
X163607341Y-88665156D01*
X158558425Y-88665156D01*
X158558428Y-88665145D01*
X158558434Y-88608755D01*
X158558434Y-88608255D01*
X158558434Y-75608656D01*
X158558373Y-75608509D01*
X158558343Y-75608214D01*
X158558341Y-75552370D01*
X158533243Y-75442428D01*
X158531706Y-75439237D01*
X158485835Y-75343982D01*
X158484315Y-75340825D01*
X158482132Y-75338087D01*
X158482130Y-75338084D01*
X158448795Y-75296279D01*
X158414010Y-75252654D01*
X158411266Y-75250465D01*
X158411264Y-75250463D01*
X158328594Y-75184520D01*
X158328593Y-75184519D01*
X158325851Y-75182332D01*
X158322688Y-75180808D01*
X158227420Y-75134910D01*
X158227417Y-75134909D01*
X158224256Y-75133386D01*
X158220837Y-75132605D01*
X158220832Y-75132603D01*
X158117736Y-75109049D01*
X158117730Y-75109048D01*
X158114319Y-75108269D01*
X158110814Y-75108268D01*
X158110813Y-75108268D01*
X158058033Y-75108255D01*
X145057988Y-75108255D01*
X145057934Y-75108244D01*
X145057934Y-75108234D01*
X145057885Y-75108233D01*
X145057881Y-75108233D01*
X145005051Y-75108231D01*
X145005049Y-75108231D01*
X145001539Y-75108231D01*
X144998117Y-75109011D01*
X144998115Y-75109012D01*
X144894995Y-75132543D01*
X144894990Y-75132544D01*
X144891575Y-75133324D01*
X144888420Y-75134842D01*
X144888412Y-75134846D01*
X144793115Y-75180737D01*
X144793106Y-75180742D01*
X144789953Y-75182261D01*
X144787209Y-75184448D01*
X144787206Y-75184451D01*
X144704515Y-75250395D01*
X144704510Y-75250399D01*
X144701770Y-75252585D01*
X144699585Y-75255324D01*
X144699581Y-75255329D01*
X144633634Y-75338030D01*
X144633631Y-75338034D01*
X144631449Y-75340771D01*
X144629931Y-75343923D01*
X144629927Y-75343930D01*
X144584040Y-75439231D01*
X144582517Y-75442395D01*
X144581736Y-75445814D01*
X144581736Y-75445817D01*
X144581731Y-75445839D01*
X144557428Y-75552360D01*
X144557428Y-75555870D01*
X144557428Y-75555874D01*
X144557434Y-75608755D01*
X144557434Y-88608536D01*
X144557390Y-88608755D01*
X144557345Y-88608755D01*
X144557344Y-88608978D01*
X144557344Y-88608983D01*
X144557341Y-88661635D01*
X144557341Y-88665156D01*
X142033702Y-88665156D01*
X142033702Y-74579525D01*
X142034003Y-74573401D01*
X142034986Y-74563421D01*
X142035094Y-74562322D01*
X142035312Y-74560427D01*
X142047460Y-74468183D01*
X142049614Y-74458216D01*
X142059673Y-74425059D01*
X142061728Y-74419316D01*
X142088691Y-74354211D01*
X142091286Y-74348724D01*
X142107684Y-74318047D01*
X142113193Y-74309502D01*
X142169727Y-74235827D01*
X142170846Y-74234417D01*
X142178108Y-74225567D01*
X142182187Y-74221066D01*
X142275386Y-74127869D01*
X142275418Y-74127788D01*
X142275505Y-74127682D01*
X142315151Y-74088030D01*
X142375146Y-73992536D01*
X142412391Y-73886088D01*
X142425020Y-73774022D01*
X142412400Y-73661955D01*
X142375165Y-73555504D01*
X142315179Y-73460005D01*
X142275385Y-73420196D01*
X142277237Y-73418343D01*
X142277237Y-73418342D01*
X142275385Y-73420195D01*
X141584638Y-72729447D01*
X141584637Y-72729446D01*
X141584619Y-72729428D01*
X141584610Y-72729424D01*
X141584579Y-72729398D01*
X141552006Y-72696813D01*
X141552007Y-72696813D01*
X141549833Y-72694639D01*
X141547276Y-72692930D01*
X141470416Y-72641557D01*
X141470415Y-72641556D01*
X141467865Y-72639852D01*
X141376778Y-72602121D01*
X141373774Y-72601523D01*
X141373768Y-72601522D01*
X141283085Y-72583495D01*
X141283077Y-72583494D01*
X141280078Y-72582898D01*
X141277014Y-72582898D01*
X141277009Y-72582898D01*
X141230782Y-72582906D01*
X133310665Y-72582906D01*
X133310614Y-72582896D01*
X133310614Y-72582885D01*
X133261318Y-72582885D01*
X133258308Y-72583483D01*
X133258305Y-72583484D01*
X133167629Y-72601521D01*
X133167624Y-72601522D01*
X133164620Y-72602120D01*
X133161789Y-72603292D01*
X133161785Y-72603294D01*
X133076369Y-72638680D01*
X133076364Y-72638682D01*
X133073534Y-72639855D01*
X133070989Y-72641555D01*
X133070983Y-72641559D01*
X132994114Y-72692930D01*
X132994104Y-72692938D01*
X132991562Y-72694637D01*
X132989393Y-72696805D01*
X132989391Y-72696808D01*
X132956779Y-72729427D01*
X132956774Y-72729431D01*
X132956354Y-72729851D01*
X132266162Y-73420041D01*
X132266063Y-73420106D01*
X132266050Y-73420093D01*
X132265980Y-73420162D01*
X132265978Y-73420164D01*
X132228646Y-73457483D01*
X132228642Y-73457487D01*
X132226163Y-73459966D01*
X132224298Y-73462932D01*
X132224294Y-73462938D01*
X132168005Y-73552492D01*
X132168001Y-73552498D01*
X132166136Y-73555467D01*
X132164977Y-73558775D01*
X132164974Y-73558784D01*
X132130034Y-73658616D01*
X132130032Y-73658623D01*
X132128874Y-73661933D01*
X132128481Y-73665414D01*
X132128480Y-73665422D01*
X132116638Y-73770531D01*
X132116245Y-73774022D01*
X32495934Y-73774022D01*
X32495934Y-69559105D01*
X39782345Y-69559105D01*
X39782350Y-69611641D01*
X39782350Y-69611646D01*
X39782351Y-69615153D01*
X39783132Y-69618572D01*
X39783133Y-69618578D01*
X39806680Y-69721695D01*
X39806681Y-69721699D01*
X39807462Y-69725117D01*
X39808981Y-69728270D01*
X39808983Y-69728276D01*
X39854886Y-69823570D01*
X39856412Y-69826737D01*
X39878471Y-69854393D01*
X39924547Y-69912161D01*
X39926746Y-69914917D01*
X40014939Y-69985236D01*
X40116568Y-70034168D01*
X40193671Y-70051760D01*
X40222982Y-70058448D01*
X40226537Y-70059259D01*
X40282934Y-70059255D01*
X40283434Y-70059255D01*
X53282434Y-70059255D01*
X53283033Y-70059255D01*
X53283063Y-70059242D01*
X53283144Y-70059234D01*
X53339327Y-70059241D01*
X53449289Y-70034155D01*
X53550909Y-69985225D01*
X53639092Y-69914907D01*
X53709414Y-69826727D01*
X53758348Y-69725109D01*
X53783437Y-69615156D01*
X63594841Y-69615156D01*
X63595621Y-69618572D01*
X63595622Y-69618579D01*
X63619155Y-69721706D01*
X63619157Y-69721713D01*
X63619937Y-69725129D01*
X63668881Y-69826759D01*
X63671069Y-69829502D01*
X63671072Y-69829507D01*
X63716373Y-69886304D01*
X63739217Y-69914946D01*
X63827417Y-69985266D01*
X63830575Y-69986786D01*
X63830578Y-69986788D01*
X63875970Y-70008638D01*
X63929055Y-70034192D01*
X64039034Y-70059269D01*
X64095434Y-70059255D01*
X64095934Y-70059255D01*
X77094934Y-70059255D01*
X77095533Y-70059255D01*
X77095568Y-70059239D01*
X77095626Y-70059232D01*
X77151824Y-70059231D01*
X77261776Y-70034130D01*
X77363387Y-69985195D01*
X77451563Y-69914878D01*
X77521883Y-69826705D01*
X77570823Y-69725096D01*
X77595925Y-69615156D01*
X82644841Y-69615156D01*
X82645621Y-69618572D01*
X82645622Y-69618579D01*
X82669155Y-69721706D01*
X82669157Y-69721713D01*
X82669937Y-69725129D01*
X82718881Y-69826759D01*
X82721069Y-69829502D01*
X82721072Y-69829507D01*
X82766373Y-69886304D01*
X82789217Y-69914946D01*
X82877417Y-69985266D01*
X82880575Y-69986786D01*
X82880578Y-69986788D01*
X82925970Y-70008638D01*
X82979055Y-70034192D01*
X83089034Y-70059269D01*
X83145434Y-70059255D01*
X83145934Y-70059255D01*
X96144934Y-70059255D01*
X96145533Y-70059255D01*
X96145568Y-70059239D01*
X96145626Y-70059232D01*
X96201824Y-70059231D01*
X96311776Y-70034130D01*
X96413387Y-69985195D01*
X96501563Y-69914878D01*
X96571883Y-69826705D01*
X96620823Y-69725096D01*
X96645925Y-69615156D01*
X101694841Y-69615156D01*
X101695621Y-69618572D01*
X101695622Y-69618579D01*
X101719155Y-69721706D01*
X101719157Y-69721713D01*
X101719937Y-69725129D01*
X101768881Y-69826759D01*
X101771069Y-69829502D01*
X101771072Y-69829507D01*
X101816373Y-69886304D01*
X101839217Y-69914946D01*
X101927417Y-69985266D01*
X101930575Y-69986786D01*
X101930578Y-69986788D01*
X101975970Y-70008638D01*
X102029055Y-70034192D01*
X102139034Y-70059269D01*
X102195434Y-70059255D01*
X102195934Y-70059255D01*
X115194934Y-70059255D01*
X115195533Y-70059255D01*
X115195568Y-70059239D01*
X115195626Y-70059232D01*
X115251824Y-70059231D01*
X115361776Y-70034130D01*
X115463387Y-69985195D01*
X115551563Y-69914878D01*
X115621883Y-69826705D01*
X115670823Y-69725096D01*
X115695925Y-69615156D01*
X120744841Y-69615156D01*
X120745621Y-69618572D01*
X120745622Y-69618579D01*
X120769155Y-69721706D01*
X120769157Y-69721713D01*
X120769937Y-69725129D01*
X120818881Y-69826759D01*
X120821069Y-69829502D01*
X120821072Y-69829507D01*
X120866373Y-69886304D01*
X120889217Y-69914946D01*
X120977417Y-69985266D01*
X120980575Y-69986786D01*
X120980578Y-69986788D01*
X121025970Y-70008638D01*
X121079055Y-70034192D01*
X121189034Y-70059269D01*
X121245434Y-70059255D01*
X121245934Y-70059255D01*
X134244934Y-70059255D01*
X134245533Y-70059255D01*
X134245568Y-70059239D01*
X134245626Y-70059232D01*
X134301824Y-70059231D01*
X134411776Y-70034130D01*
X134513387Y-69985195D01*
X134601563Y-69914878D01*
X134671883Y-69826705D01*
X134720823Y-69725096D01*
X134745925Y-69615156D01*
X139794841Y-69615156D01*
X139795621Y-69618572D01*
X139795622Y-69618579D01*
X139819155Y-69721706D01*
X139819157Y-69721713D01*
X139819937Y-69725129D01*
X139868881Y-69826759D01*
X139871069Y-69829502D01*
X139871072Y-69829507D01*
X139916373Y-69886304D01*
X139939217Y-69914946D01*
X140027417Y-69985266D01*
X140030575Y-69986786D01*
X140030578Y-69986788D01*
X140075970Y-70008638D01*
X140129055Y-70034192D01*
X140239034Y-70059269D01*
X140295434Y-70059255D01*
X140295934Y-70059255D01*
X153294934Y-70059255D01*
X153295533Y-70059255D01*
X153295568Y-70059239D01*
X153295626Y-70059232D01*
X153351824Y-70059231D01*
X153461776Y-70034130D01*
X153563387Y-69985195D01*
X153651563Y-69914878D01*
X153721883Y-69826705D01*
X153770823Y-69725096D01*
X153795925Y-69615156D01*
X158844841Y-69615156D01*
X158845621Y-69618572D01*
X158845622Y-69618579D01*
X158869155Y-69721706D01*
X158869157Y-69721713D01*
X158869937Y-69725129D01*
X158918881Y-69826759D01*
X158921069Y-69829502D01*
X158921072Y-69829507D01*
X158966373Y-69886304D01*
X158989217Y-69914946D01*
X159077417Y-69985266D01*
X159080575Y-69986786D01*
X159080578Y-69986788D01*
X159125970Y-70008638D01*
X159179055Y-70034192D01*
X159289034Y-70059269D01*
X159345434Y-70059255D01*
X159345934Y-70059255D01*
X172344934Y-70059255D01*
X172345533Y-70059255D01*
X172345568Y-70059239D01*
X172345626Y-70059232D01*
X172401824Y-70059231D01*
X172511776Y-70034130D01*
X172613387Y-69985195D01*
X172701563Y-69914878D01*
X172771883Y-69826705D01*
X172820823Y-69725096D01*
X172845925Y-69615156D01*
X177894841Y-69615156D01*
X177895621Y-69618572D01*
X177895622Y-69618579D01*
X177919155Y-69721706D01*
X177919157Y-69721713D01*
X177919937Y-69725129D01*
X177968881Y-69826759D01*
X177971069Y-69829502D01*
X177971072Y-69829507D01*
X178016373Y-69886304D01*
X178039217Y-69914946D01*
X178127417Y-69985266D01*
X178130575Y-69986786D01*
X178130578Y-69986788D01*
X178175970Y-70008638D01*
X178229055Y-70034192D01*
X178339034Y-70059269D01*
X178395434Y-70059255D01*
X178395934Y-70059255D01*
X191394934Y-70059255D01*
X191395533Y-70059255D01*
X191395568Y-70059239D01*
X191395626Y-70059232D01*
X191451824Y-70059231D01*
X191561776Y-70034130D01*
X191663387Y-69985195D01*
X191751563Y-69914878D01*
X191821883Y-69826705D01*
X191870823Y-69725096D01*
X191895925Y-69615156D01*
X196944841Y-69615156D01*
X196945621Y-69618572D01*
X196945622Y-69618579D01*
X196969155Y-69721706D01*
X196969157Y-69721713D01*
X196969937Y-69725129D01*
X197018881Y-69826759D01*
X197021069Y-69829502D01*
X197021072Y-69829507D01*
X197066373Y-69886304D01*
X197089217Y-69914946D01*
X197177417Y-69985266D01*
X197180575Y-69986786D01*
X197180578Y-69986788D01*
X197225970Y-70008638D01*
X197279055Y-70034192D01*
X197389034Y-70059269D01*
X197445434Y-70059255D01*
X197445934Y-70059255D01*
X210444934Y-70059255D01*
X210445533Y-70059255D01*
X210445568Y-70059239D01*
X210445626Y-70059232D01*
X210501824Y-70059231D01*
X210611776Y-70034130D01*
X210713387Y-69985195D01*
X210801563Y-69914878D01*
X210871883Y-69826705D01*
X210920823Y-69725096D01*
X210945925Y-69615156D01*
X220757341Y-69615156D01*
X220758121Y-69618572D01*
X220758122Y-69618579D01*
X220781655Y-69721706D01*
X220781657Y-69721713D01*
X220782437Y-69725129D01*
X220831381Y-69826759D01*
X220833569Y-69829502D01*
X220833572Y-69829507D01*
X220878873Y-69886304D01*
X220901717Y-69914946D01*
X220989917Y-69985266D01*
X220993075Y-69986786D01*
X220993078Y-69986788D01*
X221038470Y-70008638D01*
X221091555Y-70034192D01*
X221201534Y-70059269D01*
X221257934Y-70059255D01*
X221258434Y-70059255D01*
X222635671Y-70059255D01*
X222642675Y-70059649D01*
X222645962Y-70060019D01*
X222666060Y-70062287D01*
X222666959Y-70062396D01*
X222750908Y-70073402D01*
X222763425Y-70076380D01*
X222805438Y-70091086D01*
X222808672Y-70092321D01*
X222865651Y-70115926D01*
X222874985Y-70120749D01*
X222915508Y-70146215D01*
X222920304Y-70149551D01*
X222966813Y-70185244D01*
X222972951Y-70190627D01*
X223007265Y-70224944D01*
X223012656Y-70231092D01*
X223048430Y-70277721D01*
X223051762Y-70282513D01*
X223077107Y-70322849D01*
X223081932Y-70332189D01*
X223105717Y-70389628D01*
X223106964Y-70392896D01*
X223121498Y-70434429D01*
X223124472Y-70446921D01*
X223135336Y-70529503D01*
X223135476Y-70530652D01*
X223138290Y-70555607D01*
X223138684Y-70562610D01*
X223138684Y-80518245D01*
X223138290Y-80525251D01*
X223135728Y-80547963D01*
X223135589Y-80549101D01*
X223124470Y-80633700D01*
X223121495Y-80646200D01*
X223107189Y-80687080D01*
X223105937Y-80690359D01*
X223081825Y-80748556D01*
X223077005Y-80757886D01*
X223052115Y-80797497D01*
X223048777Y-80802295D01*
X223012324Y-80849795D01*
X223006938Y-80855936D01*
X222973407Y-80889470D01*
X222967256Y-80894864D01*
X222919551Y-80931466D01*
X222914762Y-80934798D01*
X222875482Y-80959483D01*
X222866144Y-80964308D01*
X222807063Y-80988780D01*
X222803794Y-80990027D01*
X222763853Y-81004008D01*
X222751363Y-81006983D01*
X222664809Y-81018380D01*
X222663659Y-81018521D01*
X222642924Y-81020861D01*
X222635915Y-81021255D01*
X221639085Y-81021255D01*
X221639042Y-81021271D01*
X221638930Y-81021282D01*
X221586301Y-81021276D01*
X221586297Y-81021276D01*
X221582791Y-81021276D01*
X221579373Y-81022055D01*
X221579370Y-81022056D01*
X221476252Y-81045578D01*
X221476250Y-81045578D01*
X221472829Y-81046359D01*
X221469670Y-81047879D01*
X221469664Y-81047882D01*
X221374364Y-81093767D01*
X221374360Y-81093768D01*
X221371208Y-81095287D01*
X221368472Y-81097467D01*
X221368468Y-81097471D01*
X221285768Y-81163414D01*
X221285763Y-81163418D01*
X221283024Y-81165603D01*
X221280838Y-81168343D01*
X221280834Y-81168348D01*
X221214891Y-81251037D01*
X221214887Y-81251042D01*
X221212702Y-81253783D01*
X221211181Y-81256939D01*
X221211178Y-81256946D01*
X221165292Y-81352237D01*
X221165290Y-81352241D01*
X221163769Y-81355401D01*
X221162988Y-81358821D01*
X221162988Y-81358823D01*
X221139460Y-81461935D01*
X221139459Y-81461943D01*
X221138679Y-81465362D01*
X221138679Y-81468873D01*
X221138679Y-81468876D01*
X221138684Y-81521755D01*
X221138684Y-87521616D01*
X221138666Y-87521755D01*
X221138645Y-87521755D01*
X221138645Y-87521912D01*
X221138645Y-87521913D01*
X221138650Y-87574643D01*
X221138650Y-87574648D01*
X221138651Y-87578149D01*
X221163758Y-87688107D01*
X221165275Y-87691257D01*
X221165277Y-87691262D01*
X221211178Y-87786558D01*
X221212702Y-87789722D01*
X221283029Y-87877899D01*
X221371212Y-87948219D01*
X221374370Y-87949739D01*
X221374372Y-87949741D01*
X221469667Y-87995632D01*
X221472830Y-87997155D01*
X221476249Y-87997935D01*
X221476251Y-87997936D01*
X221578457Y-88021264D01*
X221582790Y-88022253D01*
X221639084Y-88022254D01*
X221639085Y-88022255D01*
X221639184Y-88022255D01*
X222635671Y-88022255D01*
X222642675Y-88022649D01*
X222645962Y-88023019D01*
X222666060Y-88025287D01*
X222666959Y-88025396D01*
X222750908Y-88036402D01*
X222763425Y-88039380D01*
X222805438Y-88054086D01*
X222808672Y-88055321D01*
X222865651Y-88078926D01*
X222874985Y-88083749D01*
X222915508Y-88109215D01*
X222920304Y-88112551D01*
X222966813Y-88148244D01*
X222972951Y-88153627D01*
X223007265Y-88187944D01*
X223012656Y-88194092D01*
X223048430Y-88240721D01*
X223051762Y-88245513D01*
X223077107Y-88285849D01*
X223081932Y-88295189D01*
X223105717Y-88352628D01*
X223106964Y-88355896D01*
X223121498Y-88397429D01*
X223124472Y-88409921D01*
X223135336Y-88492503D01*
X223135476Y-88493652D01*
X223138290Y-88518607D01*
X223138684Y-88525610D01*
X223138684Y-88608616D01*
X223138666Y-88608755D01*
X223138645Y-88608755D01*
X223138645Y-88608912D01*
X223138645Y-88608913D01*
X223138650Y-88661643D01*
X223138650Y-88661648D01*
X223138651Y-88665149D01*
X223163758Y-88775107D01*
X223165275Y-88778257D01*
X223165277Y-88778262D01*
X223211168Y-88873538D01*
X223212702Y-88876722D01*
X223214891Y-88879467D01*
X223214892Y-88879468D01*
X223247402Y-88920230D01*
X223283029Y-88964899D01*
X223371212Y-89035219D01*
X223374370Y-89036739D01*
X223374372Y-89036741D01*
X223420239Y-89058829D01*
X223472830Y-89084155D01*
X223476249Y-89084935D01*
X223476251Y-89084936D01*
X223579368Y-89108472D01*
X223582790Y-89109253D01*
X223639084Y-89109254D01*
X223639085Y-89109255D01*
X223639184Y-89109255D01*
X236638684Y-89109255D01*
X236639113Y-89109255D01*
X236639184Y-89109269D01*
X236639184Y-89109284D01*
X236695579Y-89109285D01*
X236805543Y-89084189D01*
X236907163Y-89035250D01*
X236995345Y-88964925D01*
X237065666Y-88876739D01*
X237114598Y-88775115D01*
X237139689Y-88665150D01*
X237139684Y-88608755D01*
X237139684Y-88608255D01*
X237139684Y-66083656D01*
X237139659Y-66083595D01*
X237139645Y-66083451D01*
X237139651Y-66027363D01*
X237114564Y-65917405D01*
X237065636Y-65815788D01*
X236995321Y-65727606D01*
X236992575Y-65725416D01*
X236909894Y-65659476D01*
X236909890Y-65659473D01*
X236907146Y-65657285D01*
X236858208Y-65633717D01*
X236808695Y-65609872D01*
X236808693Y-65609871D01*
X236805532Y-65608349D01*
X236802115Y-65607569D01*
X236802109Y-65607567D01*
X236698998Y-65584034D01*
X236698997Y-65584033D01*
X236695576Y-65583253D01*
X236692067Y-65583253D01*
X236639184Y-65583255D01*
X235261438Y-65583255D01*
X235254444Y-65582862D01*
X235232644Y-65580407D01*
X235231463Y-65580263D01*
X235145605Y-65568936D01*
X235133144Y-65565968D01*
X235094033Y-65552287D01*
X235090749Y-65551034D01*
X235030643Y-65526135D01*
X235021316Y-65521316D01*
X234982990Y-65497239D01*
X234978190Y-65493901D01*
X234929343Y-65456420D01*
X234923206Y-65451039D01*
X234890659Y-65418497D01*
X234885267Y-65412349D01*
X234847661Y-65363345D01*
X234844327Y-65358552D01*
X234820410Y-65320497D01*
X234815590Y-65311169D01*
X234790367Y-65250287D01*
X234789122Y-65247025D01*
X234775734Y-65208777D01*
X234772764Y-65196307D01*
X234760846Y-65105855D01*
X234760735Y-65104955D01*
X234758825Y-65088026D01*
X234758434Y-65081044D01*
X234758434Y-64649256D01*
X234758825Y-64642279D01*
X234759296Y-64638078D01*
X234761212Y-64621031D01*
X234761326Y-64620100D01*
X234772833Y-64533097D01*
X234775789Y-64520692D01*
X234789013Y-64482875D01*
X234790218Y-64479718D01*
X234815721Y-64418131D01*
X234820529Y-64408821D01*
X234844130Y-64371254D01*
X234847441Y-64366491D01*
X234885483Y-64316904D01*
X234890841Y-64310792D01*
X234923023Y-64278609D01*
X234929123Y-64273259D01*
X234978515Y-64235353D01*
X234983261Y-64232052D01*
X235021174Y-64208232D01*
X235030483Y-64203423D01*
X235091165Y-64178283D01*
X235094330Y-64177074D01*
X235133067Y-64163526D01*
X235145513Y-64160563D01*
X235232574Y-64149095D01*
X235233626Y-64148967D01*
X235254267Y-64146646D01*
X235261250Y-64146255D01*
X235638684Y-64146255D01*
X235639113Y-64146255D01*
X235639184Y-64146269D01*
X235639184Y-64146284D01*
X235695579Y-64146285D01*
X235805543Y-64121189D01*
X235907163Y-64072250D01*
X235995345Y-64001925D01*
X236065666Y-63913739D01*
X236114598Y-63812115D01*
X236139689Y-63702150D01*
X236139684Y-63645755D01*
X236139684Y-63645255D01*
X236139684Y-57645656D01*
X236139659Y-57645595D01*
X236139645Y-57645451D01*
X236139651Y-57589363D01*
X236114564Y-57479405D01*
X236065636Y-57377788D01*
X235995321Y-57289606D01*
X235963678Y-57264370D01*
X235909894Y-57221476D01*
X235909890Y-57221473D01*
X235907146Y-57219285D01*
X235858208Y-57195717D01*
X235808695Y-57171872D01*
X235808693Y-57171871D01*
X235805532Y-57170349D01*
X235802115Y-57169569D01*
X235802109Y-57169567D01*
X235698998Y-57146034D01*
X235698997Y-57146033D01*
X235695576Y-57145253D01*
X235692067Y-57145253D01*
X235639184Y-57145255D01*
X235261438Y-57145255D01*
X235254444Y-57144862D01*
X235232644Y-57142407D01*
X235231463Y-57142263D01*
X235145605Y-57130936D01*
X235133144Y-57127968D01*
X235094033Y-57114287D01*
X235090749Y-57113034D01*
X235030643Y-57088135D01*
X235021316Y-57083316D01*
X234982990Y-57059239D01*
X234978190Y-57055901D01*
X234954033Y-57037365D01*
X234929343Y-57018420D01*
X234923206Y-57013039D01*
X234890659Y-56980497D01*
X234885267Y-56974349D01*
X234847661Y-56925345D01*
X234844327Y-56920552D01*
X234820410Y-56882497D01*
X234815590Y-56873169D01*
X234790367Y-56812287D01*
X234789122Y-56809025D01*
X234775734Y-56770777D01*
X234772764Y-56758307D01*
X234760846Y-56667855D01*
X234760735Y-56666955D01*
X234758825Y-56650026D01*
X234758434Y-56643044D01*
X234758434Y-56559120D01*
X234758434Y-56558656D01*
X234758373Y-56558509D01*
X234758343Y-56558214D01*
X234758341Y-56502370D01*
X234733243Y-56392428D01*
X234731703Y-56389231D01*
X234685835Y-56293982D01*
X234684315Y-56290825D01*
X234682132Y-56288087D01*
X234682130Y-56288084D01*
X234641603Y-56237259D01*
X234614010Y-56202654D01*
X234611266Y-56200465D01*
X234611264Y-56200463D01*
X234528594Y-56134520D01*
X234528593Y-56134519D01*
X234525851Y-56132332D01*
X234522688Y-56130808D01*
X234427420Y-56084910D01*
X234427417Y-56084909D01*
X234424256Y-56083386D01*
X234420837Y-56082605D01*
X234420832Y-56082603D01*
X234317736Y-56059049D01*
X234317730Y-56059048D01*
X234314319Y-56058269D01*
X234310814Y-56058268D01*
X234310813Y-56058268D01*
X234258033Y-56058255D01*
X221257988Y-56058255D01*
X221257934Y-56058244D01*
X221257934Y-56058234D01*
X221257885Y-56058233D01*
X221257881Y-56058233D01*
X221205051Y-56058231D01*
X221205049Y-56058231D01*
X221201539Y-56058231D01*
X221198117Y-56059011D01*
X221198115Y-56059012D01*
X221094995Y-56082543D01*
X221094990Y-56082544D01*
X221091575Y-56083324D01*
X221088420Y-56084842D01*
X221088412Y-56084846D01*
X220993115Y-56130737D01*
X220993106Y-56130742D01*
X220989953Y-56132261D01*
X220987209Y-56134448D01*
X220987206Y-56134451D01*
X220904515Y-56200395D01*
X220904510Y-56200399D01*
X220901770Y-56202585D01*
X220899585Y-56205324D01*
X220899581Y-56205329D01*
X220833634Y-56288030D01*
X220833631Y-56288034D01*
X220831449Y-56290771D01*
X220829931Y-56293923D01*
X220829927Y-56293930D01*
X220791780Y-56373157D01*
X220782517Y-56392395D01*
X220781736Y-56395814D01*
X220781736Y-56395817D01*
X220769917Y-56447622D01*
X220757428Y-56502360D01*
X220757428Y-56505870D01*
X220757428Y-56505874D01*
X220757434Y-56558755D01*
X220757434Y-69558536D01*
X220757390Y-69558755D01*
X220757345Y-69558755D01*
X220757344Y-69558978D01*
X220757344Y-69558983D01*
X220757341Y-69611634D01*
X220757341Y-69615156D01*
X210945925Y-69615156D01*
X210945928Y-69615145D01*
X210945934Y-69558755D01*
X210945934Y-69558255D01*
X210945934Y-58524836D01*
X213433631Y-58524836D01*
X213433695Y-58526835D01*
X213433695Y-58526839D01*
X213443445Y-58830914D01*
X213443446Y-58830928D01*
X213443510Y-58832912D01*
X213443826Y-58834871D01*
X213443828Y-58834884D01*
X213492384Y-59135220D01*
X213492386Y-59135230D01*
X213492704Y-59137195D01*
X213493269Y-59139101D01*
X213493272Y-59139111D01*
X213579836Y-59430772D01*
X213579839Y-59430782D01*
X213580406Y-59432690D01*
X213581211Y-59434510D01*
X213581215Y-59434519D01*
X213704364Y-59712714D01*
X213705174Y-59714543D01*
X213706205Y-59716245D01*
X213706211Y-59716255D01*
X213863921Y-59976414D01*
X213863925Y-59976420D01*
X213864960Y-59978127D01*
X214057141Y-60219115D01*
X214278561Y-60433548D01*
X214525584Y-60617906D01*
X214794155Y-60769162D01*
X215079862Y-60884833D01*
X215378016Y-60963018D01*
X215683720Y-61002434D01*
X215913815Y-61002434D01*
X215914811Y-61002434D01*
X216145438Y-60987627D01*
X216447988Y-60928706D01*
X216740520Y-60831578D01*
X217018230Y-60697841D01*
X217276557Y-60529688D01*
X217511261Y-60329882D01*
X217718487Y-60101703D01*
X217894833Y-59848897D01*
X218037404Y-59575617D01*
X218143857Y-59286349D01*
X218212446Y-58985842D01*
X218242043Y-58679032D01*
X218232164Y-58370956D01*
X218182970Y-58066673D01*
X218095268Y-57771178D01*
X217970500Y-57489325D01*
X217964486Y-57479405D01*
X217811752Y-57227453D01*
X217811750Y-57227451D01*
X217810714Y-57225741D01*
X217804349Y-57217760D01*
X217675271Y-57055901D01*
X217618533Y-56984753D01*
X217397113Y-56770320D01*
X217395503Y-56769118D01*
X217395499Y-56769115D01*
X217151705Y-56587167D01*
X217151701Y-56587164D01*
X217150090Y-56585962D01*
X216881519Y-56434706D01*
X216879659Y-56433953D01*
X216879655Y-56433951D01*
X216597668Y-56319786D01*
X216597662Y-56319784D01*
X216595812Y-56319035D01*
X216593885Y-56318529D01*
X216593877Y-56318527D01*
X216322361Y-56247328D01*
X216297658Y-56240850D01*
X216295679Y-56240594D01*
X216295675Y-56240594D01*
X215993946Y-56201690D01*
X215993933Y-56201689D01*
X215991954Y-56201434D01*
X215760863Y-56201434D01*
X215759888Y-56201496D01*
X215759875Y-56201497D01*
X215532233Y-56216112D01*
X215532220Y-56216113D01*
X215530236Y-56216241D01*
X215528279Y-56216621D01*
X215528264Y-56216624D01*
X215229662Y-56274777D01*
X215229659Y-56274777D01*
X215227686Y-56275162D01*
X215225785Y-56275793D01*
X215225778Y-56275795D01*
X214937055Y-56371658D01*
X214937043Y-56371662D01*
X214935154Y-56372290D01*
X214933357Y-56373155D01*
X214933353Y-56373157D01*
X214659246Y-56505159D01*
X214657444Y-56506027D01*
X214655766Y-56507118D01*
X214655761Y-56507122D01*
X214400806Y-56673080D01*
X214400799Y-56673084D01*
X214399117Y-56674180D01*
X214397586Y-56675482D01*
X214397581Y-56675487D01*
X214165944Y-56872682D01*
X214165938Y-56872687D01*
X214164413Y-56873986D01*
X214163074Y-56875460D01*
X214163062Y-56875472D01*
X213958537Y-57100677D01*
X213958527Y-57100689D01*
X213957187Y-57102165D01*
X213956044Y-57103802D01*
X213956038Y-57103811D01*
X213781985Y-57353330D01*
X213781980Y-57353337D01*
X213780841Y-57354971D01*
X213779918Y-57356739D01*
X213779915Y-57356745D01*
X213639197Y-57626472D01*
X213639190Y-57626486D01*
X213638270Y-57628251D01*
X213637582Y-57630120D01*
X213637576Y-57630134D01*
X213532512Y-57915628D01*
X213532508Y-57915640D01*
X213531817Y-57917519D01*
X213531371Y-57919469D01*
X213531369Y-57919479D01*
X213463672Y-58216077D01*
X213463669Y-58216089D01*
X213463228Y-58218026D01*
X213463037Y-58220005D01*
X213463035Y-58220018D01*
X213433823Y-58522835D01*
X213433822Y-58522850D01*
X213433631Y-58524836D01*
X210945934Y-58524836D01*
X210945934Y-56558656D01*
X210945873Y-56558509D01*
X210945843Y-56558214D01*
X210945841Y-56502370D01*
X210920743Y-56392428D01*
X210919203Y-56389231D01*
X210873335Y-56293982D01*
X210871815Y-56290825D01*
X210869632Y-56288087D01*
X210869630Y-56288084D01*
X210829103Y-56237259D01*
X210801510Y-56202654D01*
X210798766Y-56200465D01*
X210798764Y-56200463D01*
X210716094Y-56134520D01*
X210716093Y-56134519D01*
X210713351Y-56132332D01*
X210710188Y-56130808D01*
X210614920Y-56084910D01*
X210614917Y-56084909D01*
X210611756Y-56083386D01*
X210608337Y-56082605D01*
X210608332Y-56082603D01*
X210505236Y-56059049D01*
X210505230Y-56059048D01*
X210501819Y-56058269D01*
X210498314Y-56058268D01*
X210498313Y-56058268D01*
X210445533Y-56058255D01*
X197445488Y-56058255D01*
X197445434Y-56058244D01*
X197445434Y-56058234D01*
X197445385Y-56058233D01*
X197445381Y-56058233D01*
X197392551Y-56058231D01*
X197392549Y-56058231D01*
X197389039Y-56058231D01*
X197385617Y-56059011D01*
X197385615Y-56059012D01*
X197282495Y-56082543D01*
X197282490Y-56082544D01*
X197279075Y-56083324D01*
X197275920Y-56084842D01*
X197275912Y-56084846D01*
X197180615Y-56130737D01*
X197180606Y-56130742D01*
X197177453Y-56132261D01*
X197174709Y-56134448D01*
X197174706Y-56134451D01*
X197092015Y-56200395D01*
X197092010Y-56200399D01*
X197089270Y-56202585D01*
X197087085Y-56205324D01*
X197087081Y-56205329D01*
X197021134Y-56288030D01*
X197021131Y-56288034D01*
X197018949Y-56290771D01*
X197017431Y-56293923D01*
X197017427Y-56293930D01*
X196979280Y-56373157D01*
X196970017Y-56392395D01*
X196969236Y-56395814D01*
X196969236Y-56395817D01*
X196957417Y-56447622D01*
X196944928Y-56502360D01*
X196944928Y-56505870D01*
X196944928Y-56505874D01*
X196944934Y-56558755D01*
X196944934Y-69558536D01*
X196944890Y-69558755D01*
X196944845Y-69558755D01*
X196944844Y-69558978D01*
X196944844Y-69558983D01*
X196944841Y-69611634D01*
X196944841Y-69615156D01*
X191895925Y-69615156D01*
X191895928Y-69615145D01*
X191895934Y-69558755D01*
X191895934Y-69558255D01*
X191895934Y-56558656D01*
X191895873Y-56558509D01*
X191895843Y-56558214D01*
X191895841Y-56502370D01*
X191870743Y-56392428D01*
X191869203Y-56389231D01*
X191823335Y-56293982D01*
X191821815Y-56290825D01*
X191819632Y-56288087D01*
X191819630Y-56288084D01*
X191779103Y-56237259D01*
X191751510Y-56202654D01*
X191748766Y-56200465D01*
X191748764Y-56200463D01*
X191666094Y-56134520D01*
X191666093Y-56134519D01*
X191663351Y-56132332D01*
X191660188Y-56130808D01*
X191564920Y-56084910D01*
X191564917Y-56084909D01*
X191561756Y-56083386D01*
X191558337Y-56082605D01*
X191558332Y-56082603D01*
X191455236Y-56059049D01*
X191455230Y-56059048D01*
X191451819Y-56058269D01*
X191448314Y-56058268D01*
X191448313Y-56058268D01*
X191395533Y-56058255D01*
X178395488Y-56058255D01*
X178395434Y-56058244D01*
X178395434Y-56058234D01*
X178395385Y-56058233D01*
X178395381Y-56058233D01*
X178342551Y-56058231D01*
X178342549Y-56058231D01*
X178339039Y-56058231D01*
X178335617Y-56059011D01*
X178335615Y-56059012D01*
X178232495Y-56082543D01*
X178232490Y-56082544D01*
X178229075Y-56083324D01*
X178225920Y-56084842D01*
X178225912Y-56084846D01*
X178130615Y-56130737D01*
X178130606Y-56130742D01*
X178127453Y-56132261D01*
X178124709Y-56134448D01*
X178124706Y-56134451D01*
X178042015Y-56200395D01*
X178042010Y-56200399D01*
X178039270Y-56202585D01*
X178037085Y-56205324D01*
X178037081Y-56205329D01*
X177971134Y-56288030D01*
X177971131Y-56288034D01*
X177968949Y-56290771D01*
X177967431Y-56293923D01*
X177967427Y-56293930D01*
X177929280Y-56373157D01*
X177920017Y-56392395D01*
X177919236Y-56395814D01*
X177919236Y-56395817D01*
X177907417Y-56447622D01*
X177894928Y-56502360D01*
X177894928Y-56505870D01*
X177894928Y-56505874D01*
X177894934Y-56558755D01*
X177894934Y-69558536D01*
X177894890Y-69558755D01*
X177894845Y-69558755D01*
X177894844Y-69558978D01*
X177894844Y-69558983D01*
X177894841Y-69611634D01*
X177894841Y-69615156D01*
X172845925Y-69615156D01*
X172845928Y-69615145D01*
X172845934Y-69558755D01*
X172845934Y-69558255D01*
X172845934Y-56558656D01*
X172845873Y-56558509D01*
X172845843Y-56558214D01*
X172845841Y-56502370D01*
X172820743Y-56392428D01*
X172819203Y-56389231D01*
X172773335Y-56293982D01*
X172771815Y-56290825D01*
X172769632Y-56288087D01*
X172769630Y-56288084D01*
X172729103Y-56237259D01*
X172701510Y-56202654D01*
X172698766Y-56200465D01*
X172698764Y-56200463D01*
X172616094Y-56134520D01*
X172616093Y-56134519D01*
X172613351Y-56132332D01*
X172610188Y-56130808D01*
X172514920Y-56084910D01*
X172514917Y-56084909D01*
X172511756Y-56083386D01*
X172508337Y-56082605D01*
X172508332Y-56082603D01*
X172405236Y-56059049D01*
X172405230Y-56059048D01*
X172401819Y-56058269D01*
X172398314Y-56058268D01*
X172398313Y-56058268D01*
X172345533Y-56058255D01*
X159345488Y-56058255D01*
X159345434Y-56058244D01*
X159345434Y-56058234D01*
X159345385Y-56058233D01*
X159345381Y-56058233D01*
X159292551Y-56058231D01*
X159292549Y-56058231D01*
X159289039Y-56058231D01*
X159285617Y-56059011D01*
X159285615Y-56059012D01*
X159182495Y-56082543D01*
X159182490Y-56082544D01*
X159179075Y-56083324D01*
X159175920Y-56084842D01*
X159175912Y-56084846D01*
X159080615Y-56130737D01*
X159080606Y-56130742D01*
X159077453Y-56132261D01*
X159074709Y-56134448D01*
X159074706Y-56134451D01*
X158992015Y-56200395D01*
X158992010Y-56200399D01*
X158989270Y-56202585D01*
X158987085Y-56205324D01*
X158987081Y-56205329D01*
X158921134Y-56288030D01*
X158921131Y-56288034D01*
X158918949Y-56290771D01*
X158917431Y-56293923D01*
X158917427Y-56293930D01*
X158879280Y-56373157D01*
X158870017Y-56392395D01*
X158869236Y-56395814D01*
X158869236Y-56395817D01*
X158857417Y-56447622D01*
X158844928Y-56502360D01*
X158844928Y-56505870D01*
X158844928Y-56505874D01*
X158844934Y-56558755D01*
X158844934Y-69558536D01*
X158844890Y-69558755D01*
X158844845Y-69558755D01*
X158844844Y-69558978D01*
X158844844Y-69558983D01*
X158844841Y-69611634D01*
X158844841Y-69615156D01*
X153795925Y-69615156D01*
X153795928Y-69615145D01*
X153795934Y-69558755D01*
X153795934Y-69558255D01*
X153795934Y-56558656D01*
X153795873Y-56558509D01*
X153795843Y-56558214D01*
X153795841Y-56502370D01*
X153770743Y-56392428D01*
X153769203Y-56389231D01*
X153723335Y-56293982D01*
X153721815Y-56290825D01*
X153719632Y-56288087D01*
X153719630Y-56288084D01*
X153679103Y-56237259D01*
X153651510Y-56202654D01*
X153648766Y-56200465D01*
X153648764Y-56200463D01*
X153566094Y-56134520D01*
X153566093Y-56134519D01*
X153563351Y-56132332D01*
X153560188Y-56130808D01*
X153464920Y-56084910D01*
X153464917Y-56084909D01*
X153461756Y-56083386D01*
X153458337Y-56082605D01*
X153458332Y-56082603D01*
X153355236Y-56059049D01*
X153355230Y-56059048D01*
X153351819Y-56058269D01*
X153348314Y-56058268D01*
X153348313Y-56058268D01*
X153295533Y-56058255D01*
X140295488Y-56058255D01*
X140295434Y-56058244D01*
X140295434Y-56058234D01*
X140295385Y-56058233D01*
X140295381Y-56058233D01*
X140242551Y-56058231D01*
X140242549Y-56058231D01*
X140239039Y-56058231D01*
X140235617Y-56059011D01*
X140235615Y-56059012D01*
X140132495Y-56082543D01*
X140132490Y-56082544D01*
X140129075Y-56083324D01*
X140125920Y-56084842D01*
X140125912Y-56084846D01*
X140030615Y-56130737D01*
X140030606Y-56130742D01*
X140027453Y-56132261D01*
X140024709Y-56134448D01*
X140024706Y-56134451D01*
X139942015Y-56200395D01*
X139942010Y-56200399D01*
X139939270Y-56202585D01*
X139937085Y-56205324D01*
X139937081Y-56205329D01*
X139871134Y-56288030D01*
X139871131Y-56288034D01*
X139868949Y-56290771D01*
X139867431Y-56293923D01*
X139867427Y-56293930D01*
X139829280Y-56373157D01*
X139820017Y-56392395D01*
X139819236Y-56395814D01*
X139819236Y-56395817D01*
X139807417Y-56447622D01*
X139794928Y-56502360D01*
X139794928Y-56505870D01*
X139794928Y-56505874D01*
X139794934Y-56558755D01*
X139794934Y-69558536D01*
X139794890Y-69558755D01*
X139794845Y-69558755D01*
X139794844Y-69558978D01*
X139794844Y-69558983D01*
X139794841Y-69611634D01*
X139794841Y-69615156D01*
X134745925Y-69615156D01*
X134745928Y-69615145D01*
X134745934Y-69558755D01*
X134745934Y-69558255D01*
X134745934Y-56558656D01*
X134745873Y-56558509D01*
X134745843Y-56558214D01*
X134745841Y-56502370D01*
X134720743Y-56392428D01*
X134719203Y-56389231D01*
X134673335Y-56293982D01*
X134671815Y-56290825D01*
X134669632Y-56288087D01*
X134669630Y-56288084D01*
X134629103Y-56237259D01*
X134601510Y-56202654D01*
X134598766Y-56200465D01*
X134598764Y-56200463D01*
X134516094Y-56134520D01*
X134516093Y-56134519D01*
X134513351Y-56132332D01*
X134510188Y-56130808D01*
X134414920Y-56084910D01*
X134414917Y-56084909D01*
X134411756Y-56083386D01*
X134408337Y-56082605D01*
X134408332Y-56082603D01*
X134305236Y-56059049D01*
X134305230Y-56059048D01*
X134301819Y-56058269D01*
X134298314Y-56058268D01*
X134298313Y-56058268D01*
X134245533Y-56058255D01*
X121245488Y-56058255D01*
X121245434Y-56058244D01*
X121245434Y-56058234D01*
X121245385Y-56058233D01*
X121245381Y-56058233D01*
X121192551Y-56058231D01*
X121192549Y-56058231D01*
X121189039Y-56058231D01*
X121185617Y-56059011D01*
X121185615Y-56059012D01*
X121082495Y-56082543D01*
X121082490Y-56082544D01*
X121079075Y-56083324D01*
X121075920Y-56084842D01*
X121075912Y-56084846D01*
X120980615Y-56130737D01*
X120980606Y-56130742D01*
X120977453Y-56132261D01*
X120974709Y-56134448D01*
X120974706Y-56134451D01*
X120892015Y-56200395D01*
X120892010Y-56200399D01*
X120889270Y-56202585D01*
X120887085Y-56205324D01*
X120887081Y-56205329D01*
X120821134Y-56288030D01*
X120821131Y-56288034D01*
X120818949Y-56290771D01*
X120817431Y-56293923D01*
X120817427Y-56293930D01*
X120779280Y-56373157D01*
X120770017Y-56392395D01*
X120769236Y-56395814D01*
X120769236Y-56395817D01*
X120757417Y-56447622D01*
X120744928Y-56502360D01*
X120744928Y-56505870D01*
X120744928Y-56505874D01*
X120744934Y-56558755D01*
X120744934Y-69558536D01*
X120744890Y-69558755D01*
X120744845Y-69558755D01*
X120744844Y-69558978D01*
X120744844Y-69558983D01*
X120744841Y-69611634D01*
X120744841Y-69615156D01*
X115695925Y-69615156D01*
X115695928Y-69615145D01*
X115695934Y-69558755D01*
X115695934Y-69558255D01*
X115695934Y-56558656D01*
X115695873Y-56558509D01*
X115695843Y-56558214D01*
X115695841Y-56502370D01*
X115670743Y-56392428D01*
X115669203Y-56389231D01*
X115623335Y-56293982D01*
X115621815Y-56290825D01*
X115619632Y-56288087D01*
X115619630Y-56288084D01*
X115579103Y-56237259D01*
X115551510Y-56202654D01*
X115548766Y-56200465D01*
X115548764Y-56200463D01*
X115466094Y-56134520D01*
X115466093Y-56134519D01*
X115463351Y-56132332D01*
X115460188Y-56130808D01*
X115364920Y-56084910D01*
X115364917Y-56084909D01*
X115361756Y-56083386D01*
X115358337Y-56082605D01*
X115358332Y-56082603D01*
X115255236Y-56059049D01*
X115255230Y-56059048D01*
X115251819Y-56058269D01*
X115248314Y-56058268D01*
X115248313Y-56058268D01*
X115195533Y-56058255D01*
X102195488Y-56058255D01*
X102195434Y-56058244D01*
X102195434Y-56058234D01*
X102195385Y-56058233D01*
X102195381Y-56058233D01*
X102142551Y-56058231D01*
X102142549Y-56058231D01*
X102139039Y-56058231D01*
X102135617Y-56059011D01*
X102135615Y-56059012D01*
X102032495Y-56082543D01*
X102032490Y-56082544D01*
X102029075Y-56083324D01*
X102025920Y-56084842D01*
X102025912Y-56084846D01*
X101930615Y-56130737D01*
X101930606Y-56130742D01*
X101927453Y-56132261D01*
X101924709Y-56134448D01*
X101924706Y-56134451D01*
X101842015Y-56200395D01*
X101842010Y-56200399D01*
X101839270Y-56202585D01*
X101837085Y-56205324D01*
X101837081Y-56205329D01*
X101771134Y-56288030D01*
X101771131Y-56288034D01*
X101768949Y-56290771D01*
X101767431Y-56293923D01*
X101767427Y-56293930D01*
X101729280Y-56373157D01*
X101720017Y-56392395D01*
X101719236Y-56395814D01*
X101719236Y-56395817D01*
X101707417Y-56447622D01*
X101694928Y-56502360D01*
X101694928Y-56505870D01*
X101694928Y-56505874D01*
X101694934Y-56558755D01*
X101694934Y-69558536D01*
X101694890Y-69558755D01*
X101694845Y-69558755D01*
X101694844Y-69558978D01*
X101694844Y-69558983D01*
X101694841Y-69611634D01*
X101694841Y-69615156D01*
X96645925Y-69615156D01*
X96645928Y-69615145D01*
X96645934Y-69558755D01*
X96645934Y-69558255D01*
X96645934Y-56558656D01*
X96645873Y-56558509D01*
X96645843Y-56558214D01*
X96645841Y-56502370D01*
X96620743Y-56392428D01*
X96619203Y-56389231D01*
X96573335Y-56293982D01*
X96571815Y-56290825D01*
X96569632Y-56288087D01*
X96569630Y-56288084D01*
X96529103Y-56237259D01*
X96501510Y-56202654D01*
X96498766Y-56200465D01*
X96498764Y-56200463D01*
X96416094Y-56134520D01*
X96416093Y-56134519D01*
X96413351Y-56132332D01*
X96410188Y-56130808D01*
X96314920Y-56084910D01*
X96314917Y-56084909D01*
X96311756Y-56083386D01*
X96308337Y-56082605D01*
X96308332Y-56082603D01*
X96205236Y-56059049D01*
X96205230Y-56059048D01*
X96201819Y-56058269D01*
X96198314Y-56058268D01*
X96198313Y-56058268D01*
X96145533Y-56058255D01*
X83145488Y-56058255D01*
X83145434Y-56058244D01*
X83145434Y-56058234D01*
X83145385Y-56058233D01*
X83145381Y-56058233D01*
X83092551Y-56058231D01*
X83092549Y-56058231D01*
X83089039Y-56058231D01*
X83085617Y-56059011D01*
X83085615Y-56059012D01*
X82982495Y-56082543D01*
X82982490Y-56082544D01*
X82979075Y-56083324D01*
X82975920Y-56084842D01*
X82975912Y-56084846D01*
X82880615Y-56130737D01*
X82880606Y-56130742D01*
X82877453Y-56132261D01*
X82874709Y-56134448D01*
X82874706Y-56134451D01*
X82792015Y-56200395D01*
X82792010Y-56200399D01*
X82789270Y-56202585D01*
X82787085Y-56205324D01*
X82787081Y-56205329D01*
X82721134Y-56288030D01*
X82721131Y-56288034D01*
X82718949Y-56290771D01*
X82717431Y-56293923D01*
X82717427Y-56293930D01*
X82679280Y-56373157D01*
X82670017Y-56392395D01*
X82669236Y-56395814D01*
X82669236Y-56395817D01*
X82657417Y-56447622D01*
X82644928Y-56502360D01*
X82644928Y-56505870D01*
X82644928Y-56505874D01*
X82644934Y-56558755D01*
X82644934Y-69558536D01*
X82644890Y-69558755D01*
X82644845Y-69558755D01*
X82644844Y-69558978D01*
X82644844Y-69558983D01*
X82644841Y-69611634D01*
X82644841Y-69615156D01*
X77595925Y-69615156D01*
X77595928Y-69615145D01*
X77595934Y-69558755D01*
X77595934Y-69558255D01*
X77595934Y-56558656D01*
X77595873Y-56558509D01*
X77595843Y-56558214D01*
X77595841Y-56502370D01*
X77570743Y-56392428D01*
X77569203Y-56389231D01*
X77523335Y-56293982D01*
X77521815Y-56290825D01*
X77519632Y-56288087D01*
X77519630Y-56288084D01*
X77479103Y-56237259D01*
X77451510Y-56202654D01*
X77448766Y-56200465D01*
X77448764Y-56200463D01*
X77366094Y-56134520D01*
X77366093Y-56134519D01*
X77363351Y-56132332D01*
X77360188Y-56130808D01*
X77264920Y-56084910D01*
X77264917Y-56084909D01*
X77261756Y-56083386D01*
X77258337Y-56082605D01*
X77258332Y-56082603D01*
X77155236Y-56059049D01*
X77155230Y-56059048D01*
X77151819Y-56058269D01*
X77148314Y-56058268D01*
X77148313Y-56058268D01*
X77095533Y-56058255D01*
X64095504Y-56058255D01*
X64095434Y-56058246D01*
X64095434Y-56058234D01*
X64095345Y-56058234D01*
X64042546Y-56058240D01*
X64042540Y-56058240D01*
X64039042Y-56058241D01*
X64035633Y-56059019D01*
X64035627Y-56059020D01*
X63932501Y-56082569D01*
X63932497Y-56082570D01*
X63929087Y-56083349D01*
X63925937Y-56084866D01*
X63925929Y-56084869D01*
X63830641Y-56130765D01*
X63830633Y-56130769D01*
X63827475Y-56132291D01*
X63824730Y-56134479D01*
X63824727Y-56134482D01*
X63742040Y-56200427D01*
X63742035Y-56200431D01*
X63739299Y-56202614D01*
X63737117Y-56205349D01*
X63737113Y-56205354D01*
X63671183Y-56288030D01*
X63668980Y-56290793D01*
X63667459Y-56293949D01*
X63667457Y-56293954D01*
X63621564Y-56389246D01*
X63620042Y-56392407D01*
X63619262Y-56395819D01*
X63619260Y-56395828D01*
X63595719Y-56498943D01*
X63595718Y-56498949D01*
X63594939Y-56502363D01*
X63594938Y-56505861D01*
X63594938Y-56505868D01*
X63594934Y-56558655D01*
X63594934Y-69558536D01*
X63594890Y-69558755D01*
X63594845Y-69558755D01*
X63594844Y-69558978D01*
X63594844Y-69558983D01*
X63594841Y-69611634D01*
X63594841Y-69615156D01*
X53783437Y-69615156D01*
X53783439Y-69615148D01*
X53783434Y-69558755D01*
X53783434Y-69558255D01*
X53783434Y-58524836D01*
X56270735Y-58524836D01*
X56270799Y-58526835D01*
X56270799Y-58526839D01*
X56280549Y-58830914D01*
X56280550Y-58830928D01*
X56280614Y-58832912D01*
X56280930Y-58834871D01*
X56280932Y-58834884D01*
X56329488Y-59135220D01*
X56329490Y-59135230D01*
X56329808Y-59137195D01*
X56330373Y-59139101D01*
X56330376Y-59139111D01*
X56416940Y-59430772D01*
X56416943Y-59430782D01*
X56417510Y-59432690D01*
X56418315Y-59434510D01*
X56418319Y-59434519D01*
X56541468Y-59712714D01*
X56542278Y-59714543D01*
X56543309Y-59716245D01*
X56543315Y-59716255D01*
X56701025Y-59976414D01*
X56701029Y-59976420D01*
X56702064Y-59978127D01*
X56894245Y-60219115D01*
X57115665Y-60433548D01*
X57362688Y-60617906D01*
X57631259Y-60769162D01*
X57916966Y-60884833D01*
X58215120Y-60963018D01*
X58520824Y-61002434D01*
X58750919Y-61002434D01*
X58751915Y-61002434D01*
X58982542Y-60987627D01*
X59285092Y-60928706D01*
X59577624Y-60831578D01*
X59855334Y-60697841D01*
X60113661Y-60529688D01*
X60348365Y-60329882D01*
X60555591Y-60101703D01*
X60731937Y-59848897D01*
X60874508Y-59575617D01*
X60980961Y-59286349D01*
X61049550Y-58985842D01*
X61079147Y-58679032D01*
X61069268Y-58370956D01*
X61020074Y-58066673D01*
X60932372Y-57771178D01*
X60807604Y-57489325D01*
X60801590Y-57479405D01*
X60648856Y-57227453D01*
X60648854Y-57227451D01*
X60647818Y-57225741D01*
X60641453Y-57217760D01*
X60512375Y-57055901D01*
X60455637Y-56984753D01*
X60234217Y-56770320D01*
X60232607Y-56769118D01*
X60232603Y-56769115D01*
X59988809Y-56587167D01*
X59988805Y-56587164D01*
X59987194Y-56585962D01*
X59718623Y-56434706D01*
X59716763Y-56433953D01*
X59716759Y-56433951D01*
X59434772Y-56319786D01*
X59434766Y-56319784D01*
X59432916Y-56319035D01*
X59430989Y-56318529D01*
X59430981Y-56318527D01*
X59159465Y-56247328D01*
X59134762Y-56240850D01*
X59132783Y-56240594D01*
X59132779Y-56240594D01*
X58831050Y-56201690D01*
X58831037Y-56201689D01*
X58829058Y-56201434D01*
X58597967Y-56201434D01*
X58596992Y-56201496D01*
X58596979Y-56201497D01*
X58369337Y-56216112D01*
X58369324Y-56216113D01*
X58367340Y-56216241D01*
X58365383Y-56216621D01*
X58365368Y-56216624D01*
X58066766Y-56274777D01*
X58066763Y-56274777D01*
X58064790Y-56275162D01*
X58062889Y-56275793D01*
X58062882Y-56275795D01*
X57774159Y-56371658D01*
X57774147Y-56371662D01*
X57772258Y-56372290D01*
X57770461Y-56373155D01*
X57770457Y-56373157D01*
X57496350Y-56505159D01*
X57494548Y-56506027D01*
X57492870Y-56507118D01*
X57492865Y-56507122D01*
X57237910Y-56673080D01*
X57237903Y-56673084D01*
X57236221Y-56674180D01*
X57234690Y-56675482D01*
X57234685Y-56675487D01*
X57003048Y-56872682D01*
X57003042Y-56872687D01*
X57001517Y-56873986D01*
X57000178Y-56875460D01*
X57000166Y-56875472D01*
X56795641Y-57100677D01*
X56795631Y-57100689D01*
X56794291Y-57102165D01*
X56793148Y-57103802D01*
X56793142Y-57103811D01*
X56619089Y-57353330D01*
X56619084Y-57353337D01*
X56617945Y-57354971D01*
X56617022Y-57356739D01*
X56617019Y-57356745D01*
X56476301Y-57626472D01*
X56476294Y-57626486D01*
X56475374Y-57628251D01*
X56474686Y-57630120D01*
X56474680Y-57630134D01*
X56369616Y-57915628D01*
X56369612Y-57915640D01*
X56368921Y-57917519D01*
X56368475Y-57919469D01*
X56368473Y-57919479D01*
X56300776Y-58216077D01*
X56300773Y-58216089D01*
X56300332Y-58218026D01*
X56300141Y-58220005D01*
X56300139Y-58220018D01*
X56270927Y-58522835D01*
X56270926Y-58522850D01*
X56270735Y-58524836D01*
X53783434Y-58524836D01*
X53783434Y-56558656D01*
X53783375Y-56558515D01*
X53783345Y-56558199D01*
X53783350Y-56507122D01*
X53783351Y-56502367D01*
X53758268Y-56392416D01*
X53709346Y-56290803D01*
X53703730Y-56283760D01*
X53664821Y-56234960D01*
X53639039Y-56202624D01*
X53636244Y-56200395D01*
X53553620Y-56134493D01*
X53553619Y-56134492D01*
X53550873Y-56132302D01*
X53501859Y-56108693D01*
X53452430Y-56084884D01*
X53452425Y-56084882D01*
X53449269Y-56083362D01*
X53445850Y-56082581D01*
X53445849Y-56082581D01*
X53342747Y-56059041D01*
X53339322Y-56058259D01*
X53335813Y-56058258D01*
X53335807Y-56058258D01*
X53283033Y-56058255D01*
X40283004Y-56058255D01*
X40282934Y-56058246D01*
X40282934Y-56058234D01*
X40282845Y-56058234D01*
X40230046Y-56058240D01*
X40230040Y-56058240D01*
X40226542Y-56058241D01*
X40223133Y-56059019D01*
X40223127Y-56059020D01*
X40120001Y-56082569D01*
X40119997Y-56082570D01*
X40116587Y-56083349D01*
X40113437Y-56084866D01*
X40113429Y-56084869D01*
X40018141Y-56130765D01*
X40018133Y-56130769D01*
X40014975Y-56132291D01*
X40012230Y-56134479D01*
X40012227Y-56134482D01*
X39929540Y-56200427D01*
X39929535Y-56200431D01*
X39926799Y-56202614D01*
X39924617Y-56205349D01*
X39924613Y-56205354D01*
X39858683Y-56288030D01*
X39856480Y-56290793D01*
X39854959Y-56293949D01*
X39854957Y-56293954D01*
X39809064Y-56389246D01*
X39807542Y-56392407D01*
X39806762Y-56395819D01*
X39806760Y-56395828D01*
X39783219Y-56498943D01*
X39783218Y-56498949D01*
X39782439Y-56502363D01*
X39782438Y-56505861D01*
X39782438Y-56505868D01*
X39782434Y-56558655D01*
X39782434Y-69558430D01*
X39782391Y-69558755D01*
X39782345Y-69558755D01*
X39782345Y-69559104D01*
X39782345Y-69559105D01*
X32495934Y-69559105D01*
X32495934Y-58297630D01*
X32495993Y-58294904D01*
X32504392Y-58102516D01*
X32504425Y-58102517D01*
X32504399Y-58102358D01*
X32514813Y-57877152D01*
X32515276Y-57871931D01*
X32542665Y-57663897D01*
X32572054Y-57453218D01*
X32572929Y-57448366D01*
X32618903Y-57240988D01*
X32618992Y-57240599D01*
X32667077Y-57036154D01*
X32668307Y-57031682D01*
X32732466Y-56828193D01*
X32732741Y-56827349D01*
X32799120Y-56629301D01*
X32800613Y-56625311D01*
X32882494Y-56427634D01*
X32882987Y-56426481D01*
X32967101Y-56235978D01*
X32968796Y-56232452D01*
X33067786Y-56042293D01*
X33068514Y-56040942D01*
X33169665Y-55859342D01*
X33171512Y-55856243D01*
X33286812Y-55675259D01*
X33287829Y-55673721D01*
X33405189Y-55502395D01*
X33407099Y-55499761D01*
X33537807Y-55329419D01*
X33539224Y-55327646D01*
X33671778Y-55168017D01*
X33673711Y-55165801D01*
X33818777Y-55007489D01*
X33820586Y-55005600D01*
X33967290Y-54858896D01*
X33969152Y-54857113D01*
X34127471Y-54712039D01*
X34129711Y-54710086D01*
X34289337Y-54577534D01*
X34291101Y-54576125D01*
X34461425Y-54445432D01*
X34464092Y-54443497D01*
X34635395Y-54326152D01*
X34636900Y-54325157D01*
X34817929Y-54209829D01*
X34821040Y-54207974D01*
X35002604Y-54106843D01*
X35003951Y-54106118D01*
X35194136Y-54007113D01*
X35197659Y-54005420D01*
X35388102Y-53921331D01*
X35389295Y-53920822D01*
X35587038Y-53838914D01*
X35590980Y-53837439D01*
X35788962Y-53771082D01*
X35789775Y-53770817D01*
X35993407Y-53706612D01*
X35997834Y-53705395D01*
X36202073Y-53657358D01*
X36202737Y-53657208D01*
X36272576Y-53641725D01*
X36410057Y-53611246D01*
X36414910Y-53610370D01*
X36625328Y-53581018D01*
X36833658Y-53553591D01*
X36838852Y-53553130D01*
X37063673Y-53542735D01*
X37063731Y-53542733D01*
X37063890Y-53542759D01*
X37063889Y-53542726D01*
X37256559Y-53534314D01*
X37259286Y-53534255D01*
X237281581Y-53534255D01*
X237284307Y-53534314D01*
G37*
%TD.AperFunction*%
M02*
