%TF.GenerationSoftware,KiCad,Pcbnew,(7.0.0)*%
%TF.CreationDate,2024-03-25T14:15:01+01:00*%
%TF.ProjectId,kicad_tsuru,6b696361-645f-4747-9375-72752e6b6963,rev?*%
%TF.SameCoordinates,Original*%
%TF.FileFunction,Soldermask,Bot*%
%TF.FilePolarity,Negative*%
%FSLAX46Y46*%
G04 Gerber Fmt 4.6, Leading zero omitted, Abs format (unit mm)*
G04 Created by KiCad (PCBNEW (7.0.0)) date 2024-03-25 14:15:01*
%MOMM*%
%LPD*%
G01*
G04 APERTURE LIST*
G04 Aperture macros list*
%AMRoundRect*
0 Rectangle with rounded corners*
0 $1 Rounding radius*
0 $2 $3 $4 $5 $6 $7 $8 $9 X,Y pos of 4 corners*
0 Add a 4 corners polygon primitive as box body*
4,1,4,$2,$3,$4,$5,$6,$7,$8,$9,$2,$3,0*
0 Add four circle primitives for the rounded corners*
1,1,$1+$1,$2,$3*
1,1,$1+$1,$4,$5*
1,1,$1+$1,$6,$7*
1,1,$1+$1,$8,$9*
0 Add four rect primitives between the rounded corners*
20,1,$1+$1,$2,$3,$4,$5,0*
20,1,$1+$1,$4,$5,$6,$7,0*
20,1,$1+$1,$6,$7,$8,$9,0*
20,1,$1+$1,$8,$9,$2,$3,0*%
%AMFreePoly0*
4,1,19,0.500000,-0.750000,0.000000,-0.750000,0.000000,-0.744911,-0.071157,-0.744911,-0.207708,-0.704816,-0.327430,-0.627875,-0.420627,-0.520320,-0.479746,-0.390866,-0.500000,-0.250000,-0.500000,0.250000,-0.479746,0.390866,-0.420627,0.520320,-0.327430,0.627875,-0.207708,0.704816,-0.071157,0.744911,0.000000,0.744911,0.000000,0.750000,0.500000,0.750000,0.500000,-0.750000,0.500000,-0.750000,
$1*%
%AMFreePoly1*
4,1,19,0.000000,0.744911,0.071157,0.744911,0.207708,0.704816,0.327430,0.627875,0.420627,0.520320,0.479746,0.390866,0.500000,0.250000,0.500000,-0.250000,0.479746,-0.390866,0.420627,-0.520320,0.327430,-0.627875,0.207708,-0.704816,0.071157,-0.744911,0.000000,-0.744911,0.000000,-0.750000,-0.500000,-0.750000,-0.500000,0.750000,0.000000,0.750000,0.000000,0.744911,0.000000,0.744911,
$1*%
G04 Aperture macros list end*
%ADD10C,1.750000*%
%ADD11C,3.987800*%
%ADD12RoundRect,0.625000X-0.650000X-0.625000X0.650000X-0.625000X0.650000X0.625000X-0.650000X0.625000X0*%
%ADD13C,3.420000*%
%ADD14C,3.523634*%
%ADD15RoundRect,0.625000X0.650000X0.625000X-0.650000X0.625000X-0.650000X-0.625000X0.650000X-0.625000X0*%
%ADD16C,2.000000*%
%ADD17RoundRect,0.500000X-0.500000X-0.500000X0.500000X-0.500000X0.500000X0.500000X-0.500000X0.500000X0*%
%ADD18RoundRect,0.425000X-0.425000X0.425000X-0.425000X-0.425000X0.425000X-0.425000X0.425000X0.425000X0*%
%ADD19O,1.700000X1.700000*%
%ADD20C,0.700000*%
%ADD21C,4.400000*%
%ADD22C,3.048000*%
%ADD23C,4.000000*%
%ADD24FreePoly0,180.000000*%
%ADD25FreePoly1,180.000000*%
%ADD26RoundRect,0.250000X-0.337500X-0.475000X0.337500X-0.475000X0.337500X0.475000X-0.337500X0.475000X0*%
%ADD27R,0.650000X1.560000*%
%ADD28RoundRect,0.200000X-0.800000X0.200000X-0.800000X-0.200000X0.800000X-0.200000X0.800000X0.200000X0*%
%ADD29R,1.500000X1.000000*%
%ADD30RoundRect,0.150000X-0.150000X0.587500X-0.150000X-0.587500X0.150000X-0.587500X0.150000X0.587500X0*%
%ADD31C,0.990600*%
%ADD32C,0.787400*%
%ADD33R,1.700000X1.000000*%
%ADD34R,1.700000X0.600000*%
%ADD35RoundRect,0.250000X0.475000X-0.337500X0.475000X0.337500X-0.475000X0.337500X-0.475000X-0.337500X0*%
%ADD36RoundRect,0.250000X-0.350000X-0.450000X0.350000X-0.450000X0.350000X0.450000X-0.350000X0.450000X0*%
%ADD37RoundRect,0.250000X0.337500X0.475000X-0.337500X0.475000X-0.337500X-0.475000X0.337500X-0.475000X0*%
%ADD38RoundRect,0.250000X0.350000X0.450000X-0.350000X0.450000X-0.350000X-0.450000X0.350000X-0.450000X0*%
%ADD39RoundRect,0.250000X-0.450000X0.350000X-0.450000X-0.350000X0.450000X-0.350000X0.450000X0.350000X0*%
%ADD40C,0.650000*%
%ADD41R,0.300000X1.750000*%
%ADD42O,1.000000X1.600000*%
%ADD43O,0.900000X2.100000*%
%ADD44RoundRect,0.075000X0.075000X-0.662500X0.075000X0.662500X-0.075000X0.662500X-0.075000X-0.662500X0*%
%ADD45RoundRect,0.075000X0.662500X-0.075000X0.662500X0.075000X-0.662500X0.075000X-0.662500X-0.075000X0*%
%ADD46RoundRect,0.250001X-0.624999X0.462499X-0.624999X-0.462499X0.624999X-0.462499X0.624999X0.462499X0*%
G04 APERTURE END LIST*
D10*
%TO.C,MX19*%
X214124375Y-71806250D03*
D11*
X219204375Y-71806250D03*
D10*
X224284375Y-71806250D03*
D12*
X212119375Y-69266250D03*
D13*
X215394375Y-69266250D03*
D14*
X221744375Y-66726250D03*
D12*
X225046375Y-66726250D03*
%TD*%
D10*
%TO.C,MX6*%
X162371875Y-52756250D03*
D11*
X157291875Y-52756250D03*
D10*
X152211875Y-52756250D03*
D15*
X164376875Y-55296250D03*
D13*
X161101875Y-55296250D03*
D14*
X154751875Y-57836250D03*
D15*
X151449875Y-57836250D03*
%TD*%
D10*
%TO.C,MX30*%
X248096875Y-90856250D03*
D11*
X243016875Y-90856250D03*
D10*
X237936875Y-90856250D03*
D15*
X250101875Y-93396250D03*
D13*
X246826875Y-93396250D03*
D14*
X240476875Y-95936250D03*
D15*
X237174875Y-95936250D03*
%TD*%
D10*
%TO.C,MX31*%
X152846875Y-90856250D03*
D11*
X147766875Y-90856250D03*
D10*
X142686875Y-90856250D03*
D15*
X154851875Y-93396250D03*
D13*
X151576875Y-93396250D03*
D14*
X145226875Y-95936250D03*
D15*
X141924875Y-95936250D03*
%TD*%
D10*
%TO.C,MX25*%
X123636875Y-90856250D03*
D11*
X128716875Y-90856250D03*
D10*
X133796875Y-90856250D03*
D12*
X121631875Y-88316250D03*
D13*
X124906875Y-88316250D03*
D14*
X131256875Y-85776250D03*
D12*
X134558875Y-85776250D03*
%TD*%
D10*
%TO.C,MX16*%
X156974375Y-71806250D03*
D11*
X162054375Y-71806250D03*
D10*
X167134375Y-71806250D03*
D12*
X154969375Y-69266250D03*
D13*
X158244375Y-69266250D03*
D14*
X164594375Y-66726250D03*
D12*
X167896375Y-66726250D03*
%TD*%
D10*
%TO.C,MX18*%
X195074375Y-71806250D03*
D11*
X200154375Y-71806250D03*
D10*
X205234375Y-71806250D03*
D12*
X193069375Y-69266250D03*
D13*
X196344375Y-69266250D03*
D14*
X202694375Y-66726250D03*
D12*
X205996375Y-66726250D03*
%TD*%
D10*
%TO.C,MX3*%
X105221875Y-52756250D03*
D11*
X100141875Y-52756250D03*
D10*
X95061875Y-52756250D03*
D15*
X107226875Y-55296250D03*
D13*
X103951875Y-55296250D03*
D14*
X97601875Y-57836250D03*
D15*
X94299875Y-57836250D03*
%TD*%
D16*
%TO.C,SW1*%
X140266875Y-88356250D03*
X140266875Y-93356250D03*
D17*
X140266875Y-90856250D03*
D16*
X154766875Y-93356250D03*
X154766875Y-88356250D03*
%TD*%
D10*
%TO.C,MX5*%
X143321875Y-52756250D03*
D11*
X138241875Y-52756250D03*
D10*
X133161875Y-52756250D03*
D15*
X145326875Y-55296250D03*
D13*
X142051875Y-55296250D03*
D14*
X135701875Y-57836250D03*
D15*
X132399875Y-57836250D03*
%TD*%
D18*
%TO.C,J3*%
X139376875Y-75876250D03*
D19*
X136836874Y-75876249D03*
X134296874Y-75876249D03*
X131756874Y-75876249D03*
X129216874Y-75876249D03*
%TD*%
D10*
%TO.C,MX12*%
X71249375Y-71806250D03*
D11*
X76329375Y-71806250D03*
D10*
X81409375Y-71806250D03*
D12*
X69244375Y-69266250D03*
D13*
X72519375Y-69266250D03*
D14*
X78869375Y-66726250D03*
D12*
X82171375Y-66726250D03*
%TD*%
D20*
%TO.C,H3*%
X44913735Y-81331322D03*
X45397009Y-80164596D03*
X45397009Y-82498048D03*
X46563735Y-79681322D03*
D21*
X46563735Y-81331322D03*
D20*
X46563735Y-82981322D03*
X47730461Y-80164596D03*
X47730461Y-82498048D03*
X48213735Y-81331322D03*
%TD*%
D10*
%TO.C,MX24*%
X114746875Y-90856250D03*
D11*
X109666875Y-90856250D03*
D10*
X104586875Y-90856250D03*
D15*
X116751875Y-93396250D03*
D13*
X113476875Y-93396250D03*
D14*
X107126875Y-95936250D03*
D15*
X103824875Y-95936250D03*
%TD*%
D10*
%TO.C,MX22*%
X76646875Y-90856250D03*
D11*
X71566875Y-90856250D03*
D10*
X66486875Y-90856250D03*
D15*
X78651875Y-93396250D03*
D13*
X75376875Y-93396250D03*
D14*
X69026875Y-95936250D03*
D15*
X65724875Y-95936250D03*
%TD*%
D10*
%TO.C,MX29*%
X229046875Y-90856250D03*
D11*
X223966875Y-90856250D03*
D10*
X218886875Y-90856250D03*
D15*
X231051875Y-93396250D03*
D13*
X227776875Y-93396250D03*
D14*
X221426875Y-95936250D03*
D15*
X218124875Y-95936250D03*
%TD*%
D20*
%TO.C,H1*%
X67535667Y-48291395D03*
X68018941Y-47124669D03*
X68018941Y-49458121D03*
X69185667Y-46641395D03*
D21*
X69185667Y-48291395D03*
D20*
X69185667Y-49941395D03*
X70352393Y-47124669D03*
X70352393Y-49458121D03*
X70835667Y-48291395D03*
%TD*%
D10*
%TO.C,MX17*%
X176024375Y-71806250D03*
D11*
X181104375Y-71806250D03*
D10*
X186184375Y-71806250D03*
D12*
X174019375Y-69266250D03*
D13*
X177294375Y-69266250D03*
D14*
X183644375Y-66726250D03*
D12*
X186946375Y-66726250D03*
%TD*%
D10*
%TO.C,MX15*%
X128399375Y-71806250D03*
D11*
X133479375Y-71806250D03*
D10*
X138559375Y-71806250D03*
D12*
X126394375Y-69266250D03*
D13*
X129669375Y-69266250D03*
D14*
X136019375Y-66726250D03*
D12*
X139321375Y-66726250D03*
%TD*%
D10*
%TO.C,MX21*%
X57596875Y-90856250D03*
D11*
X52516875Y-90856250D03*
D10*
X47436875Y-90856250D03*
D15*
X59601875Y-93396250D03*
D13*
X56326875Y-93396250D03*
D14*
X49976875Y-95936250D03*
D15*
X46674875Y-95936250D03*
%TD*%
D10*
%TO.C,MX27*%
X190946875Y-90856250D03*
D11*
X185866875Y-90856250D03*
D10*
X180786875Y-90856250D03*
D15*
X192951875Y-93396250D03*
D13*
X189676875Y-93396250D03*
D14*
X183326875Y-95936250D03*
D15*
X180024875Y-95936250D03*
%TD*%
D10*
%TO.C,MX7*%
X181421875Y-52756250D03*
D11*
X176341875Y-52756250D03*
D10*
X171261875Y-52756250D03*
D15*
X183426875Y-55296250D03*
D13*
X180151875Y-55296250D03*
D14*
X173801875Y-57836250D03*
D15*
X170499875Y-57836250D03*
%TD*%
D10*
%TO.C,MX26*%
X161736875Y-90856250D03*
D11*
X166816875Y-90856250D03*
D10*
X171896875Y-90856250D03*
D12*
X159731875Y-88316250D03*
D13*
X163006875Y-88316250D03*
D14*
X169356875Y-85776250D03*
D12*
X172658875Y-85776250D03*
%TD*%
D10*
%TO.C,MX20*%
X235555625Y-71806250D03*
D11*
X240635625Y-71806250D03*
D10*
X245715625Y-71806250D03*
D12*
X233550625Y-69266250D03*
D13*
X236825625Y-69266250D03*
D14*
X243175625Y-66726250D03*
D12*
X246477625Y-66726250D03*
%TD*%
D11*
%TO.C,S2*%
X232380625Y-50375000D03*
X232380625Y-74187500D03*
D22*
X247620625Y-50375000D03*
X247620625Y-74187500D03*
%TD*%
D10*
%TO.C,MX4*%
X124271875Y-52756250D03*
D11*
X119191875Y-52756250D03*
D10*
X114111875Y-52756250D03*
D15*
X126276875Y-55296250D03*
D13*
X123001875Y-55296250D03*
D14*
X116651875Y-57836250D03*
D15*
X113349875Y-57836250D03*
%TD*%
D10*
%TO.C,MX32*%
X235555625Y-62281250D03*
D11*
X240635625Y-62281250D03*
D10*
X245715625Y-62281250D03*
D12*
X233550625Y-59741250D03*
D13*
X236825625Y-59741250D03*
D14*
X243175625Y-57201250D03*
D12*
X246477625Y-57201250D03*
%TD*%
D10*
%TO.C,MX14*%
X109349375Y-71806250D03*
D11*
X114429375Y-71806250D03*
D10*
X119509375Y-71806250D03*
D12*
X107344375Y-69266250D03*
D13*
X110619375Y-69266250D03*
D14*
X116969375Y-66726250D03*
D12*
X120271375Y-66726250D03*
%TD*%
D10*
%TO.C,MX23*%
X95696875Y-90856250D03*
D11*
X90616875Y-90856250D03*
D10*
X85536875Y-90856250D03*
D15*
X97701875Y-93396250D03*
D13*
X94426875Y-93396250D03*
D14*
X88076875Y-95936250D03*
D15*
X84774875Y-95936250D03*
%TD*%
D20*
%TO.C,H2*%
X224698563Y-48291395D03*
X225181837Y-47124669D03*
X225181837Y-49458121D03*
X226348563Y-46641395D03*
D21*
X226348563Y-48291395D03*
D20*
X226348563Y-49941395D03*
X227515289Y-47124669D03*
X227515289Y-49458121D03*
X227998563Y-48291395D03*
%TD*%
%TO.C,H4*%
X247320495Y-81331322D03*
X247803769Y-80164596D03*
X247803769Y-82498048D03*
X248970495Y-79681322D03*
D21*
X248970495Y-81331322D03*
D20*
X248970495Y-82981322D03*
X250137221Y-80164596D03*
X250137221Y-82498048D03*
X250620495Y-81331322D03*
%TD*%
D10*
%TO.C,MX1*%
X62359375Y-52756250D03*
D11*
X57279375Y-52756250D03*
D10*
X52199375Y-52756250D03*
D15*
X64364375Y-55296250D03*
D13*
X61089375Y-55296250D03*
D14*
X54739375Y-57836250D03*
D15*
X51437375Y-57836250D03*
%TD*%
D10*
%TO.C,MX28*%
X209996875Y-90856250D03*
D11*
X204916875Y-90856250D03*
D10*
X199836875Y-90856250D03*
D15*
X212001875Y-93396250D03*
D13*
X208726875Y-93396250D03*
D14*
X202376875Y-95936250D03*
D15*
X199074875Y-95936250D03*
%TD*%
D10*
%TO.C,MX10*%
X243334375Y-52756250D03*
D11*
X238254375Y-52756250D03*
D10*
X233174375Y-52756250D03*
D15*
X245339375Y-55296250D03*
D13*
X242064375Y-55296250D03*
D14*
X235714375Y-57836250D03*
D15*
X232412375Y-57836250D03*
%TD*%
D10*
%TO.C,MX2*%
X86171875Y-52756250D03*
D11*
X81091875Y-52756250D03*
D10*
X76011875Y-52756250D03*
D15*
X88176875Y-55296250D03*
D13*
X84901875Y-55296250D03*
D14*
X78551875Y-57836250D03*
D15*
X75249875Y-57836250D03*
%TD*%
D23*
%TO.C,S1*%
X166816875Y-97841250D03*
D11*
X166816875Y-82601250D03*
D23*
X128716875Y-97841250D03*
D11*
X128716875Y-82601250D03*
%TD*%
D10*
%TO.C,MX11*%
X49818125Y-71806250D03*
D11*
X54898125Y-71806250D03*
D10*
X59978125Y-71806250D03*
D12*
X47813125Y-69266250D03*
D13*
X51088125Y-69266250D03*
D14*
X57438125Y-66726250D03*
D12*
X60740125Y-66726250D03*
%TD*%
D10*
%TO.C,MX8*%
X200471875Y-52756250D03*
D11*
X195391875Y-52756250D03*
D10*
X190311875Y-52756250D03*
D15*
X202476875Y-55296250D03*
D13*
X199201875Y-55296250D03*
D14*
X192851875Y-57836250D03*
D15*
X189549875Y-57836250D03*
%TD*%
D10*
%TO.C,MX13*%
X90299375Y-71806250D03*
D11*
X95379375Y-71806250D03*
D10*
X100459375Y-71806250D03*
D12*
X88294375Y-69266250D03*
D13*
X91569375Y-69266250D03*
D14*
X97919375Y-66726250D03*
D12*
X101221375Y-66726250D03*
%TD*%
D10*
%TO.C,MX9*%
X219521875Y-52756250D03*
D11*
X214441875Y-52756250D03*
D10*
X209361875Y-52756250D03*
D15*
X221526875Y-55296250D03*
D13*
X218251875Y-55296250D03*
D14*
X211901875Y-57836250D03*
D15*
X208599875Y-57836250D03*
%TD*%
D24*
%TO.C,JP1*%
X61104375Y-82918750D03*
D25*
X59804375Y-82918750D03*
%TD*%
D26*
%TO.C,C1*%
X126739375Y-63351250D03*
X128814375Y-63351250D03*
%TD*%
D27*
%TO.C,U2*%
X123004374Y-60931249D03*
X123954374Y-60931249D03*
X124904374Y-60931249D03*
X124904374Y-63631249D03*
X123004374Y-63631249D03*
%TD*%
D28*
%TO.C,SW3*%
X101729375Y-79231250D03*
X101729375Y-83431250D03*
%TD*%
D29*
%TO.C,D20*%
X207160624Y-76581249D03*
X207160624Y-73381249D03*
X212060624Y-73381249D03*
X212060624Y-76581249D03*
%TD*%
%TO.C,D17*%
X83404374Y-76581249D03*
X83404374Y-73381249D03*
X88304374Y-73381249D03*
X88304374Y-76581249D03*
%TD*%
D30*
%TO.C,D11*%
X61091875Y-87537500D03*
X62991875Y-87537500D03*
X62041875Y-89412500D03*
%TD*%
%TO.C,D15*%
X232541875Y-87537500D03*
X234441875Y-87537500D03*
X233491875Y-89412500D03*
%TD*%
%TO.C,D14*%
X194441875Y-87537500D03*
X196341875Y-87537500D03*
X195391875Y-89412500D03*
%TD*%
%TO.C,D10*%
X227779375Y-64915625D03*
X229679375Y-64915625D03*
X228729375Y-66790625D03*
%TD*%
D29*
%TO.C,D19*%
X188179374Y-76581249D03*
X188179374Y-73381249D03*
X193079374Y-73381249D03*
X193079374Y-76581249D03*
%TD*%
D31*
%TO.C,J2*%
X133638125Y-81172500D03*
X138718125Y-80156500D03*
X138718125Y-82188500D03*
D32*
X134908125Y-80537500D03*
X134908125Y-81807500D03*
X136178125Y-80537500D03*
X136178125Y-81807500D03*
X137448125Y-80537500D03*
X137448125Y-81807500D03*
%TD*%
D33*
%TO.C,U1*%
X128010624Y-51918749D03*
D34*
X128010624Y-50218749D03*
X131010624Y-50218749D03*
X131010624Y-52118749D03*
%TD*%
D29*
%TO.C,D16*%
X54035624Y-78962499D03*
X54035624Y-75762499D03*
X58935624Y-75762499D03*
X58935624Y-78962499D03*
%TD*%
%TO.C,D18*%
X102454374Y-76581249D03*
X102454374Y-73381249D03*
X107354374Y-73381249D03*
X107354374Y-76581249D03*
%TD*%
D35*
%TO.C,C5*%
X109666875Y-76018750D03*
X109666875Y-73943750D03*
%TD*%
D30*
%TO.C,D3*%
X146816875Y-58962500D03*
X148716875Y-58962500D03*
X147766875Y-60837500D03*
%TD*%
D36*
%TO.C,R2*%
X155101250Y-47993750D03*
X157101250Y-47993750D03*
%TD*%
D30*
%TO.C,D9*%
X189679375Y-64915625D03*
X191579375Y-64915625D03*
X190629375Y-66790625D03*
%TD*%
%TO.C,D6*%
X65854375Y-64915625D03*
X67754375Y-64915625D03*
X66804375Y-66790625D03*
%TD*%
D37*
%TO.C,C10*%
X108323125Y-87681250D03*
X106248125Y-87681250D03*
%TD*%
D30*
%TO.C,D7*%
X103954375Y-64915625D03*
X105854375Y-64915625D03*
X104904375Y-66790625D03*
%TD*%
D37*
%TO.C,C6*%
X108323125Y-85300000D03*
X106248125Y-85300000D03*
%TD*%
D38*
%TO.C,R1*%
X140432500Y-47993750D03*
X138432500Y-47993750D03*
%TD*%
D26*
%TO.C,C4*%
X122123125Y-78156250D03*
X124198125Y-78156250D03*
%TD*%
D30*
%TO.C,D5*%
X223016875Y-58962500D03*
X224916875Y-58962500D03*
X223966875Y-60837500D03*
%TD*%
%TO.C,D8*%
X146816875Y-82313727D03*
X148716875Y-82313727D03*
X147766875Y-84188727D03*
%TD*%
%TO.C,D4*%
X184916875Y-58962500D03*
X186816875Y-58962500D03*
X185866875Y-60837500D03*
%TD*%
D26*
%TO.C,C8*%
X122123125Y-82918750D03*
X124198125Y-82918750D03*
%TD*%
D30*
%TO.C,D2*%
X108716875Y-58962500D03*
X110616875Y-58962500D03*
X109666875Y-60837500D03*
%TD*%
D39*
%TO.C,R4*%
X104904375Y-79537500D03*
X104904375Y-81537500D03*
%TD*%
D40*
%TO.C,J1*%
X144876875Y-48053750D03*
X150656875Y-48053750D03*
D41*
X144416874Y-49393749D03*
X145216874Y-49393749D03*
X146516874Y-49393749D03*
X147516874Y-49393749D03*
X148016874Y-49393749D03*
X149016874Y-49393749D03*
X150316874Y-49393749D03*
X151116874Y-49393749D03*
X150816874Y-49393749D03*
X150016874Y-49393749D03*
X149516874Y-49393749D03*
X148516874Y-49393749D03*
X147016874Y-49393749D03*
X146016874Y-49393749D03*
X145516874Y-49393749D03*
X144716874Y-49393749D03*
D42*
X143446874Y-44373749D03*
D43*
X143446874Y-48553749D03*
D42*
X152086874Y-44373749D03*
D43*
X152086874Y-48553749D03*
%TD*%
D30*
%TO.C,D1*%
X70616875Y-58962500D03*
X72516875Y-58962500D03*
X71566875Y-60837500D03*
%TD*%
D44*
%TO.C,U3*%
X117179375Y-85493750D03*
X116679375Y-85493750D03*
X116179375Y-85493750D03*
X115679375Y-85493750D03*
X115179375Y-85493750D03*
X114679375Y-85493750D03*
X114179375Y-85493750D03*
X113679375Y-85493750D03*
X113179375Y-85493750D03*
X112679375Y-85493750D03*
X112179375Y-85493750D03*
X111679375Y-85493750D03*
D45*
X110266875Y-84081250D03*
X110266875Y-83581250D03*
X110266875Y-83081250D03*
X110266875Y-82581250D03*
X110266875Y-82081250D03*
X110266875Y-81581250D03*
X110266875Y-81081250D03*
X110266875Y-80581250D03*
X110266875Y-80081250D03*
X110266875Y-79581250D03*
X110266875Y-79081250D03*
X110266875Y-78581250D03*
D44*
X111679375Y-77168750D03*
X112179375Y-77168750D03*
X112679375Y-77168750D03*
X113179375Y-77168750D03*
X113679375Y-77168750D03*
X114179375Y-77168750D03*
X114679375Y-77168750D03*
X115179375Y-77168750D03*
X115679375Y-77168750D03*
X116179375Y-77168750D03*
X116679375Y-77168750D03*
X117179375Y-77168750D03*
D45*
X118591875Y-78581250D03*
X118591875Y-79081250D03*
X118591875Y-79581250D03*
X118591875Y-80081250D03*
X118591875Y-80581250D03*
X118591875Y-81081250D03*
X118591875Y-81581250D03*
X118591875Y-82081250D03*
X118591875Y-82581250D03*
X118591875Y-83081250D03*
X118591875Y-83581250D03*
X118591875Y-84081250D03*
%TD*%
D46*
%TO.C,F2*%
X135066875Y-48093750D03*
X135066875Y-51068750D03*
%TD*%
D26*
%TO.C,C7*%
X122123125Y-80537500D03*
X124198125Y-80537500D03*
%TD*%
D30*
%TO.C,D12*%
X99191875Y-87537500D03*
X101091875Y-87537500D03*
X100141875Y-89412500D03*
%TD*%
D38*
%TO.C,R3*%
X57485625Y-82918750D03*
X55485625Y-82918750D03*
%TD*%
D30*
%TO.C,D13*%
X146816875Y-85754981D03*
X148716875Y-85754981D03*
X147766875Y-87629981D03*
%TD*%
D26*
%TO.C,C9*%
X122123125Y-75775000D03*
X124198125Y-75775000D03*
%TD*%
D29*
%TO.C,D21*%
X236598124Y-78962499D03*
X236598124Y-75762499D03*
X241498124Y-75762499D03*
X241498124Y-78962499D03*
%TD*%
M02*
