M48
; DRILL file {KiCad (7.0.0)} date Mon Mar 25 14:15:01 2024
; FORMAT={-:-/ absolute / inch / decimal}
; #@! TF.CreationDate,2024-03-25T14:15:01+01:00
; #@! TF.GenerationSoftware,Kicad,Pcbnew,(7.0.0)
; #@! TF.FileFunction,Plated,1,2,PTH
FMAT,2
INCH
; #@! TA.AperFunction,Plated,PTH,ViaDrill
T1C0.0118
; #@! TA.AperFunction,Plated,PTH,ViaDrill
T2C0.0157
; #@! TA.AperFunction,Plated,PTH,ComponentDrill
T3C0.0157
; #@! TA.AperFunction,Plated,PTH,ComponentDrill
T4C0.0197
; #@! TA.AperFunction,Plated,PTH,ComponentDrill
T5C0.0236
; #@! TA.AperFunction,Plated,PTH,ComponentDrill
T6C0.0394
; #@! TA.AperFunction,Plated,PTH,ComponentDrill
T7C0.0866
; #@! TA.AperFunction,Plated,PTH,ComponentDrill
T8C0.1181
; #@! TA.AperFunction,Plated,PTH,ComponentDrill
T9C0.1200
%
G90
G05
T1
X2.4426Y-3.4364
X2.6301Y-2.4989
X2.8176Y-2.452
X3.1926Y-3.3895
X3.1926Y-3.4833
X3.5207Y-3.3895
X3.5207Y-3.4833
X3.9426Y-3.4364
X4.1301Y-2.4989
X4.3176Y-2.3114
X4.4539Y-3.4556
X5.3865Y-3.4199
X5.7188Y-1.8148
X5.7853Y-1.8829
X5.8176Y-2.3114
X5.8176Y-3.2489
X5.8176Y-3.3895
X5.8751Y-1.8833
X5.942Y-1.814
X7.3176Y-2.3114
X7.5051Y-2.4989
X7.6926Y-3.4364
X8.8176Y-2.452
X9.0051Y-2.4989
X9.1926Y-3.4364
X9.5738Y-3.3895
T2
X2.0649Y-3.1083
X2.3774Y-2.9833
X2.3774Y-3.1083
X2.4738Y-3.2645
X3.2238Y-2.8895
X3.2238Y-3.0145
X3.5363Y-2.8895
X3.5363Y-3.0145
X3.9738Y-2.8895
X3.9738Y-3.0145
X4.0051Y-3.1708
X4.0309Y-3.4364
X4.1301Y-3.077
X4.1301Y-3.3895
X4.1301Y-3.4649
X4.1747Y-2.6207
X4.1763Y-2.8895
X4.1926Y-3.1708
X4.2238Y-2.952
X4.3176Y-3.4079
X4.3488Y-3.0458
X4.3488Y-3.3583
X4.3801Y-2.827
X4.4159Y-3.2305
X4.4426Y-2.9833
X4.5041Y-3.3145
X4.5051Y-3.202
X4.6218Y-3.2321
X4.6218Y-3.173
X4.6926Y-3.0458
X4.6926Y-3.3895
X4.731Y-3.3103
X4.7424Y-3.216
X4.7458Y-3.2552
X4.76Y-2.9881
X4.7784Y-3.3572
X4.8365Y-3.3583
X4.9426Y-2.9833
X4.9426Y-3.077
X4.9426Y-3.1708
X4.9426Y-3.2645
X4.9453Y-3.3207
X4.9738Y-2.0458
X5.0051Y-3.0458
X5.0051Y-3.0992
X5.0051Y-3.3895
X5.0384Y-3.3562
X5.1994Y-2.0111
X5.3176Y-3.1083
X5.3488Y-3.2645
X5.3569Y-3.1083
X7.3488Y-2.8895
X7.3488Y-3.0145
X7.6613Y-2.8895
X7.6613Y-3.0145
X8.0988Y-2.8895
X8.0988Y-3.0145
X8.4113Y-2.8895
X8.4113Y-3.0145
X9.2551Y-2.9833
X9.2551Y-3.1083
X9.4426Y-2.9833
T3
X1.7683Y-3.202
X1.7873Y-3.1561
X1.7873Y-3.248
X1.8332Y-3.1371
X1.8332Y-3.267
X1.8792Y-3.1561
X1.8792Y-3.248
X1.8982Y-3.202
X2.6589Y-1.9012
X2.6779Y-1.8553
X2.6779Y-1.9472
X2.7238Y-1.8363
X2.7238Y-1.9662
X2.7698Y-1.8553
X2.7698Y-1.9472
X2.7888Y-1.9012
X8.8464Y-1.9012
X8.8654Y-1.8553
X8.8654Y-1.9472
X8.9114Y-1.8363
X8.9114Y-1.9662
X8.9573Y-1.8553
X8.9573Y-1.9472
X8.9763Y-1.9012
X9.737Y-3.202
X9.7561Y-3.1561
X9.7561Y-3.248
X9.802Y-3.1371
X9.802Y-3.267
X9.8479Y-3.1561
X9.8479Y-3.248
X9.8669Y-3.202
T6
X5.0873Y-2.9873
X5.1873Y-2.9873
X5.2873Y-2.9873
X5.3873Y-2.9873
X5.4873Y-2.9873
X5.5223Y-3.4786
X5.5223Y-3.577
X5.5223Y-3.6754
X6.0932Y-3.4786
X6.0932Y-3.6754
T7
X1.8332Y-3.202
X2.7238Y-1.9012
X8.9114Y-1.9012
X9.802Y-3.202
T8
X1.9676Y-3.777
X2.0113Y-2.727
X2.1551Y-2.277
X2.2176Y-3.677
X2.2613Y-2.627
X2.4051Y-2.177
X2.7176Y-3.777
X2.8551Y-2.727
X2.9676Y-3.677
X3.0926Y-2.277
X3.1051Y-2.627
X3.3426Y-2.177
X3.4676Y-3.777
X3.6051Y-2.727
X3.7176Y-3.677
X3.8426Y-2.277
X3.8551Y-2.627
X4.0926Y-2.177
X4.2176Y-3.777
X4.3551Y-2.727
X4.4676Y-3.677
X4.5926Y-2.277
X4.6051Y-2.627
X4.8426Y-2.177
X4.9176Y-3.477
X5.1051Y-2.727
X5.1676Y-3.377
X5.3426Y-2.277
X5.3551Y-2.627
X5.5926Y-2.177
X5.7176Y-3.777
X5.9676Y-3.677
X6.0926Y-2.277
X6.2301Y-2.727
X6.3426Y-2.177
X6.4176Y-3.477
X6.4801Y-2.627
X6.6676Y-3.377
X6.8426Y-2.277
X6.9801Y-2.727
X7.0926Y-2.177
X7.2176Y-3.777
X7.2301Y-2.627
X7.4676Y-3.677
X7.5926Y-2.277
X7.7301Y-2.727
X7.8426Y-2.177
X7.9676Y-3.777
X7.9801Y-2.627
X8.2176Y-3.677
X8.3426Y-2.277
X8.4801Y-2.727
X8.5926Y-2.177
X8.7176Y-3.777
X8.7301Y-2.627
X8.9676Y-3.677
X9.2801Y-2.277
X9.3238Y-2.352
X9.3238Y-2.727
X9.4676Y-3.777
X9.5301Y-2.177
X9.5738Y-2.252
X9.5738Y-2.627
X9.7176Y-3.677
T9
X5.0676Y-3.852
X6.5676Y-3.852
T4
G00X5.6475Y-1.8879
M15
G01X5.6475Y-1.9352
M16
G05
G00X5.9877Y-1.8879
M15
G01X5.9877Y-1.9352
M16
G05
T5
G00X5.6475Y-1.7352
M15
G01X5.6475Y-1.7588
M16
G05
G00X5.9877Y-1.7352
M15
G01X5.9877Y-1.7588
M16
G05
T0
M30
