%TF.GenerationSoftware,KiCad,Pcbnew,(7.0.0)*%
%TF.CreationDate,2024-03-03T14:50:31+01:00*%
%TF.ProjectId,kicad_tsuru,6b696361-645f-4747-9375-72752e6b6963,rev?*%
%TF.SameCoordinates,Original*%
%TF.FileFunction,Other,Comment*%
%FSLAX46Y46*%
G04 Gerber Fmt 4.6, Leading zero omitted, Abs format (unit mm)*
G04 Created by KiCad (PCBNEW (7.0.0)) date 2024-03-03 14:50:31*
%MOMM*%
%LPD*%
G01*
G04 APERTURE LIST*
%ADD10C,0.150000*%
%ADD11C,0.070000*%
G04 APERTURE END LIST*
D10*
%TO.C,S2*%
X237849910Y-70776630D02*
X237849910Y-69776630D01*
X237849910Y-69776630D02*
X238183243Y-70490916D01*
X238183243Y-70490916D02*
X238516576Y-69776630D01*
X238516576Y-69776630D02*
X238516576Y-70776630D01*
X238897529Y-69776630D02*
X239564195Y-70776630D01*
X239564195Y-69776630D02*
X238897529Y-70776630D01*
X239707053Y-70871869D02*
X240468957Y-70871869D01*
X240659434Y-70729011D02*
X240754672Y-70776630D01*
X240754672Y-70776630D02*
X240945148Y-70776630D01*
X240945148Y-70776630D02*
X241040386Y-70729011D01*
X241040386Y-70729011D02*
X241088005Y-70633773D01*
X241088005Y-70633773D02*
X241088005Y-70586154D01*
X241088005Y-70586154D02*
X241040386Y-70490916D01*
X241040386Y-70490916D02*
X240945148Y-70443297D01*
X240945148Y-70443297D02*
X240802291Y-70443297D01*
X240802291Y-70443297D02*
X240707053Y-70395678D01*
X240707053Y-70395678D02*
X240659434Y-70300440D01*
X240659434Y-70300440D02*
X240659434Y-70252821D01*
X240659434Y-70252821D02*
X240707053Y-70157583D01*
X240707053Y-70157583D02*
X240802291Y-70109964D01*
X240802291Y-70109964D02*
X240945148Y-70109964D01*
X240945148Y-70109964D02*
X241040386Y-70157583D01*
X241373720Y-70109964D02*
X241754672Y-70109964D01*
X241516577Y-69776630D02*
X241516577Y-70633773D01*
X241516577Y-70633773D02*
X241564196Y-70729011D01*
X241564196Y-70729011D02*
X241659434Y-70776630D01*
X241659434Y-70776630D02*
X241754672Y-70776630D01*
X242516577Y-70776630D02*
X242516577Y-70252821D01*
X242516577Y-70252821D02*
X242468958Y-70157583D01*
X242468958Y-70157583D02*
X242373720Y-70109964D01*
X242373720Y-70109964D02*
X242183244Y-70109964D01*
X242183244Y-70109964D02*
X242088006Y-70157583D01*
X242516577Y-70729011D02*
X242421339Y-70776630D01*
X242421339Y-70776630D02*
X242183244Y-70776630D01*
X242183244Y-70776630D02*
X242088006Y-70729011D01*
X242088006Y-70729011D02*
X242040387Y-70633773D01*
X242040387Y-70633773D02*
X242040387Y-70538535D01*
X242040387Y-70538535D02*
X242088006Y-70443297D01*
X242088006Y-70443297D02*
X242183244Y-70395678D01*
X242183244Y-70395678D02*
X242421339Y-70395678D01*
X242421339Y-70395678D02*
X242516577Y-70348059D01*
X242992768Y-70776630D02*
X242992768Y-69776630D01*
X242992768Y-70157583D02*
X243088006Y-70109964D01*
X243088006Y-70109964D02*
X243278482Y-70109964D01*
X243278482Y-70109964D02*
X243373720Y-70157583D01*
X243373720Y-70157583D02*
X243421339Y-70205202D01*
X243421339Y-70205202D02*
X243468958Y-70300440D01*
X243468958Y-70300440D02*
X243468958Y-70586154D01*
X243468958Y-70586154D02*
X243421339Y-70681392D01*
X243421339Y-70681392D02*
X243373720Y-70729011D01*
X243373720Y-70729011D02*
X243278482Y-70776630D01*
X243278482Y-70776630D02*
X243088006Y-70776630D01*
X243088006Y-70776630D02*
X242992768Y-70729011D01*
%TO.C,S1*%
X144981160Y-83095630D02*
X144981160Y-82095630D01*
X144981160Y-82095630D02*
X145314493Y-82809916D01*
X145314493Y-82809916D02*
X145647826Y-82095630D01*
X145647826Y-82095630D02*
X145647826Y-83095630D01*
X146028779Y-82095630D02*
X146695445Y-83095630D01*
X146695445Y-82095630D02*
X146028779Y-83095630D01*
X146838303Y-83190869D02*
X147600207Y-83190869D01*
X147790684Y-83048011D02*
X147885922Y-83095630D01*
X147885922Y-83095630D02*
X148076398Y-83095630D01*
X148076398Y-83095630D02*
X148171636Y-83048011D01*
X148171636Y-83048011D02*
X148219255Y-82952773D01*
X148219255Y-82952773D02*
X148219255Y-82905154D01*
X148219255Y-82905154D02*
X148171636Y-82809916D01*
X148171636Y-82809916D02*
X148076398Y-82762297D01*
X148076398Y-82762297D02*
X147933541Y-82762297D01*
X147933541Y-82762297D02*
X147838303Y-82714678D01*
X147838303Y-82714678D02*
X147790684Y-82619440D01*
X147790684Y-82619440D02*
X147790684Y-82571821D01*
X147790684Y-82571821D02*
X147838303Y-82476583D01*
X147838303Y-82476583D02*
X147933541Y-82428964D01*
X147933541Y-82428964D02*
X148076398Y-82428964D01*
X148076398Y-82428964D02*
X148171636Y-82476583D01*
X148504970Y-82428964D02*
X148885922Y-82428964D01*
X148647827Y-82095630D02*
X148647827Y-82952773D01*
X148647827Y-82952773D02*
X148695446Y-83048011D01*
X148695446Y-83048011D02*
X148790684Y-83095630D01*
X148790684Y-83095630D02*
X148885922Y-83095630D01*
X149647827Y-83095630D02*
X149647827Y-82571821D01*
X149647827Y-82571821D02*
X149600208Y-82476583D01*
X149600208Y-82476583D02*
X149504970Y-82428964D01*
X149504970Y-82428964D02*
X149314494Y-82428964D01*
X149314494Y-82428964D02*
X149219256Y-82476583D01*
X149647827Y-83048011D02*
X149552589Y-83095630D01*
X149552589Y-83095630D02*
X149314494Y-83095630D01*
X149314494Y-83095630D02*
X149219256Y-83048011D01*
X149219256Y-83048011D02*
X149171637Y-82952773D01*
X149171637Y-82952773D02*
X149171637Y-82857535D01*
X149171637Y-82857535D02*
X149219256Y-82762297D01*
X149219256Y-82762297D02*
X149314494Y-82714678D01*
X149314494Y-82714678D02*
X149552589Y-82714678D01*
X149552589Y-82714678D02*
X149647827Y-82667059D01*
X150124018Y-83095630D02*
X150124018Y-82095630D01*
X150124018Y-82476583D02*
X150219256Y-82428964D01*
X150219256Y-82428964D02*
X150409732Y-82428964D01*
X150409732Y-82428964D02*
X150504970Y-82476583D01*
X150504970Y-82476583D02*
X150552589Y-82524202D01*
X150552589Y-82524202D02*
X150600208Y-82619440D01*
X150600208Y-82619440D02*
X150600208Y-82905154D01*
X150600208Y-82905154D02*
X150552589Y-83000392D01*
X150552589Y-83000392D02*
X150504970Y-83048011D01*
X150504970Y-83048011D02*
X150409732Y-83095630D01*
X150409732Y-83095630D02*
X150219256Y-83095630D01*
X150219256Y-83095630D02*
X150124018Y-83048011D01*
D11*
%TO.C,J2*%
X134940029Y-81319452D02*
X134940029Y-80919452D01*
X135168600Y-81319452D02*
X134997171Y-81090880D01*
X135168600Y-80919452D02*
X134940029Y-81148023D01*
X135340029Y-81109928D02*
X135473362Y-81109928D01*
X135530505Y-81319452D02*
X135340029Y-81319452D01*
X135340029Y-81319452D02*
X135340029Y-80919452D01*
X135340029Y-80919452D02*
X135530505Y-80919452D01*
X135701934Y-81109928D02*
X135835267Y-81109928D01*
X135892410Y-81319452D02*
X135701934Y-81319452D01*
X135701934Y-81319452D02*
X135701934Y-80919452D01*
X135701934Y-80919452D02*
X135892410Y-80919452D01*
X136063839Y-81319452D02*
X136063839Y-80919452D01*
X136063839Y-80919452D02*
X136216220Y-80919452D01*
X136216220Y-80919452D02*
X136254315Y-80938500D01*
X136254315Y-80938500D02*
X136273362Y-80957547D01*
X136273362Y-80957547D02*
X136292410Y-80995642D01*
X136292410Y-80995642D02*
X136292410Y-81052785D01*
X136292410Y-81052785D02*
X136273362Y-81090880D01*
X136273362Y-81090880D02*
X136254315Y-81109928D01*
X136254315Y-81109928D02*
X136216220Y-81128976D01*
X136216220Y-81128976D02*
X136063839Y-81128976D01*
X136540029Y-80919452D02*
X136616220Y-80919452D01*
X136616220Y-80919452D02*
X136654315Y-80938500D01*
X136654315Y-80938500D02*
X136692410Y-80976595D01*
X136692410Y-80976595D02*
X136711458Y-81052785D01*
X136711458Y-81052785D02*
X136711458Y-81186119D01*
X136711458Y-81186119D02*
X136692410Y-81262309D01*
X136692410Y-81262309D02*
X136654315Y-81300404D01*
X136654315Y-81300404D02*
X136616220Y-81319452D01*
X136616220Y-81319452D02*
X136540029Y-81319452D01*
X136540029Y-81319452D02*
X136501934Y-81300404D01*
X136501934Y-81300404D02*
X136463839Y-81262309D01*
X136463839Y-81262309D02*
X136444791Y-81186119D01*
X136444791Y-81186119D02*
X136444791Y-81052785D01*
X136444791Y-81052785D02*
X136463839Y-80976595D01*
X136463839Y-80976595D02*
X136501934Y-80938500D01*
X136501934Y-80938500D02*
X136540029Y-80919452D01*
X136882887Y-80919452D02*
X136882887Y-81243261D01*
X136882887Y-81243261D02*
X136901934Y-81281357D01*
X136901934Y-81281357D02*
X136920982Y-81300404D01*
X136920982Y-81300404D02*
X136959077Y-81319452D01*
X136959077Y-81319452D02*
X137035268Y-81319452D01*
X137035268Y-81319452D02*
X137073363Y-81300404D01*
X137073363Y-81300404D02*
X137092410Y-81281357D01*
X137092410Y-81281357D02*
X137111458Y-81243261D01*
X137111458Y-81243261D02*
X137111458Y-80919452D01*
X137244792Y-80919452D02*
X137473363Y-80919452D01*
X137359077Y-81319452D02*
X137359077Y-80919452D01*
D10*
%TO.C,H3*%
X48763735Y-81331322D02*
G75*
G03*
X48763735Y-81331322I-2200000J0D01*
G01*
%TO.C,H1*%
X71385667Y-48291395D02*
G75*
G03*
X71385667Y-48291395I-2200000J0D01*
G01*
%TO.C,H2*%
X228548563Y-48291395D02*
G75*
G03*
X228548563Y-48291395I-2200000J0D01*
G01*
%TO.C,H4*%
X251170495Y-81331322D02*
G75*
G03*
X251170495Y-81331322I-2200000J0D01*
G01*
%TD*%
M02*
