M48
; DRILL file {KiCad (7.0.0)} date Sun Mar  3 14:50:31 2024
; FORMAT={-:-/ absolute / inch / decimal}
; #@! TF.CreationDate,2024-03-03T14:50:31+01:00
; #@! TF.GenerationSoftware,Kicad,Pcbnew,(7.0.0)
; #@! TF.FileFunction,NonPlated,1,2,NPTH
FMAT,2
INCH
; #@! TA.AperFunction,NonPlated,NPTH,ComponentDrill
T1C0.0256
; #@! TA.AperFunction,NonPlated,NPTH,ComponentDrill
T2C0.0390
; #@! TA.AperFunction,NonPlated,NPTH,ComponentDrill
T3C0.0689
; #@! TA.AperFunction,NonPlated,NPTH,ComponentDrill
T4C0.1200
; #@! TA.AperFunction,NonPlated,NPTH,ComponentDrill
T5C0.1570
%
G90
G05
T1
X5.7038Y-1.8919
X5.9314Y-1.8919
T2
X5.2613Y-3.1958
X5.4613Y-3.1558
X5.4613Y-3.2358
T3
X1.8676Y-3.577
X1.9613Y-2.827
X2.0551Y-2.077
X2.2676Y-3.577
X2.3613Y-2.827
X2.4551Y-2.077
X2.6176Y-3.577
X2.8051Y-2.827
X2.9926Y-2.077
X3.0176Y-3.577
X3.2051Y-2.827
X3.3676Y-3.577
X3.3926Y-2.077
X3.5551Y-2.827
X3.7426Y-2.077
X3.7676Y-3.577
X3.9551Y-2.827
X4.1176Y-3.577
X4.1426Y-2.077
X4.3051Y-2.827
X4.4926Y-2.077
X4.5176Y-3.577
X4.7051Y-2.827
X4.8676Y-3.577
X4.8926Y-2.077
X5.0551Y-2.827
X5.2426Y-2.077
X5.2676Y-3.577
X5.4551Y-2.827
X5.6176Y-3.577
X5.6426Y-2.077
X5.9926Y-2.077
X6.0176Y-3.577
X6.1801Y-2.827
X6.3676Y-3.577
X6.3926Y-2.077
X6.5801Y-2.827
X6.7426Y-2.077
X6.7676Y-3.577
X6.9301Y-2.827
X7.1176Y-3.577
X7.1426Y-2.077
X7.3301Y-2.827
X7.4926Y-2.077
X7.5176Y-3.577
X7.6801Y-2.827
X7.8676Y-3.577
X7.8926Y-2.077
X8.0801Y-2.827
X8.2426Y-2.077
X8.2676Y-3.577
X8.4301Y-2.827
X8.6176Y-3.577
X8.6426Y-2.077
X8.8301Y-2.827
X9.0176Y-3.577
X9.1801Y-2.077
X9.2738Y-2.452
X9.2738Y-2.827
X9.3676Y-3.577
X9.5801Y-2.077
X9.6738Y-2.452
X9.6738Y-2.827
X9.7676Y-3.577
T4
X9.7488Y-1.9833
X9.7488Y-2.9208
T5
X2.0676Y-3.577
X2.1613Y-2.827
X2.2551Y-2.077
X2.8176Y-3.577
X3.0051Y-2.827
X3.1926Y-2.077
X3.5676Y-3.577
X3.7551Y-2.827
X3.9426Y-2.077
X4.3176Y-3.577
X4.5051Y-2.827
X4.6926Y-2.077
X5.0676Y-3.252
X5.0676Y-3.577
X5.2551Y-2.827
X5.4426Y-2.077
X5.8176Y-3.577
X6.1926Y-2.077
X6.3801Y-2.827
X6.5676Y-3.252
X6.5676Y-3.577
X6.9426Y-2.077
X7.1301Y-2.827
X7.3176Y-3.577
X7.6926Y-2.077
X7.8801Y-2.827
X8.0676Y-3.577
X8.4426Y-2.077
X8.6301Y-2.827
X8.8176Y-3.577
X9.1488Y-1.9833
X9.1488Y-2.9208
X9.3801Y-2.077
X9.4738Y-2.452
X9.4738Y-2.827
X9.5676Y-3.577
T0
M30
